<svg width="305" height="273" viewBox="0 0 305 273" fill="none" xmlns="http://www.w3.org/2000/svg">
<path fill-rule="evenodd" clip-rule="evenodd" d="M197.862 349.871C212.541 349.871 221.798 361.931 221.798 373.807C221.798 378.945 219.47 383.88 217.016 387.679C215.702 389.711 214.254 391.567 212.876 393.143C222.649 397.956 229.777 407.323 231.492 418.476L231.528 418.732C232.196 424.103 227.66 427.916 223.075 427.916H172.648C167.991 427.916 163.385 423.981 164.231 418.476L164.357 417.714C166.223 407.185 172.927 398.33 182.09 393.527C180.612 391.873 179.035 389.879 177.613 387.679C175.159 383.88 172.831 378.945 172.831 373.807C172.831 361.931 182.088 349.871 196.767 349.871C196.952 349.871 197.135 349.884 197.314 349.907C197.494 349.884 197.677 349.871 197.862 349.871ZM209.756 401.724C209.755 408.594 204.185 414.164 197.315 414.164C190.445 414.164 184.874 408.594 184.874 401.724V401.659C178.501 405.425 173.903 411.876 172.643 419.455L172.648 419.456H223.075L223.08 419.455C221.748 411.45 216.693 404.703 209.756 401.05V401.724ZM197.862 398.119C196.317 398.119 194.804 398.257 193.335 398.52V401.724C193.335 403.922 195.117 405.704 197.315 405.704C199.513 405.704 201.295 403.921 201.296 401.724V398.349C200.173 398.198 199.027 398.119 197.862 398.119ZM197.314 358.295C197.135 358.318 196.952 358.332 196.767 358.332C187.362 358.332 181.292 365.978 181.292 373.807C181.292 376.55 182.613 379.827 184.72 383.089C186.333 385.587 188.211 387.771 189.706 389.282H204.923C206.418 387.771 208.296 385.587 209.909 383.089C212.016 379.827 213.337 376.55 213.337 373.807C213.337 365.978 207.267 358.332 197.862 358.332C197.677 358.332 197.494 358.318 197.314 358.295Z" fill="white"/>
<path d="M357.707 280.748C340.128 328.366 301.809 365.93 253.701 382.484L248.095 384.413V374.541L250.941 373.556C296.163 357.901 332.21 322.571 348.836 277.811L349.859 275.053H359.81L357.707 280.748Z" fill="white"/>
<path d="M48.085 277.811C63.8809 320.337 97.2085 354.352 139.281 371.067L141.95 372.127V382.166L136.166 379.883C91.7284 362.337 56.4777 326.582 39.6064 281.808L39.2119 280.748L37.1094 275.053H47.0615L48.085 277.811Z" fill="white"/>
<path d="M166.332 369.582C168.567 369.695 170.345 371.544 170.345 373.807C170.345 376.07 168.567 377.918 166.332 378.031L166.114 378.037H160.641C158.304 378.037 156.41 376.143 156.41 373.807C156.41 371.471 158.305 369.576 160.641 369.576H166.114L166.332 369.582Z" fill="white"/>
<path d="M235.301 369.582C237.536 369.695 239.313 371.544 239.313 373.807C239.313 376.07 237.536 377.918 235.301 378.031L235.083 378.037H229.609C227.273 378.037 225.379 376.143 225.379 373.807C225.379 371.471 227.273 369.576 229.609 369.576H235.083L235.301 369.582Z" fill="white"/>
<path d="M167.502 344.542C169.154 342.89 171.833 342.89 173.485 344.542L177.355 348.412L177.505 348.57C179.005 350.231 178.956 352.795 177.355 354.396C175.755 355.996 173.192 356.045 171.531 354.545L171.373 354.396L167.502 350.524C165.85 348.873 165.85 346.194 167.502 344.542Z" fill="white"/>
<path d="M221.73 344.542C223.382 342.89 226.061 342.89 227.713 344.542C229.365 346.194 229.365 348.872 227.713 350.524L223.843 354.396L223.685 354.545C222.024 356.045 219.46 355.996 217.859 354.396C216.259 352.795 216.21 350.231 217.71 348.57L217.859 348.412L221.73 344.542Z" fill="white"/>
<path d="M196.768 332.355C199.104 332.356 200.997 334.25 200.997 336.586V342.06L200.991 342.277C200.878 344.512 199.03 346.29 196.767 346.29C194.504 346.29 192.655 344.512 192.542 342.277L192.536 342.06V336.586C192.536 334.25 194.431 332.355 196.768 332.355Z" fill="white"/>
<path d="M198.461 196.768C206.689 196.768 213.359 203.438 213.359 211.666C213.359 219.894 206.689 226.565 198.461 226.565C190.233 226.565 183.562 219.894 183.562 211.666C183.563 203.438 190.233 196.768 198.461 196.768Z" fill="white"/>
<path fill-rule="evenodd" clip-rule="evenodd" d="M199.033 130.69C200.093 130.545 201.209 130.799 202.135 131.489C219.02 144.076 242.681 178.301 240.855 232.796L262.608 249.82C265.298 251.925 266.87 255.151 266.87 258.566V300.693C266.87 308.771 258.521 314.147 251.168 310.805L223.906 298.412H174.16L146.899 310.805C139.546 314.147 131.197 308.771 131.197 300.693V258.566C131.197 255.151 132.769 251.925 135.459 249.82L157.211 232.796C155.386 178.301 179.048 144.076 195.933 131.489C196.858 130.799 197.973 130.545 199.033 130.69ZM140.673 256.482C140.032 256.984 139.658 257.753 139.658 258.566V300.693C139.658 302.618 141.647 303.899 143.399 303.103L168.045 291.899C162.377 274.248 159.168 257.956 157.841 243.045L140.673 256.482ZM240.226 243.045C238.898 257.956 235.688 274.248 230.021 291.899L254.668 303.103C256.42 303.899 258.409 302.618 258.409 300.693V258.566C258.409 257.753 258.035 256.984 257.395 256.482L240.226 243.045ZM199.033 139.817C184.554 151.895 163.882 183.028 165.673 232.915C166.086 233.873 166.121 234.938 165.806 235.903C166.663 252.022 169.855 270.041 176.306 289.951H221.762C228.212 270.041 231.403 252.021 232.26 235.901C231.945 234.937 231.981 233.872 232.394 232.915C234.184 183.027 213.513 151.894 199.033 139.817Z" fill="white"/>
<path fill-rule="evenodd" clip-rule="evenodd" d="M41.4512 177.964C56.1299 177.964 65.3866 190.023 65.3867 201.899C65.3866 207.038 63.0585 211.973 60.6045 215.771C59.2915 217.804 57.8435 219.659 56.4658 221.234C66.2393 226.048 73.3664 235.414 75.082 246.567L75.1182 246.824C75.7855 252.195 71.2499 256.008 66.665 256.008H16.2383C11.5807 256.008 6.97448 252.073 7.82129 246.567L7.94727 245.806C9.81285 235.277 16.5165 226.421 25.6797 221.619C24.2022 219.965 22.6244 217.971 21.2031 215.771C18.7492 211.973 16.421 207.038 16.4209 201.899C16.421 190.023 25.6777 177.964 40.3564 177.964C40.5418 177.964 40.7243 177.976 40.9033 177.999C41.0827 177.976 41.2655 177.964 41.4512 177.964ZM53.3457 229.815C53.3454 236.686 47.7754 242.255 40.9053 242.256C34.0348 242.256 28.4642 236.686 28.4639 229.815V229.751C22.0908 233.516 17.493 239.968 16.2324 247.547L16.2383 247.548H66.665L66.6699 247.547C65.3383 239.541 60.283 232.794 53.3457 229.142V229.815ZM41.4521 226.211C39.9073 226.211 38.3943 226.349 36.9248 226.611V229.815C36.9252 232.014 38.7071 233.796 40.9053 233.796C43.103 233.795 44.8854 232.013 44.8857 229.815V226.44C43.7626 226.29 42.6165 226.211 41.4521 226.211ZM40.9033 186.388C40.7242 186.411 40.5418 186.425 40.3564 186.425C30.9513 186.425 24.8819 194.071 24.8818 201.899C24.882 204.643 26.2024 207.92 28.3096 211.182C29.9233 213.68 31.8008 215.864 33.2959 217.375H48.5117C50.0069 215.864 51.8843 213.68 53.498 211.182C55.6052 207.92 56.9256 204.643 56.9258 201.899C56.9257 194.071 50.8563 186.425 41.4512 186.425C41.2655 186.425 41.0827 186.411 40.9033 186.388Z" fill="white"/>
<path fill-rule="evenodd" clip-rule="evenodd" d="M353.726 177.964C368.404 177.964 377.661 190.023 377.661 201.899C377.661 207.038 375.333 211.973 372.879 215.771C371.566 217.804 370.117 219.659 368.739 221.234C378.513 226.048 385.64 235.414 387.355 246.567L387.392 246.824C388.059 252.195 383.523 256.008 378.938 256.008H328.512C323.854 256.008 319.248 252.073 320.095 246.567L320.221 245.806C322.086 235.277 328.79 226.421 337.953 221.619C336.476 219.965 334.898 217.971 333.477 215.771C331.023 211.973 328.694 207.038 328.694 201.899C328.694 190.023 337.951 177.964 352.63 177.964C352.816 177.964 352.998 177.976 353.178 177.999C353.357 177.976 353.54 177.964 353.726 177.964ZM365.619 229.815C365.619 236.686 360.049 242.255 353.179 242.256C346.308 242.256 340.738 236.686 340.737 229.815V229.751C334.364 233.516 329.766 239.968 328.506 247.547L328.512 247.548H378.938L378.943 247.547C377.612 239.541 372.556 232.794 365.619 229.142V229.815ZM353.726 226.211C352.181 226.211 350.668 226.349 349.198 226.611V229.815C349.199 232.014 350.981 233.796 353.179 233.796C355.376 233.795 357.159 232.013 357.159 229.815V226.44C356.036 226.29 354.89 226.211 353.726 226.211ZM353.178 186.388C352.998 186.411 352.816 186.425 352.63 186.425C343.225 186.425 337.155 194.071 337.155 201.899C337.155 204.643 338.476 207.92 340.583 211.182C342.197 213.68 344.074 215.864 345.569 217.375H360.786C362.281 215.864 364.159 213.68 365.772 211.182C367.88 207.92 369.2 204.643 369.2 201.899C369.2 194.071 363.13 186.425 353.726 186.425C353.54 186.425 353.357 186.411 353.178 186.388Z" fill="white"/>
<path d="M9.92188 197.675C12.1569 197.788 13.9346 199.636 13.9346 201.899C13.9343 204.162 12.1567 206.011 9.92188 206.124L9.7041 206.13H4.23047C1.89447 206.13 0.000263931 204.235 0 201.899C0 199.563 1.8943 197.669 4.23047 197.669H9.7041L9.92188 197.675Z" fill="white"/>
<path d="M78.8906 197.675C81.1254 197.788 82.9033 199.636 82.9033 201.899C82.9031 204.162 81.1252 206.01 78.8906 206.124L78.6729 206.13H73.1992C70.8632 206.13 68.969 204.235 68.9688 201.899C68.9688 199.563 70.8631 197.669 73.1992 197.669H78.6729L78.8906 197.675Z" fill="white"/>
<path d="M322.195 197.675C324.43 197.788 326.208 199.636 326.208 201.899C326.208 204.162 324.43 206.011 322.195 206.124L321.978 206.13H316.504C314.168 206.13 312.274 204.235 312.273 201.899C312.273 199.563 314.168 197.669 316.504 197.669H321.978L322.195 197.675Z" fill="white"/>
<path d="M391.164 197.675C393.399 197.788 395.177 199.636 395.177 201.899C395.177 204.162 393.399 206.011 391.164 206.124L390.946 206.13H385.473C383.137 206.13 381.242 204.235 381.242 201.899C381.242 199.563 383.136 197.669 385.473 197.669H390.946L391.164 197.675Z" fill="white"/>
<path d="M11.0918 172.634C12.7437 170.982 15.4223 170.982 17.0742 172.634L20.9453 176.504L21.0947 176.662C22.595 178.323 22.5455 180.887 20.9453 182.487C19.345 184.088 16.7806 184.137 15.1201 182.637L14.9619 182.487L11.0918 178.616C9.43994 176.964 9.4399 174.286 11.0918 172.634Z" fill="white"/>
<path d="M65.3193 172.634C66.9713 170.982 69.6508 170.982 71.3027 172.634C72.9544 174.286 72.9543 176.964 71.3027 178.616L67.4316 182.487L67.2734 182.637C65.613 184.137 63.0495 184.087 61.4492 182.487C59.8489 180.887 59.7996 178.323 61.2998 176.662L61.4492 176.504L65.3193 172.634Z" fill="white"/>
<path d="M323.365 172.634C325.017 170.982 327.697 170.982 329.349 172.634L333.219 176.504L333.368 176.662C334.868 178.323 334.819 180.887 333.219 182.487C331.619 184.087 329.055 184.137 327.395 182.637L327.236 182.487L323.365 178.616C321.714 176.964 321.714 174.286 323.365 172.634Z" fill="white"/>
<path d="M377.594 172.634C379.246 170.982 381.924 170.982 383.576 172.634C385.228 174.286 385.228 176.964 383.576 178.616L379.706 182.487L379.548 182.637C377.887 184.137 375.323 184.088 373.723 182.487C372.122 180.887 372.073 178.323 373.573 176.662L373.723 176.504L377.594 172.634Z" fill="white"/>
<path d="M40.3564 160.447C42.6926 160.447 44.5869 162.342 44.5869 164.678V170.151L44.5811 170.369C44.4677 172.604 42.6196 174.382 40.3564 174.382C38.0933 174.382 36.2451 172.604 36.1318 170.369L36.126 170.151V164.678C36.126 162.342 38.0203 160.447 40.3564 160.447Z" fill="white"/>
<path d="M352.631 160.447C354.967 160.448 356.86 162.342 356.86 164.678V170.151L356.854 170.369C356.741 172.604 354.893 174.382 352.63 174.382C350.367 174.382 348.519 172.604 348.405 170.369L348.399 170.151V164.678C348.399 162.342 350.295 160.447 352.631 160.447Z" fill="white"/>
<path d="M141.95 71.833L139.281 72.8926C107.002 85.7171 79.8664 108.728 61.8486 137.959L60.9971 139.355L59.7637 141.403H48.8877L52.7168 135.002C71.8243 103.052 101.138 77.9084 136.166 64.0781L141.95 61.7949V71.833Z" fill="white"/>
<path d="M253.701 61.4766C291.843 74.6016 323.827 100.933 344.203 135.002L348.032 141.403H337.158L335.925 139.355C316.703 107.447 286.686 82.7793 250.941 70.4053L248.095 69.4199V59.5479L253.701 61.4766Z" fill="white"/>
<path fill-rule="evenodd" clip-rule="evenodd" d="M197.862 17.5156C212.541 17.516 221.798 29.5751 221.798 41.4512C221.798 46.5896 219.47 51.5243 217.016 55.3232C215.702 57.356 214.254 59.2118 212.876 60.7871C222.649 65.6009 229.777 74.9671 231.492 86.1201L231.528 86.377C232.196 91.7474 227.66 95.5603 223.075 95.5605H172.648C167.991 95.5604 163.385 91.6254 164.231 86.1201L164.357 85.3584C166.223 74.8295 172.927 65.974 182.09 61.1719C180.612 59.5177 179.035 57.5234 177.613 55.3232C175.159 51.5243 172.831 46.5897 172.831 41.4512C172.831 29.575 182.088 17.5157 196.767 17.5156C196.952 17.5156 197.135 17.5286 197.314 17.5518C197.494 17.5286 197.677 17.5156 197.862 17.5156ZM209.756 69.3682C209.755 76.2382 204.185 81.8081 197.315 81.8086C190.445 81.8086 184.875 76.2385 184.874 69.3682V69.3037C178.501 73.0692 173.903 79.5208 172.643 87.0996L172.648 87.1006H223.075L223.08 87.0996C221.748 79.0942 216.693 72.3471 209.756 68.6943V69.3682ZM197.862 65.7637C196.317 65.7637 194.804 65.9014 193.335 66.1641V69.3682C193.335 71.5661 195.117 73.3486 197.315 73.3486C199.513 73.3482 201.295 71.5658 201.296 69.3682V65.9932C200.173 65.8423 199.027 65.7637 197.862 65.7637ZM197.314 25.9395C197.135 25.9627 196.952 25.9766 196.767 25.9766C187.362 25.9767 181.292 33.6225 181.292 41.4512C181.292 44.1945 182.613 47.4714 184.72 50.7334C186.334 53.2315 188.211 55.4158 189.706 56.9268H204.923C206.418 55.4158 208.295 53.2313 209.909 50.7334C212.016 47.4715 213.337 44.1944 213.337 41.4512C213.337 33.6226 207.267 25.9769 197.862 25.9766C197.677 25.9766 197.494 25.9626 197.314 25.9395Z" fill="white"/>
<path d="M166.332 37.2266C168.567 37.3399 170.345 39.1881 170.345 41.4512C170.345 43.7143 168.567 45.5625 166.332 45.6758L166.114 45.6816H160.641C158.304 45.6816 156.41 43.7873 156.41 41.4512C156.41 39.1151 158.305 37.2207 160.641 37.2207H166.114L166.332 37.2266Z" fill="white"/>
<path d="M235.301 37.2266C237.536 37.3399 239.313 39.1881 239.313 41.4512C239.313 43.7143 237.536 45.5625 235.301 45.6758L235.083 45.6816H229.609C227.273 45.6816 225.379 43.7873 225.379 41.4512C225.379 39.1151 227.273 37.2207 229.609 37.2207H235.083L235.301 37.2266Z" fill="white"/>
<path d="M167.502 12.1865C169.154 10.5346 171.833 10.5346 173.485 12.1865L177.355 16.0566L177.505 16.2148C179.005 17.8753 178.956 20.4398 177.355 22.04C175.755 23.6401 173.192 23.6895 171.531 22.1895L171.373 22.04L167.502 18.1689C165.85 16.5171 165.85 13.8384 167.502 12.1865Z" fill="white"/>
<path d="M221.73 12.1865C223.382 10.5347 226.061 10.5347 227.713 12.1865C229.365 13.8384 229.365 16.517 227.713 18.1689L223.843 22.04L223.685 22.1895C222.024 23.6897 219.46 23.6403 217.859 22.04C216.259 20.4397 216.21 17.8753 217.71 16.2148L217.859 16.0566L221.73 12.1865Z" fill="white"/>
<path d="M196.768 0C199.104 0.000264032 200.997 1.89447 200.997 4.23047V9.7041L200.991 9.92188C200.878 12.1569 199.03 13.9346 196.767 13.9346C194.504 13.9343 192.655 12.1567 192.542 9.92188L192.536 9.7041V4.23047C192.536 1.8943 194.431 -1.02117e-07 196.768 0Z" fill="white"/>
</svg>
