<svg width="172" height="186" viewBox="0 0 172 186" fill="none" xmlns="http://www.w3.org/2000/svg">
<path fill-rule="evenodd" clip-rule="evenodd" d="M85.9775 152.642C92.1659 152.642 96.0739 157.722 96.0742 162.738C96.0742 164.882 95.0995 166.968 94.043 168.604C93.3808 169.629 92.6386 170.549 91.96 171.291C96.3371 173.276 99.5535 177.371 100.309 182.279L100.333 182.479C100.527 184.532 98.778 186 96.9775 186H74.9775C73.1192 186 71.3148 184.436 71.6465 182.279C72.3822 177.496 75.4538 173.483 79.6602 171.444C78.9441 170.678 78.1433 169.701 77.4346 168.604C76.378 166.968 75.4033 164.882 75.4033 162.738C75.4036 157.722 79.3117 152.642 85.5 152.642C85.5812 152.642 85.6606 152.65 85.7383 152.662C85.8163 152.65 85.896 152.642 85.9775 152.642ZM90.8213 174.918C90.8212 177.725 88.5458 180 85.7393 180C82.9326 180 80.6573 177.725 80.6572 174.918V174.305C77.4821 175.965 75.1773 179.063 74.6123 182.735C74.6068 182.771 74.6106 182.793 74.6152 182.807C74.6209 182.823 74.6343 182.849 74.6621 182.878C74.7217 182.94 74.8322 183 74.9775 183H96.9775C97.1229 183 97.2334 182.94 97.293 182.878C97.3208 182.849 97.3342 182.823 97.3398 182.807C97.3422 182.8 97.3447 182.791 97.3457 182.779L97.3428 182.735C96.7499 178.881 94.2414 175.66 90.8213 174.069V174.918ZM85.9775 173C85.1826 173 84.4068 173.083 83.6572 173.236V174.918C83.6573 176.068 84.5894 177 85.7393 177C86.8889 177 87.8212 176.068 87.8213 174.918V173.15C87.2208 173.054 86.6053 173 85.9775 173ZM85.7383 155.62C85.6605 155.633 85.5812 155.642 85.5 155.642C81.1817 155.642 78.4036 159.158 78.4033 162.738C78.4033 164.033 79.0206 165.53 79.9541 166.976C80.7097 168.145 81.5953 169.159 82.2793 169.836H89.1982C89.8822 169.159 90.7678 168.145 91.5234 166.976C92.4569 165.531 93.0742 164.033 93.0742 162.738C93.0739 159.158 90.2958 155.642 85.9775 155.642C85.896 155.642 85.8163 155.633 85.7383 155.62Z" fill="white"/>
<path d="M153.219 121.5C154.267 121.5 154.997 122.541 154.611 123.517C146.951 142.885 131.301 158.222 111.724 165.46C110.754 165.818 109.74 165.09 109.739 164.057C109.739 163.416 110.144 162.846 110.744 162.623C129.474 155.679 144.449 141.003 151.797 122.474C152.029 121.89 152.59 121.5 153.219 121.5Z" fill="white"/>
<path d="M19.2559 121.5C19.8842 121.5 20.4459 121.89 20.6777 122.474C27.6374 140.025 41.4418 154.117 58.7969 161.458C59.3641 161.698 59.7391 162.251 59.7393 162.867C59.7393 163.93 58.6709 164.661 57.6914 164.248C39.548 156.594 25.1195 141.864 17.8633 123.517C17.4776 122.541 18.2072 121.5 19.2559 121.5Z" fill="white"/>
<path d="M72.2803 161.247C73.0366 161.324 73.627 161.963 73.627 162.739C73.6267 163.516 73.0365 164.155 72.2803 164.231L72.127 164.239H69.7393C68.911 164.239 68.2385 163.567 68.2383 162.739C68.2383 161.911 68.9108 161.239 69.7393 161.239H72.127L72.2803 161.247Z" fill="white"/>
<path d="M102.369 161.247C103.126 161.324 103.716 161.962 103.716 162.739C103.716 163.516 103.126 164.155 102.369 164.231L102.216 164.239H99.8281C99 164.239 98.3284 163.567 98.3281 162.739C98.3281 161.911 98.9998 161.239 99.8281 161.239H102.216L102.369 161.247Z" fill="white"/>
<path d="M72.9766 150.216C73.5623 149.63 74.5119 149.63 75.0977 150.216L76.7861 151.903L76.8896 152.018C77.3704 152.607 77.3354 153.476 76.7861 154.025C76.2369 154.574 75.3684 154.609 74.7793 154.128L74.665 154.025L72.9766 152.337C72.3909 151.751 72.391 150.802 72.9766 150.216Z" fill="white"/>
<path d="M96.6357 150.216C97.2215 149.63 98.171 149.63 98.7568 150.216C99.3424 150.802 99.3425 151.751 98.7568 152.337L97.0684 154.025L96.9541 154.128C96.365 154.609 95.4965 154.574 94.9473 154.025C94.398 153.476 94.363 152.607 94.8438 152.018L94.9473 151.903L96.6357 150.216Z" fill="white"/>
<path d="M85.5 145C86.3284 145 87 145.672 87 146.5V148.888L86.9922 149.041C86.9156 149.798 86.2768 150.388 85.5 150.388C84.7232 150.388 84.0844 149.798 84.0078 149.041L84 148.888V146.5C84 145.672 84.6716 145 85.5 145Z" fill="white"/>
<path d="M86.2393 85.5C89.8288 85.5003 92.7391 88.4105 92.7393 92C92.7391 95.5895 89.8288 98.4997 86.2393 98.5C82.6495 98.5 79.7394 95.5897 79.7393 92C79.7394 88.4103 82.6495 85.5 86.2393 85.5Z" fill="white"/>
<path fill-rule="evenodd" clip-rule="evenodd" d="M86.4883 57.0215C86.878 56.9555 87.2937 57.0429 87.6357 57.2979C94.9209 62.729 105.232 77.6108 104.382 101.384L104.425 101.414L114.013 108.918C115.102 109.771 115.739 111.078 115.739 112.462V130.841C115.739 134.113 112.356 136.291 109.377 134.938L97.4141 129.5H75.3223L63.3623 134.938C60.383 136.292 57.0002 134.113 57 130.841V112.462C57.0001 111.078 57.637 109.771 58.7266 108.918L68.3145 101.414L68.4395 101.326C68.4883 101.295 68.5388 101.268 68.5898 101.243C67.7853 77.5521 78.071 62.7183 85.3418 57.2979C85.6836 57.0431 86.0988 56.9558 86.4883 57.0215ZM60.5752 111.28C60.2122 111.565 60.0001 112.001 60 112.462V130.841C60.0002 131.932 61.1281 132.657 62.1211 132.206L73.3613 127.097C70.7522 119.021 69.3292 111.6 68.7949 104.847L60.5752 111.28ZM104.167 105.022C103.62 111.755 102.191 119.149 99.585 127.191L110.618 132.206C111.611 132.657 112.739 131.931 112.739 130.841V112.462C112.739 112.001 112.527 111.565 112.164 111.28L104.167 105.022ZM86.4883 60.207C77.9062 67.1756 64.2156 89.4124 76.3213 126.5H96.6562C108.762 89.4116 95.0703 67.1751 86.4883 60.207Z" fill="white"/>
<path fill-rule="evenodd" clip-rule="evenodd" d="M17.7393 77.6416C23.9275 77.6419 27.8356 82.7225 27.8359 87.7383C27.8359 89.8823 26.8611 91.9681 25.8047 93.6035C25.1424 94.6287 24.3994 95.549 23.7207 96.291C28.0981 98.2764 31.3152 102.37 32.0703 107.279L32.0947 107.479C32.2889 109.532 30.5396 111 28.7393 111H6.73926C4.88082 111 3.07648 109.436 3.4082 107.279C4.14395 102.496 7.21476 98.4835 11.4209 96.4443C10.7049 95.6776 9.90402 94.7006 9.19531 93.6035C8.13883 91.968 7.16406 89.8823 7.16406 87.7383C7.16436 82.7224 11.0724 77.6418 17.2607 77.6416C17.3422 77.6416 17.422 77.6496 17.5 77.6621C17.5779 77.6496 17.6578 77.6416 17.7393 77.6416ZM22.582 99.918C22.582 102.725 20.3067 105 17.5 105C14.6933 105 12.418 102.725 12.418 99.918V99.3047C9.24309 100.965 6.93898 104.063 6.37402 107.735C6.3685 107.771 6.37228 107.793 6.37695 107.807C6.38262 107.823 6.39604 107.849 6.42383 107.878C6.48344 107.94 6.59396 108 6.73926 108H28.7393C28.8845 108 28.9952 107.94 29.0547 107.878C29.0824 107.849 29.0959 107.823 29.1016 107.807C29.1039 107.8 29.1064 107.791 29.1074 107.779L29.1045 107.735C28.5116 103.881 26.0023 100.66 22.582 99.0693V99.918ZM17.7393 98C16.944 98 16.1678 98.0836 15.418 98.2373V99.918C15.418 101.068 16.3502 102 17.5 102C18.6499 102 19.582 101.068 19.582 99.918V98.1494C18.9819 98.0527 18.3666 98 17.7393 98ZM17.5 80.6201C17.422 80.6327 17.3423 80.6416 17.2607 80.6416C12.9425 80.6418 10.1644 84.1577 10.1641 87.7383C10.1641 89.0329 10.7814 90.5305 11.7148 91.9756C12.4704 93.1452 13.3561 94.1587 14.04 94.8359H20.96C21.6439 94.1587 22.5296 93.1452 23.2852 91.9756C24.2186 90.5306 24.8359 89.0329 24.8359 87.7383C24.8356 84.1578 22.0574 80.6419 17.7393 80.6416C17.6578 80.6416 17.578 80.6326 17.5 80.6201Z" fill="white"/>
<path fill-rule="evenodd" clip-rule="evenodd" d="M153.978 77.6416C160.166 77.6418 164.074 82.7224 164.074 87.7383C164.074 89.8824 163.099 91.968 162.043 93.6035C161.381 94.6286 160.639 95.5491 159.96 96.291C164.337 98.2765 167.554 102.371 168.309 107.279L168.333 107.479C168.527 109.532 166.778 111 164.978 111H142.978C141.119 111 139.315 109.436 139.646 107.279C140.382 102.496 143.454 98.4835 147.66 96.4443C146.944 95.6775 146.143 94.7007 145.435 93.6035C144.378 91.968 143.403 89.8824 143.403 87.7383C143.404 82.7224 147.312 77.6418 153.5 77.6416C153.581 77.6416 153.661 77.6497 153.738 77.6621C153.816 77.6496 153.896 77.6416 153.978 77.6416ZM158.821 99.918C158.821 102.725 156.546 105 153.739 105C150.933 105 148.657 102.725 148.657 99.918V99.3047C145.482 100.965 143.177 104.063 142.612 107.735C142.607 107.771 142.611 107.793 142.615 107.807C142.621 107.823 142.634 107.849 142.662 107.878C142.722 107.94 142.832 108 142.978 108H164.978C165.123 108 165.233 107.94 165.293 107.878C165.321 107.849 165.334 107.823 165.34 107.807C165.342 107.8 165.345 107.791 165.346 107.779L165.343 107.735C164.75 103.881 162.241 100.66 158.821 99.0693V99.918ZM153.978 98C153.183 98 152.407 98.0827 151.657 98.2363V99.918C151.657 101.068 152.589 102 153.739 102C154.889 102 155.821 101.068 155.821 99.918V98.1504C155.221 98.0536 154.605 98 153.978 98ZM153.738 80.6201C153.661 80.6326 153.581 80.6416 153.5 80.6416C149.182 80.6418 146.404 84.1577 146.403 87.7383C146.403 89.033 147.021 90.5305 147.954 91.9756C148.71 93.1453 149.595 94.1587 150.279 94.8359H157.198C157.882 94.1587 158.768 93.1453 159.523 91.9756C160.457 90.5305 161.074 89.033 161.074 87.7383C161.074 84.1577 158.296 80.6418 153.978 80.6416C153.896 80.6416 153.816 80.6327 153.738 80.6201Z" fill="white"/>
<path d="M4.04102 86.2471C4.79757 86.3237 5.3877 86.9625 5.3877 87.7393C5.38745 88.5158 4.79743 89.1548 4.04102 89.2314L3.8877 89.2393H1.5C0.671736 89.2393 0.000263825 88.5675 0 87.7393C0 86.9108 0.671573 86.2393 1.5 86.2393H3.8877L4.04102 86.2471Z" fill="white"/>
<path d="M34.1309 86.2471C34.8873 86.3238 35.4775 86.9626 35.4775 87.7393C35.4773 88.5158 34.8872 89.1547 34.1309 89.2314L33.9775 89.2393H31.5898C30.7616 89.2393 30.0901 88.5675 30.0898 87.7393C30.0898 86.9108 30.7614 86.2393 31.5898 86.2393H33.9775L34.1309 86.2471Z" fill="white"/>
<path d="M140.28 86.2471C141.037 86.3239 141.627 86.9627 141.627 87.7393C141.627 88.5157 141.036 89.1546 140.28 89.2314L140.127 89.2393H137.739C136.911 89.2393 136.239 88.5675 136.238 87.7393C136.238 86.9108 136.911 86.2393 137.739 86.2393H140.127L140.28 86.2471Z" fill="white"/>
<path d="M170.369 86.2471C171.126 86.3237 171.716 86.9625 171.716 87.7393C171.716 88.5158 171.126 89.1548 170.369 89.2314L170.216 89.2393H167.828C167 89.2391 166.328 88.5674 166.328 87.7393C166.328 86.9109 167 86.2394 167.828 86.2393H170.216L170.369 86.2471Z" fill="white"/>
<path d="M4.73828 75.2158C5.32407 74.63 6.27359 74.63 6.85938 75.2158L8.54785 76.9033L8.65039 77.0176C9.13118 77.6067 9.09712 78.4761 8.54785 79.0254C7.99858 79.5747 7.1292 79.6087 6.54004 79.1279L6.42676 79.0254L4.73828 77.3369C4.1525 76.7511 4.1525 75.8016 4.73828 75.2158Z" fill="white"/>
<path d="M28.3965 75.2158C28.9823 74.63 29.9318 74.63 30.5176 75.2158C31.1034 75.8016 31.1034 76.7511 30.5176 77.3369L28.8291 79.0254L28.7158 79.1279C28.1267 79.6087 27.2573 79.5747 26.708 79.0254C26.1587 78.4761 26.1247 77.6067 26.6055 77.0176L26.708 76.9033L28.3965 75.2158Z" fill="white"/>
<path d="M140.977 75.2158C141.562 74.63 142.512 74.63 143.098 75.2158L144.786 76.9033L144.89 77.0176C145.37 77.6067 145.335 78.4761 144.786 79.0254C144.237 79.5744 143.368 79.6085 142.779 79.1279L142.665 79.0254L140.977 77.3369C140.391 76.7512 140.391 75.8016 140.977 75.2158Z" fill="white"/>
<path d="M164.636 75.2158C165.222 74.63 166.171 74.63 166.757 75.2158C167.342 75.8016 167.343 76.7512 166.757 77.3369L165.068 79.0254L164.954 79.1279C164.365 79.6085 163.497 79.5744 162.947 79.0254C162.398 78.4761 162.363 77.6067 162.844 77.0176L162.947 76.9033L164.636 75.2158Z" fill="white"/>
<path d="M17.2617 70C18.0899 70.0003 18.7607 70.6717 18.7607 71.5V73.8877L18.7529 74.041C18.6763 74.7976 18.0375 75.3877 17.2607 75.3877C16.4842 75.3874 15.8452 74.7974 15.7686 74.041L15.7607 73.8877V71.5C15.7607 70.6716 16.4333 70 17.2617 70Z" fill="white"/>
<path d="M153.5 70C154.328 70 155 70.6716 155 71.5V73.8877L154.992 74.041C154.916 74.7976 154.277 75.3877 153.5 75.3877C152.723 75.3877 152.084 74.7976 152.008 74.041L152 73.8877V71.5C152 70.6716 152.672 70 153.5 70Z" fill="white"/>
<path d="M57.6914 28.751C58.6709 28.3377 59.7393 29.0687 59.7393 30.1318C59.7391 30.7477 59.3641 31.3011 58.7969 31.541C45.5161 37.1585 34.3169 46.7308 26.6709 58.7803C26.3884 59.2255 25.8994 59.4998 25.3721 59.5C24.1974 59.5 23.4702 58.2278 24.0986 57.2354C32.0827 44.6264 43.7965 34.6132 57.6914 28.751Z" fill="white"/>
<path d="M109.739 28.9434C109.739 27.9099 110.753 27.182 111.723 27.54C126.958 33.1725 139.815 43.7103 148.379 57.2354C149.007 58.2278 148.28 59.5 147.105 59.5C146.578 59.4998 146.089 59.2255 145.807 58.7803C137.603 45.8524 125.31 35.7761 110.744 30.376C110.144 30.1534 109.739 29.5837 109.739 28.9434Z" fill="white"/>
<path fill-rule="evenodd" clip-rule="evenodd" d="M85.9775 7.6416C92.1659 7.64178 96.0739 12.7224 96.0742 17.7383C96.0742 19.8824 95.0995 21.968 94.043 23.6035C93.3808 24.6286 92.6386 25.5491 91.96 26.291C96.3371 28.2765 99.5535 32.3705 100.309 37.2793L100.333 37.4795C100.527 39.5321 98.778 41 96.9775 41H74.9775C73.1192 40.9999 71.3148 39.4359 71.6465 37.2793C72.3822 32.4961 75.4538 28.4835 79.6602 26.4443C78.9441 25.6775 78.1433 24.7007 77.4346 23.6035C76.378 21.968 75.4033 19.8824 75.4033 17.7383C75.4036 12.7224 79.3117 7.64178 85.5 7.6416C85.5812 7.64163 85.6606 7.64967 85.7383 7.66211C85.8163 7.64959 85.896 7.64161 85.9775 7.6416ZM90.8213 29.918C90.8212 32.7245 88.5458 34.9997 85.7393 35C82.9326 35 80.6573 32.7247 80.6572 29.918V29.3047C77.4821 30.9651 75.1773 34.0628 74.6123 37.7354C74.6068 37.7712 74.6106 37.7926 74.6152 37.8066C74.6209 37.8234 74.6343 37.8488 74.6621 37.8779C74.7217 37.9402 74.8322 38 74.9775 38H96.9775C97.1229 38 97.2334 37.9402 97.293 37.8779C97.3208 37.8488 97.3342 37.8234 97.3398 37.8066C97.3422 37.7997 97.3447 37.7906 97.3457 37.7793L97.3428 37.7354C96.7499 33.8814 94.2414 30.6603 90.8213 29.0693V29.918ZM85.9775 28C85.1826 28 84.4068 28.0827 83.6572 28.2363V29.918C83.6573 31.0678 84.5894 32 85.7393 32C86.8889 31.9997 87.8212 31.0677 87.8213 29.918V28.1504C87.2208 28.0536 86.6053 28 85.9775 28ZM85.7383 10.6201C85.6605 10.6326 85.5812 10.6416 85.5 10.6416C81.1817 10.6418 78.4036 14.1577 78.4033 17.7383C78.4033 19.033 79.0206 20.5305 79.9541 21.9756C80.7097 23.1453 81.5953 24.1587 82.2793 24.8359H89.1982C89.8822 24.1587 90.7678 23.1453 91.5234 21.9756C92.4569 20.5305 93.0742 19.033 93.0742 17.7383C93.0739 14.1577 90.2958 10.6418 85.9775 10.6416C85.896 10.6416 85.8163 10.6327 85.7383 10.6201Z" fill="white"/>
<path d="M72.2803 16.2471C73.0366 16.3239 73.627 16.9627 73.627 17.7393C73.6267 18.5157 73.0365 19.1546 72.2803 19.2314L72.127 19.2393H69.7393C68.911 19.2393 68.2385 18.5675 68.2383 17.7393C68.2383 16.9108 68.9108 16.2393 69.7393 16.2393H72.127L72.2803 16.2471Z" fill="white"/>
<path d="M102.369 16.2471C103.126 16.3237 103.716 16.9625 103.716 17.7393C103.716 18.5158 103.126 19.1548 102.369 19.2314L102.216 19.2393H99.8281C99 19.2391 98.3284 18.5674 98.3281 17.7393C98.3281 16.9109 98.9998 16.2394 99.8281 16.2393H102.216L102.369 16.2471Z" fill="white"/>
<path d="M72.9766 5.21582C73.5623 4.63003 74.5119 4.63003 75.0977 5.21582L76.7861 6.90332L76.8896 7.01758C77.3704 7.60674 77.3354 8.47615 76.7861 9.02539C76.2369 9.57437 75.3684 9.60852 74.7793 9.12793L74.665 9.02539L72.9766 7.33691C72.3909 6.75121 72.391 5.80163 72.9766 5.21582Z" fill="white"/>
<path d="M96.6357 5.21582C97.2215 4.63003 98.171 4.63003 98.7568 5.21582C99.3424 5.80163 99.3425 6.75121 98.7568 7.33691L97.0684 9.02539L96.9541 9.12793C96.365 9.60852 95.4965 9.57437 94.9473 9.02539C94.398 8.47615 94.363 7.60674 94.8438 7.01758L94.9473 6.90332L96.6357 5.21582Z" fill="white"/>
<path d="M85.5 0C86.3284 3.62117e-08 87 0.671573 87 1.5V3.8877L86.9922 4.04102C86.9156 4.79759 86.2768 5.3877 85.5 5.3877C84.7232 5.3877 84.0844 4.79759 84.0078 4.04102L84 3.8877V1.5C84 0.671573 84.6716 -3.62117e-08 85.5 0Z" fill="white"/>
</svg>
