<svg width="276" height="263" viewBox="0 0 276 263" fill="none" xmlns="http://www.w3.org/2000/svg">
<path d="M55.0771 289.742C55.0771 296.392 60.4683 301.783 67.1182 301.783H237.963C244.613 301.783 250.004 296.392 250.004 289.742V235.845H258.465V289.742C258.465 301.065 249.285 310.244 237.963 310.244H67.1182C55.7956 310.244 46.6162 301.065 46.6162 289.742V235.845H55.0771V289.742Z" fill="white"/>
<path fill-rule="evenodd" clip-rule="evenodd" d="M51.8643 132.972C65.6874 132.972 74.3993 144.331 74.3994 155.507C74.3993 160.365 72.2012 165.009 69.9092 168.557C67.7174 171.949 65.1281 174.817 63.2129 176.604V181.438C63.2129 187.987 57.9041 193.296 51.3555 193.296C44.8069 193.296 39.498 187.987 39.498 181.438V176.604C37.5828 174.817 34.9935 171.949 32.8018 168.557C30.5098 165.009 28.3116 160.365 28.3115 155.507C28.3116 144.331 37.0235 132.972 50.8467 132.972C51.0189 132.972 51.1886 132.983 51.3555 133.003C51.5223 132.983 51.692 132.972 51.8643 132.972ZM47.959 181.438C47.959 183.314 49.4796 184.835 51.3555 184.835C53.2314 184.835 54.752 183.314 54.752 181.438V178.042H47.959V181.438ZM51.3555 141.4C51.1886 141.42 51.0189 141.433 50.8467 141.433C42.2976 141.433 36.7726 148.378 36.7725 155.507C36.7725 157.97 37.9641 160.955 39.9092 163.966C41.3651 166.22 43.0552 168.196 44.416 169.582H58.2949C59.6557 168.196 61.3458 166.22 62.8018 163.966C64.7469 160.955 65.9384 157.97 65.9385 155.507C65.9384 148.378 60.4134 141.433 51.8643 141.433C51.692 141.433 51.5223 141.42 51.3555 141.4Z" fill="white"/>
<path d="M22.5908 151.282C24.8258 151.396 26.6035 153.244 26.6035 155.507C26.6035 157.77 24.8258 159.618 22.5908 159.731L22.373 159.737H17.2881C14.9517 159.737 13.0576 157.843 13.0576 155.507C13.0576 153.17 14.9517 151.276 17.2881 151.276H22.373L22.5908 151.282Z" fill="white"/>
<path d="M86.6582 151.282C88.893 151.396 90.6709 153.244 90.6709 155.507C90.6709 157.77 88.893 159.618 86.6582 159.731L86.4404 159.737H81.3555C79.0191 159.737 77.125 157.843 77.125 155.507C77.125 153.17 79.0191 151.276 81.3555 151.276H86.4404L86.6582 151.282Z" fill="white"/>
<path d="M23.4492 128.109C25.1013 126.457 27.7796 126.457 29.4316 128.109L33.0273 131.705L33.1777 131.863C34.6774 133.524 34.6275 136.087 33.0273 137.688C31.427 139.288 28.8637 139.337 27.2031 137.837L27.0449 137.688L23.4492 134.092C21.7972 132.44 21.7972 129.761 23.4492 128.109Z" fill="white"/>
<path d="M73.8232 128.109C75.4753 126.457 78.1546 126.457 79.8066 128.109C81.4583 129.761 81.4584 132.44 79.8066 134.092L76.2109 137.688L76.0527 137.837C74.3921 139.337 71.8279 139.288 70.2275 137.688C68.6275 136.087 68.5783 133.524 70.0781 131.863L70.2275 131.705L73.8232 128.109Z" fill="white"/>
<path d="M50.8467 116.7C53.183 116.7 55.0771 118.594 55.0771 120.931V126.016L55.0713 126.233C54.9577 128.468 53.1098 130.246 50.8467 130.246C48.5835 130.246 46.7357 128.468 46.6221 126.233L46.6162 126.016V120.931C46.6162 118.594 48.5103 116.7 50.8467 116.7Z" fill="white"/>
<path fill-rule="evenodd" clip-rule="evenodd" d="M96.0107 80.2646C100.309 80.4826 103.728 84.037 103.728 88.3896V224.659L103.717 225.077C103.506 229.237 100.171 232.573 96.0107 232.784L95.5918 232.795H8.13574L7.7168 232.784C3.55694 232.573 0.221626 229.237 0.0107422 225.077L0 224.659V88.3896C0 84.037 3.41828 80.4826 7.7168 80.2646L8.13574 80.2539H95.5918L96.0107 80.2646ZM8.46094 224.334H95.2666V88.7148H8.46094V224.334Z" fill="white"/>
<path d="M277.842 191.959C280.077 192.073 281.854 193.921 281.854 196.184C281.854 198.447 280.077 200.295 277.842 200.408L277.624 200.414H230.845C228.508 200.414 226.614 198.52 226.614 196.184C226.614 193.847 228.508 191.953 230.845 191.953H277.624L277.842 191.959Z" fill="white"/>
<path d="M277.842 169.587C280.077 169.701 281.854 171.548 281.854 173.812C281.854 176.075 280.077 177.922 277.842 178.036L277.624 178.042H230.845C228.508 178.042 226.614 176.148 226.614 173.812C226.614 171.475 228.508 169.581 230.845 169.581H277.624L277.842 169.587Z" fill="white"/>
<path fill-rule="evenodd" clip-rule="evenodd" d="M272.54 102.463C275.999 102.463 278.804 105.268 278.804 108.728V147.371C278.804 150.83 275.999 153.634 272.54 153.635H233.896C230.437 153.635 227.632 150.831 227.632 147.371V108.728C227.632 105.268 230.437 102.463 233.896 102.463H272.54ZM242.075 145.175H264.359L253.217 134.032L242.075 145.175ZM259.199 128.05L270.344 139.193V116.906L259.199 128.05ZM236.093 139.192L247.234 128.05L236.093 116.908V139.192ZM253.217 122.067L264.361 110.924H242.074L253.217 122.067Z" fill="white"/>
<path fill-rule="evenodd" clip-rule="evenodd" d="M297.364 80.2646C301.663 80.4827 305.081 84.037 305.081 88.3896V224.659L305.07 225.077C304.859 229.237 301.524 232.573 297.364 232.784L296.946 232.795H211.523L211.104 232.784C206.945 232.573 203.609 229.237 203.398 225.077L203.388 224.659V88.3896C203.388 84.037 206.806 80.4826 211.104 80.2646L211.523 80.2539H296.946L297.364 80.2646ZM211.849 224.334H296.621V88.7148H211.849V224.334Z" fill="white"/>
<path d="M237.963 0.769531C249.285 0.769531 258.465 9.94815 258.465 21.2705V75.1689H250.004V21.2705C250.004 14.6209 244.613 9.23047 237.963 9.23047H193.562L182.938 26.6836C180.695 30.3698 176.69 32.6199 172.375 32.6201H152.541V24.1592H172.375C173.738 24.159 175.002 23.4482 175.711 22.2842L183.657 9.23047H121.424L129.37 22.2842C130.079 23.4483 131.343 24.1592 132.706 24.1592H152.541V32.6201H132.706C128.39 32.6201 124.386 30.37 122.143 26.6836L111.52 9.23047H67.1172C60.4677 9.23073 55.0774 14.621 55.0771 21.2705V75.1689H46.6162V21.2705C46.6165 9.94831 55.795 0.769793 67.1172 0.769531H237.963Z" fill="white"/>
</svg>
