<svg width="276" height="229" viewBox="0 0 276 229" fill="none" xmlns="http://www.w3.org/2000/svg">
<path d="M288.505 0.414062C301.048 0.414139 311.218 10.5824 311.218 23.126V45.5576C311.951 46.2141 312.413 47.1677 312.413 48.2295C312.413 49.2913 311.951 50.2449 311.218 50.9014V219.172C311.218 231.716 301.049 241.884 288.505 241.884H23.126C10.5824 241.884 0.414177 231.715 0.414062 219.172V23.126C0.414285 10.5825 10.5825 0.414276 23.126 0.414062H288.505ZM7.58594 219.172C7.58605 227.754 14.5436 234.712 23.126 234.712H288.505C297.087 234.712 304.045 227.754 304.045 219.172V51.8154H7.58594V219.172ZM154.62 80.5059C169.805 80.5059 182.114 92.8154 182.114 108V110.391L182.109 110.575C182.013 112.47 180.447 113.977 178.528 113.977C176.61 113.977 175.043 112.47 174.947 110.575L174.942 110.391V108C174.942 96.7766 165.844 87.6777 154.62 87.6777C143.397 87.6779 134.299 96.7767 134.299 108V127.126H192.872C200.134 127.126 206.021 133.013 206.021 140.275V180.919C206.021 188.181 200.134 194.068 192.872 194.068H116.367C109.105 194.068 103.218 188.181 103.218 180.919V140.275C103.218 133.013 109.105 127.126 116.367 127.126H127.126V108C127.126 92.8155 139.436 80.506 154.62 80.5059ZM116.367 134.298C113.066 134.298 110.39 136.975 110.39 140.275V180.919C110.39 184.22 113.066 186.896 116.367 186.896H192.872C196.173 186.896 198.849 184.22 198.85 180.919V140.275C198.849 136.975 196.173 134.298 192.872 134.298H116.367ZM155.815 151.034C157.796 151.034 159.401 152.64 159.401 154.62V167.77C159.401 169.75 157.796 171.355 155.815 171.355C153.835 171.355 152.23 169.75 152.229 167.77V154.62C152.229 152.64 153.835 151.034 155.815 151.034ZM23.126 7.58594C14.5437 7.58615 7.58616 14.5437 7.58594 23.126V44.6436H304.045V23.126C304.045 14.5436 297.087 7.58601 288.505 7.58594H23.126ZM27.1436 18.3555C31.5647 18.5798 35.08 22.236 35.0801 26.7129L35.0693 27.1436C34.845 31.5646 31.1896 35.0799 26.7129 35.0801L26.2822 35.0693C22.0036 34.8525 18.5726 31.4221 18.3555 27.1436L18.3447 26.7129C18.3448 22.0915 22.0915 18.3448 26.7129 18.3447L27.1436 18.3555ZM51.0518 18.3555C55.4729 18.5798 58.9882 22.236 58.9883 26.7129L58.9775 27.1436C58.7532 31.5646 55.0978 35.0799 50.6211 35.0801L50.1904 35.0693C45.9118 34.8525 42.4808 31.4221 42.2637 27.1436L42.2529 26.7129C42.253 22.0915 45.9997 18.3448 50.6211 18.3447L51.0518 18.3555ZM74.96 18.3555C79.3811 18.5798 82.8964 22.236 82.8965 26.7129L82.8857 27.1436C82.6614 31.5646 79.006 35.0799 74.5293 35.0801L74.0986 35.0693C69.82 34.8525 66.389 31.4221 66.1719 27.1436L66.1611 26.7129C66.1612 22.0915 69.9079 18.3448 74.5293 18.3447L74.96 18.3555ZM74.5293 23.126C72.5488 23.126 70.9424 24.7324 70.9424 26.7129C70.9426 28.6933 72.5488 30.2988 74.5293 30.2988C76.5096 30.2986 78.115 28.6932 78.1152 26.7129C78.1152 24.7324 76.5097 23.1262 74.5293 23.126ZM26.7129 23.126C24.7324 23.126 23.126 24.7324 23.126 26.7129C23.1262 28.6933 24.7324 30.2988 26.7129 30.2988C28.6932 30.2986 30.2986 28.6932 30.2988 26.7129C30.2988 24.7324 28.6933 23.1262 26.7129 23.126ZM50.6211 23.126C48.6406 23.126 47.0342 24.7324 47.0342 26.7129C47.0344 28.6933 48.6406 30.2988 50.6211 30.2988C52.6014 30.2986 54.2068 28.6932 54.207 26.7129C54.207 24.7324 52.6015 23.1262 50.6211 23.126Z" fill="white"/>
</svg>
