<svg width="150" height="151" viewBox="0 0 150 151" fill="none" xmlns="http://www.w3.org/2000/svg">
<path d="M26.5 141.5C26.5 145.09 29.4101 148 33 148H117C120.59 148 123.5 145.09 123.5 141.5V115H126.5V141.5C126.5 146.747 122.247 151 117 151H33C27.7533 151 23.5 146.747 23.5 141.5V115H26.5V141.5Z" fill="white"/>
<path fill-rule="evenodd" clip-rule="evenodd" d="M25.5 65C31.935 65 36 70.2824 36 75.5C36 77.7247 34.9879 79.8939 33.8848 81.6016C32.764 83.3365 31.425 84.7862 30.5039 85.6152L30.5 85.6182V88.25C30.5 91.1495 28.1495 93.5 25.25 93.5C22.3505 93.5 20 91.1495 20 88.25V85.6182L19.9961 85.6152C19.075 84.7862 17.736 83.3365 16.6152 81.6016C15.5121 79.8939 14.5 77.7247 14.5 75.5C14.5 70.2824 18.565 65 25 65C25.0852 65 25.1687 65.0078 25.25 65.0215C25.3313 65.0078 25.4148 65 25.5 65ZM23 88.25C23 89.4926 24.0074 90.5 25.25 90.5C26.4926 90.5 27.5 89.4926 27.5 88.25V86H23V88.25ZM25.25 67.9775C25.1686 67.9912 25.0853 68 25 68C20.435 68 17.5 71.7176 17.5 75.5C17.5 76.8753 18.1546 78.4564 19.1348 79.9736C19.9362 81.2143 20.8765 82.2877 21.5986 83H28.9014C29.6235 82.2877 30.5638 81.2143 31.3652 79.9736C32.3454 78.4564 33 76.8753 33 75.5C33 71.7176 30.065 68 25.5 68C25.4147 68 25.3314 67.9912 25.25 67.9775Z" fill="white"/>
<path d="M11 74C11.8284 74 12.5 74.6716 12.5 75.5C12.5 76.3284 11.8284 77 11 77H8.5C7.67157 77 7 76.3284 7 75.5C7 74.6716 7.67157 74 8.5 74H11Z" fill="white"/>
<path d="M42.5 74C43.3284 74 44 74.6716 44 75.5C44 76.3284 43.3284 77 42.5 77H40C39.1716 77 38.5 76.3284 38.5 75.5C38.5 74.6716 39.1716 74 40 74H42.5Z" fill="white"/>
<path d="M11.9395 62.4395C12.5252 61.8537 13.4748 61.8537 14.0605 62.4395L15.8281 64.207C16.4139 64.7928 16.4139 65.7423 15.8281 66.3281C15.2423 66.9139 14.2928 66.9139 13.707 66.3281L11.9395 64.5605C11.3537 63.9748 11.3537 63.0252 11.9395 62.4395Z" fill="white"/>
<path d="M36.707 62.4395C37.2928 61.8537 38.2423 61.8538 38.8281 62.4395C39.4139 63.0252 39.4139 63.9748 38.8281 64.5605L37.0605 66.3281C36.4748 66.9139 35.5252 66.9139 34.9395 66.3281C34.3538 65.7423 34.3537 64.7928 34.9395 64.207L36.707 62.4395Z" fill="white"/>
<path d="M25 57C25.8284 57 26.5 57.6716 26.5 58.5V61C26.5 61.8284 25.8284 62.5 25 62.5C24.1716 62.5 23.5 61.8284 23.5 61V58.5C23.5 57.6716 24.1716 57 25 57Z" fill="white"/>
<path fill-rule="evenodd" clip-rule="evenodd" d="M47.2061 38.5049C49.3194 38.6121 51 40.36 51 42.5V109.5L50.9951 109.706C50.8913 111.751 49.2512 113.391 47.2061 113.495L47 113.5H4L3.79395 113.495C1.7488 113.391 0.108652 111.751 0.00488281 109.706L0 109.5V42.5C3.43262e-07 40.36 1.68056 38.6121 3.79395 38.5049L4 38.5H47L47.2061 38.5049ZM4 41.5C3.44772 41.5 3 41.9477 3 42.5V109.5C3 110.052 3.44772 110.5 4 110.5H47C47.5523 110.5 48 110.052 48 109.5V42.5C48 41.9477 47.5523 41.5 47 41.5H4Z" fill="white"/>
<path d="M136.5 94C137.328 94 138 94.6716 138 95.5C138 96.3284 137.328 97 136.5 97H113.5C112.672 97 112 96.3284 112 95.5C112 94.6716 112.672 94 113.5 94H136.5Z" fill="white"/>
<path d="M136.5 83C137.328 83 138 83.6716 138 84.5C138 85.3284 137.328 86 136.5 86H113.5C112.672 86 112 85.3284 112 84.5C112 83.6716 112.672 83 113.5 83H136.5Z" fill="white"/>
<path fill-rule="evenodd" clip-rule="evenodd" d="M134 50C135.381 50 136.5 51.1193 136.5 52.5V71.5C136.5 72.8807 135.381 74 134 74H115C113.619 74 112.5 72.8807 112.5 71.5V52.5C112.5 51.1193 113.619 50 115 50H134ZM117.621 71H131.379L124.5 64.1211L117.621 71ZM115.5 68.8789L122.379 62L115.5 55.1211V68.8789ZM126.621 62L133.5 68.8789V55.1211L126.621 62ZM124.5 59.8789L131.379 53H117.621L124.5 59.8789Z" fill="white"/>
<path fill-rule="evenodd" clip-rule="evenodd" d="M146.206 38.5049C148.319 38.6121 150 40.36 150 42.5V109.5L149.995 109.706C149.891 111.751 148.251 113.391 146.206 113.495L146 113.5H104L103.794 113.495C101.749 113.391 100.109 111.751 100.005 109.706L100 109.5V42.5C100 40.36 101.681 38.6121 103.794 38.5049L104 38.5H146L146.206 38.5049ZM104 41.5C103.448 41.5 103 41.9477 103 42.5V109.5C103 110.052 103.448 110.5 104 110.5H146C146.552 110.5 147 110.052 147 109.5V42.5C147 41.9477 146.552 41.5 146 41.5H104Z" fill="white"/>
<path fill-rule="evenodd" clip-rule="evenodd" d="M117 0C122.247 0 126.5 4.2533 126.5 9.5V36H123.5V9.5C123.5 5.91015 120.59 3 117 3H94.8428L89.4502 11.8594L89.2539 12.1592C88.2289 13.6202 86.5515 14.5 84.752 14.5H65.248C63.4485 14.5 61.7711 13.6202 60.7461 12.1592L60.5498 11.8594L55.1572 3H33C29.4101 3 26.5 5.91015 26.5 9.5V36H23.5V9.5C23.5 4.25329 27.7533 0 33 0H117ZM63.1123 10.2998L63.2012 10.4365C63.6671 11.1006 64.4301 11.5 65.248 11.5H84.752C85.5699 11.5 86.3329 11.1006 86.7988 10.4365L86.8877 10.2998L91.3311 3H58.6689L63.1123 10.2998Z" fill="white"/>
</svg>
