<svg width="306" height="313" viewBox="0 0 306 313" fill="none" xmlns="http://www.w3.org/2000/svg">
<g opacity="0.4">
<path fill-rule="evenodd" clip-rule="evenodd" d="M104.896 125.024C106.496 124.888 108.017 125.741 108.735 127.177L124.379 158.478C140.007 152.833 157.733 159.659 165.343 174.886C172.954 190.114 167.773 208.389 153.877 217.499L170.535 250.829C171.253 252.266 171.021 253.995 169.952 255.193C168.882 256.39 167.191 256.814 165.682 256.263C146.767 249.348 126.214 251.686 107.652 257.187C104.99 257.976 102.379 258.826 99.8298 259.719L122.365 304.809C131.813 323.714 107.898 341.554 92.4695 327.11L42.9031 280.705C27.219 280.406 12.2285 271.624 4.72923 256.619L4.57591 256.311C-6.17985 234.79 2.54687 208.623 24.0681 197.868C24.9988 197.402 25.9876 196.912 27.0281 196.397C37.0373 191.436 51.8384 184.101 65.904 173.654C81.4461 162.11 95.6523 147.076 101.476 127.796C101.941 126.259 103.296 125.16 104.896 125.024ZM92.4451 262.481C82.0181 266.618 72.9532 271.186 66.1257 274.627C65.0888 275.15 64.1032 275.647 63.1726 276.112C59.9471 277.724 56.6164 278.894 53.2497 279.654L97.8269 321.387C106.871 329.854 120.891 319.396 115.352 308.314L92.4451 262.481ZM56.0564 189.672C46.3437 195.576 37.2106 200.103 30.5163 203.418C29.4739 203.935 28.4901 204.422 27.573 204.88C9.92465 213.701 2.76828 235.158 11.5886 252.806L11.7419 253.115C20.5623 270.763 42.0195 277.919 59.6677 269.099C60.5849 268.641 61.5654 268.146 62.6042 267.622C69.2744 264.259 78.376 259.669 88.9285 255.445L56.0564 189.672ZM105.756 138.752C98.0906 156.081 84.5112 169.599 70.5788 179.948C67.9695 181.886 65.3347 183.718 62.7126 185.453L96.2986 252.655C99.2602 251.599 102.308 250.594 105.425 249.67C122.064 244.739 141.028 241.993 159.488 246.264L105.756 138.752ZM158.331 178.391C152.659 167.043 139.633 161.801 127.915 165.553L150.341 210.423C160.376 203.303 164.003 189.739 158.331 178.391Z" fill="white"/>
<path fill-rule="evenodd" clip-rule="evenodd" d="M264.638 209.487C266.251 203.469 273.774 201.453 278.179 205.859L299.944 227.623C304.35 232.029 302.334 239.552 296.316 241.164L266.585 249.131C260.567 250.744 255.06 245.236 256.673 239.218L264.638 209.487ZM272.896 211.142C272.557 210.803 271.979 210.958 271.855 211.421L263.888 241.152C263.764 241.615 264.188 242.038 264.651 241.914L294.383 233.948C294.845 233.823 295 233.245 294.661 232.907L272.896 211.142Z" fill="white"/>
<path fill-rule="evenodd" clip-rule="evenodd" d="M228.462 180.625C229.886 175.311 235.348 172.158 240.662 173.581L343.734 201.2C349.048 202.624 352.201 208.086 350.777 213.4L332.914 280.069C331.49 285.383 326.028 288.536 320.714 287.113L232 263.342L213.719 279.917C209.119 284.089 201.917 279.692 203.524 273.694L228.462 180.625ZM238.728 180.798C237.4 180.442 236.034 181.231 235.677 182.559L211.836 271.54L228.238 256.667C229.335 255.672 230.863 255.303 232.294 255.686L322.647 279.896C323.976 280.252 325.341 279.464 325.697 278.135L343.561 211.466C343.917 210.138 343.128 208.772 341.8 208.416L238.728 180.798Z" fill="white"/>
<path fill-rule="evenodd" clip-rule="evenodd" d="M243.033 40.6195C247.201 32.53 257.156 29.3138 265.269 33.4359C273.382 37.5581 276.581 47.4585 272.413 55.5482L272.37 55.6312L258.692 82.181C257.933 83.6537 256.127 84.2369 254.65 83.4866L227.94 69.9154C219.827 65.7931 216.629 55.8928 220.797 47.8031C224.964 39.7136 234.92 36.4974 243.033 40.6195ZM261.995 39.8812C257.427 37.5603 251.806 39.3765 249.46 43.931C247.638 47.4659 243.304 48.8659 239.759 47.0648C235.191 44.7438 229.57 46.5601 227.223 51.1146C224.892 55.6409 226.675 61.1635 231.215 63.47L254.186 75.1419L265.943 52.3206L265.987 52.2366C268.319 47.7103 266.534 42.1877 261.995 39.8812Z" fill="white"/>
<path fill-rule="evenodd" clip-rule="evenodd" d="M289.424 0.963211C294.489 -0.673196 299.922 2.10667 301.558 7.1722L322.09 70.723C323.726 75.7885 320.946 81.2212 315.881 82.8577L222.119 113.149L215.981 136.224C214.436 142.031 206.275 142.245 204.427 136.527L175.766 47.8109C174.13 42.7454 176.91 37.3126 181.975 35.6761L289.424 0.963211ZM294.679 9.39388C294.27 8.12793 292.912 7.43334 291.646 7.84212L184.197 42.555C182.931 42.9643 182.236 44.3229 182.645 45.5892L210.048 130.41L215.555 109.703C215.924 108.319 216.97 107.215 218.334 106.775L313.659 75.9788C314.925 75.5696 315.619 74.2118 315.211 72.9456L294.679 9.39388Z" fill="white"/>
</g>
</svg>
