<svg width="24" height="24" viewBox="0 0 24 24" fill="none" xmlns="http://www.w3.org/2000/svg">
<path fill-rule="evenodd" clip-rule="evenodd" d="M12.803 2.83322L20.3228 6.9328L21.9097 7.79795C22.2158 7.97013 22.4072 8.28581 22.4072 8.63975V9.11805V14.3525V14.7715C22.4072 15.2976 21.9767 15.7281 21.4506 15.7281C20.9244 15.7281 20.494 15.2976 20.494 14.7715V14.3525V11.3968V9.30402V9.11805L20.4072 9.16545L20.3235 9.21111L18.494 10.2101L12.803 13.3175C12.229 13.6332 11.5403 13.6332 10.9663 13.3175L2.9022 8.91716C2.24215 8.55366 2.24215 7.59706 2.9022 7.23356L10.9663 2.83322C11.5403 2.52711 12.229 2.52711 12.803 2.83322ZM11.8846 4.61049L18.2353 8.07264L11.8846 11.5402L5.53489 8.07536L11.8846 4.61049ZM19.5 16V11.2338L12.8799 15.2059L12.8572 15.2286C12.8491 15.2326 12.8396 15.2372 12.8287 15.2423C12.7507 15.2786 12.6402 15.3231 12.5135 15.3665C12.3876 15.4096 12.2615 15.4463 12.1543 15.4711C12.0649 15.4917 12.0161 15.4977 12.0021 15.4994C11.9909 15.4978 11.9551 15.4927 11.8898 15.4761C11.8003 15.4534 11.6911 15.4184 11.5701 15.3739C11.3355 15.2877 11.1031 15.1828 10.9623 15.1131L4 11.3155V16C4 16.6919 4.29054 17.2419 4.60161 17.6214C4.89791 17.9829 5.25112 18.2394 5.53043 18.3831L10.0334 20.8847L10.0528 20.8944C10.2472 20.9916 10.5564 21.1322 10.8799 21.2511C11.1629 21.3551 11.6041 21.5 12 21.5C12.6314 21.5 13.1975 21.3246 13.9961 20.8683C14.5692 20.5408 15.329 20.0452 16.0293 19.5884L16.1836 19.4877C16.9632 18.9795 17.6117 18.5622 17.9472 18.3944C19.1744 17.7809 19.5 16.6021 19.5 16ZM12.8939 15.2093L12.8919 15.2105C12.8983 15.2063 12.8995 15.206 12.8939 15.2093ZM6 16V14.6846L10.0368 16.8865L10.0528 16.8944C10.2472 16.9916 10.5564 17.1322 10.8799 17.2511C11.1629 17.3551 11.6041 17.5 12 17.5C12.3787 17.5 12.8476 17.3661 13.1615 17.2586C13.339 17.1978 13.518 17.1276 13.6744 17.0546C13.7597 17.0148 13.9235 16.9369 14.077 16.82L17.5 14.7662L17.5 15.9985C17.5 15.9985 17.4999 15.9989 17.4999 15.9996C17.4994 16.0053 17.4971 16.0324 17.4861 16.0762C17.4729 16.1291 17.4506 16.1922 17.4162 16.2571C17.3506 16.3811 17.2427 16.5106 17.0528 16.6056C16.5883 16.8378 15.8201 17.3372 15.0914 17.8123L14.9576 17.8996C14.2355 18.3705 13.523 18.8351 13.0039 19.1318C12.3892 19.483 12.1686 19.5 12 19.5L12.006 19.5C12.006 19.4996 11.9705 19.4966 11.8898 19.4761C11.8003 19.4534 11.6911 19.4184 11.5701 19.3739C11.3373 19.2884 11.1067 19.1844 10.9656 19.1147L6.46665 16.6153L6.44721 16.6056C6.39652 16.5802 6.2608 16.4907 6.14839 16.3536C6.04279 16.2248 6 16.1081 6 16Z" fill="#212A3D"/>
</svg>
