<svg width="24" height="24" viewBox="0 0 24 24" fill="none" xmlns="http://www.w3.org/2000/svg">
<path fill-rule="evenodd" clip-rule="evenodd" d="M21 5.5H3C2.72386 5.5 2.5 5.72386 2.5 6V18C2.5 18.2761 2.72386 18.5 3 18.5H21C21.2761 18.5 21.5 18.2761 21.5 18V6C21.5 5.72386 21.2761 5.5 21 5.5ZM3 4C1.89543 4 1 4.89543 1 6V18C1 19.1046 1.89543 20 3 20H21C22.1046 20 23 19.1046 23 18V6C23 4.89543 22.1046 4 21 4H3Z" fill="#212A3D"/>
<path fill-rule="evenodd" clip-rule="evenodd" d="M15 18.5L15 5.5H16.5V18.5H15Z" fill="#212A3D"/>
<path fill-rule="evenodd" clip-rule="evenodd" d="M17 8C17 7.72386 17.2239 7.5 17.5 7.5H20C20.2761 7.5 20.5 7.72386 20.5 8C20.5 8.27614 20.2761 8.5 20 8.5H17.5C17.2239 8.5 17 8.27614 17 8Z" fill="#212A3D"/>
<path fill-rule="evenodd" clip-rule="evenodd" d="M17 10C17 9.72386 17.2239 9.5 17.5 9.5H20C20.2761 9.5 20.5 9.72386 20.5 10C20.5 10.2761 20.2761 10.5 20 10.5H17.5C17.2239 10.5 17 10.2761 17 10Z" fill="#212A3D"/>
<path fill-rule="evenodd" clip-rule="evenodd" d="M17 12C17 11.7239 17.2239 11.5 17.5 11.5H20C20.2761 11.5 20.5 11.7239 20.5 12C20.5 12.2761 20.2761 12.5 20 12.5H17.5C17.2239 12.5 17 12.2761 17 12Z" fill="#212A3D"/>
</svg>
