<svg width="24" height="24" viewBox="0 0 24 24" fill="none" xmlns="http://www.w3.org/2000/svg">
<path d="M10.9002 3.77472C12.2672 3.77472 13.4115 3.90528 14.3331 4.1664C15.2701 4.42752 15.969 4.8576 16.4298 5.45664C16.9059 6.05568 17.144 6.8544 17.144 7.8528C17.144 8.49792 17.0211 9.07392 16.7754 9.5808C16.545 10.0723 16.1917 10.487 15.7155 10.825C15.2547 11.1475 14.6864 11.3702 14.0106 11.4931V11.6083C14.7018 11.7158 15.3238 11.9155 15.8768 12.2074C16.4451 12.4992 16.8906 12.9139 17.2131 13.4515C17.5357 13.9891 17.697 14.688 17.697 15.5482C17.697 16.5466 17.4666 17.399 17.0058 18.1056C16.545 18.7968 15.8845 19.3267 15.0243 19.6954C14.1795 20.0486 13.1658 20.2253 11.983 20.2253H6.2V3.77472H10.9002ZM11.3149 10.7789C12.728 10.7789 13.6957 10.5562 14.2179 10.1107C14.7402 9.64992 15.0013 8.97408 15.0013 8.0832C15.0013 7.17696 14.6787 6.53184 14.0336 6.14784C13.4038 5.74848 12.3901 5.5488 10.9923 5.5488H8.2736V10.7789H11.3149ZM8.2736 12.5069V18.4742H11.5914C13.0506 18.4742 14.0643 18.1901 14.6326 17.6218C15.201 17.0534 15.4851 16.3085 15.4851 15.3869C15.4851 14.8032 15.3546 14.2963 15.0934 13.8662C14.8477 13.4362 14.4253 13.1059 13.8262 12.8755C13.2426 12.6298 12.4438 12.5069 11.4301 12.5069H8.2736Z" fill="#212A3D"/>
</svg>
