<svg width="24" height="24" viewBox="0 0 24 24" fill="none" xmlns="http://www.w3.org/2000/svg">
<path fill-rule="evenodd" clip-rule="evenodd" d="M7.41934 5.39966C7.41934 4.9026 7.82228 4.49966 8.31934 4.49966H19.3335C19.8306 4.49966 20.2335 4.9026 20.2335 5.39966C20.2335 5.89671 19.8306 6.29966 19.3335 6.29966H8.31934C7.82228 6.29966 7.41934 5.89671 7.41934 5.39966Z" fill="#212A3D"/>
<path fill-rule="evenodd" clip-rule="evenodd" d="M7.41934 12.0012C7.41934 11.5042 7.82228 11.1012 8.31934 11.1012H19.3335C19.8306 11.1012 20.2335 11.5042 20.2335 12.0012C20.2335 12.4983 19.8306 12.9012 19.3335 12.9012H8.31934C7.82228 12.9012 7.41934 12.4983 7.41934 12.0012Z" fill="#212A3D"/>
<path fill-rule="evenodd" clip-rule="evenodd" d="M7.41934 18.6008C7.41934 18.1038 7.82228 17.7008 8.31934 17.7008H19.3335C19.8306 17.7008 20.2335 18.1038 20.2335 18.6008C20.2335 19.0979 19.8306 19.5008 19.3335 19.5008H8.31934C7.82228 19.5008 7.41934 19.0979 7.41934 18.6008Z" fill="#212A3D"/>
<path d="M4.6476 5.40035C4.6476 6.06309 4.09969 6.60035 3.4238 6.60035C2.74791 6.60035 2.2 6.06309 2.2 5.40035C2.2 4.73761 2.74791 4.20035 3.4238 4.20035C4.09969 4.20035 4.6476 4.73761 4.6476 5.40035Z" fill="#212A3D"/>
<path d="M4.6478 12C4.6478 12.6628 4.09988 13.2 3.424 13.2C2.74811 13.2 2.2002 12.6628 2.2002 12C2.2002 11.3373 2.74811 10.8 3.424 10.8C4.09988 10.8 4.6478 11.3373 4.6478 12Z" fill="#212A3D"/>
<path d="M4.6478 18.5997C4.6478 19.2624 4.09988 19.7997 3.424 19.7997C2.74811 19.7997 2.2002 19.2624 2.2002 18.5997C2.2002 17.9369 2.74811 17.3997 3.424 17.3997C4.09988 17.3997 4.6478 17.9369 4.6478 18.5997Z" fill="#212A3D"/>
</svg>
