<svg width="24" height="24" viewBox="0 0 24 24" fill="none" xmlns="http://www.w3.org/2000/svg">
<path fill-rule="evenodd" clip-rule="evenodd" d="M18.3514 2.06383C18.7416 2.21027 19 2.58332 19 3.00005V6.12606C20.7252 6.57011 22 8.13621 22 10C22 11.8639 20.7252 13.43 19 13.874V17C19 17.4168 18.7416 17.7898 18.3514 17.9363C17.9613 18.0827 17.5212 17.9719 17.247 17.6581C16.634 16.9566 15.5484 16.2834 14.0587 15.7864C13.4275 15.5759 12.7368 15.4014 12 15.2708V19.2402C12 20.7644 10.7644 22 9.24018 22C8.07384 22 7.03342 21.2668 6.64114 20.1685L4.62855 14.4027C3.06483 13.5588 2 11.9047 2 10C2 7.23862 4.23857 5.00005 7 5.00005H8.83208C9.53626 5.00005 10.2202 4.96179 10.876 4.88985C10.8846 4.88878 10.8933 4.88782 10.902 4.88697C12.0562 4.75863 13.1228 4.52587 14.0587 4.21365C15.5484 3.71666 16.634 3.04352 17.247 2.34204C17.5212 2.02824 17.9613 1.91738 18.3514 2.06383ZM8.83208 15L6.95532 14.9998L8.52462 19.4958C8.63432 19.7994 8.92002 20 9.24018 20C9.65982 20 10 19.6599 10 19.2402V15.0356C9.61804 15.0122 9.22827 15 8.83208 15ZM17 5.07584C16.3125 5.48458 15.5313 5.83074 14.6916 6.11087C13.8624 6.38748 12.9581 6.6059 12 6.75703V13.2431C12.9581 13.3942 13.8624 13.6126 14.6916 13.8892C15.5313 14.1694 16.3125 14.5155 17 14.9242V5.07584ZM10 6.96791C9.61591 6.98917 9.22622 7.00005 8.83208 7.00005H7C5.34314 7.00005 4 8.34319 4 10C4 11.2392 4.75153 12.3052 5.82767 12.7626C6.1865 12.9151 6.58204 13 6.99998 13H8.83209C9.22623 13 9.61591 13.0109 10 13.0322V6.96791ZM19 8.26761V11.7325C19.5978 11.3867 20 10.7403 20 10C20 9.25976 19.5978 8.61342 19 8.26761Z" fill="#212A3D"/>
</svg>
