<svg width="24" height="24" viewBox="0 0 24 24" fill="none" xmlns="http://www.w3.org/2000/svg">
<path fill-rule="evenodd" clip-rule="evenodd" d="M4.65864 4.60835C4.85782 4.40915 5.32327 4.19304 6.12855 4.06807C6.89423 3.94924 7.81152 3.93589 8.73056 3.99675C9.64581 4.05735 10.5257 4.189 11.2055 4.3424C11.5466 4.41938 11.8203 4.49803 12.0151 4.56919C12.1301 4.61123 12.1886 4.64044 12.2097 4.65099L12.2103 4.65125L19.8036 12.2446L19.8066 12.2476L19.8075 12.2485C19.9556 12.398 20.0388 12.6 20.0388 12.8105C20.0388 13.021 19.9556 13.223 19.8075 13.3725L19.8066 13.3734L13.4301 19.7498C13.356 19.8241 13.2679 19.883 13.171 19.9232C13.074 19.9633 12.9701 19.984 12.8652 19.984C12.7603 19.984 12.6564 19.9633 12.5594 19.9232C12.4625 19.883 12.3744 19.8241 12.3003 19.7498L12.2991 19.7487L8.79861 16.2526C7.01587 14.4721 5.12948 12.5879 4.67421 12.1327C4.67422 12.1327 4.67424 12.1327 4.67425 12.1327C4.67454 12.1324 4.67297 12.1297 4.66969 12.124C4.65685 12.1017 4.61793 12.0341 4.56298 11.8944C4.48405 11.6938 4.40019 11.4181 4.32051 11.0774C4.16158 10.3977 4.03547 9.52915 3.98502 8.62768C3.9344 7.72329 3.96209 6.82336 4.09213 6.07159C4.22829 5.28443 4.45036 4.81664 4.65864 4.60835ZM4.67421 12.1327C4.66881 12.1273 4.66361 12.1221 4.65862 12.1171C4.66275 12.1212 4.66603 12.1246 4.6685 12.1272C4.67196 12.1308 4.67383 12.1327 4.67421 12.1327ZM11.6065 20.4429L12.2991 19.7487C12.2992 19.7487 12.2994 19.749 11.6065 20.4429ZM21.1975 10.8649L21.1954 10.8628L13.5542 3.22157C13.3014 2.96881 12.9382 2.81845 12.6881 2.72707C12.3892 2.61786 12.0289 2.51767 11.6372 2.42928C10.8512 2.25191 9.86988 2.10666 8.86013 2.03981C7.85418 1.9732 6.78274 1.98184 5.82778 2.13004C4.91242 2.2721 3.9253 2.56806 3.27181 3.22158C2.62742 3.866 2.31656 4.8299 2.1596 5.7373C1.99652 6.68008 1.9709 7.73756 2.02686 8.73728C2.08297 9.73992 2.22332 10.7222 2.4108 11.5239C2.50432 11.9239 2.61365 12.2966 2.73791 12.6124C2.85023 12.8979 3.01639 13.2485 3.27184 13.5039C3.69849 13.9305 5.60912 15.8389 7.41267 17.6403L10.9127 21.1359C11.169 21.3925 11.4734 21.596 11.8084 21.7349C12.1434 21.8738 12.5025 21.9453 12.8652 21.9453C13.2279 21.9453 13.587 21.8738 13.922 21.7349C14.257 21.596 14.5614 21.3925 14.8177 21.1359L21.1954 14.7582L21.1975 14.7561C21.7115 14.239 22 13.5396 22 12.8105C22 12.0814 21.7115 11.382 21.1975 10.8649ZM7.56033 6.67594C7.01875 6.67594 6.57971 7.11498 6.57971 7.65656C6.57971 8.19813 7.01875 8.63717 7.56033 8.63717H7.56885C8.11043 8.63717 8.54947 8.19813 8.54947 7.65656C8.54947 7.11498 8.11043 6.67594 7.56885 6.67594H7.56033Z" fill="#212A3D"/>
</svg>
