<svg width="24" height="24" viewBox="0 0 24 24" fill="none" xmlns="http://www.w3.org/2000/svg">
<path fill-rule="evenodd" clip-rule="evenodd" d="M8.73605 4C8.35728 4 8.01101 4.214 7.84162 4.55279L4.34162 11.5528C4.00917 12.2177 4.49267 13 5.23605 13H12C12.5523 13 13 13.4477 13 14C13 14.5523 12.5523 15 12 15H11V19C11 19.5523 11.4477 20 12 20C12.0181 19.1216 12.2875 18.2659 12.7756 17.5338L16 12.6972V4.78078L12.9963 4.02986C12.917 4.01003 12.8355 4 12.7538 4H8.73605ZM18 5V13H19C19.5523 13 20 12.5523 20 12V6C20 5.44772 19.5523 5 19 5H18ZM16.8685 15L14.4397 18.6432C14.153 19.0733 14 19.5786 14 20.0955C14 21.1473 13.1473 22 12.0955 22H12C10.3431 22 8.99998 20.6569 8.99998 19V15H5.23605C3.0059 15 1.55542 12.6531 2.55277 10.6584L6.05277 3.65836C6.56094 2.64201 7.59973 2 8.73605 2H12.7538C12.9991 2 13.2434 2.03008 13.4814 2.08957L17.1231 3H19C20.6568 3 22 4.34314 22 6V12C22 13.6569 20.6568 15 19 15H16.8685Z" fill="#212A3D"/>
</svg>
