<svg width="24" height="24" viewBox="0 0 24 24" fill="none" xmlns="http://www.w3.org/2000/svg">
<path fill-rule="evenodd" clip-rule="evenodd" d="M15.2639 20C15.6427 20 15.989 19.786 16.1584 19.4472L19.6584 12.4472C19.9908 11.7823 19.5073 11 18.7639 11L12 11C11.4477 11 11 10.5523 11 10C11 9.44771 11.4477 9 12 9L13 9L13 5C13 4.44771 12.5523 4 12 4C11.9818 4.87837 11.7125 5.73408 11.2244 6.46619L8 11.3028L8 19.2192L11.0037 19.9701C11.083 19.99 11.1644 20 11.2462 20L15.2639 20ZM6 19L6 11L5 11C4.44771 11 4 11.4477 4 12L4 18C4 18.5523 4.44771 19 5 19L6 19ZM7.13148 9L9.56029 5.35679C9.847 4.92672 10 4.4214 10 3.90452C10 2.85268 10.8527 2 11.9045 2L12 2C13.6569 2 15 3.34314 15 5L15 9L18.7639 9C20.9941 9 22.4446 11.3469 21.4472 13.3416L17.9472 20.3416C17.439 21.358 16.4002 22 15.2639 22L11.2462 22C11.0009 22 10.7566 21.9699 10.5186 21.9104L6.87689 21L5 21C3.34315 21 2 19.6569 2 18L2 12C2 10.3431 3.34314 9 5 9L7.13148 9Z" fill="#212A3D"/>
</svg>
