<svg width="24" height="24" viewBox="0 0 24 24" fill="none" xmlns="http://www.w3.org/2000/svg">
<path fill-rule="evenodd" clip-rule="evenodd" d="M12 4C10.3432 4 9.00001 5.34315 9.00001 7C9.00001 8.65685 10.3432 10 12 10C13.6569 10 15 8.65685 15 7C15 5.34315 13.6569 4 12 4ZM7.00001 7C7.00001 4.23858 9.23858 2 12 2C14.7614 2 17 4.23858 17 7C17 9.76142 14.7614 12 12 12C9.23858 12 7.00001 9.76142 7.00001 7ZM12 15C9.27519 15 6.97219 16.8172 6.24166 19.3079C6.19444 19.4688 6.2295 19.6061 6.34798 19.7356C6.48117 19.8811 6.7168 20 7.00001 20H17C17.2832 20 17.5188 19.8811 17.652 19.7356C17.7705 19.6061 17.8056 19.4688 17.7584 19.3079C17.0278 16.8172 14.7248 15 12 15ZM4.32251 18.745C5.2961 15.4256 8.36349 13 12 13C15.6365 13 18.7039 15.4256 19.6775 18.745C19.9412 19.6439 19.6695 20.4934 19.1275 21.0858C18.6001 21.662 17.8214 22 17 22H7.00001C6.17864 22 5.39987 21.662 4.87252 21.0858C4.33046 20.4934 4.05885 19.6439 4.32251 18.745Z" fill="#212A3D"/>
</svg>
