<svg width="24" height="24" viewBox="0 0 24 24" fill="none" xmlns="http://www.w3.org/2000/svg">
<path fill-rule="evenodd" clip-rule="evenodd" d="M17.4545 4C18.9608 4 20.1818 5.19391 20.1818 6.66667V7.70729C21.2411 8.07337 22 9.06114 22 10.2222V13.7778C22 14.9389 21.2411 15.9266 20.1818 16.2927V17.3333C20.1818 18.8061 18.9608 20 17.4545 20H4.72727C3.22104 20 2 18.8061 2 17.3333V6.66667C2 5.19391 3.22104 4 4.72727 4H17.4545ZM17.4545 5.77778H4.72727C4.2252 5.77778 3.81818 6.17575 3.81818 6.66667V17.3333C3.81818 17.8243 4.2252 18.2222 4.72727 18.2222H17.4545C17.9566 18.2222 18.3636 17.8243 18.3636 17.3333V16.4444H12.9091C11.4029 16.4444 10.1818 15.2505 10.1818 13.7778V10.2222C10.1818 8.74946 11.4029 7.55556 12.9091 7.55556H18.3636V6.66667C18.3636 6.17575 17.9566 5.77778 17.4545 5.77778ZM19.2727 9.33333H12.9091C12.407 9.33333 12 9.7313 12 10.2222V13.7778C12 14.2687 12.407 14.6667 12.9091 14.6667H19.2727C19.7748 14.6667 20.1818 14.2687 20.1818 13.7778V10.2222C20.1818 9.7313 19.7748 9.33333 19.2727 9.33333ZM17.4545 11.1022C17.9566 11.1022 18.3636 11.5002 18.3636 11.9911C18.3636 12.4909 17.9566 12.8889 17.4545 12.8889C16.9525 12.8889 16.5455 12.4909 16.5455 12C16.5455 11.5002 16.9525 11.1022 17.4545 11.1022Z" fill="#212A3D"/>
</svg>
