<?xml version="1.0" encoding="UTF-8" standalone="no"?>
<!DOCTYPE svg PUBLIC "-//W3C//DTD SVG 1.1//EN"
 "http://www.w3.org/Graphics/SVG/1.1/DTD/svg11.dtd">
<!-- Generated by graphviz version 2.43.0 (0)
 -->
<!-- Title: erd Pages: 1 -->
<svg width="1398pt" height="628pt"
 viewBox="0.00 0.00 1398.00 627.50" xmlns="http://www.w3.org/2000/svg" xmlns:xlink="http://www.w3.org/1999/xlink">
<g id="graph0" class="graph" transform="scale(1 1) rotate(0) translate(4 623.5)">
<title>erd</title>
<polygon fill="white" stroke="transparent" points="-4,4 -4,-623.5 1394,-623.5 1394,4 -4,4"/>
<text text-anchor="middle" x="695" y="-591.5" font-family="Times,serif" font-size="30.00" fill="blue">Configuration Data</text>
<!-- config -->
<g id="node1" class="node">
<title>config</title>
<polygon fill="#009879" stroke="transparent" points="0,-350.5 0,-378.5 692,-378.5 692,-350.5 0,-350.5"/>
<polygon fill="none" stroke="black" points="0,-350.5 0,-378.5 692,-378.5 692,-350.5 0,-350.5"/>
<text text-anchor="start" x="309.5" y="-360.5" font-family="Courier bold italic" font-weight="bold" font-size="20.00" fill="white">config</text>
<polygon fill="none" stroke="black" points="0,-324.5 0,-350.5 97,-350.5 97,-324.5 0,-324.5"/>
<text text-anchor="start" x="16.5" y="-334.1" font-family="Courier bold" font-weight="bold" font-size="18.00">Column</text>
<polygon fill="none" stroke="black" points="97,-324.5 97,-350.5 157,-350.5 157,-324.5 97,-324.5"/>
<text text-anchor="start" x="105.5" y="-334.1" font-family="Courier bold" font-weight="bold" font-size="18.00">Type</text>
<polygon fill="none" stroke="black" points="157,-324.5 157,-350.5 692,-350.5 692,-324.5 157,-324.5"/>
<text text-anchor="start" x="366.5" y="-334.1" font-family="Courier bold" font-weight="bold" font-size="18.00">Description</text>
<polygon fill="#54ff9f" stroke="transparent" points="0,-290.5 0,-324.5 97,-324.5 97,-290.5 0,-290.5"/>
<polygon fill="none" stroke="black" points="0,-290.5 0,-324.5 97,-324.5 97,-290.5 0,-290.5"/>
<text text-anchor="start" x="3" y="-303.7" font-family="Times,serif" font-size="16.00">row_id</text>
<polygon fill="#54ff9f" stroke="transparent" points="97,-290.5 97,-324.5 157,-324.5 157,-290.5 97,-290.5"/>
<polygon fill="none" stroke="black" points="97,-290.5 97,-324.5 157,-324.5 157,-290.5 97,-290.5"/>
<text text-anchor="start" x="100" y="-303.7" font-family="Times,serif" font-size="16.00">integer+</text>
<polygon fill="#54ff9f" stroke="transparent" points="157,-290.5 157,-324.5 692,-324.5 692,-290.5 157,-290.5"/>
<polygon fill="none" stroke="black" points="157,-290.5 157,-324.5 692,-324.5 692,-290.5 157,-290.5"/>
<text text-anchor="start" x="160" y="-311.3" font-family="Monospace" font-style="italic" font-size="14.00" fill="#7f7f7f">Synthetic unique key. </text>
<text text-anchor="start" x="160" y="-297.3" font-family="Monospace" font-style="italic" font-size="14.00" fill="#7f7f7f">Always lookup using `cardano.follower.preview`</text>
<polygon fill="none" stroke="black" points="0,-266.5 0,-290.5 97,-290.5 97,-266.5 0,-266.5"/>
<text text-anchor="start" x="3" y="-274.7" font-family="Times,serif" font-size="16.00">id</text>
<polygon fill="none" stroke="black" points="97,-266.5 97,-290.5 157,-290.5 157,-266.5 97,-266.5"/>
<text text-anchor="start" x="103" y="-274.7" font-family="Times,serif" font-size="16.00">varchar</text>
<polygon fill="none" stroke="black" points="157,-266.5 157,-290.5 692,-290.5 692,-266.5 157,-266.5"/>
<text text-anchor="start" x="160" y="-275.8" font-family="Monospace" font-style="italic" font-size="14.00" fill="#7f7f7f">The name/id of the general config value/variable</text>
<polygon fill="none" stroke="black" points="0,-232.5 0,-266.5 97,-266.5 97,-232.5 0,-232.5"/>
<text text-anchor="start" x="3" y="-245.7" font-family="Times,serif" font-size="16.00">id2</text>
<polygon fill="none" stroke="black" points="97,-232.5 97,-266.5 157,-266.5 157,-232.5 97,-232.5"/>
<text text-anchor="start" x="103" y="-245.7" font-family="Times,serif" font-size="16.00">varchar</text>
<polygon fill="none" stroke="black" points="157,-232.5 157,-266.5 692,-266.5 692,-232.5 157,-232.5"/>
<text text-anchor="start" x="160" y="-253.3" font-family="Monospace" font-style="italic" font-size="14.00" fill="#7f7f7f">2nd ID of the general config value. </text>
<text text-anchor="start" x="160" y="-239.3" font-family="Monospace" font-style="italic" font-size="14.00" fill="#7f7f7f">Must be defined, use &quot;&quot; if not required.</text>
<polygon fill="none" stroke="black" points="0,-198.5 0,-232.5 97,-232.5 97,-198.5 0,-198.5"/>
<text text-anchor="start" x="3" y="-211.7" font-family="Times,serif" font-size="16.00">id3</text>
<polygon fill="none" stroke="black" points="97,-198.5 97,-232.5 157,-232.5 157,-198.5 97,-198.5"/>
<text text-anchor="start" x="103" y="-211.7" font-family="Times,serif" font-size="16.00">varchar</text>
<polygon fill="none" stroke="black" points="157,-198.5 157,-232.5 692,-232.5 692,-198.5 157,-198.5"/>
<text text-anchor="start" x="160" y="-219.3" font-family="Monospace" font-style="italic" font-size="14.00" fill="#7f7f7f">3rd ID of the general config value.</text>
<text text-anchor="start" x="160" y="-205.3" font-family="Monospace" font-style="italic" font-size="14.00" fill="#7f7f7f">Must be defined, use &quot;&quot; if not required.</text>
<polygon fill="none" stroke="black" points="0,-174.5 0,-198.5 97,-198.5 97,-174.5 0,-174.5"/>
<text text-anchor="start" x="3" y="-182.7" font-family="Times,serif" font-size="16.00">value</text>
<polygon fill="none" stroke="black" points="97,-174.5 97,-198.5 157,-198.5 157,-174.5 97,-174.5"/>
<text text-anchor="start" x="109" y="-183.7" font-family="Times,serif" font-style="italic" font-size="16.00">jsonb</text>
<polygon fill="none" stroke="black" points="157,-174.5 157,-198.5 692,-198.5 692,-174.5 157,-174.5"/>
<text text-anchor="start" x="160" y="-183.8" font-family="Monospace" font-style="italic" font-size="14.00" fill="#7f7f7f">The JSON value of the system variable `cardano.follower.preview`</text>
<polygon fill="none" stroke="black" points="0,-140.5 0,-174.5 97,-174.5 97,-140.5 0,-140.5"/>
<text text-anchor="start" x="3" y="-153.7" font-family="Times,serif" font-size="16.00">value_schema</text>
<polygon fill="none" stroke="black" points="97,-140.5 97,-174.5 157,-174.5 157,-140.5 97,-140.5"/>
<text text-anchor="start" x="112" y="-154.7" font-family="Times,serif" font-style="italic" font-size="16.00">uuid</text>
<polygon fill="none" stroke="black" points="157,-140.5 157,-174.5 692,-174.5 692,-140.5 157,-140.5"/>
<text text-anchor="start" x="160" y="-161.3" font-family="Monospace" font-style="italic" font-size="14.00" fill="#7f7f7f">The Schema the Config Value conforms to.</text>
<text text-anchor="start" x="160" y="-147.3" font-family="Monospace" font-style="italic" font-size="14.00" fill="#7f7f7f">The `value` field must conform to this schema.</text>
<polygon fill="#333333" stroke="transparent" points="0,-92.5 0,-140.5 692,-140.5 692,-92.5 0,-92.5"/>
<polygon fill="none" stroke="black" points="0,-92.5 0,-140.5 692,-140.5 692,-92.5 0,-92.5"/>
<text text-anchor="start" x="3" y="-127.3" font-family="Monospace" font-style="italic" font-size="14.00" fill="white">General JSON Configuration and Data Values.</text>
<text text-anchor="start" x="3" y="-113.3" font-family="Monospace" font-style="italic" font-size="14.00" fill="white">Defined &#160;Data Formats:</text>
<text text-anchor="start" x="3" y="-99.3" font-family="Monospace" font-style="italic" font-size="14.00" fill="white"> &#160;Currently None</text>
</g>
<!-- json_schema_type -->
<g id="node2" class="node">
<title>json_schema_type</title>
<polygon fill="#009879" stroke="transparent" points="728,-200.5 728,-228.5 1390,-228.5 1390,-200.5 728,-200.5"/>
<polygon fill="none" stroke="black" points="728,-200.5 728,-228.5 1390,-228.5 1390,-200.5 728,-200.5"/>
<text text-anchor="start" x="962.5" y="-210.5" font-family="Courier bold italic" font-weight="bold" font-size="20.00" fill="white">json_schema_type</text>
<polygon fill="none" stroke="black" points="728,-174.5 728,-200.5 798,-200.5 798,-174.5 728,-174.5"/>
<text text-anchor="start" x="731" y="-184.1" font-family="Courier bold" font-weight="bold" font-size="18.00">Column</text>
<polygon fill="none" stroke="black" points="798,-174.5 798,-200.5 847,-200.5 847,-174.5 798,-174.5"/>
<text text-anchor="start" x="801" y="-184.1" font-family="Courier bold" font-weight="bold" font-size="18.00">Type</text>
<polygon fill="none" stroke="black" points="847,-174.5 847,-200.5 1390,-200.5 1390,-174.5 847,-174.5"/>
<text text-anchor="start" x="1060.5" y="-184.1" font-family="Courier bold" font-weight="bold" font-size="18.00">Description</text>
<polygon fill="#54ff9f" stroke="transparent" points="728,-140.5 728,-174.5 798,-174.5 798,-140.5 728,-140.5"/>
<polygon fill="none" stroke="black" points="728,-140.5 728,-174.5 798,-174.5 798,-140.5 728,-140.5"/>
<text text-anchor="start" x="731" y="-153.7" font-family="Times,serif" font-size="16.00">id</text>
<polygon fill="#54ff9f" stroke="transparent" points="798,-140.5 798,-174.5 847,-174.5 847,-140.5 798,-140.5"/>
<polygon fill="none" stroke="black" points="798,-140.5 798,-174.5 847,-174.5 847,-140.5 798,-140.5"/>
<text text-anchor="start" x="807.5" y="-153.7" font-family="Times,serif" font-size="16.00">uuid</text>
<polygon fill="#54ff9f" stroke="transparent" points="847,-140.5 847,-174.5 1390,-174.5 1390,-140.5 847,-140.5"/>
<polygon fill="none" stroke="black" points="847,-140.5 847,-174.5 1390,-174.5 1390,-140.5 847,-140.5"/>
<text text-anchor="start" x="850" y="-161.3" font-family="Monospace" font-style="italic" font-size="14.00" fill="#7f7f7f">Synthetic Unique ID for each json_schema_type (UUIDv4).</text>
<text text-anchor="start" x="850" y="-147.3" font-family="Monospace" font-style="italic" font-size="14.00" fill="#7f7f7f">Must match the `UUID` component of the $id URI inside the schema.</text>
<polygon fill="none" stroke="black" points="728,-92.5 728,-140.5 798,-140.5 798,-92.5 728,-92.5"/>
<text text-anchor="start" x="731" y="-112.7" font-family="Times,serif" font-size="16.00">type</text>
<polygon fill="none" stroke="black" points="798,-92.5 798,-140.5 847,-140.5 847,-92.5 798,-92.5"/>
<text text-anchor="start" x="810" y="-112.7" font-family="Times,serif" font-size="16.00">text</text>
<polygon fill="none" stroke="black" points="847,-92.5 847,-140.5 1390,-140.5 1390,-92.5 847,-92.5"/>
<text text-anchor="start" x="850" y="-127.3" font-family="Monospace" font-style="italic" font-size="14.00" fill="#7f7f7f">The type of the json schema type.</text>
<text text-anchor="start" x="850" y="-113.3" font-family="Monospace" font-style="italic" font-size="14.00" fill="#7f7f7f">eg. &quot;event&quot;</text>
<text text-anchor="start" x="850" y="-99.3" font-family="Monospace" font-style="italic" font-size="14.00" fill="#7f7f7f">Must match the `type` component of the $id URI inside the schema.</text>
<polygon fill="none" stroke="black" points="728,-44.5 728,-92.5 798,-92.5 798,-44.5 728,-44.5"/>
<text text-anchor="start" x="731" y="-64.7" font-family="Times,serif" font-size="16.00">name</text>
<polygon fill="none" stroke="black" points="798,-44.5 798,-92.5 847,-92.5 847,-44.5 798,-44.5"/>
<text text-anchor="start" x="810" y="-64.7" font-family="Times,serif" font-size="16.00">text</text>
<polygon fill="none" stroke="black" points="847,-44.5 847,-92.5 1390,-92.5 1390,-44.5 847,-44.5"/>
<text text-anchor="start" x="850" y="-79.3" font-family="Monospace" font-style="italic" font-size="14.00" fill="#7f7f7f">The name of the json schema type.</text>
<text text-anchor="start" x="850" y="-65.3" font-family="Monospace" font-style="italic" font-size="14.00" fill="#7f7f7f">eg. &quot;catalyst_v1&quot;</text>
<text text-anchor="start" x="850" y="-51.3" font-family="Monospace" font-style="italic" font-size="14.00" fill="#7f7f7f">Must match the `name` component of the $id URI inside the schema.</text>
<polygon fill="none" stroke="black" points="728,-20.5 728,-44.5 798,-44.5 798,-20.5 728,-20.5"/>
<text text-anchor="start" x="731" y="-28.7" font-family="Times,serif" font-size="16.00">schema</text>
<polygon fill="none" stroke="black" points="798,-20.5 798,-44.5 847,-44.5 847,-20.5 798,-20.5"/>
<text text-anchor="start" x="804.5" y="-28.7" font-family="Times,serif" font-size="16.00">jsonb</text>
<polygon fill="none" stroke="black" points="847,-20.5 847,-44.5 1390,-44.5 1390,-20.5 847,-20.5"/>
<text text-anchor="start" x="850" y="-29.8" font-family="Monospace" font-style="italic" font-size="14.00" fill="#7f7f7f">none</text>
<polygon fill="#333333" stroke="transparent" points="728,0.5 728,-20.5 1390,-20.5 1390,0.5 728,0.5"/>
<polygon fill="none" stroke="black" points="728,0.5 728,-20.5 1390,-20.5 1390,0.5 728,0.5"/>
<text text-anchor="start" x="731" y="-7.3" font-family="Monospace" font-style="italic" font-size="14.00" fill="white">Library of defined json schemas used to validate JSONB field contents.</text>
</g>
<!-- config&#45;&gt;json_schema_type -->
<g id="edge1" class="edge">
<title>config:value_schema_out&#45;&gt;json_schema_type:id</title>
<path fill="none" stroke="black" d="M692,-157.5C704,-157.5 709.25,-157.5 717.88,-157.5"/>
<polygon fill="black" stroke="black" points="718,-161 728,-157.5 718,-154 718,-161"/>
</g>
<!-- LEGEND -->
<g id="node3" class="node">
<title>LEGEND</title>
<polygon fill="Pink" stroke="transparent" points="236,-546.5 236,-574.5 456,-574.5 456,-546.5 236,-546.5"/>
<polygon fill="none" stroke="black" points="236,-546.5 236,-574.5 456,-574.5 456,-546.5 236,-546.5"/>
<text text-anchor="start" x="309.5" y="-556.5" font-family="Courier bold italic" font-weight="bold" font-size="20.00" fill="white">LEGEND</text>
<polygon fill="none" stroke="black" points="236,-520.5 236,-546.5 375,-546.5 375,-520.5 236,-520.5"/>
<text text-anchor="start" x="284" y="-530.1" font-family="Courier bold" font-weight="bold" font-size="18.00">Type</text>
<polygon fill="none" stroke="black" points="375,-520.5 375,-546.5 456,-546.5 456,-520.5 375,-520.5"/>
<text text-anchor="start" x="378.5" y="-530.1" font-family="Courier bold" font-weight="bold" font-size="18.00">Example</text>
<polygon fill="#54ff9f" stroke="transparent" points="236,-496.5 236,-520.5 375,-520.5 375,-496.5 236,-496.5"/>
<polygon fill="none" stroke="black" points="236,-496.5 236,-520.5 375,-520.5 375,-496.5 236,-496.5"/>
<text text-anchor="start" x="239" y="-504.7" font-family="Times,serif" font-size="16.00">Primary Key</text>
<polygon fill="#54ff9f" stroke="transparent" points="375,-496.5 375,-520.5 456,-520.5 456,-496.5 375,-496.5"/>
<polygon fill="none" stroke="black" points="375,-496.5 375,-520.5 456,-520.5 456,-496.5 375,-496.5"/>
<text text-anchor="start" x="388.5" y="-504.7" font-family="Times,serif" font-size="16.00">integer+</text>
<polygon fill="none" stroke="black" points="236,-472.5 236,-496.5 375,-496.5 375,-472.5 236,-472.5"/>
<text text-anchor="start" x="239" y="-480.7" font-family="Times,serif" font-size="16.00">Standard Field</text>
<polygon fill="none" stroke="black" points="375,-472.5 375,-496.5 456,-496.5 456,-472.5 375,-472.5"/>
<text text-anchor="start" x="398" y="-480.7" font-family="Times,serif" font-size="16.00">bytea</text>
<polygon fill="none" stroke="black" points="236,-448.5 236,-472.5 375,-472.5 375,-448.5 236,-448.5"/>
<text text-anchor="start" x="239" y="-456.7" font-family="Times,serif" font-size="16.00">Nullable Field</text>
<polygon fill="none" stroke="black" points="375,-448.5 375,-472.5 456,-472.5 456,-448.5 375,-448.5"/>
<text text-anchor="start" x="404" y="-457.7" font-family="Times,serif" font-style="italic" font-size="16.00">text</text>
<polygon fill="none" stroke="black" points="236,-424.5 236,-448.5 375,-448.5 375,-424.5 236,-424.5"/>
<text text-anchor="start" x="239" y="-432.7" font-family="Times,serif" font-size="16.00">Sized Field</text>
<polygon fill="none" stroke="black" points="375,-424.5 375,-448.5 456,-448.5 456,-424.5 375,-424.5"/>
<text text-anchor="start" x="378" y="-432.7" font-family="Times,serif" font-size="16.00">varchar(32)</text>
<polygon fill="none" stroke="black" points="236,-400.5 236,-424.5 375,-424.5 375,-400.5 236,-400.5"/>
<text text-anchor="start" x="239" y="-408.7" font-family="Times,serif" font-size="16.00">Autoincrement Field</text>
<polygon fill="none" stroke="black" points="375,-400.5 375,-424.5 456,-424.5 456,-400.5 375,-400.5"/>
<text text-anchor="start" x="388.5" y="-408.7" font-family="Times,serif" font-size="16.00">integer+</text>
</g>
</g>
</svg>
