<svg width="24" height="24" viewBox="0 0 24 24" fill="none" xmlns="http://www.w3.org/2000/svg">
<path fill-rule="evenodd" clip-rule="evenodd" d="M3 5C2.44772 5 2 5.44772 2 6V18C2 18.5523 2.44772 19 3 19H21C21.5523 19 22 18.5523 22 18V6C22 5.44772 21.5523 5 21 5H3ZM0 6C0 4.34315 1.34315 3 3 3H21C22.6569 3 24 4.34315 24 6V18C24 19.6569 22.6569 21 21 21H3C1.34314 21 0 19.6569 0 18V6ZM5.25 8.5C5.80228 8.5 6.25 8.94772 6.25 9.5V14.5C6.25 15.0523 5.80228 15.5 5.25 15.5C4.69772 15.5 4.25 15.0523 4.25 14.5V9.5C4.25 8.94772 4.69772 8.5 5.25 8.5ZM12.25 8.5C12.8023 8.5 13.25 8.94772 13.25 9.5V14.5C13.25 15.0523 12.8023 15.5 12.25 15.5C11.6977 15.5 11.25 15.0523 11.25 14.5V9.5C11.25 8.94772 11.6977 8.5 12.25 8.5ZM18.25 8.5C18.8023 8.5 19.25 8.94772 19.25 9.5V14.5C19.25 15.0523 18.8023 15.5 18.25 15.5C17.6977 15.5 17.25 15.0523 17.25 14.5V9.5C17.25 8.94772 17.6977 8.5 18.25 8.5Z" fill="#212A3D"/>
</svg>
