<svg width="24" height="24" viewBox="0 0 24 24" fill="none" xmlns="http://www.w3.org/2000/svg">
<path fill-rule="evenodd" clip-rule="evenodd" d="M9.0185 4.66519C9.18499 3.16592 10.4564 2 12 2C13.5437 2 14.8151 3.16592 14.9816 4.6652C17.3554 5.78439 19 8.19905 19 11V14.1585C19 14.4321 19.1087 14.6945 19.3022 14.888L20.7071 16.2929C20.9931 16.5789 21.0787 17.009 20.9239 17.3827C20.7691 17.7564 20.4045 18 20 18L16 18C16 20.2091 14.2092 22 12 22C9.79089 22 8.00003 20.2091 8.00003 18L4.00003 18C3.59557 18 3.23093 17.7564 3.07615 17.3827C2.92137 17.009 3.00692 16.5789 3.29292 16.2929L4.69785 14.888C4.89133 14.6945 5.00003 14.4321 5.00003 14.1585V11C5.00003 8.19905 6.64464 5.78439 9.0185 4.66519ZM10 18C10 19.1046 10.8955 20 12 20C13.1046 20 14 19.1046 14 18H10ZM12 4C11.4477 4 11 4.44772 11 5V5.34142C11 5.76523 10.7329 6.14302 10.3333 6.28426C8.38994 6.97113 7.00003 8.82453 7.00003 11V14.1585C7.00003 14.8277 6.77872 15.4742 6.37664 16H17.6234C17.2213 15.4742 17 14.8277 17 14.1585V11C17 8.82453 15.6101 6.97113 13.6668 6.28426C13.2672 6.14302 13 5.76523 13 5.34142V5C13 4.44772 12.5523 4 12 4Z" fill="#212A3D"/>
</svg>
