<svg width="24" height="24" viewBox="0 0 24 24" fill="none" xmlns="http://www.w3.org/2000/svg">
<path fill-rule="evenodd" clip-rule="evenodd" d="M21 5.5H3C2.72386 5.5 2.5 5.72386 2.5 6V18C2.5 18.2761 2.72386 18.5 3 18.5H21C21.2761 18.5 21.5 18.2761 21.5 18V6C21.5 5.72386 21.2761 5.5 21 5.5ZM3 4C1.89543 4 1 4.89543 1 6V18C1 19.1046 1.89543 20 3 20H21C22.1046 20 23 19.1046 23 18V6C23 4.89543 22.1046 4 21 4H3Z" fill="#212A3D"/>
<path fill-rule="evenodd" clip-rule="evenodd" d="M21.5 15H2.5V13.5H21.5V15Z" fill="#212A3D"/>
<path fill-rule="evenodd" clip-rule="evenodd" d="M16.5 17C16.5 16.7239 16.7239 16.5 17 16.5H19.5C19.7761 16.5 20 16.7239 20 17C20 17.2761 19.7761 17.5 19.5 17.5H17C16.7239 17.5 16.5 17.2761 16.5 17Z" fill="#212A3D"/>
<path fill-rule="evenodd" clip-rule="evenodd" d="M10.5 17C10.5 16.7239 10.7239 16.5 11 16.5H13.5C13.7761 16.5 14 16.7239 14 17C14 17.2761 13.7761 17.5 13.5 17.5H11C10.7239 17.5 10.5 17.2761 10.5 17Z" fill="#212A3D"/>
<path fill-rule="evenodd" clip-rule="evenodd" d="M3.5 17C3.5 16.7239 3.72386 16.5 4 16.5H6.5C6.77614 16.5 7 16.7239 7 17C7 17.2761 6.77614 17.5 6.5 17.5H4C3.72386 17.5 3.5 17.2761 3.5 17Z" fill="#212A3D"/>
</svg>
