<svg width="24" height="24" viewBox="0 0 24 24" fill="none" xmlns="http://www.w3.org/2000/svg">
<path fill-rule="evenodd" clip-rule="evenodd" d="M9.83841 4.19209C6.71009 5.05625 4.3412 7.7501 3.9556 11.0498H7.47878C7.68481 8.59635 8.49937 6.24042 9.83841 4.19209ZM12 2C6.47715 2 2 6.47715 2 12C2 17.5228 6.47715 22 12 22C17.5228 22 22 17.5228 22 12C22 6.47715 17.5228 2 12 2ZM14.1616 4.19209C15.5006 6.24042 16.3152 8.59635 16.5212 11.0498H20.0444C19.6588 7.75009 17.2899 5.05625 14.1616 4.19209ZM14.6131 11.0498C14.3807 8.64045 13.4745 6.34524 12 4.42768C10.5255 6.34524 9.61934 8.64045 9.38691 11.0498H14.6131ZM9.38691 12.9502H14.6131C14.3807 15.3595 13.4745 17.6548 12 19.5723C10.5255 17.6548 9.61934 15.3595 9.38691 12.9502ZM7.47878 12.9502H3.9556C4.3412 16.2499 6.71009 18.9438 9.83842 19.8079C8.49938 17.7596 7.68481 15.4036 7.47878 12.9502ZM14.1616 19.8079C15.5006 17.7596 16.3152 15.4036 16.5212 12.9502H20.0444C19.6588 16.2499 17.2899 18.9438 14.1616 19.8079Z" fill="#212A3D"/>
</svg>
