<svg width="24" height="24" viewBox="0 0 24 24" fill="none" xmlns="http://www.w3.org/2000/svg">
<path fill-rule="evenodd" clip-rule="evenodd" d="M19.5613 4.4386C18.9754 3.8538 18.0245 3.8538 17.4386 4.4386L16.6478 5.22784L18.7677 7.3436L19.5613 6.55157C20.1462 5.96786 20.1462 5.0223 19.5613 4.4386ZM17.3521 8.75642L15.2322 6.64067L4 17.8507V20H6.08636L17.3521 8.75642ZM16.0258 3.02299C17.3924 1.659 19.6074 1.659 20.9741 3.02299C22.3419 4.38806 22.3419 6.6021 20.9741 7.96717L7.20641 21.7078C7.01893 21.8949 6.76488 22 6.5 22H3C2.44772 22 2 21.5523 2 21V17.436C2 17.1704 2.10563 16.9157 2.29359 16.7282L16.0258 3.02299Z" fill="#212A3D"/>
</svg>
