<svg width="24" height="24" viewBox="0 0 24 24" fill="none" xmlns="http://www.w3.org/2000/svg">
<path fill-rule="evenodd" clip-rule="evenodd" d="M21.9891 2.95604C21.9568 2.72534 21.8519 2.50285 21.6745 2.32544C21.3553 2.00626 20.8903 1.92186 20.494 2.07223L2.74406 8.2847C2.31406 8.4352 2.0195 8.83294 2.00093 9.28814C1.98236 9.74334 2.24354 10.1638 2.65985 10.3488L10.2693 13.7308L13.6513 21.3403C13.8364 21.7566 14.2568 22.0177 14.712 21.9992C15.1672 21.9806 15.5649 21.686 15.7154 21.256L21.9313 3.49648C21.9952 3.32315 22.0145 3.13707 21.9891 2.95604ZM16.6601 5.76849L6.12342 9.45633L10.8649 11.5637L16.6601 5.76849ZM12.4363 13.1349L18.2318 7.33949L14.5438 17.8767L12.4363 13.1349Z" fill="#212A3D"/>
</svg>
