<svg width="24" height="24" viewBox="0 0 24 24" fill="none" xmlns="http://www.w3.org/2000/svg">
<path d="M10.878 4.64754C11.2032 3.78415 12.4245 3.78415 12.7497 4.64754L14.0622 8.13256C14.203 8.50646 14.5529 8.76065 14.952 8.77904L18.6721 8.95043C19.5937 8.99288 19.9711 10.1544 19.2504 10.7305L16.3416 13.0557C16.0295 13.3052 15.8959 13.7165 16.0017 14.1017L16.9883 17.6927C17.2327 18.5823 16.2446 19.3002 15.4741 18.7928L12.3638 16.7449C12.0301 16.5252 11.5976 16.5252 11.2639 16.7449L8.15358 18.7928C7.38302 19.3002 6.39497 18.5823 6.63938 17.6927L7.62594 14.1017C7.73179 13.7165 7.59815 13.3052 7.28607 13.0557L4.37722 10.7305C3.65657 10.1544 4.03398 8.99288 4.95559 8.95043L8.67564 8.77904C9.07476 8.76065 9.42463 8.50646 9.56545 8.13256L10.878 4.64754Z" fill="#212A3D"/>
</svg>
