<svg width="24" height="24" viewBox="0 0 24 24" fill="none" xmlns="http://www.w3.org/2000/svg">
<path fill-rule="evenodd" clip-rule="evenodd" d="M10.1284 4.1323C10.7787 2.40553 13.2213 2.40552 13.8717 4.1323L15.1842 7.61732L18.9043 7.7887C20.7475 7.87362 21.5023 10.1967 20.061 11.3488L17.1522 13.674L18.1387 17.265C18.6276 19.0442 16.6515 20.48 15.1103 19.4652L12 17.4173L8.88969 19.4652C7.34857 20.48 5.37246 19.0442 5.86129 17.265L6.84785 13.674L3.93901 11.3488C2.49772 10.1967 3.25252 7.87362 5.09575 7.7887L8.8158 7.61732L10.1284 4.1323ZM13.3126 8.32224L12 4.83722L10.6875 8.32224C10.4058 9.07004 9.70608 9.57842 8.90785 9.6152L5.1878 9.78658L8.09664 12.1118C8.72081 12.6108 8.98809 13.4334 8.77639 14.2039L7.78983 17.7948L10.9002 15.7469C11.5676 15.3075 12.4325 15.3075 13.0999 15.7469L16.2102 17.7948L15.2236 14.2039C15.0119 13.4334 15.2792 12.6108 15.9034 12.1118L18.8122 9.78658L15.0922 9.6152C14.2939 9.57842 13.5942 9.07004 13.3126 8.32224Z" fill="#212A3D"/>
</svg>
