<svg width="25" height="25" viewBox="0 0 25 25" fill="none" xmlns="http://www.w3.org/2000/svg">
<g clip-path="url(#clip0_498_2964)">
<path fill-rule="evenodd" clip-rule="evenodd" d="M8.63673 10.6167C8.94915 10.9291 8.94915 11.4356 8.63673 11.7481L4.95978 15.425C4.02252 16.3623 4.02252 17.8819 4.95977 18.8191L5.24262 19.102C6.17988 20.0392 7.69947 20.0392 8.63673 19.102L12.3137 15.425C12.6261 15.1126 13.1326 15.1126 13.4451 15.425C13.7575 15.7374 13.7575 16.244 13.4451 16.5564L9.7681 20.2333C8.206 21.7954 5.67334 21.7954 4.11125 20.2333L3.8284 19.9505C2.26631 18.3884 2.26631 15.8557 3.8284 14.2936L7.50536 10.6167C7.81778 10.3043 8.32431 10.3043 8.63673 10.6167Z" fill="black"/>
<path fill-rule="evenodd" clip-rule="evenodd" d="M8.63673 10.6167C8.94915 10.9291 8.94915 11.4356 8.63673 11.7481L4.95978 15.425C4.02252 16.3623 4.02252 17.8819 4.95977 18.8191L5.24262 19.102C6.17988 20.0392 7.69947 20.0392 8.63673 19.102L12.3137 15.425C12.6261 15.1126 13.1326 15.1126 13.4451 15.425C13.7575 15.7374 13.7575 16.244 13.4451 16.5564L9.7681 20.2333C8.206 21.7954 5.67334 21.7954 4.11125 20.2333L3.8284 19.9505C2.26631 18.3884 2.26631 15.8557 3.8284 14.2936L7.50536 10.6167C7.81778 10.3043 8.32431 10.3043 8.63673 10.6167Z" fill="#212A3D"/>
<path fill-rule="evenodd" clip-rule="evenodd" d="M15.4249 13.4451C15.1125 13.1327 15.1125 12.6261 15.4249 12.3137L19.1019 8.63676C20.0391 7.6995 20.0391 6.17991 19.1019 5.24265L18.819 4.95981C17.8818 4.02255 16.3622 4.02255 15.4249 4.95981L11.748 8.63676C11.4355 8.94918 10.929 8.94918 10.6166 8.63676C10.3042 8.32434 10.3042 7.81781 10.6166 7.50539L14.2935 3.82844C15.8556 2.26634 18.3883 2.26634 19.9504 3.82844L20.2332 4.11128C21.7953 5.67338 21.7953 8.20604 20.2332 9.76813L16.5563 13.4451C16.2439 13.7575 15.7373 13.7575 15.4249 13.4451Z" fill="#212A3D"/>
<path fill-rule="evenodd" clip-rule="evenodd" d="M5.37566 5.00663C5.60998 4.77232 5.98988 4.77232 6.22419 5.00663L7.82419 6.60663C8.05851 6.84095 8.05851 7.22084 7.82419 7.45516C7.58988 7.68947 7.20998 7.68947 6.97566 7.45516L5.37566 5.85516C5.14135 5.62084 5.14135 5.24095 5.37566 5.00663Z" fill="#212A3D"/>
<path fill-rule="evenodd" clip-rule="evenodd" d="M3.59998 8.63091C3.59998 8.29954 3.8686 8.03091 4.19998 8.03091H6.46272C6.79409 8.03091 7.06272 8.29954 7.06272 8.63091C7.06272 8.96229 6.79409 9.23091 6.46272 9.23091H4.19998C3.8686 9.23091 3.59998 8.96229 3.59998 8.63091Z" fill="#212A3D"/>
<path fill-rule="evenodd" clip-rule="evenodd" d="M8.99998 2.89951C9.33135 2.89951 9.59998 3.16813 9.59998 3.49951V5.76225C9.59998 6.09362 9.33135 6.36225 8.99998 6.36225C8.6686 6.36225 8.39998 6.09362 8.39998 5.76225V3.49951C8.39998 3.16813 8.6686 2.89951 8.99998 2.89951Z" fill="#212A3D"/>
<path fill-rule="evenodd" clip-rule="evenodd" d="M19.0241 17.8551C18.7898 18.0894 18.4099 18.0894 18.1756 17.8551L16.5756 16.2551C16.3413 16.0208 16.3413 15.6409 16.5756 15.4066C16.8099 15.1723 17.1898 15.1723 17.4241 15.4066L19.0241 17.0066C19.2584 17.2409 19.2584 17.6208 19.0241 17.8551Z" fill="#212A3D"/>
<path fill-rule="evenodd" clip-rule="evenodd" d="M20.7999 14.2308C20.7999 14.5622 20.5313 14.8308 20.1999 14.8308L17.9372 14.8308C17.6058 14.8308 17.3372 14.5622 17.3372 14.2308C17.3372 13.8995 17.6058 13.6308 17.9372 13.6308L20.1999 13.6308C20.5313 13.6308 20.7999 13.8995 20.7999 14.2308Z" fill="#212A3D"/>
<path fill-rule="evenodd" clip-rule="evenodd" d="M15.3999 19.9622C15.0686 19.9622 14.7999 19.6936 14.7999 19.3622L14.7999 17.0995C14.7999 16.7681 15.0686 16.4995 15.3999 16.4995C15.7313 16.4995 15.9999 16.7681 15.9999 17.0995L15.9999 19.3622C15.9999 19.6936 15.7313 19.9622 15.3999 19.9622Z" fill="#212A3D"/>
</g>
<defs>
<clipPath id="clip0_498_2964">
<rect width="22.0617" height="22.0618" fill="white" transform="translate(1 1)"/>
</clipPath>
</defs>
</svg>
