<svg width="24" height="24" viewBox="0 0 24 24" fill="none" xmlns="http://www.w3.org/2000/svg">
<path fill-rule="evenodd" clip-rule="evenodd" d="M13 5C14.6569 5 16 6.34315 16 8V8.38197L19.1056 6.82918C20.4354 6.16428 22 7.13127 22 8.61803V15.382C22 16.8687 20.4354 17.8357 19.1056 17.1708L16 15.618V16C16 17.6569 14.6569 19 13 19H5C3.34315 19 2 17.6569 2 16V8C2 6.34315 3.34315 5 5 5H13ZM13 7H5C4.44772 7 4 7.44772 4 8V16C4 16.5523 4.44772 17 5 17H13C13.5523 17 14 16.5523 14 16V14.0201C13.9997 14.0062 13.9997 13.9923 14 13.9783V10.0217C13.9997 10.0077 13.9997 9.99379 14 9.97988V8C14 7.44772 13.5523 7 13 7ZM20 8.61803L16 10.618V13.382L20 15.382V8.61803Z" fill="#212A3D"/>
</svg>
