<?xml version="1.0" encoding="UTF-8" standalone="no"?>
<!DOCTYPE svg PUBLIC "-//W3C//DTD SVG 1.1//EN"
 "http://www.w3.org/Graphics/SVG/1.1/DTD/svg11.dtd">
<!-- Generated by graphviz version 9.0.0 (20230911.1827)
 -->
<!-- Title: erd Pages: 1 -->
<svg width="1618pt" height="906pt"
 viewBox="0.00 0.00 1618.00 905.75" xmlns="http://www.w3.org/2000/svg" xmlns:xlink="http://www.w3.org/1999/xlink">
<g id="graph0" class="graph" transform="scale(1 1) rotate(0) translate(4 901.75)">
<title>erd</title>
<polygon fill="white" stroke="none" points="-4,4 -4,-901.75 1614,-901.75 1614,4 -4,4"/>
<text text-anchor="middle" x="805" y="-865.25" font-family="Times,serif" font-size="30.00" fill="blue">objective_tables</text>
<!-- currency -->
<g id="node1" class="node">
<title>currency</title>
<polygon fill="#009879" stroke="none" points="1076.5,-266 1076.5,-296 1570.5,-296 1570.5,-266 1076.5,-266"/>
<polygon fill="none" stroke="black" points="1076.5,-266 1076.5,-296 1570.5,-296 1570.5,-266 1076.5,-266"/>
<text text-anchor="start" x="1275.5" y="-275" font-family="Courier bold italic" font-weight="bold" font-size="20.00" fill="white">currency</text>
<polygon fill="none" stroke="black" points="1076.5,-239 1076.5,-266 1153.5,-266 1153.5,-239 1076.5,-239"/>
<text text-anchor="start" x="1083.5" y="-246.9" font-family="Courier bold" font-weight="bold" font-size="18.00">Column</text>
<polygon fill="none" stroke="black" points="1153.5,-239 1153.5,-266 1201.5,-266 1201.5,-239 1153.5,-239"/>
<text text-anchor="start" x="1156.5" y="-246.9" font-family="Courier bold" font-weight="bold" font-size="18.00">Type</text>
<polygon fill="none" stroke="black" points="1201.5,-239 1201.5,-266 1570.5,-266 1570.5,-239 1201.5,-239"/>
<text text-anchor="start" x="1328.25" y="-246.9" font-family="Courier bold" font-weight="bold" font-size="18.00">Description</text>
<polygon fill="#54ff9f" stroke="none" points="1076.5,-215 1076.5,-239 1153.5,-239 1153.5,-215 1076.5,-215"/>
<polygon fill="none" stroke="black" points="1076.5,-215 1076.5,-239 1153.5,-239 1153.5,-215 1076.5,-215"/>
<text text-anchor="start" x="1079.5" y="-220.8" font-family="Times,serif" font-size="16.00">name</text>
<polygon fill="#54ff9f" stroke="none" points="1153.5,-215 1153.5,-239 1201.5,-239 1201.5,-215 1153.5,-215"/>
<polygon fill="none" stroke="black" points="1153.5,-215 1153.5,-239 1201.5,-239 1201.5,-215 1153.5,-215"/>
<text text-anchor="start" x="1165.5" y="-220.8" font-family="Times,serif" font-size="16.00">text</text>
<polygon fill="#54ff9f" stroke="none" points="1201.5,-215 1201.5,-239 1570.5,-239 1570.5,-215 1201.5,-215"/>
<polygon fill="none" stroke="black" points="1201.5,-215 1201.5,-239 1570.5,-239 1570.5,-215 1201.5,-215"/>
<text text-anchor="start" x="1204.5" y="-222.95" font-family="Monospace" font-style="italic" font-size="14.00" fill="#7f7f7f">The name of this currency type.</text>
<polygon fill="none" stroke="black" points="1076.5,-191 1076.5,-215 1153.5,-215 1153.5,-191 1076.5,-191"/>
<text text-anchor="start" x="1079.5" y="-196.8" font-family="Times,serif" font-size="16.00">description</text>
<polygon fill="none" stroke="black" points="1153.5,-191 1153.5,-215 1201.5,-215 1201.5,-191 1153.5,-191"/>
<text text-anchor="start" x="1166.25" y="-197.8" font-family="Times,serif" font-style="italic" font-size="16.00">text</text>
<polygon fill="none" stroke="black" points="1201.5,-191 1201.5,-215 1570.5,-215 1570.5,-191 1201.5,-191"/>
<text text-anchor="start" x="1204.5" y="-198.95" font-family="Monospace" font-style="italic" font-size="14.00" fill="#7f7f7f">A Description of this kind of currency type.</text>
<polygon fill="#333333" stroke="none" points="1076.5,-169 1076.5,-191 1570.5,-191 1570.5,-169 1076.5,-169"/>
<polygon fill="none" stroke="black" points="1076.5,-169 1076.5,-191 1570.5,-191 1570.5,-169 1076.5,-169"/>
<text text-anchor="start" x="1079.5" y="-175.7" font-family="Monospace" font-style="italic" font-size="14.00" fill="white">Defines all known and valid currencies.</text>
</g>
<!-- goal -->
<g id="node2" class="node">
<title>goal</title>
<polygon fill="#009879" stroke="none" points="215,-623 215,-653 786,-653 786,-623 215,-623"/>
<polygon fill="none" stroke="black" points="215,-623 215,-653 786,-653 786,-623 215,-623"/>
<text text-anchor="start" x="476.5" y="-632" font-family="Courier bold italic" font-weight="bold" font-size="20.00" fill="white">goal</text>
<polygon fill="none" stroke="black" points="215,-596 215,-623 284,-623 284,-596 215,-596"/>
<text text-anchor="start" x="218" y="-603.9" font-family="Courier bold" font-weight="bold" font-size="18.00">Column</text>
<polygon fill="none" stroke="black" points="284,-596 284,-623 343,-623 343,-596 284,-596"/>
<text text-anchor="start" x="292.5" y="-603.9" font-family="Courier bold" font-weight="bold" font-size="18.00">Type</text>
<polygon fill="none" stroke="black" points="343,-596 343,-623 786,-623 786,-596 343,-596"/>
<text text-anchor="start" x="506.75" y="-603.9" font-family="Courier bold" font-weight="bold" font-size="18.00">Description</text>
<polygon fill="#54ff9f" stroke="none" points="215,-572 215,-596 284,-596 284,-572 215,-572"/>
<polygon fill="none" stroke="black" points="215,-572 215,-596 284,-596 284,-572 215,-572"/>
<text text-anchor="start" x="218" y="-577.8" font-family="Times,serif" font-size="16.00">id</text>
<polygon fill="#54ff9f" stroke="none" points="284,-572 284,-596 343,-596 343,-572 284,-572"/>
<polygon fill="none" stroke="black" points="284,-572 284,-596 343,-596 343,-572 284,-572"/>
<text text-anchor="start" x="286.88" y="-577.8" font-family="Times,serif" font-size="16.00">integer+</text>
<polygon fill="#54ff9f" stroke="none" points="343,-572 343,-596 786,-596 786,-572 343,-572"/>
<polygon fill="none" stroke="black" points="343,-572 343,-596 786,-596 786,-572 343,-572"/>
<text text-anchor="start" x="346" y="-579.95" font-family="Monospace" font-style="italic" font-size="14.00" fill="#7f7f7f">Synthetic Unique Key.</text>
<polygon fill="none" stroke="black" points="215,-548 215,-572 284,-572 284,-548 215,-548"/>
<text text-anchor="start" x="218" y="-553.8" font-family="Times,serif" font-size="16.00">event_id</text>
<polygon fill="none" stroke="black" points="284,-548 284,-572 343,-572 343,-548 284,-548"/>
<text text-anchor="start" x="298.88" y="-553.8" font-family="Times,serif" font-size="16.00">uuid</text>
<polygon fill="none" stroke="black" points="343,-548 343,-572 786,-572 786,-548 343,-548"/>
<text text-anchor="start" x="346" y="-555.95" font-family="Monospace" font-style="italic" font-size="14.00" fill="#7f7f7f">The ID of the event this goal belongs to.</text>
<polygon fill="none" stroke="black" points="215,-524 215,-548 284,-548 284,-524 215,-524"/>
<text text-anchor="start" x="218" y="-529.8" font-family="Times,serif" font-size="16.00">idx</text>
<polygon fill="none" stroke="black" points="284,-524 284,-548 343,-548 343,-524 284,-524"/>
<text text-anchor="start" x="291.38" y="-529.8" font-family="Times,serif" font-size="16.00">integer</text>
<polygon fill="none" stroke="black" points="343,-524 343,-548 786,-548 786,-524 343,-524"/>
<text text-anchor="start" x="346" y="-531.95" font-family="Monospace" font-style="italic" font-size="14.00" fill="#7f7f7f">The index specifying the order/priority of the goals.</text>
<polygon fill="none" stroke="black" points="215,-500 215,-524 284,-524 284,-500 215,-500"/>
<text text-anchor="start" x="218" y="-505.8" font-family="Times,serif" font-size="16.00">name</text>
<polygon fill="none" stroke="black" points="284,-500 284,-524 343,-524 343,-500 284,-500"/>
<text text-anchor="start" x="289.88" y="-505.8" font-family="Times,serif" font-size="16.00">varchar</text>
<polygon fill="none" stroke="black" points="343,-500 343,-524 786,-524 786,-500 343,-500"/>
<text text-anchor="start" x="346" y="-507.95" font-family="Monospace" font-style="italic" font-size="14.00" fill="#7f7f7f">The description of this event goal.</text>
<polygon fill="#333333" stroke="none" points="215,-478 215,-500 786,-500 786,-478 215,-478"/>
<polygon fill="none" stroke="black" points="215,-478 215,-500 786,-500 786,-478 215,-478"/>
<text text-anchor="start" x="218" y="-484.7" font-family="Monospace" font-style="italic" font-size="14.00" fill="white">The list of campaign goals for this event.</text>
</g>
<!-- event -->
<g id="node6" class="node">
<title>event</title>
<polygon fill="#009879" stroke="none" points="1287.5,-567 1287.5,-597 1357.5,-597 1357.5,-567 1287.5,-567"/>
<polygon fill="none" stroke="black" points="1287.5,-567 1287.5,-597 1357.5,-597 1357.5,-567 1287.5,-567"/>
<text text-anchor="start" x="1292.5" y="-576" font-family="Courier bold italic" font-weight="bold" font-size="20.00" fill="white">event</text>
<polygon fill="none" stroke="black" points="1287.5,-540 1287.5,-567 1357.5,-567 1357.5,-540 1287.5,-540"/>
<text text-anchor="start" x="1291" y="-547.9" font-family="Courier bold" font-weight="bold" font-size="18.00">Column</text>
<polygon fill="none" stroke="black" points="1287.5,-516 1287.5,-540 1357.5,-540 1357.5,-516 1287.5,-516"/>
<text text-anchor="start" x="1290.5" y="-521.8" font-family="Times,serif" font-size="16.00">id</text>
<polygon fill="#333333" stroke="none" points="1287.5,-494 1287.5,-516 1359.5,-516 1359.5,-494 1287.5,-494"/>
<polygon fill="none" stroke="black" points="1287.5,-494 1287.5,-516 1359.5,-516 1359.5,-494 1287.5,-494"/>
<text text-anchor="start" x="1290.5" y="-500.7" font-family="Monospace" font-style="italic" font-size="14.00" fill="white">ABRIDGED</text>
</g>
<!-- goal&#45;&gt;event -->
<g id="edge1" class="edge">
<title>goal:event_id_out&#45;&gt;event:id</title>
<path fill="none" stroke="black" d="M787.5,-559.5C1005.94,-559.5 1062.35,-528.58 1275.25,-527.53"/>
<polygon fill="black" stroke="black" points="1275,-531.03 1284.99,-527.5 1274.98,-524.03 1275,-531.03"/>
</g>
<!-- objective -->
<g id="node3" class="node">
<title>objective</title>
<polygon fill="#009879" stroke="none" points="0,-430 0,-460 1001,-460 1001,-430 0,-430"/>
<polygon fill="none" stroke="black" points="0,-430 0,-460 1001,-460 1001,-430 0,-430"/>
<text text-anchor="start" x="446.5" y="-439" font-family="Courier bold italic" font-weight="bold" font-size="20.00" fill="white">objective</text>
<polygon fill="none" stroke="black" points="0,-403 0,-430 153,-430 153,-403 0,-403"/>
<text text-anchor="start" x="45" y="-410.9" font-family="Courier bold" font-weight="bold" font-size="18.00">Column</text>
<polygon fill="none" stroke="black" points="153,-403 153,-430 212,-430 212,-403 153,-403"/>
<text text-anchor="start" x="161.5" y="-410.9" font-family="Courier bold" font-weight="bold" font-size="18.00">Type</text>
<polygon fill="none" stroke="black" points="212,-403 212,-430 1001,-430 1001,-403 212,-403"/>
<text text-anchor="start" x="548.75" y="-410.9" font-family="Courier bold" font-weight="bold" font-size="18.00">Description</text>
<polygon fill="#54ff9f" stroke="none" points="0,-379 0,-403 153,-403 153,-379 0,-379"/>
<polygon fill="none" stroke="black" points="0,-379 0,-403 153,-403 153,-379 0,-379"/>
<text text-anchor="start" x="3" y="-384.8" font-family="Times,serif" font-size="16.00">row_id</text>
<polygon fill="#54ff9f" stroke="none" points="153,-379 153,-403 212,-403 212,-379 153,-379"/>
<polygon fill="none" stroke="black" points="153,-379 153,-403 212,-403 212,-379 153,-379"/>
<text text-anchor="start" x="155.88" y="-384.8" font-family="Times,serif" font-size="16.00">integer+</text>
<polygon fill="#54ff9f" stroke="none" points="212,-379 212,-403 1001,-403 1001,-379 212,-379"/>
<polygon fill="none" stroke="black" points="212,-379 212,-403 1001,-403 1001,-379 212,-379"/>
<text text-anchor="start" x="215" y="-386.95" font-family="Monospace" font-style="italic" font-size="14.00" fill="#7f7f7f">Synthetic Unique Key</text>
<polygon fill="none" stroke="black" points="0,-345 0,-379 153,-379 153,-345 0,-345"/>
<text text-anchor="start" x="3" y="-356.18" font-family="Times,serif" font-size="16.00">id</text>
<polygon fill="none" stroke="black" points="153,-345 153,-379 212,-379 212,-345 153,-345"/>
<text text-anchor="start" x="160.38" y="-356.18" font-family="Times,serif" font-size="16.00">integer</text>
<polygon fill="none" stroke="black" points="212,-345 212,-379 1001,-379 1001,-345 212,-345"/>
<text text-anchor="start" x="215" y="-363.7" font-family="Monospace" font-style="italic" font-size="14.00" fill="#7f7f7f">Event specific objective ID.</text>
<text text-anchor="start" x="215" y="-349.7" font-family="Monospace" font-style="italic" font-size="14.00" fill="#7f7f7f">Can be non&#45;unique between events (Eg, Ideascale ID for objective).</text>
<polygon fill="none" stroke="black" points="0,-321 0,-345 153,-345 153,-321 0,-321"/>
<text text-anchor="start" x="3" y="-326.8" font-family="Times,serif" font-size="16.00">event</text>
<polygon fill="none" stroke="black" points="153,-321 153,-345 212,-345 212,-321 153,-321"/>
<text text-anchor="start" x="167.88" y="-326.8" font-family="Times,serif" font-size="16.00">uuid</text>
<polygon fill="none" stroke="black" points="212,-321 212,-345 1001,-345 1001,-321 212,-321"/>
<text text-anchor="start" x="215" y="-328.95" font-family="Monospace" font-style="italic" font-size="14.00" fill="#7f7f7f">The specific Event ID this objective is part of.</text>
<polygon fill="none" stroke="black" points="0,-287 0,-321 153,-321 153,-287 0,-287"/>
<text text-anchor="start" x="3" y="-298.18" font-family="Times,serif" font-size="16.00">category</text>
<polygon fill="none" stroke="black" points="153,-287 153,-321 212,-321 212,-287 153,-287"/>
<text text-anchor="start" x="170.5" y="-298.18" font-family="Times,serif" font-size="16.00">text</text>
<polygon fill="none" stroke="black" points="212,-287 212,-321 1001,-321 1001,-287 212,-287"/>
<text text-anchor="start" x="215" y="-305.7" font-family="Monospace" font-style="italic" font-size="14.00" fill="#7f7f7f">What category of objective is this.</text>
<text text-anchor="start" x="215" y="-291.7" font-family="Monospace" font-style="italic" font-size="14.00" fill="#7f7f7f">See the objective_category table for allowed values.</text>
<polygon fill="none" stroke="black" points="0,-263 0,-287 153,-287 153,-263 0,-263"/>
<text text-anchor="start" x="3" y="-268.8" font-family="Times,serif" font-size="16.00">title</text>
<polygon fill="none" stroke="black" points="153,-263 153,-287 212,-287 212,-263 153,-263"/>
<text text-anchor="start" x="170.5" y="-268.8" font-family="Times,serif" font-size="16.00">text</text>
<polygon fill="none" stroke="black" points="212,-263 212,-287 1001,-287 1001,-263 212,-263"/>
<text text-anchor="start" x="215" y="-270.95" font-family="Monospace" font-style="italic" font-size="14.00" fill="#7f7f7f">The &#160;title of the objective.</text>
<polygon fill="none" stroke="black" points="0,-239 0,-263 153,-263 153,-239 0,-239"/>
<text text-anchor="start" x="3" y="-244.8" font-family="Times,serif" font-size="16.00">description</text>
<polygon fill="none" stroke="black" points="153,-239 153,-263 212,-263 212,-239 153,-239"/>
<text text-anchor="start" x="170.5" y="-244.8" font-family="Times,serif" font-size="16.00">text</text>
<polygon fill="none" stroke="black" points="212,-239 212,-263 1001,-263 1001,-239 212,-239"/>
<text text-anchor="start" x="215" y="-246.95" font-family="Monospace" font-style="italic" font-size="14.00" fill="#7f7f7f">Long form description of the objective.</text>
<polygon fill="none" stroke="black" points="0,-215 0,-239 153,-239 153,-215 0,-215"/>
<text text-anchor="start" x="3" y="-220.8" font-family="Times,serif" font-size="16.00">rewards_currency</text>
<polygon fill="none" stroke="black" points="153,-215 153,-239 212,-239 212,-215 153,-215"/>
<text text-anchor="start" x="171.25" y="-221.8" font-family="Times,serif" font-style="italic" font-size="16.00">text</text>
<polygon fill="none" stroke="black" points="212,-215 212,-239 1001,-239 1001,-215 212,-215"/>
<text text-anchor="start" x="215" y="-222.95" font-family="Monospace" font-style="italic" font-size="14.00" fill="#7f7f7f">The currency rewards values are represented as.</text>
<polygon fill="none" stroke="black" points="0,-191 0,-215 153,-215 153,-191 0,-191"/>
<text text-anchor="start" x="3" y="-196.8" font-family="Times,serif" font-size="16.00">rewards_total</text>
<polygon fill="none" stroke="black" points="153,-191 153,-215 212,-215 212,-191 153,-191"/>
<text text-anchor="start" x="163.38" y="-197.8" font-family="Times,serif" font-style="italic" font-size="16.00">bigint</text>
<polygon fill="none" stroke="black" points="212,-191 212,-215 1001,-215 1001,-191 212,-191"/>
<text text-anchor="start" x="215" y="-198.95" font-family="Monospace" font-style="italic" font-size="14.00" fill="#7f7f7f">The total reward pool to pay on this objective to winning proposals. In the Objective Currency.</text>
<polygon fill="none" stroke="black" points="0,-167 0,-191 153,-191 153,-167 0,-167"/>
<text text-anchor="start" x="3" y="-172.8" font-family="Times,serif" font-size="16.00">rewards_total_lovelace</text>
<polygon fill="none" stroke="black" points="153,-167 153,-191 212,-191 212,-167 153,-167"/>
<text text-anchor="start" x="163.38" y="-173.8" font-family="Times,serif" font-style="italic" font-size="16.00">bigint</text>
<polygon fill="none" stroke="black" points="212,-167 212,-191 1001,-191 1001,-167 212,-167"/>
<text text-anchor="start" x="215" y="-174.95" font-family="Monospace" font-style="italic" font-size="14.00" fill="#7f7f7f">The total reward pool to pay on this objective to winning proposals. In Lovelace.</text>
<polygon fill="none" stroke="black" points="0,-143 0,-167 153,-167 153,-143 0,-143"/>
<text text-anchor="start" x="3" y="-148.8" font-family="Times,serif" font-size="16.00">proposers_rewards</text>
<polygon fill="none" stroke="black" points="153,-143 153,-167 212,-167 212,-143 153,-143"/>
<text text-anchor="start" x="163.38" y="-149.8" font-family="Times,serif" font-style="italic" font-size="16.00">bigint</text>
<polygon fill="none" stroke="black" points="212,-143 212,-167 1001,-167 1001,-143 212,-143"/>
<text text-anchor="start" x="215" y="-150.95" font-family="Monospace" font-style="italic" font-size="14.00" fill="#7f7f7f">Not sure how this is different from rewards_total???</text>
<polygon fill="none" stroke="black" points="0,-119 0,-143 153,-143 153,-119 0,-119"/>
<text text-anchor="start" x="3" y="-124.8" font-family="Times,serif" font-size="16.00">vote_options</text>
<polygon fill="none" stroke="black" points="153,-119 153,-143 212,-143 212,-119 153,-119"/>
<text text-anchor="start" x="160" y="-125.8" font-family="Times,serif" font-style="italic" font-size="16.00">integer</text>
<polygon fill="none" stroke="black" points="212,-119 212,-143 1001,-143 1001,-119 212,-119"/>
<text text-anchor="start" x="215" y="-126.95" font-family="Monospace" font-style="italic" font-size="14.00" fill="#7f7f7f">The Vote Options applicable to all proposals in this objective.</text>
<polygon fill="none" stroke="black" points="0,-71 0,-119 153,-119 153,-71 0,-71"/>
<text text-anchor="start" x="3" y="-89.17" font-family="Times,serif" font-size="16.00">extra</text>
<polygon fill="none" stroke="black" points="153,-71 153,-119 212,-119 212,-71 153,-71"/>
<text text-anchor="start" x="164.88" y="-90.17" font-family="Times,serif" font-style="italic" font-size="16.00">jsonb</text>
<polygon fill="none" stroke="black" points="212,-71 212,-119 1001,-119 1001,-71 212,-71"/>
<text text-anchor="start" x="215" y="-103.7" font-family="Monospace" font-style="italic" font-size="14.00" fill="#7f7f7f">Extra Data &#160;for this objective represented as JSON.</text>
<text text-anchor="start" x="215" y="-89.7" font-family="Monospace" font-style="italic" font-size="14.00" fill="#7f7f7f">&quot;url&quot;.&quot;objective&quot; is a URL for more info about the objective.</text>
<text text-anchor="start" x="215" y="-75.7" font-family="Monospace" font-style="italic" font-size="14.00" fill="#7f7f7f">&quot;highlights&quot; is ???</text>
<polygon fill="#333333" stroke="none" points="0,-37 0,-71 1001,-71 1001,-37 0,-37"/>
<polygon fill="none" stroke="black" points="0,-37 0,-71 1001,-71 1001,-37 0,-37"/>
<text text-anchor="start" x="3" y="-55.7" font-family="Monospace" font-style="italic" font-size="14.00" fill="white">All objectives for all events.</text>
<text text-anchor="start" x="3" y="-41.7" font-family="Monospace" font-style="italic" font-size="14.00" fill="white">A objective is a group category for selection in an event.</text>
</g>
<!-- objective&#45;&gt;currency -->
<g id="edge4" class="edge">
<title>objective:rewards_currency_out&#45;&gt;currency:name</title>
<path fill="none" stroke="black" d="M1001,-226.5C1029.97,-226.5 1039.93,-226.5 1064.15,-226.5"/>
<polygon fill="black" stroke="black" points="1063.99,-230 1073.99,-226.5 1063.99,-223 1063.99,-230"/>
</g>
<!-- objective_category -->
<g id="node4" class="node">
<title>objective_category</title>
<polygon fill="#009879" stroke="none" points="1056,-411 1056,-441 1591,-441 1591,-411 1056,-411"/>
<polygon fill="none" stroke="black" points="1056,-411 1056,-441 1591,-441 1591,-411 1056,-411"/>
<text text-anchor="start" x="1215.5" y="-420" font-family="Courier bold italic" font-weight="bold" font-size="20.00" fill="white">objective_category</text>
<polygon fill="none" stroke="black" points="1056,-384 1056,-411 1133,-411 1133,-384 1056,-384"/>
<text text-anchor="start" x="1063" y="-391.9" font-family="Courier bold" font-weight="bold" font-size="18.00">Column</text>
<polygon fill="none" stroke="black" points="1133,-384 1133,-411 1181,-411 1181,-384 1133,-384"/>
<text text-anchor="start" x="1136" y="-391.9" font-family="Courier bold" font-weight="bold" font-size="18.00">Type</text>
<polygon fill="none" stroke="black" points="1181,-384 1181,-411 1591,-411 1591,-384 1181,-384"/>
<text text-anchor="start" x="1328.25" y="-391.9" font-family="Courier bold" font-weight="bold" font-size="18.00">Description</text>
<polygon fill="#54ff9f" stroke="none" points="1056,-360 1056,-384 1133,-384 1133,-360 1056,-360"/>
<polygon fill="none" stroke="black" points="1056,-360 1056,-384 1133,-384 1133,-360 1056,-360"/>
<text text-anchor="start" x="1059" y="-365.8" font-family="Times,serif" font-size="16.00">name</text>
<polygon fill="#54ff9f" stroke="none" points="1133,-360 1133,-384 1181,-384 1181,-360 1133,-360"/>
<polygon fill="none" stroke="black" points="1133,-360 1133,-384 1181,-384 1181,-360 1133,-360"/>
<text text-anchor="start" x="1145" y="-365.8" font-family="Times,serif" font-size="16.00">text</text>
<polygon fill="#54ff9f" stroke="none" points="1181,-360 1181,-384 1591,-384 1591,-360 1181,-360"/>
<polygon fill="none" stroke="black" points="1181,-360 1181,-384 1591,-384 1591,-360 1181,-360"/>
<text text-anchor="start" x="1184" y="-367.95" font-family="Monospace" font-style="italic" font-size="14.00" fill="#7f7f7f">The name of this objective category.</text>
<polygon fill="none" stroke="black" points="1056,-336 1056,-360 1133,-360 1133,-336 1056,-336"/>
<text text-anchor="start" x="1059" y="-341.8" font-family="Times,serif" font-size="16.00">description</text>
<polygon fill="none" stroke="black" points="1133,-336 1133,-360 1181,-360 1181,-336 1133,-336"/>
<text text-anchor="start" x="1145.75" y="-342.8" font-family="Times,serif" font-style="italic" font-size="16.00">text</text>
<polygon fill="none" stroke="black" points="1181,-336 1181,-360 1591,-360 1591,-336 1181,-336"/>
<text text-anchor="start" x="1184" y="-343.95" font-family="Monospace" font-style="italic" font-size="14.00" fill="#7f7f7f">A Description of this kind of objective category.</text>
<polygon fill="#333333" stroke="none" points="1056,-314 1056,-336 1591,-336 1591,-314 1056,-314"/>
<polygon fill="none" stroke="black" points="1056,-314 1056,-336 1591,-336 1591,-314 1056,-314"/>
<text text-anchor="start" x="1059" y="-320.7" font-family="Monospace" font-style="italic" font-size="14.00" fill="white">Defines all known and valid objective categories.</text>
</g>
<!-- objective&#45;&gt;objective_category -->
<g id="edge3" class="edge">
<title>objective:category_out&#45;&gt;objective_category:name</title>
<path fill="none" stroke="black" d="M1001,-304.5C1034.64,-304.5 1020.88,-356.72 1043.41,-368.96"/>
<polygon fill="black" stroke="black" points="1042.5,-372.34 1053.02,-371.16 1044.06,-365.51 1042.5,-372.34"/>
</g>
<!-- vote_options -->
<g id="node5" class="node">
<title>vote_options</title>
<polygon fill="#009879" stroke="none" points="1037,-121 1037,-151 1610,-151 1610,-121 1037,-121"/>
<polygon fill="none" stroke="black" points="1037,-121 1037,-151 1610,-151 1610,-121 1037,-121"/>
<text text-anchor="start" x="1251.5" y="-130" font-family="Courier bold italic" font-weight="bold" font-size="20.00" fill="white">vote_options</text>
<polygon fill="none" stroke="black" points="1037,-94 1037,-121 1108,-121 1108,-94 1037,-94"/>
<text text-anchor="start" x="1041" y="-101.9" font-family="Courier bold" font-weight="bold" font-size="18.00">Column</text>
<polygon fill="none" stroke="black" points="1108,-94 1108,-121 1167,-121 1167,-94 1108,-94"/>
<text text-anchor="start" x="1116.5" y="-101.9" font-family="Courier bold" font-weight="bold" font-size="18.00">Type</text>
<polygon fill="none" stroke="black" points="1167,-94 1167,-121 1610,-121 1610,-94 1167,-94"/>
<text text-anchor="start" x="1330.75" y="-101.9" font-family="Courier bold" font-weight="bold" font-size="18.00">Description</text>
<polygon fill="#54ff9f" stroke="none" points="1037,-70 1037,-94 1108,-94 1108,-70 1037,-70"/>
<polygon fill="none" stroke="black" points="1037,-70 1037,-94 1108,-94 1108,-70 1037,-70"/>
<text text-anchor="start" x="1040" y="-75.8" font-family="Times,serif" font-size="16.00">id</text>
<polygon fill="#54ff9f" stroke="none" points="1108,-70 1108,-94 1167,-94 1167,-70 1108,-70"/>
<polygon fill="none" stroke="black" points="1108,-70 1108,-94 1167,-94 1167,-70 1108,-70"/>
<text text-anchor="start" x="1110.88" y="-75.8" font-family="Times,serif" font-size="16.00">integer+</text>
<polygon fill="#54ff9f" stroke="none" points="1167,-70 1167,-94 1610,-94 1610,-70 1167,-70"/>
<polygon fill="none" stroke="black" points="1167,-70 1167,-94 1610,-94 1610,-70 1167,-70"/>
<text text-anchor="start" x="1170" y="-77.95" font-family="Monospace" font-style="italic" font-size="14.00" fill="#7f7f7f">Unique ID for each possible option set.</text>
<polygon fill="none" stroke="black" points="1037,-46 1037,-70 1108,-70 1108,-46 1037,-46"/>
<text text-anchor="start" x="1040" y="-51.8" font-family="Times,serif" font-size="16.00">idea_scale</text>
<polygon fill="none" stroke="black" points="1108,-46 1108,-70 1167,-70 1167,-46 1108,-46"/>
<text text-anchor="start" x="1113.88" y="-52.8" font-family="Times,serif" font-style="italic" font-size="16.00">ARRAY</text>
<polygon fill="none" stroke="black" points="1167,-46 1167,-70 1610,-70 1610,-46 1167,-46"/>
<text text-anchor="start" x="1170" y="-53.95" font-family="Monospace" font-style="italic" font-size="14.00" fill="#7f7f7f">How this vote option is represented in idea scale.</text>
<polygon fill="none" stroke="black" points="1037,-22 1037,-46 1108,-46 1108,-22 1037,-22"/>
<text text-anchor="start" x="1040" y="-27.8" font-family="Times,serif" font-size="16.00">objective</text>
<polygon fill="none" stroke="black" points="1108,-22 1108,-46 1167,-46 1167,-22 1108,-22"/>
<text text-anchor="start" x="1113.88" y="-28.8" font-family="Times,serif" font-style="italic" font-size="16.00">ARRAY</text>
<polygon fill="none" stroke="black" points="1167,-22 1167,-46 1610,-46 1610,-22 1167,-22"/>
<text text-anchor="start" x="1170" y="-29.95" font-family="Monospace" font-style="italic" font-size="14.00" fill="#7f7f7f">How the vote options is represented in the objective.</text>
<polygon fill="#333333" stroke="none" points="1037,0 1037,-22 1610,-22 1610,0 1037,0"/>
<polygon fill="none" stroke="black" points="1037,0 1037,-22 1610,-22 1610,0 1037,0"/>
<text text-anchor="start" x="1040" y="-6.7" font-family="Monospace" font-style="italic" font-size="14.00" fill="white">Defines all known vote plan option types.</text>
</g>
<!-- objective&#45;&gt;vote_options -->
<g id="edge5" class="edge">
<title>objective:vote_options_out&#45;&gt;vote_options:id</title>
<path fill="none" stroke="black" d="M1001,-130.5C1022.88,-130.5 1015.14,-98.2 1026.38,-86.59"/>
<polygon fill="black" stroke="black" points="1027.51,-89.9 1035.59,-83.04 1025,-83.37 1027.51,-89.9"/>
</g>
<!-- objective&#45;&gt;event -->
<g id="edge2" class="edge">
<title>objective:event_out&#45;&gt;event:id</title>
<path fill="none" stroke="black" d="M1001,-333.5C1055.41,-333.5 998.55,-412.01 1037,-450.5 1116.3,-529.87 1167,-527.74 1275.15,-527.51"/>
<polygon fill="black" stroke="black" points="1274.99,-531.01 1284.99,-527.5 1274.98,-524.01 1274.99,-531.01"/>
</g>
<!-- LEGEND -->
<g id="node7" class="node">
<title>LEGEND</title>
<polygon fill="Pink" stroke="none" points="391.5,-822 391.5,-852 609.5,-852 609.5,-822 391.5,-822"/>
<polygon fill="none" stroke="black" points="391.5,-822 391.5,-852 609.5,-852 609.5,-822 391.5,-822"/>
<text text-anchor="start" x="464.5" y="-831" font-family="Courier bold italic" font-weight="bold" font-size="20.00" fill="white">LEGEND</text>
<polygon fill="none" stroke="black" points="391.5,-795 391.5,-822 529.5,-822 529.5,-795 391.5,-795"/>
<text text-anchor="start" x="439.5" y="-802.9" font-family="Courier bold" font-weight="bold" font-size="18.00">Type</text>
<polygon fill="none" stroke="black" points="529.5,-795 529.5,-822 609.5,-822 609.5,-795 529.5,-795"/>
<text text-anchor="start" x="532.75" y="-802.9" font-family="Courier bold" font-weight="bold" font-size="18.00">Example</text>
<polygon fill="#54ff9f" stroke="none" points="391.5,-771 391.5,-795 529.5,-795 529.5,-771 391.5,-771"/>
<polygon fill="none" stroke="black" points="391.5,-771 391.5,-795 529.5,-795 529.5,-771 391.5,-771"/>
<text text-anchor="start" x="394.5" y="-776.8" font-family="Times,serif" font-size="16.00">Primary Key</text>
<polygon fill="#54ff9f" stroke="none" points="529.5,-771 529.5,-795 609.5,-795 609.5,-771 529.5,-771"/>
<polygon fill="none" stroke="black" points="529.5,-771 529.5,-795 609.5,-795 609.5,-771 529.5,-771"/>
<text text-anchor="start" x="542.88" y="-776.8" font-family="Times,serif" font-size="16.00">integer+</text>
<polygon fill="none" stroke="black" points="391.5,-747 391.5,-771 529.5,-771 529.5,-747 391.5,-747"/>
<text text-anchor="start" x="394.5" y="-752.8" font-family="Times,serif" font-size="16.00">Standard Field</text>
<polygon fill="none" stroke="black" points="529.5,-747 529.5,-771 609.5,-771 609.5,-747 529.5,-747"/>
<text text-anchor="start" x="552.25" y="-752.8" font-family="Times,serif" font-size="16.00">bytea</text>
<polygon fill="none" stroke="black" points="391.5,-723 391.5,-747 529.5,-747 529.5,-723 391.5,-723"/>
<text text-anchor="start" x="394.5" y="-728.8" font-family="Times,serif" font-size="16.00">Nullable Field</text>
<polygon fill="none" stroke="black" points="529.5,-723 529.5,-747 609.5,-747 609.5,-723 529.5,-723"/>
<text text-anchor="start" x="558.25" y="-729.8" font-family="Times,serif" font-style="italic" font-size="16.00">text</text>
<polygon fill="none" stroke="black" points="391.5,-699 391.5,-723 529.5,-723 529.5,-699 391.5,-699"/>
<text text-anchor="start" x="394.5" y="-704.8" font-family="Times,serif" font-size="16.00">Sized Field</text>
<polygon fill="none" stroke="black" points="529.5,-699 529.5,-723 609.5,-723 609.5,-699 529.5,-699"/>
<text text-anchor="start" x="532.38" y="-704.8" font-family="Times,serif" font-size="16.00">varchar(32)</text>
<polygon fill="none" stroke="black" points="391.5,-675 391.5,-699 529.5,-699 529.5,-675 391.5,-675"/>
<text text-anchor="start" x="394.5" y="-680.8" font-family="Times,serif" font-size="16.00">Autoincrement Field</text>
<polygon fill="none" stroke="black" points="529.5,-675 529.5,-699 609.5,-699 609.5,-675 529.5,-675"/>
<text text-anchor="start" x="542.88" y="-680.8" font-family="Times,serif" font-size="16.00">integer+</text>
</g>
</g>
</svg>
