<svg width="24" height="24" viewBox="0 0 24 24" fill="none" xmlns="http://www.w3.org/2000/svg">
<path d="M12.9269 4C13.142 4 13.333 4.1376 13.4012 4.34165L15.3184 10.0838C15.3729 10.2471 15.5257 10.3571 15.6978 10.3571H18.2742C18.5503 10.3571 18.7742 10.581 18.7742 10.8571V11.4524C18.7742 11.7285 18.5503 11.9524 18.2742 11.9524H16.2298C16.0931 11.9524 15.9967 12.0865 16.0403 12.2161L16.4923 13.5608C16.547 13.7236 16.6996 13.8333 16.8714 13.8333H18.2742C18.5503 13.8333 18.7742 14.0572 18.7742 14.3333V14.9286C18.7742 15.2047 18.5503 15.4286 18.2742 15.4286H17.4041C17.2674 15.4286 17.1709 15.5627 17.2145 15.6923L18.8225 20.4725C18.9097 20.7317 18.7169 21 18.4434 21H16.7629C16.589 21 16.435 20.8876 16.3819 20.722L14.7761 15.7066C14.7231 15.541 14.5691 15.4286 14.3952 15.4286H9.60483C9.43091 15.4286 9.27692 15.541 9.22388 15.7066L7.61805 20.722C7.56502 20.8876 7.41103 21 7.2371 21H5.55658C5.2831 21 5.09026 20.7317 5.17746 20.4725L6.78546 15.6923C6.82906 15.5627 6.73265 15.4286 6.5959 15.4286H5.72581C5.44966 15.4286 5.22581 15.2047 5.22581 14.9286V14.3333C5.22581 14.0572 5.44966 13.8333 5.72581 13.8333H7.10601C7.27781 13.8333 7.43042 13.7236 7.48516 13.5608L7.93716 12.2161C7.98072 12.0865 7.88431 11.9524 7.74758 11.9524H5.72581C5.44966 11.9524 5.22581 11.7285 5.22581 11.4524V10.8571C5.22581 10.581 5.44966 10.3571 5.72581 10.3571H8.25798C8.42961 10.3571 8.58211 10.2477 8.63698 10.085L10.5755 4.34014C10.6441 4.13686 10.8348 4 11.0493 4H12.9269ZM13.6477 12.229C13.5943 12.0641 13.4406 11.9524 13.2672 11.9524H10.7135C10.5385 11.9524 10.3838 12.0661 10.3317 12.2332L9.91328 13.5737C9.87309 13.7025 9.9693 13.8333 10.1042 13.8333H13.8927C14.0285 13.8333 14.1248 13.7009 14.0829 13.5717L13.6477 12.229ZM12.0795 6.96743C12.054 6.86456 11.9046 6.86542 11.8803 6.96861C11.8278 7.19199 11.7699 7.43261 11.7065 7.69048C11.6011 8.11905 11.4806 8.56349 11.3452 9.02381C11.2492 9.37801 11.1389 9.73221 11.0142 10.0864C10.9679 10.218 11.0646 10.3571 11.2041 10.3571H12.7753C12.9076 10.3571 13.0035 10.2309 12.9659 10.104C12.9109 9.91853 12.8524 9.73308 12.7903 9.54762C12.7151 9.2619 12.6323 8.99206 12.5419 8.73809C12.4667 8.46825 12.3914 8.20635 12.3161 7.95238C12.2559 7.68254 12.1957 7.42857 12.1355 7.19048C12.1161 7.11365 12.0974 7.0393 12.0795 6.96743Z" fill="#212A3D"/>
</svg>
