<svg width="24" height="24" viewBox="0 0 24 24" fill="none" xmlns="http://www.w3.org/2000/svg">
<path fill-rule="evenodd" clip-rule="evenodd" d="M7.07593 3.61732C7.23071 3.24364 7.59534 3 7.99981 3H15.9998C16.4043 3 16.7689 3.24364 16.9237 3.61732C17.0785 3.99099 16.9929 4.42111 16.7069 4.70711L15.9998 5.41421V10.1716C15.9998 10.4368 16.1052 10.6911 16.2927 10.8787L20.1335 14.7195C20.1341 14.72 20.1346 14.7206 20.1351 14.7211C20.1354 14.7214 20.1357 14.7217 20.136 14.722L21.2927 15.8787C23.1826 17.7686 21.8441 21 19.1714 21H4.82823C2.15552 21 0.81702 17.7686 2.70691 15.8787L3.53547 15.0501C3.53559 15.05 3.53571 15.0499 3.53584 15.0498C3.53605 15.0495 3.53626 15.0493 3.53647 15.0491L7.70691 10.8787C7.89445 10.6911 7.99981 10.4368 7.99981 10.1716V5.41421L7.2927 4.70711C7.0067 4.42111 6.92115 3.99099 7.07593 3.61732ZM9.99981 5V10.1716C9.99981 10.9672 9.68374 11.7303 9.12113 12.2929L7.02815 14.3859L8.17725 14.6157C9.26754 14.8337 10.3994 14.6822 11.3939 14.1849L11.7113 14.0262C13.0273 13.3682 14.5151 13.1426 15.9632 13.3776L14.8785 12.2929C14.3159 11.7303 13.9998 10.9672 13.9998 10.1716V5H9.99981ZM18.7198 16.1342C18.5804 15.9952 18.403 15.9004 18.2099 15.8618L15.8224 15.3843C14.7321 15.1663 13.6002 15.3178 12.6057 15.8151L12.2883 15.9738C10.896 16.6699 9.31142 16.8821 7.78502 16.5768L5.85327 16.1905C5.52566 16.125 5.18699 16.2274 4.95059 16.4634C4.95041 16.4636 4.95023 16.4638 4.95005 16.464L4.12113 17.2929C3.49116 17.9229 3.93733 19 4.82823 19H19.1714C20.0623 19 20.5085 17.9229 19.8785 17.2929L18.7209 16.1353C18.7205 16.1349 18.7202 16.1346 18.7198 16.1342Z" fill="#212A3D"/>
</svg>
