<svg width="24" height="24" viewBox="0 0 24 24" fill="none" xmlns="http://www.w3.org/2000/svg">
<path fill-rule="evenodd" clip-rule="evenodd" d="M21 5.5H3C2.72386 5.5 2.5 5.72386 2.5 6V18C2.5 18.2761 2.72386 18.5 3 18.5H21C21.2761 18.5 21.5 18.2761 21.5 18V6C21.5 5.72386 21.2761 5.5 21 5.5ZM3 4C1.89543 4 1 4.89543 1 6V18C1 19.1046 1.89543 20 3 20H21C22.1046 20 23 19.1046 23 18V6C23 4.89543 22.1046 4 21 4H3Z" fill="#212A3D"/>
<path fill-rule="evenodd" clip-rule="evenodd" d="M7.5 7.5C7.5 7.22386 7.72386 7 8 7H16C16.2761 7 16.5 7.22386 16.5 7.5C16.5 7.77614 16.2761 8 16 8C16 8 8.27614 8 8 8C7.72386 8 7.5 7.77614 7.5 7.5Z" fill="#212A3D"/>
<path fill-rule="evenodd" clip-rule="evenodd" d="M7.5 10C7.5 9.72386 7.72386 9.5 8 9.5H16C16.2761 9.5 16.5 9.72386 16.5 10C16.5 10.2761 16.2761 10.5 16 10.5C16 10.5 8.27614 10.5 8 10.5C7.72386 10.5 7.5 10.2761 7.5 10Z" fill="#212A3D"/>
<path fill-rule="evenodd" clip-rule="evenodd" d="M9.5 12.5C9.5 12.2239 9.72386 12 10 12H14C14.2761 12 14.5 12.2239 14.5 12.5C14.5 12.7761 14.2761 13 14 13C14 13 10.2761 13 10 13C9.72386 13 9.5 12.7761 9.5 12.5Z" fill="#212A3D"/>
</svg>
