<svg width="24" height="24" viewBox="0 0 24 24" fill="none" xmlns="http://www.w3.org/2000/svg">
<path fill-rule="evenodd" clip-rule="evenodd" d="M7.00002 4C7.00002 2.34315 8.34317 1 10 1H14C15.6569 1 17 2.34315 17 4V5H19C20.6569 5 22 6.34315 22 8V13.232C22.0004 13.2474 22.0004 13.2628 22 13.2782V18C22 19.6569 20.6569 21 19 21H5.00002C3.34317 21 2.00002 19.6569 2.00002 18V13.278C1.99967 13.2628 1.99967 13.2475 2.00002 13.2322V8C2.00002 6.34315 3.34317 5 5.00002 5H7.00002V4ZM5.00002 7C4.44774 7 4.00002 7.44772 4.00002 8V12.5708C6.49038 13.4948 9.18515 14 12 14C14.8149 14 17.5097 13.4948 20 12.5708V8C20 7.44772 19.5523 7 19 7H5.00002ZM15 5H9.00002V4C9.00002 3.44772 9.44774 3 10 3H14C14.5523 3 15 3.44772 15 4V5ZM20 14.6923C17.4872 15.5405 14.7964 16 12 16C9.20363 16 6.51281 15.5405 4.00002 14.6923V18C4.00002 18.5523 4.44774 19 5.00002 19H19C19.5523 19 20 18.5523 20 18V14.6923ZM11 12C11 11.4477 11.4477 11 12 11H12.01C12.5623 11 13.01 11.4477 13.01 12C13.01 12.5523 12.5623 13 12.01 13H12C11.4477 13 11 12.5523 11 12Z" fill="#212A3D"/>
</svg>
