<svg width="24" height="24" viewBox="0 0 24 24" fill="none" xmlns="http://www.w3.org/2000/svg">
<path fill-rule="evenodd" clip-rule="evenodd" d="M12 5C7.46774 5 4 8.24148 4 12C4 13.3518 4.43799 14.619 5.20892 15.6991C5.40232 15.97 5.44821 16.3195 5.33132 16.6312L4.56803 18.6666L7.54855 18.0705C7.76061 18.0281 7.9807 18.0555 8.17582 18.1488C9.30814 18.6899 10.6098 19 12 19C16.5323 19 20 15.7585 20 12C20 8.24148 16.5323 5 12 5ZM2 12C2 6.92196 6.59113 3 12 3C17.4089 3 22 6.92196 22 12C22 17.078 17.4089 21 12 21C10.4347 21 8.94857 20.6761 7.62322 20.0952L3.19612 20.9806C2.84008 21.0518 2.47342 20.9244 2.2382 20.6478C2.00299 20.3712 1.93618 19.9888 2.06367 19.6489L3.27872 16.4087C2.46778 15.1108 2 13.6065 2 12ZM7 12C7 11.4477 7.44772 11 8 11H8.01C8.56228 11 9.01 11.4477 9.01 12C9.01 12.5523 8.56228 13 8.01 13H8C7.44772 13 7 12.5523 7 12ZM11 12C11 11.4477 11.4477 11 12 11H12.01C12.5623 11 13.01 11.4477 13.01 12C13.01 12.5523 12.5623 13 12.01 13H12C11.4477 13 11 12.5523 11 12ZM15 12C15 11.4477 15.4477 11 16 11H16.01C16.5623 11 17.01 11.4477 17.01 12C17.01 12.5523 16.5623 13 16.01 13H16C15.4477 13 15 12.5523 15 12Z" fill="#212A3D"/>
</svg>
