<svg width="24" height="24" viewBox="0 0 24 24" fill="none" xmlns="http://www.w3.org/2000/svg">
<path fill-rule="evenodd" clip-rule="evenodd" d="M14.2929 3.29289C13.9024 3.68342 13.9024 4.31658 14.2929 4.70711L18.5858 9H11C6.02944 9 2 13.0294 2 18V20C2 20.5523 2.44772 21 3 21C3.55228 21 4 20.5523 4 20V18C4 14.134 7.13401 11 11 11H18.5858L14.2929 15.2929C13.9024 15.6834 13.9024 16.3166 14.2929 16.7071C14.6834 17.0976 15.3166 17.0976 15.7071 16.7071L21.7071 10.7071C22.0976 10.3166 22.0976 9.68342 21.7071 9.29289L15.7071 3.29289C15.3166 2.90237 14.6834 2.90237 14.2929 3.29289Z" fill="#212A3D"/>
</svg>
