<svg width="24" height="24" viewBox="0 0 24 24" fill="none" xmlns="http://www.w3.org/2000/svg">
<path fill-rule="evenodd" clip-rule="evenodd" d="M16.7071 6.29289C17.0976 6.68342 17.0976 7.31658 16.7071 7.70711L6.70711 17.7071C6.31658 18.0976 5.68342 18.0976 5.29289 17.7071L1.29289 13.7071C0.902369 13.3166 0.902369 12.6834 1.29289 12.2929C1.68342 11.9024 2.31658 11.9024 2.70711 12.2929L6 15.5858L15.2929 6.29289C15.6834 5.90237 16.3166 5.90237 16.7071 6.29289Z" fill="#212A3D"/>
<path fill-rule="evenodd" clip-rule="evenodd" d="M21.7071 6.29289C22.0976 6.68342 22.0976 7.31658 21.7071 7.70711L11.7071 17.7071C11.3166 18.0976 10.6834 18.0976 10.2929 17.7071L9.58579 17C9.19526 16.6095 9.19526 15.9763 9.58579 15.5858C9.97631 15.1953 10.6095 15.1953 11 15.5858L20.2929 6.29289C20.6834 5.90237 21.3166 5.90237 21.7071 6.29289Z" fill="#212A3D"/>
</svg>
