<svg width="24" height="24" viewBox="0 0 24 24" fill="none" xmlns="http://www.w3.org/2000/svg">
<path fill-rule="evenodd" clip-rule="evenodd" d="M9.40199 3.5C10.5567 1.5 13.4434 1.5 14.5981 3.5L21.5263 15.5C22.681 17.5 21.2377 20 18.9283 20H5.07186C2.76246 20 1.31908 17.5 2.47378 15.5L9.40199 3.5ZM12.8661 4.5C12.4812 3.83333 11.5189 3.83333 11.134 4.5L4.20583 16.5C3.82093 17.1667 4.30206 18 5.07186 18H18.9283C19.6981 18 20.1792 17.1667 19.7943 16.5L12.8661 4.5ZM12.0001 8C12.5523 8 13.0001 8.44771 13.0001 9V11C13.0001 11.5523 12.5523 12 12.0001 12C11.4478 12 11.0001 11.5523 11.0001 11V9C11.0001 8.44771 11.4478 8 12.0001 8ZM11.0001 15C11.0001 14.4477 11.4478 14 12.0001 14H12.0101C12.5623 14 13.0101 14.4477 13.0101 15C13.0101 15.5523 12.5623 16 12.0101 16H12.0001C11.4478 16 11.0001 15.5523 11.0001 15Z" fill="#212A3D"/>
</svg>
