<svg width="24" height="24" viewBox="0 0 24 24" fill="none" xmlns="http://www.w3.org/2000/svg">
<mask id="mask0_9_462" style="mask-type:alpha" maskUnits="userSpaceOnUse" x="0" y="0" width="24" height="24">
<rect width="24" height="24" fill="#D9D9D9"/>
</mask>
<g mask="url(#mask0_9_462)">
<path d="M5.925 21C5.54167 21 5.17083 20.8667 4.8125 20.6C4.45417 20.3333 4.21667 20.0083 4.1 19.625C3.68333 18.225 3.34167 17.0125 3.075 15.9875C2.80833 14.9625 2.59583 14.0625 2.4375 13.2875C2.27917 12.5125 2.16667 11.825 2.1 11.225C2.03333 10.625 2 10.05 2 9.5C2 7.96667 2.53333 6.66667 3.6 5.6C4.66667 4.53333 5.96667 4 7.5 4H12.5C12.95 3.4 13.5208 2.91667 14.2125 2.55C14.9042 2.18333 15.6667 2 16.5 2C16.9167 2 17.2708 2.14583 17.5625 2.4375C17.8542 2.72917 18 3.08333 18 3.5C18 3.6 17.9875 3.7 17.9625 3.8C17.9375 3.9 17.9083 3.99167 17.875 4.075C17.8083 4.25833 17.7458 4.44167 17.6875 4.625C17.6292 4.80833 17.5833 5.00833 17.55 5.225L19.825 7.5H21C21.2833 7.5 21.5208 7.59583 21.7125 7.7875C21.9042 7.97917 22 8.21667 22 8.5V13.75C22 13.9667 21.9375 14.1583 21.8125 14.325C21.6875 14.4917 21.5167 14.6167 21.3 14.7L19.175 15.4L17.925 19.575C17.7917 20.0083 17.55 20.3542 17.2 20.6125C16.85 20.8708 16.45 21 16 21H14C13.45 21 12.9792 20.8042 12.5875 20.4125C12.1958 20.0208 12 19.55 12 19H10C10 19.55 9.80417 20.0208 9.4125 20.4125C9.02083 20.8042 8.55 21 8 21H5.925ZM6 19H8V17H14V19H16L17.55 13.85L20 13.025V9.5H19L15.5 6C15.5 5.66667 15.5208 5.34167 15.5625 5.025C15.6042 4.70833 15.6667 4.4 15.75 4.1C15.2667 4.23333 14.8417 4.4625 14.475 4.7875C14.1083 5.1125 13.8417 5.51667 13.675 6H7.5C6.53333 6 5.70833 6.34167 5.025 7.025C4.34167 7.70833 4 8.53333 4 9.5C4 10.1833 4.175 11.3542 4.525 13.0125C4.875 14.6708 5.36667 16.6667 6 19ZM16 11C16.2833 11 16.5208 10.9042 16.7125 10.7125C16.9042 10.5208 17 10.2833 17 10C17 9.71667 16.9042 9.47917 16.7125 9.2875C16.5208 9.09583 16.2833 9 16 9C15.7167 9 15.4792 9.09583 15.2875 9.2875C15.0958 9.47917 15 9.71667 15 10C15 10.2833 15.0958 10.5208 15.2875 10.7125C15.4792 10.9042 15.7167 11 16 11ZM12 9C12.2833 9 12.5208 8.90417 12.7125 8.7125C12.9042 8.52083 13 8.28333 13 8C13 7.71667 12.9042 7.47917 12.7125 7.2875C12.5208 7.09583 12.2833 7 12 7H9C8.71667 7 8.47917 7.09583 8.2875 7.2875C8.09583 7.47917 8 7.71667 8 8C8 8.28333 8.09583 8.52083 8.2875 8.7125C8.47917 8.90417 8.71667 9 9 9H12Z" fill="#212A3D"/>
</g>
</svg>
