<svg width="24" height="24" viewBox="0 0 24 24" fill="none" xmlns="http://www.w3.org/2000/svg">
<path fill-rule="evenodd" clip-rule="evenodd" d="M12 2C15.926 2 19.3236 4.26243 20.9601 7.55464C21.6261 8.89509 22 10.4039 22 12C22 17.5228 17.5228 22 12 22C6.47715 22 2 17.5228 2 12C2 8.07361 4.26289 4.67574 7.55564 3.03942C8.89447 2.3741 10.4035 2 12 2ZM7.00863 5.74772C5.67527 6.81357 4.69034 8.29706 4.25203 10H5C6.65685 10 8 11.3431 8 13V14C8 14.5523 8.44772 15 9 15C10.6569 15 12 16.3431 12 18V20C12.6906 20 13.3608 19.9125 14 19.748V18C14 16.3431 15.3431 15 17 15H19.4185C19.7935 14.0736 20 13.0609 20 12C20 10.9391 19.7935 9.92643 19.4185 9H19C18.4477 9 18 9.44772 18 10C18 11.6569 16.6569 13 15 13C13.3431 13 12 11.6569 12 10C12 9.44772 11.5523 9 11 9H10.5C8.65029 9 7.13571 7.56512 7.00863 5.74772ZM5 12H4C4 15.7277 6.54955 18.8599 10 19.748V18C10 17.4477 9.55228 17 9 17C7.34315 17 6 15.6569 6 14V13C6 12.4477 5.55228 12 5 12ZM18.2454 17H17C16.4477 17 16 17.4477 16 18V18.9297C16.8634 18.4303 17.6249 17.7741 18.2454 17ZM12 4C10.9391 4 9.92643 4.20651 9 4.58152V5.5C9 6.32843 9.67157 7 10.5 7H11C12.6569 7 14 8.34315 14 10C14 10.5523 14.4477 11 15 11C15.5523 11 16 10.5523 16 10C16 8.58106 16.9851 7.39221 18.3087 7.08004C16.8446 5.20531 14.563 4 12 4Z" fill="#212A3D"/>
</svg>
