<svg width="24" height="24" viewBox="0 0 24 24" fill="none" xmlns="http://www.w3.org/2000/svg">
<path fill-rule="evenodd" clip-rule="evenodd" d="M3 5.5H21C21.2761 5.5 21.5 5.72386 21.5 6V18C21.5 18.2761 21.2761 18.5 21 18.5H3C2.72386 18.5 2.5 18.2761 2.5 18V6C2.5 5.72386 2.72386 5.5 3 5.5ZM21 4C22.1046 4 23 4.89543 23 6V18C23 19.1046 22.1046 20 21 20H3C1.89543 20 1 19.1046 1 18V6C1 4.89543 1.89543 4 3 4H21Z" fill="#212A3D"/>
<path fill-rule="evenodd" clip-rule="evenodd" d="M9 18.5L9 5.5H7.5V18.5H9Z" fill="#212A3D"/>
<path fill-rule="evenodd" clip-rule="evenodd" d="M7 8C7 7.72386 6.77614 7.5 6.5 7.5H4C3.72386 7.5 3.5 7.72386 3.5 8C3.5 8.27614 3.72386 8.5 4 8.5H6.5C6.77614 8.5 7 8.27614 7 8Z" fill="#212A3D"/>
<path fill-rule="evenodd" clip-rule="evenodd" d="M7 10C7 9.72386 6.77614 9.5 6.5 9.5H4C3.72386 9.5 3.5 9.72386 3.5 10C3.5 10.2761 3.72386 10.5 4 10.5H6.5C6.77614 10.5 7 10.2761 7 10Z" fill="#212A3D"/>
<path fill-rule="evenodd" clip-rule="evenodd" d="M7 12C7 11.7239 6.77614 11.5 6.5 11.5H4C3.72386 11.5 3.5 11.7239 3.5 12C3.5 12.2761 3.72386 12.5 4 12.5H6.5C6.77614 12.5 7 12.2761 7 12Z" fill="#212A3D"/>
</svg>
