<svg width="24" height="24" viewBox="0 0 24 24" fill="none" xmlns="http://www.w3.org/2000/svg">
<path fill-rule="evenodd" clip-rule="evenodd" d="M12 2C12.5523 2 13 2.44772 13 3V4C13 4.55228 12.5523 5 12 5C11.4477 5 11 4.55228 11 4V3C11 2.44772 11.4477 2 12 2ZM4.92894 4.92893C5.31946 4.53841 5.95263 4.53841 6.34315 4.92893L7.05026 5.63604C7.44078 6.02656 7.44078 6.65973 7.05026 7.05025C6.65974 7.44078 6.02657 7.44078 5.63605 7.05025L4.92894 6.34315C4.53841 5.95262 4.53841 5.31946 4.92894 4.92893ZM19.0711 4.92893C19.4616 5.31946 19.4616 5.95262 19.0711 6.34315L18.364 7.05025C17.9734 7.44078 17.3403 7.44078 16.9498 7.05025C16.5592 6.65973 16.5592 6.02656 16.9498 5.63604L17.6569 4.92893C18.0474 4.53841 18.6805 4.53841 19.0711 4.92893ZM9.17158 9.1716C7.60948 10.7337 7.60948 13.2664 9.17158 14.8285L9.71868 15.3755C9.91171 15.5686 10.0848 15.7778 10.2367 16H13.7633C13.9152 15.7778 14.0883 15.5686 14.2813 15.3755L14.8284 14.8285C16.3905 13.2664 16.3905 10.7337 14.8284 9.1716C13.2663 7.6095 10.7337 7.6095 9.17158 9.1716ZM15.2449 17.4187C15.3586 17.188 15.5102 16.9751 15.6955 16.7898L16.2426 16.2427C18.5858 13.8995 18.5858 10.1005 16.2426 7.75738C13.8995 5.41424 10.1005 5.41424 7.75737 7.75738C5.41422 10.1005 5.41422 13.8995 7.75737 16.2427L8.30447 16.7898C8.48982 16.9751 8.64137 17.188 8.75515 17.4187C8.76015 17.4295 8.76534 17.4403 8.77071 17.4509C8.92027 17.7661 9.00001 18.1134 9.00001 18.469V19C9.00001 20.6569 10.3432 22 12 22C13.6569 22 15 20.6569 15 19V18.469C15 18.1134 15.0797 17.7661 15.2293 17.4509C15.2347 17.4403 15.2399 17.4295 15.2449 17.4187ZM13.0252 18H10.9748C10.9915 18.155 11 18.3116 11 18.469V19C11 19.5523 11.4477 20 12 20C12.5523 20 13 19.5523 13 19V18.469C13 18.3116 13.0085 18.155 13.0252 18ZM2.00006 11.9999C2.00006 11.4477 2.44778 10.9999 3.00006 10.9999H4.00006C4.55235 10.9999 5.00006 11.4477 5.00006 11.9999C5.00006 12.5522 4.55235 12.9999 4.00006 12.9999H3.00006C2.44778 12.9999 2.00006 12.5522 2.00006 11.9999ZM19.0001 11.9999C19.0001 11.4477 19.4478 10.9999 20.0001 10.9999H21.0001C21.5523 10.9999 22.0001 11.4477 22.0001 11.9999C22.0001 12.5522 21.5523 12.9999 21.0001 12.9999H20.0001C19.4478 12.9999 19.0001 12.5522 19.0001 11.9999Z" fill="#212A3D"/>
</svg>
