<svg width="24" height="24" viewBox="0 0 24 24" fill="none" xmlns="http://www.w3.org/2000/svg">
<path fill-rule="evenodd" clip-rule="evenodd" d="M12.5547 4.57165C12.2188 4.34772 11.7812 4.34772 11.4453 4.57165L4.44528 9.23832C4.31925 9.32234 4.21602 9.43237 4.1408 9.5587L11.4453 14.4284C11.7812 14.6523 12.2188 14.6523 12.5547 14.4284L19.8592 9.5587C19.7839 9.43237 19.6807 9.32234 19.5547 9.23832L12.5547 4.57165ZM21.9951 9.89961C21.9418 8.9618 21.4511 8.09891 20.6641 7.57422L13.6641 2.90755C12.6564 2.23575 11.3436 2.23575 10.3359 2.90755L3.33588 7.57422C2.54884 8.09891 2.05819 8.9618 2.00484 9.89961C2.00057 9.94229 1.99907 9.98508 2.00029 10.0277C2.00009 10.0419 1.99998 10.0561 1.99998 10.0704V19C1.99998 20.6569 3.34313 22 4.99998 22H19C20.6568 22 22 20.6569 22 19V10.0704C22 10.0561 21.9999 10.0419 21.9997 10.0277C22.0009 9.98508 21.9994 9.94229 21.9951 9.89961ZM20 11.8685L16.0528 14.5L20 17.1315V11.8685ZM19.8879 19.4605L14.25 15.7019L13.6641 16.0925C12.6564 16.7642 11.3436 16.7642 10.3359 16.0925L9.74998 15.7019L4.11207 19.4605C4.27865 19.781 4.61375 20 4.99998 20H19C19.3862 20 19.7213 19.781 19.8879 19.4605ZM3.99998 17.1315L7.94721 14.5L3.99998 11.8685V17.1315Z" fill="#212A3D"/>
</svg>
