<svg width="24" height="24" viewBox="0 0 24 24" fill="none" xmlns="http://www.w3.org/2000/svg">
<path fill-rule="evenodd" clip-rule="evenodd" d="M8.14645 14.1464C8.34171 13.9512 8.65829 13.9512 8.85355 14.1464L12 17.2929L15.1464 14.1464C15.3417 13.9512 15.6583 13.9512 15.8536 14.1464C16.0488 14.3417 16.0488 14.6583 15.8536 14.8536L12.3536 18.3536C12.1583 18.5488 11.8417 18.5488 11.6464 18.3536L8.14645 14.8536C7.95118 14.6583 7.95118 14.3417 8.14645 14.1464Z" fill="#212A3D"/>
<path fill-rule="evenodd" clip-rule="evenodd" d="M15.8536 8.85355C15.6583 9.04882 15.3417 9.04882 15.1464 8.85355L12 5.70711L8.85355 8.85355C8.65829 9.04881 8.34171 9.04881 8.14645 8.85355C7.95118 8.65829 7.95118 8.34171 8.14645 8.14645L11.6464 4.64645C11.8417 4.45118 12.1583 4.45118 12.3536 4.64645L15.8536 8.14645C16.0488 8.34171 16.0488 8.65829 15.8536 8.85355Z" fill="#212A3D"/>
<path fill-rule="evenodd" clip-rule="evenodd" d="M7 11.5C7 11.2239 7.22386 11 7.5 11H16.5C16.7761 11 17 11.2239 17 11.5C17 11.7761 16.7761 12 16.5 12H7.5C7.22386 12 7 11.7761 7 11.5Z" fill="#212A3D"/>
</svg>
