<svg width="24" height="24" viewBox="0 0 24 24" fill="none" xmlns="http://www.w3.org/2000/svg">
<g clip-path="url(#clip0_214_54)">
<path fill-rule="evenodd" clip-rule="evenodd" d="M18 5.5H6C5.72386 5.5 5.5 5.72386 5.5 6V18C5.5 18.2761 5.72386 18.5 6 18.5H18C18.2761 18.5 18.5 18.2761 18.5 18V6C18.5 5.72386 18.2761 5.5 18 5.5ZM6 4C4.89543 4 4 4.89543 4 6V18C4 19.1046 4.89543 20 6 20H18C19.1046 20 20 19.1046 20 18V6C20 4.89543 19.1046 4 18 4H6Z" fill="#212A3D"/>
<path fill-rule="evenodd" clip-rule="evenodd" d="M8.14645 10.1464C8.34171 9.95118 8.65829 9.95118 8.85355 10.1464L12 13.2929L15.1464 10.1464C15.3417 9.95118 15.6583 9.95118 15.8536 10.1464C16.0488 10.3417 16.0488 10.6583 15.8536 10.8536L12.3536 14.3536C12.1583 14.5488 11.8417 14.5488 11.6464 14.3536L8.14645 10.8536C7.95118 10.6583 7.95118 10.3417 8.14645 10.1464Z" fill="#212A3D"/>
</g>
<defs>
<clipPath id="clip0_214_54">
<rect width="16" height="16" fill="white" transform="translate(4 4)"/>
</clipPath>
</defs>
</svg>
