<svg width="24" height="24" viewBox="0 0 24 24" fill="none" xmlns="http://www.w3.org/2000/svg">
<g clip-path="url(#clip0_214_55)">
<path fill-rule="evenodd" clip-rule="evenodd" d="M18 5.5H6C5.72386 5.5 5.5 5.72386 5.5 6V18C5.5 18.2761 5.72386 18.5 6 18.5H18C18.2761 18.5 18.5 18.2761 18.5 18V6C18.5 5.72386 18.2761 5.5 18 5.5ZM6 4C4.89543 4 4 4.89543 4 6V18C4 19.1046 4.89543 20 6 20H18C19.1046 20 20 19.1046 20 18V6C20 4.89543 19.1046 4 18 4H6Z" fill="#212A3D"/>
<path fill-rule="evenodd" clip-rule="evenodd" d="M10.1464 8.14645C10.3417 7.95118 10.6583 7.95118 10.8536 8.14645L14.3536 11.6464C14.4473 11.7402 14.5 11.8674 14.5 12C14.5 12.1326 14.4473 12.2598 14.3536 12.3536L10.8536 15.8536C10.6583 16.0488 10.3417 16.0488 10.1464 15.8536C9.95118 15.6583 9.95118 15.3417 10.1464 15.1464L13.2929 12L10.1464 8.85355C9.95118 8.65829 9.95118 8.34171 10.1464 8.14645Z" fill="#212A3D"/>
</g>
<defs>
<clipPath id="clip0_214_55">
<rect width="16" height="16" fill="white" transform="translate(4 4)"/>
</clipPath>
</defs>
</svg>
