<svg width="20" height="20" viewBox="0 0 20 20" fill="none" xmlns="http://www.w3.org/2000/svg">
<path fill-rule="evenodd" clip-rule="evenodd" d="M20 10C20 15.5228 15.5228 20 10 20C4.47715 20 0 15.5228 0 10C0 4.47715 4.47715 0 10 0C15.5228 0 20 4.47715 20 10ZM15.2049 8.53799C16.0119 8.53799 16.6669 9.19296 16.6669 9.99998C16.6669 10.5965 16.3043 11.1111 15.8248 11.345C15.8482 11.4854 15.8599 11.6257 15.8599 11.7778C15.8599 14.0234 13.2517 15.8362 10.0236 15.8362C6.79553 15.8362 4.18734 14.0234 4.18734 11.7778C4.18734 11.6257 4.19904 11.4737 4.22243 11.3333C3.70781 11.0994 3.35693 10.5965 3.35693 9.99998C3.35693 9.19296 4.0119 8.53799 4.81892 8.53799C5.20489 8.53799 5.56746 8.70173 5.82477 8.94735C6.83062 8.21051 8.22243 7.75437 9.77799 7.70758L10.5148 4.2222C10.5382 4.15203 10.5733 4.09355 10.6318 4.05846C10.6903 4.02337 10.7604 4.01168 10.8306 4.02337L13.2517 4.53799C13.4154 4.18711 13.7663 3.9532 14.1756 3.9532C14.7487 3.9532 15.2166 4.42103 15.2166 4.99413C15.2166 5.56723 14.7487 6.03507 14.1756 6.03507C13.6142 6.03507 13.1581 5.59062 13.1347 5.04092L10.971 4.58478L10.3043 7.70758C11.8248 7.76606 13.2049 8.2339 14.199 8.94735C14.4563 8.69004 14.8072 8.53799 15.2049 8.53799ZM7.70781 9.99998C7.13471 9.99998 6.66687 10.4678 6.66687 11.0409C6.66687 11.614 7.13471 12.0819 7.70781 12.0819C8.28091 12.0819 8.74875 11.614 8.74875 11.0409C8.74875 10.4678 8.28091 9.99998 7.70781 9.99998ZM10.0119 14.5497C10.4096 14.5497 11.7663 14.5029 12.4797 13.7895C12.585 13.6842 12.585 13.5204 12.5031 13.4035C12.3979 13.2982 12.2224 13.2982 12.1172 13.4035C11.661 13.8479 10.7137 14.0117 10.0236 14.0117C9.33354 14.0117 8.37448 13.8479 7.93003 13.4035C7.82477 13.2982 7.64933 13.2982 7.54407 13.4035C7.4388 13.5088 7.4388 13.6842 7.54407 13.7895C8.24582 14.4912 9.61424 14.5497 10.0119 14.5497ZM11.2517 11.0409C11.2517 11.614 11.7195 12.0819 12.2926 12.0819C12.8657 12.0819 13.3335 11.614 13.3335 11.0409C13.3335 10.4678 12.8657 9.99998 12.2926 9.99998C11.7195 9.99998 11.2517 10.4678 11.2517 11.0409Z" fill="#212A3D"/>
</svg>
