<svg width="24" height="24" viewBox="0 0 24 24" fill="none" xmlns="http://www.w3.org/2000/svg">
<path fill-rule="evenodd" clip-rule="evenodd" d="M10.4185 7.00001C10.4185 6.50295 10.8214 6.10001 11.3185 6.10001H22.3327C22.8297 6.10001 23.2327 6.50295 23.2327 7.00001C23.2327 7.49707 22.8297 7.90001 22.3327 7.90001H11.3185C10.8214 7.90001 10.4185 7.49707 10.4185 7.00001Z" fill="#212A3D"/>
<path fill-rule="evenodd" clip-rule="evenodd" d="M2.29937 2.99064C2.30583 2.49363 2.71398 2.09491 3.21101 2.10009L22.3444 2.29931C22.8414 2.30448 23.2391 2.71159 23.2326 3.2086C23.2262 3.70561 22.818 4.10433 22.321 4.09915L3.18764 3.89993C2.69061 3.89476 2.29292 3.48765 2.29937 2.99064Z" fill="#212A3D"/>
<path fill-rule="evenodd" clip-rule="evenodd" d="M2.29933 21C2.29933 20.503 2.70227 20.1 3.19933 20.1H22.1993C22.6964 20.1 23.0993 20.503 23.0993 21C23.0993 21.4971 22.6964 21.9 22.1993 21.9L3.19933 21.9C2.70227 21.9 2.29933 21.4971 2.29933 21Z" fill="#212A3D"/>
<path fill-rule="evenodd" clip-rule="evenodd" d="M10.4185 12C10.4185 11.503 10.8214 11.1 11.3185 11.1H22.3327C22.8297 11.1 23.2327 11.503 23.2327 12C23.2327 12.4971 22.8297 12.9 22.3327 12.9H11.3185C10.8214 12.9 10.4185 12.4971 10.4185 12Z" fill="#212A3D"/>
<path d="M7.20001 16L2.20001 12L7.20001 8.00001L7.20001 16Z" fill="#212A3D"/>
<path fill-rule="evenodd" clip-rule="evenodd" d="M10.4185 17C10.4185 16.503 10.8214 16.1 11.3185 16.1H22.3327C22.8297 16.1 23.2327 16.503 23.2327 17C23.2327 17.4971 22.8297 17.9 22.3327 17.9H11.3185C10.8214 17.9 10.4185 17.4971 10.4185 17Z" fill="#212A3D"/>
</svg>
