<svg width="24" height="24" viewBox="0 0 24 24" fill="none" xmlns="http://www.w3.org/2000/svg">
<path fill-rule="evenodd" clip-rule="evenodd" d="M6.2 3.60001C6.69705 3.60001 7.1 4.00295 7.1 4.50001L7.1 19.5C7.1 19.9971 6.69705 20.4 6.2 20.4C5.70294 20.4 5.3 19.9971 5.3 19.5L5.3 4.50001C5.3 4.00295 5.70294 3.60001 6.2 3.60001Z" fill="#212A3D"/>
<path fill-rule="evenodd" clip-rule="evenodd" d="M17.5205 3.60019C18.0176 3.60019 18.4205 4.00313 18.4205 4.50019L18.4205 19.5002C18.4205 19.9972 18.0176 20.4002 17.5205 20.4002C17.0234 20.4002 16.6205 19.9972 16.6205 19.5002L16.6205 4.50019C16.6205 4.00313 17.0234 3.60019 17.5205 3.60019Z" fill="#212A3D"/>
<path fill-rule="evenodd" clip-rule="evenodd" d="M5.60586 10.7993H18.4201V12.5993H5.60586V10.7993Z" fill="#212A3D"/>
</svg>
