<svg width="24" height="24" viewBox="0 0 24 24" fill="none" xmlns="http://www.w3.org/2000/svg">
<path d="M8.65873 17.9384L8.29829 18.7631L9.94763 19.484L10.3081 18.6593L8.65873 17.9384ZM15.8152 6.05931C16.0142 5.60385 15.8064 5.07326 15.3509 4.87419C14.8955 4.67513 14.3649 4.88297 14.1658 5.33842L15.8152 6.05931ZM10.7072 4.19955C10.2102 4.19955 9.80722 4.60249 9.80722 5.09955C9.80722 5.5966 10.2102 5.99955 10.7072 5.99955V4.19955ZM19.2738 5.99955C19.7709 5.99955 20.1738 5.5966 20.1738 5.09955C20.1738 4.60249 19.7709 4.19955 19.2738 4.19955V5.99955ZM5.2002 18.0004C4.70314 18.0004 4.3002 18.4034 4.3002 18.9004C4.3002 19.3975 4.70314 19.8004 5.2002 19.8004V18.0004ZM13.7668 19.8004C14.2639 19.8004 14.6668 19.3975 14.6668 18.9004C14.6668 18.4034 14.2639 18.0004 13.7668 18.0004V19.8004ZM10.3081 18.6593L15.8152 6.05931L14.1658 5.33842L8.65873 17.9384L10.3081 18.6593ZM10.7072 5.99955H19.2738V4.19955H10.7072V5.99955ZM5.2002 19.8004H13.7668V18.0004H5.2002V19.8004Z" fill="#212A3D"/>
</svg>
