<svg width="24" height="24" viewBox="0 0 24 24" fill="none" xmlns="http://www.w3.org/2000/svg">
<path fill-rule="evenodd" clip-rule="evenodd" d="M10.4192 7.00001C10.4192 6.50295 10.8221 6.10001 11.3192 6.10001H22.3334C22.8304 6.10001 23.2334 6.50295 23.2334 7.00001C23.2334 7.49707 22.8304 7.90001 22.3334 7.90001H11.3192C10.8221 7.90001 10.4192 7.49707 10.4192 7.00001Z" fill="#212A3D"/>
<path fill-rule="evenodd" clip-rule="evenodd" d="M2.30006 2.99064C2.30651 2.49363 2.71467 2.09491 3.2117 2.10009L22.3451 2.29931C22.8421 2.30448 23.2398 2.71159 23.2333 3.2086C23.2269 3.70561 22.8187 4.10433 22.3217 4.09915L3.18833 3.89993C2.6913 3.89476 2.29361 3.48765 2.30006 2.99064Z" fill="#212A3D"/>
<path fill-rule="evenodd" clip-rule="evenodd" d="M2.30001 21C2.30001 20.503 2.70296 20.1 3.20001 20.1H22.2C22.6971 20.1 23.1 20.503 23.1 21C23.1 21.4971 22.6971 21.9 22.2 21.9L3.20001 21.9C2.70296 21.9 2.30001 21.4971 2.30001 21Z" fill="#212A3D"/>
<path fill-rule="evenodd" clip-rule="evenodd" d="M10.4192 12C10.4192 11.503 10.8221 11.1 11.3192 11.1H22.3334C22.8304 11.1 23.2334 11.503 23.2334 12C23.2334 12.4971 22.8304 12.9 22.3334 12.9H11.3192C10.8221 12.9 10.4192 12.4971 10.4192 12Z" fill="#212A3D"/>
<path d="M2.20001 8.00001L7.20001 12L2.20001 16V8.00001Z" fill="#212A3D"/>
<path fill-rule="evenodd" clip-rule="evenodd" d="M10.4192 17C10.4192 16.503 10.8221 16.1 11.3192 16.1H22.3334C22.8304 16.1 23.2334 16.503 23.2334 17C23.2334 17.4971 22.8304 17.9 22.3334 17.9H11.3192C10.8221 17.9 10.4192 17.4971 10.4192 17Z" fill="#212A3D"/>
</svg>
