<svg width="24" height="24" viewBox="0 0 24 24" fill="none" xmlns="http://www.w3.org/2000/svg">
<path fill-rule="evenodd" clip-rule="evenodd" d="M9.66661 5.80089C9.66661 5.30383 10.0696 4.90089 10.5666 4.90089H21.5808C22.0779 4.90089 22.4808 5.30383 22.4808 5.80089C22.4808 6.29794 22.0779 6.70089 21.5808 6.70089H10.5666C10.0696 6.70089 9.66661 6.29794 9.66661 5.80089Z" fill="#212A3D"/>
<path fill-rule="evenodd" clip-rule="evenodd" d="M9.66661 12.4005C9.66661 11.9034 10.0696 11.5005 10.5666 11.5005H21.5808C22.0779 11.5005 22.4808 11.9034 22.4808 12.4005C22.4808 12.8976 22.0779 13.3005 21.5808 13.3005H10.5666C10.0696 13.3005 9.66661 12.8976 9.66661 12.4005Z" fill="#212A3D"/>
<path fill-rule="evenodd" clip-rule="evenodd" d="M9.66661 19.0001C9.66661 18.5031 10.0696 18.1001 10.5666 18.1001H21.5808C22.0779 18.1001 22.4808 18.5031 22.4808 19.0001C22.4808 19.4972 22.0779 19.9001 21.5808 19.9001H10.5666C10.0696 19.9001 9.66661 19.4972 9.66661 19.0001Z" fill="#212A3D"/>
<path d="M5.56832 11H4.26368V7.43169C4.26368 7.33378 4.26368 7.21281 4.26368 7.06881C4.26944 6.92481 4.2752 6.77506 4.28096 6.61953C4.28672 6.46401 4.29248 6.32577 4.29824 6.20481C4.26944 6.23937 4.20608 6.30273 4.10816 6.39489C4.016 6.48129 3.9296 6.55905 3.84896 6.62817L3.14048 7.19841L2.50976 6.41217L4.49696 4.83105H5.56832V11Z" fill="#212A3D"/>
<path d="M6.65716 20.0001H2.3458V19.0929L3.89236 17.5291C4.2034 17.2065 4.45396 16.9387 4.64404 16.7255C4.83412 16.5067 4.97236 16.3108 5.05876 16.138C5.14516 15.9595 5.18836 15.7694 5.18836 15.5678C5.18836 15.3201 5.11924 15.1358 4.981 15.0148C4.84852 14.8939 4.66708 14.8334 4.43668 14.8334C4.20052 14.8334 3.97012 14.8881 3.74548 14.9975C3.52084 15.107 3.28468 15.2625 3.037 15.4641L2.32852 14.626C2.50708 14.4705 2.69428 14.3265 2.89012 14.194C3.09172 14.0615 3.32212 13.955 3.58132 13.8743C3.84628 13.7879 4.16308 13.7447 4.53172 13.7447C4.93492 13.7447 5.28052 13.8196 5.56852 13.9694C5.86228 14.1134 6.08692 14.3121 6.24244 14.5655C6.40372 14.8132 6.48436 15.0955 6.48436 15.4123C6.48436 15.6715 6.44404 15.9105 6.3634 16.1294C6.28852 16.3483 6.1762 16.5614 6.02644 16.7687C5.88244 16.9703 5.70388 17.1806 5.49076 17.3995C5.27764 17.6126 5.03572 17.8459 4.765 18.0993L3.97012 18.8423V18.9028H6.65716V20.0001Z" fill="#212A3D"/>
</svg>
