<svg width="24" height="24" viewBox="0 0 24 24" fill="none" xmlns="http://www.w3.org/2000/svg">
<path fill-rule="evenodd" clip-rule="evenodd" d="M9.00001 2C9.55229 2 10 2.44772 10 3V4H12.7322C12.744 3.99979 12.7558 3.99979 12.7676 4H15C15.5523 4 16 4.44772 16 5C16 5.55228 15.5523 6 15 6H13.578C13.003 8.68299 11.862 11.1551 10.2864 13.2858C10.4432 13.4624 10.6037 13.6356 10.7677 13.8055C11.1512 14.2028 11.1401 14.8359 10.7427 15.2195C10.3454 15.603 9.7123 15.5919 9.32873 15.1945C9.21771 15.0795 9.10812 14.9631 9 14.8453C7.42843 16.5573 5.54707 17.9799 3.44504 19.0245C2.95046 19.2703 2.35028 19.0686 2.10449 18.574C1.85871 18.0794 2.0604 17.4792 2.55497 17.2334C4.52092 16.2565 6.27066 14.9102 7.71367 13.2859C6.82748 12.0874 6.07868 10.7808 5.49072 9.38919C5.27577 8.88045 5.51394 8.29379 6.02268 8.07884C6.53142 7.8639 7.11808 8.10207 7.33303 8.61081C7.78609 9.68312 8.34618 10.6995 9.00002 11.6465C10.1647 9.95956 11.0321 8.0521 11.527 6H3.00001C2.44772 6 2.00001 5.55228 2.00001 5C2.00001 4.44772 2.44772 4 3.00001 4H8.00001V3C8.00001 2.44772 8.44772 2 9.00001 2ZM16 10C16.3788 10 16.725 10.214 16.8944 10.5528L20.3854 17.5348C20.3919 17.5471 20.3982 17.5596 20.4041 17.5722L21.8944 20.5528C22.1414 21.0468 21.9412 21.6474 21.4472 21.8944C20.9532 22.1414 20.3526 21.9412 20.1056 21.4472L18.882 19H13.118L11.8944 21.4472C11.6474 21.9412 11.0468 22.1414 10.5528 21.8944C10.0588 21.6474 9.85859 21.0468 10.1056 20.5528L11.5959 17.5722C11.6019 17.5596 11.6081 17.5471 11.6146 17.5348L15.1056 10.5528C15.275 10.214 15.6212 10 16 10ZM14.118 17H17.882L16 13.2361L14.118 17Z" fill="#212A3D"/>
</svg>
