<svg width="24" height="24" viewBox="0 0 24 24" fill="none" xmlns="http://www.w3.org/2000/svg">
<path fill-rule="evenodd" clip-rule="evenodd" d="M9.58579 3.58584C10.8457 2.32591 13 3.21824 13 5.00005V19C13 20.7819 10.8457 21.6742 9.58579 20.4143L5.17157 16H4C2.89543 16 2 15.1046 2 14V10C2 8.89548 2.89543 8.00005 4 8.00005H5.17157L9.58579 3.58584ZM11 5.00005L6.29289 9.70716C6.10536 9.89469 5.851 10 5.58579 10H4V14H5.58579C5.851 14 6.10536 14.1054 6.29289 14.2929L11 19V5.00005ZM16.2929 9.29289C16.6834 8.90237 17.3166 8.90237 17.7071 9.29289L19 10.5858L20.2929 9.29289C20.6834 8.90237 21.3166 8.90237 21.7071 9.29289C22.0976 9.68342 22.0976 10.3166 21.7071 10.7071L20.4142 12L21.7071 13.2929C22.0976 13.6834 22.0976 14.3166 21.7071 14.7071C21.3166 15.0976 20.6834 15.0976 20.2929 14.7071L19 13.4142L17.7071 14.7071C17.3166 15.0976 16.6834 15.0976 16.2929 14.7071C15.9024 14.3166 15.9024 13.6834 16.2929 13.2929L17.5858 12L16.2929 10.7071C15.9024 10.3166 15.9024 9.68342 16.2929 9.29289Z" fill="#212A3D"/>
</svg>
