<svg width="24" height="24" viewBox="0 0 24 24" fill="none" xmlns="http://www.w3.org/2000/svg">
<path fill-rule="evenodd" clip-rule="evenodd" d="M17.4415 12.4972L20.353 14.3725L20.436 14.4601C20.7762 14.8193 21 15.3101 21 15.8579V19.3379C21 20.4402 20.1023 21.3379 19 21.3379H5C3.89772 21.3379 3 20.4402 3 19.3379V15.8279C3 15.3222 3.1979 14.8266 3.54299 14.4613L3.6139 14.3862L6.29866 12.5172L7.44134 14.1586L5 15.8581V19.3379H19V15.88L16.3585 14.1786L17.4415 12.4972Z" fill="#212A3D"/>
<path fill-rule="evenodd" clip-rule="evenodd" d="M8.8703 8.81201C8.55397 9.12833 8.55397 9.6412 8.8703 9.95752L11.423 12.5102C11.7393 12.8265 12.2521 12.8265 12.5685 12.5102L16.3939 8.68473C16.7102 8.3684 16.7102 7.85554 16.3939 7.53922L13.8413 4.98656C13.5249 4.67024 13.0121 4.67024 12.6957 4.98656L8.8703 8.81201ZM7.45609 11.3717C6.35871 10.2744 6.35871 8.49517 7.45609 7.3978L11.2815 3.57235C12.3789 2.47498 14.1581 2.47497 15.2555 3.57235L17.8081 6.125C18.9055 7.22238 18.9055 9.00157 17.8081 10.0989L13.9827 13.9244C12.8853 15.0218 11.1061 15.0218 10.0087 13.9244L7.45609 11.3717Z" fill="#212A3D"/>
<path fill-rule="evenodd" clip-rule="evenodd" d="M19 18H5V16H19V18Z" fill="#212A3D"/>
</svg>
