<?xml version="1.0" encoding="UTF-8" standalone="no"?>
<!DOCTYPE svg PUBLIC "-//W3C//DTD SVG 1.1//EN"
 "http://www.w3.org/Graphics/SVG/1.1/DTD/svg11.dtd">
<!-- Generated by graphviz version 9.0.0 (20230911.1827)
 -->
<!-- Title: erd Pages: 1 -->
<svg width="883pt" height="534pt"
 viewBox="0.00 0.00 883.00 533.75" xmlns="http://www.w3.org/2000/svg" xmlns:xlink="http://www.w3.org/1999/xlink">
<g id="graph0" class="graph" transform="scale(1 1) rotate(0) translate(4 529.75)">
<title>erd</title>
<polygon fill="white" stroke="none" points="-4,4 -4,-529.75 879,-529.75 879,4 -4,4"/>
<text text-anchor="middle" x="437.5" y="-493.25" font-family="Times,serif" font-size="30.00" fill="blue">Vote Storage</text>
<!-- ballot -->
<g id="node1" class="node">
<title>ballot</title>
<polygon fill="#009879" stroke="none" points="0,-251 0,-281 709,-281 709,-251 0,-251"/>
<polygon fill="none" stroke="black" points="0,-251 0,-281 709,-281 709,-251 0,-251"/>
<text text-anchor="start" x="318.5" y="-260" font-family="Courier bold italic" font-weight="bold" font-size="20.00" fill="white">ballot</text>
<polygon fill="none" stroke="black" points="0,-224 0,-251 95,-251 95,-224 0,-224"/>
<text text-anchor="start" x="16" y="-231.9" font-family="Courier bold" font-weight="bold" font-size="18.00">Column</text>
<polygon fill="none" stroke="black" points="95,-224 95,-251 167,-251 167,-224 95,-224"/>
<text text-anchor="start" x="110" y="-231.9" font-family="Courier bold" font-weight="bold" font-size="18.00">Type</text>
<polygon fill="none" stroke="black" points="167,-224 167,-251 709,-251 709,-224 167,-224"/>
<text text-anchor="start" x="380.25" y="-231.9" font-family="Courier bold" font-weight="bold" font-size="18.00">Description</text>
<polygon fill="#54ff9f" stroke="none" points="0,-200 0,-224 95,-224 95,-200 0,-200"/>
<polygon fill="none" stroke="black" points="0,-200 0,-224 95,-224 95,-200 0,-200"/>
<text text-anchor="start" x="3" y="-205.8" font-family="Times,serif" font-size="16.00">row_id</text>
<polygon fill="#54ff9f" stroke="none" points="95,-200 95,-224 167,-224 167,-200 95,-200"/>
<polygon fill="none" stroke="black" points="95,-200 95,-224 167,-224 167,-200 95,-200"/>
<text text-anchor="start" x="107.38" y="-205.8" font-family="Times,serif" font-size="16.00">bigint+</text>
<polygon fill="#54ff9f" stroke="none" points="167,-200 167,-224 709,-224 709,-200 167,-200"/>
<polygon fill="none" stroke="black" points="167,-200 167,-224 709,-224 709,-200 167,-200"/>
<text text-anchor="start" x="170" y="-207.95" font-family="Monospace" font-style="italic" font-size="14.00" fill="#7f7f7f">none</text>
<polygon fill="none" stroke="black" points="0,-176 0,-200 95,-200 95,-176 0,-176"/>
<text text-anchor="start" x="3" y="-181.8" font-family="Times,serif" font-size="16.00">objective</text>
<polygon fill="none" stroke="black" points="95,-176 95,-200 167,-200 167,-176 95,-176"/>
<text text-anchor="start" x="108.88" y="-181.8" font-family="Times,serif" font-size="16.00">integer</text>
<polygon fill="none" stroke="black" points="167,-176 167,-200 709,-200 709,-176 167,-176"/>
<text text-anchor="start" x="170" y="-183.95" font-family="Monospace" font-style="italic" font-size="14.00" fill="#7f7f7f">Reference to the Objective the ballot was for.</text>
<polygon fill="none" stroke="black" points="0,-142 0,-176 95,-176 95,-142 0,-142"/>
<text text-anchor="start" x="3" y="-153.18" font-family="Times,serif" font-size="16.00">proposal</text>
<polygon fill="none" stroke="black" points="95,-142 95,-176 167,-176 167,-142 95,-142"/>
<text text-anchor="start" x="108.5" y="-154.18" font-family="Times,serif" font-style="italic" font-size="16.00">integer</text>
<polygon fill="none" stroke="black" points="167,-142 167,-176 709,-176 709,-142 167,-142"/>
<text text-anchor="start" x="170" y="-160.7" font-family="Monospace" font-style="italic" font-size="14.00" fill="#7f7f7f">Reference to the Proposal the ballot was for.</text>
<text text-anchor="start" x="170" y="-146.7" font-family="Monospace" font-style="italic" font-size="14.00" fill="#7f7f7f">May be NULL if this ballot covers ALL proposals in the challenge.</text>
<polygon fill="none" stroke="black" points="0,-118 0,-142 95,-142 95,-118 0,-118"/>
<text text-anchor="start" x="3" y="-123.8" font-family="Times,serif" font-size="16.00">voter</text>
<polygon fill="none" stroke="black" points="95,-118 95,-142 167,-142 167,-118 95,-118"/>
<text text-anchor="start" x="113.75" y="-123.8" font-family="Times,serif" font-size="16.00">bytea</text>
<polygon fill="none" stroke="black" points="167,-118 167,-142 709,-142 709,-118 167,-118"/>
<text text-anchor="start" x="170" y="-125.95" font-family="Monospace" font-style="italic" font-size="14.00" fill="#7f7f7f">Voters Voting Key who cast the ballot</text>
<polygon fill="none" stroke="black" points="0,-94 0,-118 95,-118 95,-94 0,-94"/>
<text text-anchor="start" x="3" y="-99.8" font-family="Times,serif" font-size="16.00">fragment_id</text>
<polygon fill="none" stroke="black" points="95,-94 95,-118 167,-118 167,-94 95,-94"/>
<text text-anchor="start" x="119" y="-99.8" font-family="Times,serif" font-size="16.00">text</text>
<polygon fill="none" stroke="black" points="167,-94 167,-118 709,-118 709,-94 167,-94"/>
<text text-anchor="start" x="170" y="-101.95" font-family="Monospace" font-style="italic" font-size="14.00" fill="#7f7f7f">Unique ID of this Ballot</text>
<polygon fill="none" stroke="black" points="0,-70 0,-94 95,-94 95,-70 0,-70"/>
<text text-anchor="start" x="3" y="-75.8" font-family="Times,serif" font-size="16.00">cast_at</text>
<polygon fill="none" stroke="black" points="95,-70 95,-94 167,-94 167,-70 95,-70"/>
<text text-anchor="start" x="97.62" y="-75.8" font-family="Times,serif" font-size="16.00">timestamp</text>
<polygon fill="none" stroke="black" points="167,-70 167,-94 709,-94 709,-70 167,-70"/>
<text text-anchor="start" x="170" y="-77.95" font-family="Monospace" font-style="italic" font-size="14.00" fill="#7f7f7f">When this ballot was recorded as properly cast</text>
<polygon fill="none" stroke="black" points="0,-46 0,-70 95,-70 95,-46 0,-46"/>
<text text-anchor="start" x="3" y="-51.8" font-family="Times,serif" font-size="16.00">choice</text>
<polygon fill="none" stroke="black" points="95,-46 95,-70 167,-70 167,-46 95,-46"/>
<text text-anchor="start" x="105.12" y="-52.8" font-family="Times,serif" font-style="italic" font-size="16.00">smallint</text>
<polygon fill="none" stroke="black" points="167,-46 167,-70 709,-70 709,-46 167,-46"/>
<text text-anchor="start" x="170" y="-53.95" font-family="Monospace" font-style="italic" font-size="14.00" fill="#7f7f7f">If a public vote, the choice on the ballot, otherwise NULL.</text>
<polygon fill="none" stroke="black" points="0,-22 0,-46 95,-46 95,-22 0,-22"/>
<text text-anchor="start" x="3" y="-27.8" font-family="Times,serif" font-size="16.00">raw_fragment</text>
<polygon fill="none" stroke="black" points="95,-22 95,-46 167,-46 167,-22 95,-22"/>
<text text-anchor="start" x="113.75" y="-27.8" font-family="Times,serif" font-size="16.00">bytea</text>
<polygon fill="none" stroke="black" points="167,-22 167,-46 709,-46 709,-22 167,-22"/>
<text text-anchor="start" x="170" y="-29.95" font-family="Monospace" font-style="italic" font-size="14.00" fill="#7f7f7f">The raw ballot record.</text>
<polygon fill="#333333" stroke="none" points="0,0 0,-22 709,-22 709,0 0,0"/>
<polygon fill="none" stroke="black" points="0,0 0,-22 709,-22 709,0 0,0"/>
<text text-anchor="start" x="3" y="-6.7" font-family="Monospace" font-style="italic" font-size="14.00" fill="white">All Ballots cast on an event.</text>
</g>
<!-- objective -->
<g id="node2" class="node">
<title>objective</title>
<polygon fill="#009879" stroke="none" points="753,-278 753,-308 867,-308 867,-278 753,-278"/>
<polygon fill="none" stroke="black" points="753,-278 753,-308 867,-308 867,-278 753,-278"/>
<text text-anchor="start" x="756" y="-287" font-family="Courier bold italic" font-weight="bold" font-size="20.00" fill="white">objective</text>
<polygon fill="none" stroke="black" points="753,-251 753,-278 867,-278 867,-251 753,-251"/>
<text text-anchor="start" x="778.5" y="-258.9" font-family="Courier bold" font-weight="bold" font-size="18.00">Column</text>
<polygon fill="none" stroke="black" points="753,-227 753,-251 867,-251 867,-227 753,-227"/>
<text text-anchor="start" x="756" y="-232.8" font-family="Times,serif" font-size="16.00">row_id</text>
<polygon fill="#333333" stroke="none" points="753,-205 753,-227 867,-227 867,-205 753,-205"/>
<polygon fill="none" stroke="black" points="753,-205 753,-227 867,-227 867,-205 753,-205"/>
<text text-anchor="start" x="756" y="-211.7" font-family="Monospace" font-style="italic" font-size="14.00" fill="white">ABRIDGED</text>
</g>
<!-- ballot&#45;&gt;objective -->
<g id="edge1" class="edge">
<title>ballot:objective_out&#45;&gt;objective:row_id</title>
<path fill="none" stroke="black" d="M709,-188.5C733.73,-188.5 726.47,-224.1 741.21,-235.22"/>
<polygon fill="black" stroke="black" points="739.97,-238.5 750.55,-238.06 742,-231.8 739.97,-238.5"/>
</g>
<!-- proposal -->
<g id="node3" class="node">
<title>proposal</title>
<polygon fill="#009879" stroke="none" points="759,-149 759,-179 861,-179 861,-149 759,-149"/>
<polygon fill="none" stroke="black" points="759,-149 759,-179 861,-179 861,-149 759,-149"/>
<text text-anchor="start" x="762" y="-158" font-family="Courier bold italic" font-weight="bold" font-size="20.00" fill="white">proposal</text>
<polygon fill="none" stroke="black" points="759,-122 759,-149 861,-149 861,-122 759,-122"/>
<text text-anchor="start" x="778.5" y="-129.9" font-family="Courier bold" font-weight="bold" font-size="18.00">Column</text>
<polygon fill="none" stroke="black" points="759,-98 759,-122 861,-122 861,-98 759,-98"/>
<text text-anchor="start" x="762" y="-103.8" font-family="Times,serif" font-size="16.00">row_id</text>
<polygon fill="#333333" stroke="none" points="759,-76 759,-98 861,-98 861,-76 759,-76"/>
<polygon fill="none" stroke="black" points="759,-76 759,-98 861,-98 861,-76 759,-76"/>
<text text-anchor="start" x="762" y="-82.7" font-family="Monospace" font-style="italic" font-size="14.00" fill="white">ABRIDGED</text>
</g>
<!-- ballot&#45;&gt;proposal -->
<g id="edge2" class="edge">
<title>ballot:proposal_out&#45;&gt;proposal:row_id</title>
<path fill="none" stroke="black" d="M709,-159.5C735.74,-159.5 729.73,-122.57 747.26,-112.19"/>
<polygon fill="black" stroke="black" points="747.68,-115.69 756.53,-109.87 745.98,-108.9 747.68,-115.69"/>
</g>
<!-- LEGEND -->
<g id="node4" class="node">
<title>LEGEND</title>
<polygon fill="Pink" stroke="none" points="245.5,-450 245.5,-480 463.5,-480 463.5,-450 245.5,-450"/>
<polygon fill="none" stroke="black" points="245.5,-450 245.5,-480 463.5,-480 463.5,-450 245.5,-450"/>
<text text-anchor="start" x="318.5" y="-459" font-family="Courier bold italic" font-weight="bold" font-size="20.00" fill="white">LEGEND</text>
<polygon fill="none" stroke="black" points="245.5,-423 245.5,-450 383.5,-450 383.5,-423 245.5,-423"/>
<text text-anchor="start" x="293.5" y="-430.9" font-family="Courier bold" font-weight="bold" font-size="18.00">Type</text>
<polygon fill="none" stroke="black" points="383.5,-423 383.5,-450 463.5,-450 463.5,-423 383.5,-423"/>
<text text-anchor="start" x="386.75" y="-430.9" font-family="Courier bold" font-weight="bold" font-size="18.00">Example</text>
<polygon fill="#54ff9f" stroke="none" points="245.5,-399 245.5,-423 383.5,-423 383.5,-399 245.5,-399"/>
<polygon fill="none" stroke="black" points="245.5,-399 245.5,-423 383.5,-423 383.5,-399 245.5,-399"/>
<text text-anchor="start" x="248.5" y="-404.8" font-family="Times,serif" font-size="16.00">Primary Key</text>
<polygon fill="#54ff9f" stroke="none" points="383.5,-399 383.5,-423 463.5,-423 463.5,-399 383.5,-399"/>
<polygon fill="none" stroke="black" points="383.5,-399 383.5,-423 463.5,-423 463.5,-399 383.5,-399"/>
<text text-anchor="start" x="396.88" y="-404.8" font-family="Times,serif" font-size="16.00">integer+</text>
<polygon fill="none" stroke="black" points="245.5,-375 245.5,-399 383.5,-399 383.5,-375 245.5,-375"/>
<text text-anchor="start" x="248.5" y="-380.8" font-family="Times,serif" font-size="16.00">Standard Field</text>
<polygon fill="none" stroke="black" points="383.5,-375 383.5,-399 463.5,-399 463.5,-375 383.5,-375"/>
<text text-anchor="start" x="406.25" y="-380.8" font-family="Times,serif" font-size="16.00">bytea</text>
<polygon fill="none" stroke="black" points="245.5,-351 245.5,-375 383.5,-375 383.5,-351 245.5,-351"/>
<text text-anchor="start" x="248.5" y="-356.8" font-family="Times,serif" font-size="16.00">Nullable Field</text>
<polygon fill="none" stroke="black" points="383.5,-351 383.5,-375 463.5,-375 463.5,-351 383.5,-351"/>
<text text-anchor="start" x="412.25" y="-357.8" font-family="Times,serif" font-style="italic" font-size="16.00">text</text>
<polygon fill="none" stroke="black" points="245.5,-327 245.5,-351 383.5,-351 383.5,-327 245.5,-327"/>
<text text-anchor="start" x="248.5" y="-332.8" font-family="Times,serif" font-size="16.00">Sized Field</text>
<polygon fill="none" stroke="black" points="383.5,-327 383.5,-351 463.5,-351 463.5,-327 383.5,-327"/>
<text text-anchor="start" x="386.38" y="-332.8" font-family="Times,serif" font-size="16.00">varchar(32)</text>
<polygon fill="none" stroke="black" points="245.5,-303 245.5,-327 383.5,-327 383.5,-303 245.5,-303"/>
<text text-anchor="start" x="248.5" y="-308.8" font-family="Times,serif" font-size="16.00">Autoincrement Field</text>
<polygon fill="none" stroke="black" points="383.5,-303 383.5,-327 463.5,-327 463.5,-303 383.5,-303"/>
<text text-anchor="start" x="396.88" y="-308.8" font-family="Times,serif" font-size="16.00">integer+</text>
</g>
</g>
</svg>
