<?xml version="1.0" encoding="UTF-8" standalone="no"?>
<!DOCTYPE svg PUBLIC "-//W3C//DTD SVG 1.1//EN"
 "http://www.w3.org/Graphics/SVG/1.1/DTD/svg11.dtd">
<!-- Generated by graphviz version 2.43.0 (0)
 -->
<!-- Title: erd Pages: 1 -->
<svg width="495pt" height="527pt"
 viewBox="0.00 0.00 495.00 527.00" xmlns="http://www.w3.org/2000/svg" xmlns:xlink="http://www.w3.org/1999/xlink">
<g id="graph0" class="graph" transform="scale(1 1) rotate(0) translate(4 523)">
<title>erd</title>
<polygon fill="white" stroke="transparent" points="-4,4 -4,-523 491,-523 491,4 -4,4"/>
<text text-anchor="middle" x="243.5" y="-491" font-family="Times,serif" font-size="30.00" fill="blue">Catalyst Gateway &#45; Event DB</text>
<!-- config -->
<g id="node1" class="node">
<title>config</title>
<polygon fill="#009879" stroke="transparent" points="40,-246 40,-274 197,-274 197,-246 40,-246"/>
<polygon fill="none" stroke="black" points="40,-246 40,-274 197,-274 197,-246 40,-246"/>
<text text-anchor="start" x="82" y="-256" font-family="Courier bold italic" font-weight="bold" font-size="20.00" fill="white">config</text>
<polygon fill="none" stroke="black" points="40,-220 40,-246 137,-246 137,-220 40,-220"/>
<text text-anchor="start" x="56.5" y="-229.6" font-family="Courier bold" font-weight="bold" font-size="18.00">Column</text>
<polygon fill="none" stroke="black" points="137,-220 137,-246 197,-246 197,-220 137,-220"/>
<text text-anchor="start" x="145.5" y="-229.6" font-family="Courier bold" font-weight="bold" font-size="18.00">Type</text>
<polygon fill="#54ff9f" stroke="transparent" points="40,-196 40,-220 137,-220 137,-196 40,-196"/>
<polygon fill="none" stroke="black" points="40,-196 40,-220 137,-220 137,-196 40,-196"/>
<text text-anchor="start" x="43" y="-204.2" font-family="Times,serif" font-size="16.00">row_id</text>
<polygon fill="#54ff9f" stroke="transparent" points="137,-196 137,-220 197,-220 197,-196 137,-196"/>
<polygon fill="none" stroke="black" points="137,-196 137,-220 197,-220 197,-196 137,-196"/>
<text text-anchor="start" x="140" y="-204.2" font-family="Times,serif" font-size="16.00">integer+</text>
<polygon fill="none" stroke="black" points="40,-172 40,-196 137,-196 137,-172 40,-172"/>
<text text-anchor="start" x="43" y="-180.2" font-family="Times,serif" font-size="16.00">id1</text>
<polygon fill="none" stroke="black" points="137,-172 137,-196 197,-196 197,-172 137,-172"/>
<text text-anchor="start" x="143" y="-180.2" font-family="Times,serif" font-size="16.00">varchar</text>
<polygon fill="none" stroke="black" points="40,-148 40,-172 137,-172 137,-148 40,-148"/>
<text text-anchor="start" x="43" y="-156.2" font-family="Times,serif" font-size="16.00">id2</text>
<polygon fill="none" stroke="black" points="137,-148 137,-172 197,-172 197,-148 137,-148"/>
<text text-anchor="start" x="143" y="-156.2" font-family="Times,serif" font-size="16.00">varchar</text>
<polygon fill="none" stroke="black" points="40,-124 40,-148 137,-148 137,-124 40,-124"/>
<text text-anchor="start" x="43" y="-132.2" font-family="Times,serif" font-size="16.00">id3</text>
<polygon fill="none" stroke="black" points="137,-124 137,-148 197,-148 197,-124 137,-124"/>
<text text-anchor="start" x="143" y="-132.2" font-family="Times,serif" font-size="16.00">varchar</text>
<polygon fill="none" stroke="black" points="40,-100 40,-124 137,-124 137,-100 40,-100"/>
<text text-anchor="start" x="43" y="-108.2" font-family="Times,serif" font-size="16.00">value</text>
<polygon fill="none" stroke="black" points="137,-100 137,-124 197,-124 197,-100 137,-100"/>
<text text-anchor="start" x="149" y="-109.2" font-family="Times,serif" font-style="italic" font-size="16.00">jsonb</text>
<polygon fill="none" stroke="black" points="40,-76 40,-100 137,-100 137,-76 40,-76"/>
<text text-anchor="start" x="43" y="-84.2" font-family="Times,serif" font-size="16.00">value_schema</text>
<polygon fill="none" stroke="black" points="137,-76 137,-100 197,-100 197,-76 137,-76"/>
<text text-anchor="start" x="152" y="-85.2" font-family="Times,serif" font-style="italic" font-size="16.00">uuid</text>
</g>
<!-- json_schema_type -->
<g id="node2" class="node">
<title>json_schema_type</title>
<polygon fill="#009879" stroke="transparent" points="280.5,-126 280.5,-154 479.5,-154 479.5,-126 280.5,-126"/>
<polygon fill="none" stroke="black" points="280.5,-126 280.5,-154 479.5,-154 479.5,-126 280.5,-126"/>
<text text-anchor="start" x="283.5" y="-136" font-family="Courier bold italic" font-weight="bold" font-size="20.00" fill="white">json_schema_type</text>
<polygon fill="none" stroke="black" points="280.5,-100 280.5,-126 390.5,-126 390.5,-100 280.5,-100"/>
<text text-anchor="start" x="303.5" y="-109.6" font-family="Courier bold" font-weight="bold" font-size="18.00">Column</text>
<polygon fill="none" stroke="black" points="390.5,-100 390.5,-126 479.5,-126 479.5,-100 390.5,-100"/>
<text text-anchor="start" x="413.5" y="-109.6" font-family="Courier bold" font-weight="bold" font-size="18.00">Type</text>
<polygon fill="#54ff9f" stroke="transparent" points="280.5,-76 280.5,-100 390.5,-100 390.5,-76 280.5,-76"/>
<polygon fill="none" stroke="black" points="280.5,-76 280.5,-100 390.5,-100 390.5,-76 280.5,-76"/>
<text text-anchor="start" x="283.5" y="-84.2" font-family="Times,serif" font-size="16.00">id</text>
<polygon fill="#54ff9f" stroke="transparent" points="390.5,-76 390.5,-100 479.5,-100 479.5,-76 390.5,-76"/>
<polygon fill="none" stroke="black" points="390.5,-76 390.5,-100 479.5,-100 479.5,-76 390.5,-76"/>
<text text-anchor="start" x="420" y="-84.2" font-family="Times,serif" font-size="16.00">uuid</text>
<polygon fill="none" stroke="black" points="280.5,-52 280.5,-76 390.5,-76 390.5,-52 280.5,-52"/>
<text text-anchor="start" x="283.5" y="-60.2" font-family="Times,serif" font-size="16.00">type</text>
<polygon fill="none" stroke="black" points="390.5,-52 390.5,-76 479.5,-76 479.5,-52 390.5,-52"/>
<text text-anchor="start" x="422.5" y="-60.2" font-family="Times,serif" font-size="16.00">text</text>
<polygon fill="none" stroke="black" points="280.5,-28 280.5,-52 390.5,-52 390.5,-28 280.5,-28"/>
<text text-anchor="start" x="283.5" y="-36.2" font-family="Times,serif" font-size="16.00">name</text>
<polygon fill="none" stroke="black" points="390.5,-28 390.5,-52 479.5,-52 479.5,-28 390.5,-28"/>
<text text-anchor="start" x="422.5" y="-36.2" font-family="Times,serif" font-size="16.00">text</text>
<polygon fill="none" stroke="black" points="280.5,-4 280.5,-28 390.5,-28 390.5,-4 280.5,-4"/>
<text text-anchor="start" x="283.5" y="-12.2" font-family="Times,serif" font-size="16.00">schema</text>
<polygon fill="none" stroke="black" points="390.5,-4 390.5,-28 479.5,-28 479.5,-4 390.5,-4"/>
<text text-anchor="start" x="417" y="-12.2" font-family="Times,serif" font-size="16.00">jsonb</text>
</g>
<!-- config&#45;&gt;json_schema_type -->
<g id="edge1" class="edge">
<title>config:value_schema_out&#45;&gt;json_schema_type:id</title>
<path fill="none" stroke="black" d="M198,-88C230.54,-88 241.16,-88 269.25,-88"/>
<polygon fill="black" stroke="black" points="269.5,-91.5 279.5,-88 269.5,-84.5 269.5,-91.5"/>
</g>
<!-- LEGEND -->
<g id="node3" class="node">
<title>LEGEND</title>
<polygon fill="Pink" stroke="transparent" points="8,-446 8,-474 228,-474 228,-446 8,-446"/>
<polygon fill="none" stroke="black" points="8,-446 8,-474 228,-474 228,-446 8,-446"/>
<text text-anchor="start" x="81.5" y="-456" font-family="Courier bold italic" font-weight="bold" font-size="20.00" fill="white">LEGEND</text>
<polygon fill="none" stroke="black" points="8,-420 8,-446 147,-446 147,-420 8,-420"/>
<text text-anchor="start" x="56" y="-429.6" font-family="Courier bold" font-weight="bold" font-size="18.00">Type</text>
<polygon fill="none" stroke="black" points="147,-420 147,-446 228,-446 228,-420 147,-420"/>
<text text-anchor="start" x="150.5" y="-429.6" font-family="Courier bold" font-weight="bold" font-size="18.00">Example</text>
<polygon fill="#54ff9f" stroke="transparent" points="8,-396 8,-420 147,-420 147,-396 8,-396"/>
<polygon fill="none" stroke="black" points="8,-396 8,-420 147,-420 147,-396 8,-396"/>
<text text-anchor="start" x="11" y="-404.2" font-family="Times,serif" font-size="16.00">Primary Key</text>
<polygon fill="#54ff9f" stroke="transparent" points="147,-396 147,-420 228,-420 228,-396 147,-396"/>
<polygon fill="none" stroke="black" points="147,-396 147,-420 228,-420 228,-396 147,-396"/>
<text text-anchor="start" x="160.5" y="-404.2" font-family="Times,serif" font-size="16.00">integer+</text>
<polygon fill="none" stroke="black" points="8,-372 8,-396 147,-396 147,-372 8,-372"/>
<text text-anchor="start" x="11" y="-380.2" font-family="Times,serif" font-size="16.00">Standard Field</text>
<polygon fill="none" stroke="black" points="147,-372 147,-396 228,-396 228,-372 147,-372"/>
<text text-anchor="start" x="170" y="-380.2" font-family="Times,serif" font-size="16.00">bytea</text>
<polygon fill="none" stroke="black" points="8,-348 8,-372 147,-372 147,-348 8,-348"/>
<text text-anchor="start" x="11" y="-356.2" font-family="Times,serif" font-size="16.00">Nullable Field</text>
<polygon fill="none" stroke="black" points="147,-348 147,-372 228,-372 228,-348 147,-348"/>
<text text-anchor="start" x="176" y="-357.2" font-family="Times,serif" font-style="italic" font-size="16.00">text</text>
<polygon fill="none" stroke="black" points="8,-324 8,-348 147,-348 147,-324 8,-324"/>
<text text-anchor="start" x="11" y="-332.2" font-family="Times,serif" font-size="16.00">Sized Field</text>
<polygon fill="none" stroke="black" points="147,-324 147,-348 228,-348 228,-324 147,-324"/>
<text text-anchor="start" x="150" y="-332.2" font-family="Times,serif" font-size="16.00">varchar(32)</text>
<polygon fill="none" stroke="black" points="8,-300 8,-324 147,-324 147,-300 8,-300"/>
<text text-anchor="start" x="11" y="-308.2" font-family="Times,serif" font-size="16.00">Autoincrement Field</text>
<polygon fill="none" stroke="black" points="147,-300 147,-324 228,-324 228,-300 147,-300"/>
<text text-anchor="start" x="160.5" y="-308.2" font-family="Times,serif" font-size="16.00">integer+</text>
</g>
</g>
</svg>
