<?xml version="1.0" encoding="UTF-8" standalone="no"?>
<!DOCTYPE svg PUBLIC "-//W3C//DTD SVG 1.1//EN"
 "http://www.w3.org/Graphics/SVG/1.1/DTD/svg11.dtd">
<!-- Generated by graphviz version 2.43.0 (0)
 -->
<!-- Title: erd Pages: 1 -->
<svg width="1249pt" height="628pt"
 viewBox="0.00 0.00 1249.00 627.50" xmlns="http://www.w3.org/2000/svg" xmlns:xlink="http://www.w3.org/1999/xlink">
<g id="graph0" class="graph" transform="scale(1 1) rotate(0) translate(4 623.5)">
<title>erd</title>
<polygon fill="white" stroke="transparent" points="-4,4 -4,-623.5 1245,-623.5 1245,4 -4,4"/>
<text text-anchor="middle" x="620.5" y="-591.5" font-family="Times,serif" font-size="30.00" fill="blue">Configuration Data</text>
<!-- config -->
<g id="node1" class="node">
<title>config</title>
<polygon fill="#009879" stroke="transparent" points="0.5,-350.5 0.5,-378.5 543.5,-378.5 543.5,-350.5 0.5,-350.5"/>
<polygon fill="none" stroke="black" points="0.5,-350.5 0.5,-378.5 543.5,-378.5 543.5,-350.5 0.5,-350.5"/>
<text text-anchor="start" x="235.5" y="-360.5" font-family="Courier bold italic" font-weight="bold" font-size="20.00" fill="white">config</text>
<polygon fill="none" stroke="black" points="0.5,-324.5 0.5,-350.5 97.5,-350.5 97.5,-324.5 0.5,-324.5"/>
<text text-anchor="start" x="17" y="-334.1" font-family="Courier bold" font-weight="bold" font-size="18.00">Column</text>
<polygon fill="none" stroke="black" points="97.5,-324.5 97.5,-350.5 157.5,-350.5 157.5,-324.5 97.5,-324.5"/>
<text text-anchor="start" x="106" y="-334.1" font-family="Courier bold" font-weight="bold" font-size="18.00">Type</text>
<polygon fill="none" stroke="black" points="157.5,-324.5 157.5,-350.5 543.5,-350.5 543.5,-324.5 157.5,-324.5"/>
<text text-anchor="start" x="292.5" y="-334.1" font-family="Courier bold" font-weight="bold" font-size="18.00">Description</text>
<polygon fill="#54ff9f" stroke="transparent" points="0.5,-290.5 0.5,-324.5 97.5,-324.5 97.5,-290.5 0.5,-290.5"/>
<polygon fill="none" stroke="black" points="0.5,-290.5 0.5,-324.5 97.5,-324.5 97.5,-290.5 0.5,-290.5"/>
<text text-anchor="start" x="3.5" y="-303.7" font-family="Times,serif" font-size="16.00">row_id</text>
<polygon fill="#54ff9f" stroke="transparent" points="97.5,-290.5 97.5,-324.5 157.5,-324.5 157.5,-290.5 97.5,-290.5"/>
<polygon fill="none" stroke="black" points="97.5,-290.5 97.5,-324.5 157.5,-324.5 157.5,-290.5 97.5,-290.5"/>
<text text-anchor="start" x="100.5" y="-303.7" font-family="Times,serif" font-size="16.00">integer+</text>
<polygon fill="#54ff9f" stroke="transparent" points="157.5,-290.5 157.5,-324.5 543.5,-324.5 543.5,-290.5 157.5,-290.5"/>
<polygon fill="none" stroke="black" points="157.5,-290.5 157.5,-324.5 543.5,-324.5 543.5,-290.5 157.5,-290.5"/>
<text text-anchor="start" x="160.5" y="-311.3" font-family="Monospace" font-style="italic" font-size="14.00" fill="#7f7f7f">Synthetic unique key. </text>
<text text-anchor="start" x="160.5" y="-297.3" font-family="Monospace" font-style="italic" font-size="14.00" fill="#7f7f7f">Always lookup using `cardano.follower.preview`</text>
<polygon fill="none" stroke="black" points="0.5,-266.5 0.5,-290.5 97.5,-290.5 97.5,-266.5 0.5,-266.5"/>
<text text-anchor="start" x="3.5" y="-274.7" font-family="Times,serif" font-size="16.00">id1</text>
<polygon fill="none" stroke="black" points="97.5,-266.5 97.5,-290.5 157.5,-290.5 157.5,-266.5 97.5,-266.5"/>
<text text-anchor="start" x="103.5" y="-274.7" font-family="Times,serif" font-size="16.00">varchar</text>
<polygon fill="none" stroke="black" points="157.5,-266.5 157.5,-290.5 543.5,-290.5 543.5,-266.5 157.5,-266.5"/>
<text text-anchor="start" x="160.5" y="-275.8" font-family="Monospace" font-style="italic" font-size="14.00" fill="#7f7f7f">The primary ID of the config.</text>
<polygon fill="none" stroke="black" points="0.5,-232.5 0.5,-266.5 97.5,-266.5 97.5,-232.5 0.5,-232.5"/>
<text text-anchor="start" x="3.5" y="-245.7" font-family="Times,serif" font-size="16.00">id2</text>
<polygon fill="none" stroke="black" points="97.5,-232.5 97.5,-266.5 157.5,-266.5 157.5,-232.5 97.5,-232.5"/>
<text text-anchor="start" x="103.5" y="-245.7" font-family="Times,serif" font-size="16.00">varchar</text>
<polygon fill="none" stroke="black" points="157.5,-232.5 157.5,-266.5 543.5,-266.5 543.5,-232.5 157.5,-232.5"/>
<text text-anchor="start" x="160.5" y="-253.3" font-family="Monospace" font-style="italic" font-size="14.00" fill="#7f7f7f">The secondary ID of the config.</text>
<text text-anchor="start" x="160.5" y="-239.3" font-family="Monospace" font-style="italic" font-size="14.00" fill="#7f7f7f">Must be defined, use &quot;&quot; if not required.</text>
<polygon fill="none" stroke="black" points="0.5,-198.5 0.5,-232.5 97.5,-232.5 97.5,-198.5 0.5,-198.5"/>
<text text-anchor="start" x="3.5" y="-211.7" font-family="Times,serif" font-size="16.00">id3</text>
<polygon fill="none" stroke="black" points="97.5,-198.5 97.5,-232.5 157.5,-232.5 157.5,-198.5 97.5,-198.5"/>
<text text-anchor="start" x="103.5" y="-211.7" font-family="Times,serif" font-size="16.00">varchar</text>
<polygon fill="none" stroke="black" points="157.5,-198.5 157.5,-232.5 543.5,-232.5 543.5,-198.5 157.5,-198.5"/>
<text text-anchor="start" x="160.5" y="-219.3" font-family="Monospace" font-style="italic" font-size="14.00" fill="#7f7f7f">The tertiary ID of the config.</text>
<text text-anchor="start" x="160.5" y="-205.3" font-family="Monospace" font-style="italic" font-size="14.00" fill="#7f7f7f">Must be defined, use &quot;&quot; if not required.</text>
<polygon fill="none" stroke="black" points="0.5,-174.5 0.5,-198.5 97.5,-198.5 97.5,-174.5 0.5,-174.5"/>
<text text-anchor="start" x="3.5" y="-182.7" font-family="Times,serif" font-size="16.00">value</text>
<polygon fill="none" stroke="black" points="97.5,-174.5 97.5,-198.5 157.5,-198.5 157.5,-174.5 97.5,-174.5"/>
<text text-anchor="start" x="109.5" y="-183.7" font-family="Times,serif" font-style="italic" font-size="16.00">jsonb</text>
<polygon fill="none" stroke="black" points="157.5,-174.5 157.5,-198.5 543.5,-198.5 543.5,-174.5 157.5,-174.5"/>
<text text-anchor="start" x="160.5" y="-183.8" font-family="Monospace" font-style="italic" font-size="14.00" fill="#7f7f7f">The configuration value in JSON format.</text>
<polygon fill="none" stroke="black" points="0.5,-140.5 0.5,-174.5 97.5,-174.5 97.5,-140.5 0.5,-140.5"/>
<text text-anchor="start" x="3.5" y="-153.7" font-family="Times,serif" font-size="16.00">value_schema</text>
<polygon fill="none" stroke="black" points="97.5,-140.5 97.5,-174.5 157.5,-174.5 157.5,-140.5 97.5,-140.5"/>
<text text-anchor="start" x="112.5" y="-154.7" font-family="Times,serif" font-style="italic" font-size="16.00">uuid</text>
<polygon fill="none" stroke="black" points="157.5,-140.5 157.5,-174.5 543.5,-174.5 543.5,-140.5 157.5,-140.5"/>
<text text-anchor="start" x="160.5" y="-161.3" font-family="Monospace" font-style="italic" font-size="14.00" fill="#7f7f7f">The Schema the Config Value conforms to.</text>
<text text-anchor="start" x="160.5" y="-147.3" font-family="Monospace" font-style="italic" font-size="14.00" fill="#7f7f7f">The `value` field must conform to this schema.</text>
<polygon fill="#333333" stroke="transparent" points="0.5,-92.5 0.5,-140.5 543.5,-140.5 543.5,-92.5 0.5,-92.5"/>
<polygon fill="none" stroke="black" points="0.5,-92.5 0.5,-140.5 543.5,-140.5 543.5,-92.5 0.5,-92.5"/>
<text text-anchor="start" x="3.5" y="-127.3" font-family="Monospace" font-style="italic" font-size="14.00" fill="white">General JSON Configuration and Data Values.</text>
<text text-anchor="start" x="3.5" y="-113.3" font-family="Monospace" font-style="italic" font-size="14.00" fill="white">Defined &#160;Data Formats:</text>
<text text-anchor="start" x="3.5" y="-99.3" font-family="Monospace" font-style="italic" font-size="14.00" fill="white"> &#160;Currently None</text>
</g>
<!-- json_schema_type -->
<g id="node2" class="node">
<title>json_schema_type</title>
<polygon fill="#009879" stroke="transparent" points="579,-200.5 579,-228.5 1241,-228.5 1241,-200.5 579,-200.5"/>
<polygon fill="none" stroke="black" points="579,-200.5 579,-228.5 1241,-228.5 1241,-200.5 579,-200.5"/>
<text text-anchor="start" x="813.5" y="-210.5" font-family="Courier bold italic" font-weight="bold" font-size="20.00" fill="white">json_schema_type</text>
<polygon fill="none" stroke="black" points="579,-174.5 579,-200.5 649,-200.5 649,-174.5 579,-174.5"/>
<text text-anchor="start" x="582" y="-184.1" font-family="Courier bold" font-weight="bold" font-size="18.00">Column</text>
<polygon fill="none" stroke="black" points="649,-174.5 649,-200.5 698,-200.5 698,-174.5 649,-174.5"/>
<text text-anchor="start" x="652" y="-184.1" font-family="Courier bold" font-weight="bold" font-size="18.00">Type</text>
<polygon fill="none" stroke="black" points="698,-174.5 698,-200.5 1241,-200.5 1241,-174.5 698,-174.5"/>
<text text-anchor="start" x="911.5" y="-184.1" font-family="Courier bold" font-weight="bold" font-size="18.00">Description</text>
<polygon fill="#54ff9f" stroke="transparent" points="579,-140.5 579,-174.5 649,-174.5 649,-140.5 579,-140.5"/>
<polygon fill="none" stroke="black" points="579,-140.5 579,-174.5 649,-174.5 649,-140.5 579,-140.5"/>
<text text-anchor="start" x="582" y="-153.7" font-family="Times,serif" font-size="16.00">id</text>
<polygon fill="#54ff9f" stroke="transparent" points="649,-140.5 649,-174.5 698,-174.5 698,-140.5 649,-140.5"/>
<polygon fill="none" stroke="black" points="649,-140.5 649,-174.5 698,-174.5 698,-140.5 649,-140.5"/>
<text text-anchor="start" x="658.5" y="-153.7" font-family="Times,serif" font-size="16.00">uuid</text>
<polygon fill="#54ff9f" stroke="transparent" points="698,-140.5 698,-174.5 1241,-174.5 1241,-140.5 698,-140.5"/>
<polygon fill="none" stroke="black" points="698,-140.5 698,-174.5 1241,-174.5 1241,-140.5 698,-140.5"/>
<text text-anchor="start" x="701" y="-161.3" font-family="Monospace" font-style="italic" font-size="14.00" fill="#7f7f7f">Synthetic Unique ID for each json_schema_type (UUIDv4).</text>
<text text-anchor="start" x="701" y="-147.3" font-family="Monospace" font-style="italic" font-size="14.00" fill="#7f7f7f">Must match the `UUID` component of the $id URI inside the schema.</text>
<polygon fill="none" stroke="black" points="579,-92.5 579,-140.5 649,-140.5 649,-92.5 579,-92.5"/>
<text text-anchor="start" x="582" y="-112.7" font-family="Times,serif" font-size="16.00">type</text>
<polygon fill="none" stroke="black" points="649,-92.5 649,-140.5 698,-140.5 698,-92.5 649,-92.5"/>
<text text-anchor="start" x="661" y="-112.7" font-family="Times,serif" font-size="16.00">text</text>
<polygon fill="none" stroke="black" points="698,-92.5 698,-140.5 1241,-140.5 1241,-92.5 698,-92.5"/>
<text text-anchor="start" x="701" y="-127.3" font-family="Monospace" font-style="italic" font-size="14.00" fill="#7f7f7f">The type of the json schema type.</text>
<text text-anchor="start" x="701" y="-113.3" font-family="Monospace" font-style="italic" font-size="14.00" fill="#7f7f7f">eg. &quot;event&quot;</text>
<text text-anchor="start" x="701" y="-99.3" font-family="Monospace" font-style="italic" font-size="14.00" fill="#7f7f7f">Must match the `type` component of the $id URI inside the schema.</text>
<polygon fill="none" stroke="black" points="579,-44.5 579,-92.5 649,-92.5 649,-44.5 579,-44.5"/>
<text text-anchor="start" x="582" y="-64.7" font-family="Times,serif" font-size="16.00">name</text>
<polygon fill="none" stroke="black" points="649,-44.5 649,-92.5 698,-92.5 698,-44.5 649,-44.5"/>
<text text-anchor="start" x="661" y="-64.7" font-family="Times,serif" font-size="16.00">text</text>
<polygon fill="none" stroke="black" points="698,-44.5 698,-92.5 1241,-92.5 1241,-44.5 698,-44.5"/>
<text text-anchor="start" x="701" y="-79.3" font-family="Monospace" font-style="italic" font-size="14.00" fill="#7f7f7f">The name of the json schema type.</text>
<text text-anchor="start" x="701" y="-65.3" font-family="Monospace" font-style="italic" font-size="14.00" fill="#7f7f7f">eg. &quot;catalyst_v1&quot;</text>
<text text-anchor="start" x="701" y="-51.3" font-family="Monospace" font-style="italic" font-size="14.00" fill="#7f7f7f">Must match the `name` component of the $id URI inside the schema.</text>
<polygon fill="none" stroke="black" points="579,-20.5 579,-44.5 649,-44.5 649,-20.5 579,-20.5"/>
<text text-anchor="start" x="582" y="-28.7" font-family="Times,serif" font-size="16.00">schema</text>
<polygon fill="none" stroke="black" points="649,-20.5 649,-44.5 698,-44.5 698,-20.5 649,-20.5"/>
<text text-anchor="start" x="655.5" y="-28.7" font-family="Times,serif" font-size="16.00">jsonb</text>
<polygon fill="none" stroke="black" points="698,-20.5 698,-44.5 1241,-44.5 1241,-20.5 698,-20.5"/>
<text text-anchor="start" x="701" y="-29.8" font-family="Monospace" font-style="italic" font-size="14.00" fill="#7f7f7f">none</text>
<polygon fill="#333333" stroke="transparent" points="579,0.5 579,-20.5 1241,-20.5 1241,0.5 579,0.5"/>
<polygon fill="none" stroke="black" points="579,0.5 579,-20.5 1241,-20.5 1241,0.5 579,0.5"/>
<text text-anchor="start" x="582" y="-7.3" font-family="Monospace" font-style="italic" font-size="14.00" fill="white">Library of defined json schemas used to validate JSONB field contents.</text>
</g>
<!-- config&#45;&gt;json_schema_type -->
<g id="edge1" class="edge">
<title>config:value_schema_out&#45;&gt;json_schema_type:id</title>
<path fill="none" stroke="black" d="M543,-157.5C555,-157.5 560.25,-157.5 568.88,-157.5"/>
<polygon fill="black" stroke="black" points="569,-161 579,-157.5 569,-154 569,-161"/>
</g>
<!-- LEGEND -->
<g id="node3" class="node">
<title>LEGEND</title>
<polygon fill="Pink" stroke="transparent" points="161.5,-546.5 161.5,-574.5 381.5,-574.5 381.5,-546.5 161.5,-546.5"/>
<polygon fill="none" stroke="black" points="161.5,-546.5 161.5,-574.5 381.5,-574.5 381.5,-546.5 161.5,-546.5"/>
<text text-anchor="start" x="235" y="-556.5" font-family="Courier bold italic" font-weight="bold" font-size="20.00" fill="white">LEGEND</text>
<polygon fill="none" stroke="black" points="161.5,-520.5 161.5,-546.5 300.5,-546.5 300.5,-520.5 161.5,-520.5"/>
<text text-anchor="start" x="209.5" y="-530.1" font-family="Courier bold" font-weight="bold" font-size="18.00">Type</text>
<polygon fill="none" stroke="black" points="300.5,-520.5 300.5,-546.5 381.5,-546.5 381.5,-520.5 300.5,-520.5"/>
<text text-anchor="start" x="304" y="-530.1" font-family="Courier bold" font-weight="bold" font-size="18.00">Example</text>
<polygon fill="#54ff9f" stroke="transparent" points="161.5,-496.5 161.5,-520.5 300.5,-520.5 300.5,-496.5 161.5,-496.5"/>
<polygon fill="none" stroke="black" points="161.5,-496.5 161.5,-520.5 300.5,-520.5 300.5,-496.5 161.5,-496.5"/>
<text text-anchor="start" x="164.5" y="-504.7" font-family="Times,serif" font-size="16.00">Primary Key</text>
<polygon fill="#54ff9f" stroke="transparent" points="300.5,-496.5 300.5,-520.5 381.5,-520.5 381.5,-496.5 300.5,-496.5"/>
<polygon fill="none" stroke="black" points="300.5,-496.5 300.5,-520.5 381.5,-520.5 381.5,-496.5 300.5,-496.5"/>
<text text-anchor="start" x="314" y="-504.7" font-family="Times,serif" font-size="16.00">integer+</text>
<polygon fill="none" stroke="black" points="161.5,-472.5 161.5,-496.5 300.5,-496.5 300.5,-472.5 161.5,-472.5"/>
<text text-anchor="start" x="164.5" y="-480.7" font-family="Times,serif" font-size="16.00">Standard Field</text>
<polygon fill="none" stroke="black" points="300.5,-472.5 300.5,-496.5 381.5,-496.5 381.5,-472.5 300.5,-472.5"/>
<text text-anchor="start" x="323.5" y="-480.7" font-family="Times,serif" font-size="16.00">bytea</text>
<polygon fill="none" stroke="black" points="161.5,-448.5 161.5,-472.5 300.5,-472.5 300.5,-448.5 161.5,-448.5"/>
<text text-anchor="start" x="164.5" y="-456.7" font-family="Times,serif" font-size="16.00">Nullable Field</text>
<polygon fill="none" stroke="black" points="300.5,-448.5 300.5,-472.5 381.5,-472.5 381.5,-448.5 300.5,-448.5"/>
<text text-anchor="start" x="329.5" y="-457.7" font-family="Times,serif" font-style="italic" font-size="16.00">text</text>
<polygon fill="none" stroke="black" points="161.5,-424.5 161.5,-448.5 300.5,-448.5 300.5,-424.5 161.5,-424.5"/>
<text text-anchor="start" x="164.5" y="-432.7" font-family="Times,serif" font-size="16.00">Sized Field</text>
<polygon fill="none" stroke="black" points="300.5,-424.5 300.5,-448.5 381.5,-448.5 381.5,-424.5 300.5,-424.5"/>
<text text-anchor="start" x="303.5" y="-432.7" font-family="Times,serif" font-size="16.00">varchar(32)</text>
<polygon fill="none" stroke="black" points="161.5,-400.5 161.5,-424.5 300.5,-424.5 300.5,-400.5 161.5,-400.5"/>
<text text-anchor="start" x="164.5" y="-408.7" font-family="Times,serif" font-size="16.00">Autoincrement Field</text>
<polygon fill="none" stroke="black" points="300.5,-400.5 300.5,-424.5 381.5,-424.5 381.5,-400.5 300.5,-400.5"/>
<text text-anchor="start" x="314" y="-408.7" font-family="Times,serif" font-size="16.00">integer+</text>
</g>
</g>
</svg>
