<?xml version="1.0" encoding="UTF-8" standalone="no"?>
<!DOCTYPE svg PUBLIC "-//W3C//DTD SVG 1.1//EN"
 "http://www.w3.org/Graphics/SVG/1.1/DTD/svg11.dtd">
<!-- Generated by graphviz version 2.43.0 (0)
 -->
<!-- Title: erd Pages: 1 -->
<svg width="2320pt" height="668pt"
 viewBox="0.00 0.00 2320.00 667.50" xmlns="http://www.w3.org/2000/svg" xmlns:xlink="http://www.w3.org/1999/xlink">
<g id="graph0" class="graph" transform="scale(1 1) rotate(0) translate(4 663.5)">
<title>erd</title>
<polygon fill="white" stroke="transparent" points="-4,4 -4,-663.5 2316,-663.5 2316,4 -4,4"/>
<text text-anchor="middle" x="1156" y="-631.5" font-family="Times,serif" font-size="30.00" fill="blue">Vote Plan</text>
<!-- proposal_voteplan -->
<g id="node1" class="node">
<title>proposal_voteplan</title>
<polygon fill="#009879" stroke="transparent" points="0,-389.5 0,-417.5 1014,-417.5 1014,-389.5 0,-389.5"/>
<polygon fill="none" stroke="black" points="0,-389.5 0,-417.5 1014,-417.5 1014,-389.5 0,-389.5"/>
<text text-anchor="start" x="404.5" y="-399.5" font-family="Courier bold italic" font-weight="bold" font-size="20.00" fill="white">proposal_voteplan</text>
<polygon fill="none" stroke="black" points="0,-363.5 0,-389.5 131,-389.5 131,-363.5 0,-363.5"/>
<text text-anchor="start" x="33.5" y="-373.1" font-family="Courier bold" font-weight="bold" font-size="18.00">Column</text>
<polygon fill="none" stroke="black" points="131,-363.5 131,-389.5 191,-389.5 191,-363.5 131,-363.5"/>
<text text-anchor="start" x="139.5" y="-373.1" font-family="Courier bold" font-weight="bold" font-size="18.00">Type</text>
<polygon fill="none" stroke="black" points="191,-363.5 191,-389.5 1014,-389.5 1014,-363.5 191,-363.5"/>
<text text-anchor="start" x="544.5" y="-373.1" font-family="Courier bold" font-weight="bold" font-size="18.00">Description</text>
<polygon fill="#54ff9f" stroke="transparent" points="0,-339.5 0,-363.5 131,-363.5 131,-339.5 0,-339.5"/>
<polygon fill="none" stroke="black" points="0,-339.5 0,-363.5 131,-363.5 131,-339.5 0,-339.5"/>
<text text-anchor="start" x="3" y="-347.7" font-family="Times,serif" font-size="16.00">row_id</text>
<polygon fill="#54ff9f" stroke="transparent" points="131,-339.5 131,-363.5 191,-363.5 191,-339.5 131,-339.5"/>
<polygon fill="none" stroke="black" points="131,-339.5 131,-363.5 191,-363.5 191,-339.5 131,-339.5"/>
<text text-anchor="start" x="134" y="-347.7" font-family="Times,serif" font-size="16.00">integer+</text>
<polygon fill="#54ff9f" stroke="transparent" points="191,-339.5 191,-363.5 1014,-363.5 1014,-339.5 191,-339.5"/>
<polygon fill="none" stroke="black" points="191,-339.5 191,-363.5 1014,-363.5 1014,-339.5 191,-339.5"/>
<text text-anchor="start" x="194" y="-348.8" font-family="Monospace" font-style="italic" font-size="14.00" fill="#7f7f7f">Synthetic ID of this Voteplan/Proposal M&#45;M relationship.</text>
<polygon fill="none" stroke="black" points="0,-315.5 0,-339.5 131,-339.5 131,-315.5 0,-315.5"/>
<text text-anchor="start" x="3" y="-323.7" font-family="Times,serif" font-size="16.00">proposal_id</text>
<polygon fill="none" stroke="black" points="131,-315.5 131,-339.5 191,-339.5 191,-315.5 131,-315.5"/>
<text text-anchor="start" x="138" y="-324.7" font-family="Times,serif" font-style="italic" font-size="16.00">integer</text>
<polygon fill="none" stroke="black" points="191,-315.5 191,-339.5 1014,-339.5 1014,-315.5 191,-315.5"/>
<text text-anchor="start" x="194" y="-324.8" font-family="Monospace" font-style="italic" font-size="14.00" fill="#7f7f7f">The link to the Proposal primary key that links to this voteplan.</text>
<polygon fill="none" stroke="black" points="0,-291.5 0,-315.5 131,-315.5 131,-291.5 0,-291.5"/>
<text text-anchor="start" x="3" y="-299.7" font-family="Times,serif" font-size="16.00">voteplan_id</text>
<polygon fill="none" stroke="black" points="131,-291.5 131,-315.5 191,-315.5 191,-291.5 131,-291.5"/>
<text text-anchor="start" x="138" y="-300.7" font-family="Times,serif" font-style="italic" font-size="16.00">integer</text>
<polygon fill="none" stroke="black" points="191,-291.5 191,-315.5 1014,-315.5 1014,-291.5 191,-291.5"/>
<text text-anchor="start" x="194" y="-300.8" font-family="Monospace" font-style="italic" font-size="14.00" fill="#7f7f7f">The link to the Voteplan primary key that links to this proposal.</text>
<polygon fill="none" stroke="black" points="0,-267.5 0,-291.5 131,-291.5 131,-267.5 0,-267.5"/>
<text text-anchor="start" x="3" y="-275.7" font-family="Times,serif" font-size="16.00">bb_proposal_index</text>
<polygon fill="none" stroke="black" points="131,-267.5 131,-291.5 191,-291.5 191,-267.5 131,-267.5"/>
<text text-anchor="start" x="141.5" y="-276.7" font-family="Times,serif" font-style="italic" font-size="16.00">bigint</text>
<polygon fill="none" stroke="black" points="191,-267.5 191,-291.5 1014,-291.5 1014,-267.5 191,-267.5"/>
<text text-anchor="start" x="194" y="-276.8" font-family="Monospace" font-style="italic" font-size="14.00" fill="#7f7f7f">The Index with the voteplan used by the voting ledger/bulletin board that references this proposal.</text>
<polygon fill="#333333" stroke="transparent" points="0,-246.5 0,-267.5 1014,-267.5 1014,-246.5 0,-246.5"/>
<polygon fill="none" stroke="black" points="0,-246.5 0,-267.5 1014,-267.5 1014,-246.5 0,-246.5"/>
<text text-anchor="start" x="3" y="-254.3" font-family="Monospace" font-style="italic" font-size="14.00" fill="white">Table to link Proposals to Vote plans in a Many to Many relationship.</text>
</g>
<!-- voteplan -->
<g id="node2" class="node">
<title>voteplan</title>
<polygon fill="#009879" stroke="transparent" points="1050.5,-293.5 1050.5,-321.5 1719.5,-321.5 1719.5,-293.5 1050.5,-293.5"/>
<polygon fill="none" stroke="black" points="1050.5,-293.5 1050.5,-321.5 1719.5,-321.5 1719.5,-293.5 1050.5,-293.5"/>
<text text-anchor="start" x="1336.5" y="-303.5" font-family="Courier bold italic" font-weight="bold" font-size="20.00" fill="white">voteplan</text>
<polygon fill="none" stroke="black" points="1050.5,-267.5 1050.5,-293.5 1157.5,-293.5 1157.5,-267.5 1050.5,-267.5"/>
<text text-anchor="start" x="1072" y="-277.1" font-family="Courier bold" font-weight="bold" font-size="18.00">Column</text>
<polygon fill="none" stroke="black" points="1157.5,-267.5 1157.5,-293.5 1217.5,-293.5 1217.5,-267.5 1157.5,-267.5"/>
<text text-anchor="start" x="1166" y="-277.1" font-family="Courier bold" font-weight="bold" font-size="18.00">Type</text>
<polygon fill="none" stroke="black" points="1217.5,-267.5 1217.5,-293.5 1719.5,-293.5 1719.5,-267.5 1217.5,-267.5"/>
<text text-anchor="start" x="1410.5" y="-277.1" font-family="Courier bold" font-weight="bold" font-size="18.00">Description</text>
<polygon fill="#54ff9f" stroke="transparent" points="1050.5,-243.5 1050.5,-267.5 1157.5,-267.5 1157.5,-243.5 1050.5,-243.5"/>
<polygon fill="none" stroke="black" points="1050.5,-243.5 1050.5,-267.5 1157.5,-267.5 1157.5,-243.5 1050.5,-243.5"/>
<text text-anchor="start" x="1053.5" y="-251.7" font-family="Times,serif" font-size="16.00">row_id</text>
<polygon fill="#54ff9f" stroke="transparent" points="1157.5,-243.5 1157.5,-267.5 1217.5,-267.5 1217.5,-243.5 1157.5,-243.5"/>
<polygon fill="none" stroke="black" points="1157.5,-243.5 1157.5,-267.5 1217.5,-267.5 1217.5,-243.5 1157.5,-243.5"/>
<text text-anchor="start" x="1160.5" y="-251.7" font-family="Times,serif" font-size="16.00">integer+</text>
<polygon fill="#54ff9f" stroke="transparent" points="1217.5,-243.5 1217.5,-267.5 1719.5,-267.5 1719.5,-243.5 1217.5,-243.5"/>
<polygon fill="none" stroke="black" points="1217.5,-243.5 1217.5,-267.5 1719.5,-267.5 1719.5,-243.5 1217.5,-243.5"/>
<text text-anchor="start" x="1220.5" y="-252.8" font-family="Monospace" font-style="italic" font-size="14.00" fill="#7f7f7f">Synthetic Unique Key</text>
<polygon fill="none" stroke="black" points="1050.5,-219.5 1050.5,-243.5 1157.5,-243.5 1157.5,-219.5 1050.5,-219.5"/>
<text text-anchor="start" x="1053.5" y="-227.7" font-family="Times,serif" font-size="16.00">objective_id</text>
<polygon fill="none" stroke="black" points="1157.5,-219.5 1157.5,-243.5 1217.5,-243.5 1217.5,-219.5 1157.5,-219.5"/>
<text text-anchor="start" x="1165" y="-227.7" font-family="Times,serif" font-size="16.00">integer</text>
<polygon fill="none" stroke="black" points="1217.5,-219.5 1217.5,-243.5 1719.5,-243.5 1719.5,-219.5 1217.5,-219.5"/>
<text text-anchor="start" x="1220.5" y="-228.8" font-family="Monospace" font-style="italic" font-size="14.00" fill="#7f7f7f">none</text>
<polygon fill="none" stroke="black" points="1050.5,-185.5 1050.5,-219.5 1157.5,-219.5 1157.5,-185.5 1050.5,-185.5"/>
<text text-anchor="start" x="1053.5" y="-198.7" font-family="Times,serif" font-size="16.00">id</text>
<polygon fill="none" stroke="black" points="1157.5,-185.5 1157.5,-219.5 1217.5,-219.5 1217.5,-185.5 1157.5,-185.5"/>
<text text-anchor="start" x="1163.5" y="-198.7" font-family="Times,serif" font-size="16.00">varchar</text>
<polygon fill="none" stroke="black" points="1217.5,-185.5 1217.5,-219.5 1719.5,-219.5 1719.5,-185.5 1217.5,-185.5"/>
<text text-anchor="start" x="1220.5" y="-206.3" font-family="Monospace" font-style="italic" font-size="14.00" fill="#7f7f7f">The ID of the Vote plan in the voting ledger/bulletin board.</text>
<text text-anchor="start" x="1220.5" y="-192.3" font-family="Monospace" font-style="italic" font-size="14.00" fill="#7f7f7f">A Binary value encoded as hex.</text>
<polygon fill="none" stroke="black" points="1050.5,-161.5 1050.5,-185.5 1157.5,-185.5 1157.5,-161.5 1050.5,-161.5"/>
<text text-anchor="start" x="1053.5" y="-169.7" font-family="Times,serif" font-size="16.00">category</text>
<polygon fill="none" stroke="black" points="1157.5,-161.5 1157.5,-185.5 1217.5,-185.5 1217.5,-161.5 1157.5,-161.5"/>
<text text-anchor="start" x="1175" y="-169.7" font-family="Times,serif" font-size="16.00">text</text>
<polygon fill="none" stroke="black" points="1217.5,-161.5 1217.5,-185.5 1719.5,-185.5 1719.5,-161.5 1217.5,-161.5"/>
<text text-anchor="start" x="1220.5" y="-170.8" font-family="Monospace" font-style="italic" font-size="14.00" fill="#7f7f7f">The kind of vote which can be cast on this vote plan.</text>
<polygon fill="none" stroke="black" points="1050.5,-127.5 1050.5,-161.5 1157.5,-161.5 1157.5,-127.5 1050.5,-127.5"/>
<text text-anchor="start" x="1053.5" y="-140.7" font-family="Times,serif" font-size="16.00">encryption_key</text>
<polygon fill="none" stroke="black" points="1157.5,-127.5 1157.5,-161.5 1217.5,-161.5 1217.5,-127.5 1157.5,-127.5"/>
<text text-anchor="start" x="1162" y="-141.7" font-family="Times,serif" font-style="italic" font-size="16.00">varchar</text>
<polygon fill="none" stroke="black" points="1217.5,-127.5 1217.5,-161.5 1719.5,-161.5 1719.5,-127.5 1217.5,-127.5"/>
<text text-anchor="start" x="1220.5" y="-148.3" font-family="Monospace" font-style="italic" font-size="14.00" fill="#7f7f7f">The public encryption key used.</text>
<text text-anchor="start" x="1220.5" y="-134.3" font-family="Monospace" font-style="italic" font-size="14.00" fill="#7f7f7f">ONLY if required by the voteplan category.</text>
<polygon fill="none" stroke="black" points="1050.5,-103.5 1050.5,-127.5 1157.5,-127.5 1157.5,-103.5 1050.5,-103.5"/>
<text text-anchor="start" x="1053.5" y="-111.7" font-family="Times,serif" font-size="16.00">group_id</text>
<polygon fill="none" stroke="black" points="1157.5,-103.5 1157.5,-127.5 1217.5,-127.5 1217.5,-103.5 1157.5,-103.5"/>
<text text-anchor="start" x="1176" y="-112.7" font-family="Times,serif" font-style="italic" font-size="16.00">text</text>
<polygon fill="none" stroke="black" points="1217.5,-103.5 1217.5,-127.5 1719.5,-127.5 1719.5,-103.5 1217.5,-103.5"/>
<text text-anchor="start" x="1220.5" y="-112.8" font-family="Monospace" font-style="italic" font-size="14.00" fill="#7f7f7f">The identifier of voting power token used withing this plan.</text>
<polygon fill="none" stroke="black" points="1050.5,-79.5 1050.5,-103.5 1157.5,-103.5 1157.5,-79.5 1050.5,-79.5"/>
<text text-anchor="start" x="1053.5" y="-87.7" font-family="Times,serif" font-size="16.00">token_id</text>
<polygon fill="none" stroke="black" points="1157.5,-79.5 1157.5,-103.5 1217.5,-103.5 1217.5,-79.5 1157.5,-79.5"/>
<text text-anchor="start" x="1176" y="-88.7" font-family="Times,serif" font-style="italic" font-size="16.00">text</text>
<polygon fill="none" stroke="black" points="1217.5,-79.5 1217.5,-103.5 1719.5,-103.5 1719.5,-79.5 1217.5,-79.5"/>
<text text-anchor="start" x="1220.5" y="-88.8" font-family="Monospace" font-style="italic" font-size="14.00" fill="#7f7f7f">none</text>
<polygon fill="#333333" stroke="transparent" points="1050.5,-58.5 1050.5,-79.5 1719.5,-79.5 1719.5,-58.5 1050.5,-58.5"/>
<polygon fill="none" stroke="black" points="1050.5,-58.5 1050.5,-79.5 1719.5,-79.5 1719.5,-58.5 1050.5,-58.5"/>
<text text-anchor="start" x="1053.5" y="-66.3" font-family="Monospace" font-style="italic" font-size="14.00" fill="white">All Vote plans.</text>
</g>
<!-- proposal_voteplan&#45;&gt;voteplan -->
<g id="edge5" class="edge">
<title>proposal_voteplan:voteplan_id_out&#45;&gt;voteplan:row_id</title>
<path fill="none" stroke="black" d="M1014,-303.5C1036.5,-303.5 1027.68,-269.33 1040.39,-258.65"/>
<polygon fill="black" stroke="black" points="1041.59,-261.94 1050,-255.5 1039.41,-255.29 1041.59,-261.94"/>
</g>
<!-- proposal -->
<g id="node6" class="node">
<title>proposal</title>
<polygon fill="#009879" stroke="transparent" points="1333.5,-414.5 1333.5,-442.5 1436.5,-442.5 1436.5,-414.5 1333.5,-414.5"/>
<polygon fill="none" stroke="black" points="1333.5,-414.5 1333.5,-442.5 1436.5,-442.5 1436.5,-414.5 1333.5,-414.5"/>
<text text-anchor="start" x="1336.5" y="-424.5" font-family="Courier bold italic" font-weight="bold" font-size="20.00" fill="white">proposal</text>
<polygon fill="none" stroke="black" points="1333.5,-388.5 1333.5,-414.5 1436.5,-414.5 1436.5,-388.5 1333.5,-388.5"/>
<text text-anchor="start" x="1353" y="-398.1" font-family="Courier bold" font-weight="bold" font-size="18.00">Column</text>
<polygon fill="none" stroke="black" points="1333.5,-364.5 1333.5,-388.5 1436.5,-388.5 1436.5,-364.5 1333.5,-364.5"/>
<text text-anchor="start" x="1336.5" y="-372.7" font-family="Times,serif" font-size="16.00">row_id</text>
<polygon fill="#333333" stroke="transparent" points="1333.5,-343.5 1333.5,-364.5 1436.5,-364.5 1436.5,-343.5 1333.5,-343.5"/>
<polygon fill="none" stroke="black" points="1333.5,-343.5 1333.5,-364.5 1436.5,-364.5 1436.5,-343.5 1333.5,-343.5"/>
<text text-anchor="start" x="1336.5" y="-351.3" font-family="Monospace" font-style="italic" font-size="14.00" fill="white">ABRIDGED</text>
</g>
<!-- proposal_voteplan&#45;&gt;proposal -->
<g id="edge4" class="edge">
<title>proposal_voteplan:proposal_id_out&#45;&gt;proposal:row_id</title>
<path fill="none" stroke="black" d="M1014,-327.5C1030.36,-327.5 1267.96,-368.44 1322.35,-375.48"/>
<polygon fill="black" stroke="black" points="1322.2,-378.98 1332.5,-376.5 1322.9,-372.01 1322.2,-378.98"/>
</g>
<!-- voteplan_category -->
<g id="node3" class="node">
<title>voteplan_category</title>
<polygon fill="#009879" stroke="transparent" points="1755.5,-211.5 1755.5,-239.5 2312.5,-239.5 2312.5,-211.5 1755.5,-211.5"/>
<polygon fill="none" stroke="black" points="1755.5,-211.5 1755.5,-239.5 2312.5,-239.5 2312.5,-211.5 1755.5,-211.5"/>
<text text-anchor="start" x="1931.5" y="-221.5" font-family="Courier bold italic" font-weight="bold" font-size="20.00" fill="white">voteplan_category</text>
<polygon fill="none" stroke="black" points="1755.5,-185.5 1755.5,-211.5 1834.5,-211.5 1834.5,-185.5 1755.5,-185.5"/>
<text text-anchor="start" x="1763" y="-195.1" font-family="Courier bold" font-weight="bold" font-size="18.00">Column</text>
<polygon fill="none" stroke="black" points="1834.5,-185.5 1834.5,-211.5 1893.5,-211.5 1893.5,-185.5 1834.5,-185.5"/>
<text text-anchor="start" x="1842.5" y="-195.1" font-family="Courier bold" font-weight="bold" font-size="18.00">Type</text>
<polygon fill="none" stroke="black" points="1893.5,-185.5 1893.5,-211.5 2312.5,-211.5 2312.5,-185.5 1893.5,-185.5"/>
<text text-anchor="start" x="2045" y="-195.1" font-family="Courier bold" font-weight="bold" font-size="18.00">Description</text>
<polygon fill="#54ff9f" stroke="transparent" points="1755.5,-161.5 1755.5,-185.5 1834.5,-185.5 1834.5,-161.5 1755.5,-161.5"/>
<polygon fill="none" stroke="black" points="1755.5,-161.5 1755.5,-185.5 1834.5,-185.5 1834.5,-161.5 1755.5,-161.5"/>
<text text-anchor="start" x="1758.5" y="-169.7" font-family="Times,serif" font-size="16.00">name</text>
<polygon fill="#54ff9f" stroke="transparent" points="1834.5,-161.5 1834.5,-185.5 1893.5,-185.5 1893.5,-161.5 1834.5,-161.5"/>
<polygon fill="none" stroke="black" points="1834.5,-161.5 1834.5,-185.5 1893.5,-185.5 1893.5,-161.5 1834.5,-161.5"/>
<text text-anchor="start" x="1851.5" y="-169.7" font-family="Times,serif" font-size="16.00">text</text>
<polygon fill="#54ff9f" stroke="transparent" points="1893.5,-161.5 1893.5,-185.5 2312.5,-185.5 2312.5,-161.5 1893.5,-161.5"/>
<polygon fill="none" stroke="black" points="1893.5,-161.5 1893.5,-185.5 2312.5,-185.5 2312.5,-161.5 1893.5,-161.5"/>
<text text-anchor="start" x="1896.5" y="-170.8" font-family="Monospace" font-style="italic" font-size="14.00" fill="#7f7f7f">The UNIQUE name of this voteplan category.</text>
<polygon fill="none" stroke="black" points="1755.5,-137.5 1755.5,-161.5 1834.5,-161.5 1834.5,-137.5 1755.5,-137.5"/>
<text text-anchor="start" x="1758.5" y="-145.7" font-family="Times,serif" font-size="16.00">public_key</text>
<polygon fill="none" stroke="black" points="1834.5,-137.5 1834.5,-161.5 1893.5,-161.5 1893.5,-137.5 1834.5,-137.5"/>
<text text-anchor="start" x="1837.5" y="-146.7" font-family="Times,serif" font-style="italic" font-size="16.00">boolean</text>
<polygon fill="none" stroke="black" points="1893.5,-137.5 1893.5,-161.5 2312.5,-161.5 2312.5,-137.5 1893.5,-137.5"/>
<text text-anchor="start" x="1896.5" y="-146.8" font-family="Monospace" font-style="italic" font-size="14.00" fill="#7f7f7f">Does this vote plan category require a public key.</text>
<polygon fill="#333333" stroke="transparent" points="1755.5,-116.5 1755.5,-137.5 2312.5,-137.5 2312.5,-116.5 1755.5,-116.5"/>
<polygon fill="none" stroke="black" points="1755.5,-116.5 1755.5,-137.5 2312.5,-137.5 2312.5,-116.5 1755.5,-116.5"/>
<text text-anchor="start" x="1758.5" y="-124.3" font-family="Monospace" font-style="italic" font-size="14.00" fill="white">The category of vote plan currently supported.</text>
</g>
<!-- voteplan&#45;&gt;voteplan_category -->
<g id="edge2" class="edge">
<title>voteplan:category_out&#45;&gt;voteplan_category:name</title>
<path fill="none" stroke="black" d="M1719,-173.5C1731,-173.5 1736.25,-173.5 1744.88,-173.5"/>
<polygon fill="black" stroke="black" points="1745,-177 1755,-173.5 1745,-170 1745,-177"/>
</g>
<!-- voting_group -->
<g id="node4" class="node">
<title>voting_group</title>
<polygon fill="#009879" stroke="transparent" points="1855.5,-70.5 1855.5,-98.5 2212.5,-98.5 2212.5,-70.5 1855.5,-70.5"/>
<polygon fill="none" stroke="black" points="1855.5,-70.5 1855.5,-98.5 2212.5,-98.5 2212.5,-70.5 1855.5,-70.5"/>
<text text-anchor="start" x="1961.5" y="-80.5" font-family="Courier bold italic" font-weight="bold" font-size="20.00" fill="white">voting_group</text>
<polygon fill="none" stroke="black" points="1855.5,-44.5 1855.5,-70.5 1925.5,-70.5 1925.5,-44.5 1855.5,-44.5"/>
<text text-anchor="start" x="1858.5" y="-54.1" font-family="Courier bold" font-weight="bold" font-size="18.00">Column</text>
<polygon fill="none" stroke="black" points="1925.5,-44.5 1925.5,-70.5 1974.5,-70.5 1974.5,-44.5 1925.5,-44.5"/>
<text text-anchor="start" x="1928.5" y="-54.1" font-family="Courier bold" font-weight="bold" font-size="18.00">Type</text>
<polygon fill="none" stroke="black" points="1974.5,-44.5 1974.5,-70.5 2212.5,-70.5 2212.5,-44.5 1974.5,-44.5"/>
<text text-anchor="start" x="2035.5" y="-54.1" font-family="Courier bold" font-weight="bold" font-size="18.00">Description</text>
<polygon fill="#54ff9f" stroke="transparent" points="1855.5,-20.5 1855.5,-44.5 1925.5,-44.5 1925.5,-20.5 1855.5,-20.5"/>
<polygon fill="none" stroke="black" points="1855.5,-20.5 1855.5,-44.5 1925.5,-44.5 1925.5,-20.5 1855.5,-20.5"/>
<text text-anchor="start" x="1858.5" y="-28.7" font-family="Times,serif" font-size="16.00">name</text>
<polygon fill="#54ff9f" stroke="transparent" points="1925.5,-20.5 1925.5,-44.5 1974.5,-44.5 1974.5,-20.5 1925.5,-20.5"/>
<polygon fill="none" stroke="black" points="1925.5,-20.5 1925.5,-44.5 1974.5,-44.5 1974.5,-20.5 1925.5,-20.5"/>
<text text-anchor="start" x="1937.5" y="-28.7" font-family="Times,serif" font-size="16.00">text</text>
<polygon fill="#54ff9f" stroke="transparent" points="1974.5,-20.5 1974.5,-44.5 2212.5,-44.5 2212.5,-20.5 1974.5,-20.5"/>
<polygon fill="none" stroke="black" points="1974.5,-20.5 1974.5,-44.5 2212.5,-44.5 2212.5,-20.5 1974.5,-20.5"/>
<text text-anchor="start" x="1977.5" y="-29.8" font-family="Monospace" font-style="italic" font-size="14.00" fill="#7f7f7f">The ID of this voting group.</text>
<polygon fill="#333333" stroke="transparent" points="1855.5,0.5 1855.5,-20.5 2212.5,-20.5 2212.5,0.5 1855.5,0.5"/>
<polygon fill="none" stroke="black" points="1855.5,0.5 1855.5,-20.5 2212.5,-20.5 2212.5,0.5 1855.5,0.5"/>
<text text-anchor="start" x="1858.5" y="-7.3" font-family="Monospace" font-style="italic" font-size="14.00" fill="white">All Groups.</text>
</g>
<!-- voteplan&#45;&gt;voting_group -->
<g id="edge3" class="edge">
<title>voteplan:group_id_out&#45;&gt;voting_group:name</title>
<path fill="none" stroke="black" d="M1719,-115.5C1786.04,-115.5 1784.26,-40.72 1844.31,-33.12"/>
<polygon fill="black" stroke="black" points="1844.73,-36.6 1854.5,-32.5 1844.31,-29.61 1844.73,-36.6"/>
</g>
<!-- objective -->
<g id="node5" class="node">
<title>objective</title>
<polygon fill="#009879" stroke="transparent" points="1976.5,-332.5 1976.5,-360.5 2091.5,-360.5 2091.5,-332.5 1976.5,-332.5"/>
<polygon fill="none" stroke="black" points="1976.5,-332.5 1976.5,-360.5 2091.5,-360.5 2091.5,-332.5 1976.5,-332.5"/>
<text text-anchor="start" x="1979.5" y="-342.5" font-family="Courier bold italic" font-weight="bold" font-size="20.00" fill="white">objective</text>
<polygon fill="none" stroke="black" points="1976.5,-306.5 1976.5,-332.5 2091.5,-332.5 2091.5,-306.5 1976.5,-306.5"/>
<text text-anchor="start" x="2002" y="-316.1" font-family="Courier bold" font-weight="bold" font-size="18.00">Column</text>
<polygon fill="none" stroke="black" points="1976.5,-282.5 1976.5,-306.5 2091.5,-306.5 2091.5,-282.5 1976.5,-282.5"/>
<text text-anchor="start" x="1979.5" y="-290.7" font-family="Times,serif" font-size="16.00">row_id</text>
<polygon fill="#333333" stroke="transparent" points="1976.5,-261.5 1976.5,-282.5 2091.5,-282.5 2091.5,-261.5 1976.5,-261.5"/>
<polygon fill="none" stroke="black" points="1976.5,-261.5 1976.5,-282.5 2091.5,-282.5 2091.5,-261.5 1976.5,-261.5"/>
<text text-anchor="start" x="1979.5" y="-269.3" font-family="Monospace" font-style="italic" font-size="14.00" fill="white">ABRIDGED</text>
</g>
<!-- voteplan&#45;&gt;objective -->
<g id="edge1" class="edge">
<title>voteplan:objective_id_out&#45;&gt;objective:row_id</title>
<path fill="none" stroke="black" d="M1719,-231.5C1736.89,-231.5 1738.09,-243.66 1755,-249.5 1846.31,-281.03 1873.63,-293.63 1965.5,-294.46"/>
<polygon fill="black" stroke="black" points="1965.48,-297.96 1975.5,-294.5 1965.52,-290.96 1965.48,-297.96"/>
</g>
<!-- LEGEND -->
<g id="node7" class="node">
<title>LEGEND</title>
<polygon fill="Pink" stroke="transparent" points="397,-586.5 397,-614.5 617,-614.5 617,-586.5 397,-586.5"/>
<polygon fill="none" stroke="black" points="397,-586.5 397,-614.5 617,-614.5 617,-586.5 397,-586.5"/>
<text text-anchor="start" x="470.5" y="-596.5" font-family="Courier bold italic" font-weight="bold" font-size="20.00" fill="white">LEGEND</text>
<polygon fill="none" stroke="black" points="397,-560.5 397,-586.5 536,-586.5 536,-560.5 397,-560.5"/>
<text text-anchor="start" x="445" y="-570.1" font-family="Courier bold" font-weight="bold" font-size="18.00">Type</text>
<polygon fill="none" stroke="black" points="536,-560.5 536,-586.5 617,-586.5 617,-560.5 536,-560.5"/>
<text text-anchor="start" x="539.5" y="-570.1" font-family="Courier bold" font-weight="bold" font-size="18.00">Example</text>
<polygon fill="#54ff9f" stroke="transparent" points="397,-536.5 397,-560.5 536,-560.5 536,-536.5 397,-536.5"/>
<polygon fill="none" stroke="black" points="397,-536.5 397,-560.5 536,-560.5 536,-536.5 397,-536.5"/>
<text text-anchor="start" x="400" y="-544.7" font-family="Times,serif" font-size="16.00">Primary Key</text>
<polygon fill="#54ff9f" stroke="transparent" points="536,-536.5 536,-560.5 617,-560.5 617,-536.5 536,-536.5"/>
<polygon fill="none" stroke="black" points="536,-536.5 536,-560.5 617,-560.5 617,-536.5 536,-536.5"/>
<text text-anchor="start" x="549.5" y="-544.7" font-family="Times,serif" font-size="16.00">integer+</text>
<polygon fill="none" stroke="black" points="397,-512.5 397,-536.5 536,-536.5 536,-512.5 397,-512.5"/>
<text text-anchor="start" x="400" y="-520.7" font-family="Times,serif" font-size="16.00">Standard Field</text>
<polygon fill="none" stroke="black" points="536,-512.5 536,-536.5 617,-536.5 617,-512.5 536,-512.5"/>
<text text-anchor="start" x="559" y="-520.7" font-family="Times,serif" font-size="16.00">bytea</text>
<polygon fill="none" stroke="black" points="397,-488.5 397,-512.5 536,-512.5 536,-488.5 397,-488.5"/>
<text text-anchor="start" x="400" y="-496.7" font-family="Times,serif" font-size="16.00">Nullable Field</text>
<polygon fill="none" stroke="black" points="536,-488.5 536,-512.5 617,-512.5 617,-488.5 536,-488.5"/>
<text text-anchor="start" x="565" y="-497.7" font-family="Times,serif" font-style="italic" font-size="16.00">text</text>
<polygon fill="none" stroke="black" points="397,-464.5 397,-488.5 536,-488.5 536,-464.5 397,-464.5"/>
<text text-anchor="start" x="400" y="-472.7" font-family="Times,serif" font-size="16.00">Sized Field</text>
<polygon fill="none" stroke="black" points="536,-464.5 536,-488.5 617,-488.5 617,-464.5 536,-464.5"/>
<text text-anchor="start" x="539" y="-472.7" font-family="Times,serif" font-size="16.00">varchar(32)</text>
<polygon fill="none" stroke="black" points="397,-440.5 397,-464.5 536,-464.5 536,-440.5 397,-440.5"/>
<text text-anchor="start" x="400" y="-448.7" font-family="Times,serif" font-size="16.00">Autoincrement Field</text>
<polygon fill="none" stroke="black" points="536,-440.5 536,-464.5 617,-464.5 617,-440.5 536,-440.5"/>
<text text-anchor="start" x="549.5" y="-448.7" font-family="Times,serif" font-size="16.00">integer+</text>
</g>
</g>
</svg>
