<svg width="32" height="32" viewBox="0 0 32 32" fill="none" xmlns="http://www.w3.org/2000/svg">
<path d="M14.0937 24.3874C14.0818 24.3815 14.1055 24.3948 14.0937 24.3874C11.9425 23.3993 10.194 21.4456 9.30372 19.2412H3.1748C5.36737 25.4618 11.2978 29.9195 18.2681 29.9195C22.0459 29.9195 25.517 28.6099 28.2548 26.4189C28.3496 26.3107 28.443 26.2011 28.5348 26.0915C27.8548 26.1803 27.1615 26.2263 26.4563 26.2263C24.1407 26.2263 21.9407 25.7344 19.9556 24.85C19.3067 24.9937 18.6326 25.0692 17.9407 25.0692C17.1423 25.0692 16.3566 25.1144 15.6174 24.9248C15.613 24.9248 15.6218 24.9263 15.6174 24.9248" fill="white"/>
<path d="M14.0936 24.3874C14.5736 24.6037 15.0974 24.7915 15.6174 24.9248C15.613 24.9248 15.6218 24.9263 15.6174 24.9248C16.3566 25.1144 17.1422 25.0693 17.9407 25.0693C18.6326 25.0693 19.3067 24.9937 19.9555 24.85C19.7126 24.7433 19.4741 24.6293 19.24 24.5093C16.8207 23.2856 14.7555 21.4649 13.2356 19.2412H9.30371C10.194 21.4456 11.9425 23.3993 14.0936 24.3874Z" fill="white"/>
<path d="M28.2548 26.4189C26.0548 28.9225 23.1156 30.7447 19.7674 31.5477C12.6948 33.244 5.60444 30.0396 1.99261 24.1108C1.09779 22.6441 0.416296 21.0101 0 19.2412H3.17483C5.36741 25.4618 11.2978 29.9196 18.2681 29.9196C22.0459 29.9196 25.517 28.61 28.2548 26.4189Z" fill="white"/>
<path d="M31.9482 19.2412C31.3437 21.8115 30.1585 24.1434 28.5349 26.0915C27.8549 26.1804 27.1615 26.2263 26.4563 26.2263C24.1408 26.2263 21.9408 25.7345 19.9556 24.85C19.7126 24.7434 19.4741 24.6293 19.24 24.5093C16.8208 23.2856 14.7556 21.4649 13.2356 19.2412L31.9482 19.2412Z" fill="white"/>
<path d="M31.4399 11.6532C29.0725 6.71547 24.2444 3.18218 18.5436 2.63849C18.5422 2.63849 18.5407 2.63849 18.5407 2.63849C17.3466 2.41479 16.1022 2.3496 14.8325 2.46071C13.9259 2.54071 13.0458 2.70664 12.2014 2.95405C9.38957 3.77181 6.97475 5.46215 5.2592 7.69916C3.52438 9.95839 2.50512 12.7761 2.50958 15.8116V17.0161H0.050293V15.8116C0.0517745 10.6636 2.5377 6.0903 6.38511 3.2059C6.38659 3.20145 6.38659 3.20145 6.38807 3.20293C8.57177 1.56296 11.1955 0.468164 14.0518 0.120015C14.6992 0.0400155 15.3585 1.52588e-05 16.0266 1.52588e-05C23.394 4.44006e-07 29.5955 4.9377 31.4399 11.6532Z" fill="white"/>
<path d="M7.51252 14.6057H10.0044C10.1318 13.9598 10.3584 13.3568 10.6651 12.8117C11.9214 10.5732 14.5318 9.28432 17.2088 9.80134C19.6918 10.2799 21.5792 12.1983 22.0577 14.579C20.8829 13.0591 19.0429 12.0813 16.9747 12.0813C16.6251 12.0813 16.2814 12.1095 15.9466 12.1643C15.9451 12.1643 15.9451 12.1643 15.9436 12.1643C15.1466 12.185 14.4103 12.4591 13.8177 12.9095C13.8162 12.9109 13.8162 12.9109 13.8147 12.9109C13.8132 12.9124 13.8132 12.9124 13.8118 12.9139C12.9318 13.5805 12.3659 14.6309 12.3659 15.8116V17.016H4.96436V15.8116C4.97027 11.5613 7.42361 7.87989 11.0029 6.07103C12.514 5.30511 14.2266 4.87549 16.0414 4.87845C20.391 4.88437 24.1999 7.38803 25.994 11.0813C24.3821 8.30952 21.3792 6.44584 17.9407 6.44584C16.1377 6.44584 14.4532 6.95842 13.0281 7.84729C13.0266 7.84729 13.0266 7.84729 13.0251 7.84877H13.0236C12.0903 8.19248 11.231 8.69172 10.4814 9.31986C8.91845 10.6236 7.8251 12.4739 7.51252 14.6057Z" fill="white"/>
<path d="M22.1762 15.8116V17.016H19.7421V15.8116C19.7421 13.7939 18.0902 12.1598 16.0532 12.1613C16.0176 12.1613 15.9821 12.1613 15.9465 12.1643C16.2813 12.1094 16.6251 12.0813 16.9747 12.0813C19.0428 12.0813 20.8828 13.0591 22.0576 14.579V14.5805C22.1391 14.979 22.1791 15.3909 22.1762 15.8116Z" fill="white"/>
<path d="M31.9999 15.8116V17.016H24.6266V15.8116C24.6162 11.108 20.757 7.30508 16.0073 7.31397C14.9644 7.31545 13.9599 7.50359 13.0281 7.84729C14.4532 6.95842 16.1377 6.44584 17.9407 6.44584C21.3792 6.44584 24.3821 8.30951 25.994 11.0813C26.5214 12.1643 26.8755 13.3509 27.0177 14.6057H29.4873C28.9421 8.50357 24.3377 3.72292 18.5436 2.63849C24.2444 3.18218 29.0725 6.71547 31.4399 11.6532V11.6546C31.8044 12.9791 31.9999 14.3731 31.9999 15.8116Z" fill="white"/>
<mask id="mask0_583_1997" style="mask-type:luminance" maskUnits="userSpaceOnUse" x="0" y="0" width="32" height="32">
<path d="M28.2548 26.4189C26.0548 28.9225 23.1156 30.7447 19.7674 31.5477C12.6948 33.2439 5.60444 30.0396 1.99261 24.1108C1.09779 22.6441 0.416296 21.0101 0 19.2412H3.17483C5.36741 25.4618 11.2978 29.9196 18.2681 29.9196C22.0459 29.9196 25.517 28.6099 28.2548 26.4189ZM13.2356 19.2412C14.7556 21.4649 16.8208 23.2856 19.24 24.5093C19.4741 24.6293 19.7126 24.7433 19.9556 24.85C21.9407 25.7344 24.1408 26.2263 26.4563 26.2263C27.1615 26.2263 27.8548 26.1803 28.5348 26.0915C30.1585 24.1433 31.3437 21.8115 31.9482 19.2412H13.2356V19.2412ZM16.0267 0C15.3585 0 14.6993 0.0399996 14.0519 0.12C11.1956 0.468133 8.57185 1.56293 6.38815 3.20292C6.38667 3.20144 6.38667 3.20144 6.38519 3.20588C2.53778 6.09028 0.0518519 10.6635 0.0503704 15.8116V17.016H2.50964V15.8116C2.5052 12.7761 3.52446 9.95837 5.25926 7.69914C6.97481 5.46215 9.38963 3.77181 12.2015 2.95403C13.0459 2.70662 13.9259 2.5407 14.8326 2.4607C16.1022 2.34959 17.3467 2.41477 18.5407 2.63847C18.5407 2.63847 18.5422 2.63847 18.5437 2.63847C24.2444 3.18216 29.0726 6.71545 31.44 11.6531C29.5956 4.93771 23.3941 0 16.0267 0ZM10.4815 9.31987C11.2311 8.69174 12.0904 8.19248 13.0237 7.84879H13.0252C13.0267 7.8473 13.0267 7.8473 13.0281 7.8473C14.4533 6.95843 16.1378 6.44585 17.9407 6.44585C21.3792 6.44585 24.3822 8.30953 25.9941 11.0813C24.2 7.38806 20.3911 4.88439 16.0415 4.87846C14.2267 4.8755 12.5141 5.30513 11.0029 6.07104C7.42369 7.8799 4.97034 11.5613 4.96443 15.8116V17.0161H12.3659V15.8116C12.3659 14.6309 12.9318 13.5806 13.8118 12.9139C13.8133 12.9124 13.8133 12.9124 13.8148 12.9109C13.8163 12.9109 13.8163 12.9109 13.8178 12.9095C14.4104 12.4591 15.1467 12.185 15.9437 12.1643C15.9452 12.1643 15.9452 12.1643 15.9467 12.1643C16.2815 12.1095 16.6252 12.0813 16.9748 12.0813C19.0429 12.0813 20.8829 13.0591 22.0578 14.5791C21.5792 12.1983 19.6918 10.2799 17.2089 9.80135C14.5318 9.28433 11.9215 10.5732 10.6652 12.8117C10.3585 13.3568 10.1318 13.9598 10.0044 14.6057H7.51259C7.82519 12.4739 8.91853 10.6236 10.4815 9.31987Z" fill="white"/>
</mask>
<g mask="url(#mask0_583_1997)">
<path d="M28.6739 29.2747C32.6059 29.2747 35.7934 26.0872 35.7934 22.1552C35.7934 18.2232 32.6059 15.0358 28.6739 15.0358C24.7419 15.0358 21.5544 18.2232 21.5544 22.1552C21.5544 26.0872 24.7419 29.2747 28.6739 29.2747Z" fill="white"/>
<path d="M6.89538 17.8035C11.9102 17.8035 15.9756 13.7381 15.9756 8.72326C15.9756 3.70841 11.9102 -0.356934 6.89538 -0.356934C1.88053 -0.356934 -2.18481 3.70841 -2.18481 8.72326C-2.18481 13.7381 1.88053 17.8035 6.89538 17.8035Z" fill="white"/>
</g>
</svg>
