<svg width="32" height="33" viewBox="0 0 32 33" fill="none" xmlns="http://www.w3.org/2000/svg">
<path fill-rule="evenodd" clip-rule="evenodd" d="M4 8.5C4 6.29086 5.79086 4.5 8 4.5H24C26.2091 4.5 28 6.29086 28 8.5V19.1654C28 19.1662 28 19.1671 28 19.168V24.5C28 26.7091 26.2091 28.5 24 28.5H8C5.79086 28.5 4 26.7091 4 24.5V21.8336C4 21.8334 4 21.8333 4 21.8331V8.5ZM6.66667 22.3856V24.5C6.66667 25.2364 7.26362 25.8333 8 25.8333H24C24.7364 25.8333 25.3333 25.2364 25.3333 24.5V19.719L23.6095 17.9951C23.0888 17.4744 22.2446 17.4744 21.7239 17.9951L20.5523 19.1667L22.2761 20.8905C22.7968 21.4112 22.7968 22.2554 22.2761 22.7761C21.7554 23.2968 20.9112 23.2968 20.3905 22.7761L17.7244 20.11C17.7242 20.1098 17.724 20.1096 17.7239 20.1095C17.7237 20.1093 17.7235 20.1091 17.7233 20.109L14.2761 16.6618C13.7554 16.1411 12.9112 16.1411 12.3905 16.6618L6.66667 22.3856ZM18.6667 17.281L16.1618 14.7761C14.5997 13.214 12.067 13.214 10.5049 14.7761L6.66667 18.6144V8.5C6.66667 7.76362 7.26362 7.16667 8 7.16667H24C24.7364 7.16667 25.3333 7.76362 25.3333 8.5V15.9563C23.7628 14.5492 21.3475 14.6002 19.8382 16.1095L18.6667 17.281ZM17.3333 11.1667C17.3333 10.4303 17.9303 9.83333 18.6667 9.83333H18.68C19.4164 9.83333 20.0133 10.4303 20.0133 11.1667C20.0133 11.903 19.4164 12.5 18.68 12.5H18.6667C17.9303 12.5 17.3333 11.903 17.3333 11.1667Z" fill="#212A3D"/>
</svg>
