<svg width="33" height="32" viewBox="0 0 33 32" fill="none" xmlns="http://www.w3.org/2000/svg">
<path fill-rule="evenodd" clip-rule="evenodd" d="M8.27771 27.9939C8.3513 27.998 8.42541 28 8.5 28H24.5C26.7091 28 28.5 26.2091 28.5 24V18.668V18.6654V8C28.5 7.92541 28.498 7.8513 28.4939 7.77771L25.8333 10.4383V15.4563C24.6079 14.3584 22.8682 14.1482 21.4459 14.8258L17.443 18.8286L18.2233 19.609L18.2244 19.61L20.8905 22.2761C21.4112 22.7968 22.2554 22.7968 22.7761 22.2761C23.2968 21.7554 23.2968 20.9112 22.7761 20.3905L21.0523 18.6667L22.2239 17.4951C22.7446 16.9744 23.5888 16.9744 24.1095 17.4951L25.8333 19.219V24C25.8333 24.7364 25.2364 25.3333 24.5 25.3333H10.9383L8.27771 27.9939ZM22.0625 6.66667H8.5C7.76362 6.66667 7.16667 7.26362 7.16667 8V18.1144L11.0049 14.2761C12.1752 13.1059 13.8901 12.8123 15.3337 13.3955L4.50611 24.2231C4.50206 24.1492 4.5 24.0749 4.5 24V21.3336V8C4.5 5.79086 6.29086 4 8.5 4H24.5C24.5749 4 24.6492 4.00206 24.7231 4.00611L22.0625 6.66667Z" fill="#212A3D"/>
<path d="M29.1668 3.33301L3.8335 28.6663" stroke="#212A3D" stroke-width="2.66667" stroke-linecap="round"/>
</svg>
