<svg width="113" height="106" viewBox="0 0 113 106" fill="none" xmlns="http://www.w3.org/2000/svg">
<g clip-path="url(#clip0_6429_59086)">
<path d="M52.2812 59.375V52.1875L54.7812 49.6875L52.2812 47.1875V40L55.7188 36.5625L51.9688 32.8125V30.3125L53.8438 28.4375V25.9375L51.3438 23.4375V19.6875L53.8438 17.1875L50.4062 15.3125V12.5L56.6562 6.25H58.5312L62.5938 11.25V60" stroke="#0C288D" stroke-width="1.25"/>
<path d="M58.2188 6.25V59.375" stroke="#0C288D" stroke-width="1.25"/>
<path d="M47.75 75.9375V69.375L51.1875 65.9375V60.3125" stroke="#0C288D" stroke-width="1.25"/>
<path d="M52.125 94.6875V82.8125L57.125 77.8125V60.3125" stroke="#0C288D" stroke-width="1.25"/>
<path d="M61.8125 88.75V75.3125L57.125 70" stroke="#0C288D" stroke-width="1.25"/>
<path d="M61.5 66.25V60.3125" stroke="#0C288D" stroke-width="1.25"/>
<circle cx="41.5" cy="89.6875" r="1.875" stroke="#0C288D" stroke-width="1.25"/>
<circle cx="52.125" cy="96.5625" r="1.875" stroke="#0C288D" stroke-width="1.25"/>
<circle cx="61.5" cy="90.3125" r="1.875" stroke="#0C288D" stroke-width="1.25"/>
<circle cx="71.5" cy="84.0625" r="1.875" stroke="#0C288D" stroke-width="1.25"/>
<circle cx="47.75" cy="77.8125" r="1.875" stroke="#0C288D" stroke-width="1.25"/>
<circle cx="61.5" cy="67.8125" r="1.875" stroke="#0C288D" stroke-width="1.25"/>
<path d="M41.5 88.125V64.6875L46.1875 60H66.8125L71.5 64.6875V82.1875" stroke="#0C288D" stroke-width="1.25"/>
</g>
<defs>
<clipPath id="clip0_6429_59086">
<rect width="35" height="92.8125" fill="white" transform="translate(39 6.25)"/>
</clipPath>
</defs>
</svg>
