<svg width="180" height="186" viewBox="0 0 180 186" fill="none" xmlns="http://www.w3.org/2000/svg">
<g filter="url(#filter0_d_28_35)">
<rect x="33" y="39.5953" width="76.1304" height="107.999" rx="4.4" transform="rotate(-8 33 39.5953)" fill="#F2F4F8"/>
</g>
<g filter="url(#filter1_d_28_35)">
<g clip-path="url(#clip0_28_35)">
<rect x="72.0996" y="29.0825" width="76.1304" height="107.999" rx="4.4" transform="rotate(10 72.0996 29.0825)" fill="#F8F9FC"/>
<rect x="76.6892" y="41.0615" width="52.8" height="5.5" rx="1.1" transform="rotate(10 76.6892 41.0615)" fill="#D9D9D9"/>
<rect x="72.4868" y="64.8938" width="62.9304" height="5.5" rx="1.1" transform="rotate(10 72.4868 64.8938)" fill="#D9D9D9"/>
<rect x="70.3857" y="76.81" width="52.8" height="5.5" rx="1.1" transform="rotate(10 70.3857 76.81)" fill="#D9D9D9"/>
<rect x="68.2847" y="88.7262" width="59.4" height="5.5" rx="1.1" transform="rotate(10 68.2847 88.7262)" fill="#D9D9D9"/>
<rect x="66.1836" y="100.642" width="62.7" height="5.5" rx="1.1" transform="rotate(10 66.1836 100.642)" fill="#D9D9D9"/>
<rect x="64.0823" y="112.559" width="49.5" height="5.5" rx="1.1" transform="rotate(10 64.0823 112.559)" fill="#D9D9D9"/>
</g>
</g>
<defs>
<filter id="filter0_d_28_35" x="0" y="0.4" width="156.42" height="183.543" filterUnits="userSpaceOnUse" color-interpolation-filters="sRGB">
<feFlood flood-opacity="0" result="BackgroundImageFix"/>
<feColorMatrix in="SourceAlpha" type="matrix" values="0 0 0 0 0 0 0 0 0 0 0 0 0 0 0 0 0 0 127 0" result="hardAlpha"/>
<feOffset dy="4.4"/>
<feGaussianBlur stdDeviation="16.5"/>
<feComposite in2="hardAlpha" operator="out"/>
<feColorMatrix type="matrix" values="0 0 0 0 0 0 0 0 0 0 0 0 0 0 0 0 0 0 0.1 0"/>
<feBlend mode="normal" in2="BackgroundImageFix" result="effect1_dropShadow_28_35"/>
<feBlend mode="normal" in="SourceGraphic" in2="effect1_dropShadow_28_35" result="shape"/>
</filter>
<filter id="filter1_d_28_35" x="20.3457" y="0.48252" width="159.728" height="185.578" filterUnits="userSpaceOnUse" color-interpolation-filters="sRGB">
<feFlood flood-opacity="0" result="BackgroundImageFix"/>
<feColorMatrix in="SourceAlpha" type="matrix" values="0 0 0 0 0 0 0 0 0 0 0 0 0 0 0 0 0 0 127 0" result="hardAlpha"/>
<feOffset dy="4.4"/>
<feGaussianBlur stdDeviation="16.5"/>
<feComposite in2="hardAlpha" operator="out"/>
<feColorMatrix type="matrix" values="0 0 0 0 0 0 0 0 0 0 0 0 0 0 0 0 0 0 0.1 0"/>
<feBlend mode="normal" in2="BackgroundImageFix" result="effect1_dropShadow_28_35"/>
<feBlend mode="normal" in="SourceGraphic" in2="effect1_dropShadow_28_35" result="shape"/>
</filter>
<clipPath id="clip0_28_35">
<rect x="72.0996" y="29.0825" width="76.1304" height="107.999" rx="4.4" transform="rotate(10 72.0996 29.0825)" fill="white"/>
</clipPath>
</defs>
</svg>
