<svg width="156" height="78" viewBox="0 0 156 78" fill="none" xmlns="http://www.w3.org/2000/svg">
<path fill-rule="evenodd" clip-rule="evenodd" d="M32.5472 77.625C29.8118 77.625 27.5943 75.2521 27.5943 72.325C27.5943 69.3979 29.8118 67.025 32.5472 67.025H4.95283C2.21746 67.025 0 64.6521 0 61.725C0 58.7979 2.21746 56.425 4.95283 56.425H33.2547C35.9901 56.425 38.2076 54.0521 38.2076 51.125C38.2076 48.1979 35.9901 45.825 33.2547 45.825H15.566C12.8307 45.825 10.6132 43.4521 10.6132 40.525C10.6132 37.5979 12.8307 35.225 15.566 35.225H43.8679C41.1326 35.225 38.9151 32.8521 38.9151 29.925C38.9151 26.9979 41.1326 24.625 43.8679 24.625H84.1981C86.9335 24.625 89.1509 26.9979 89.1509 29.925C89.1509 32.8521 86.9335 35.225 84.1981 35.225H129.481C132.217 35.225 134.434 37.5979 134.434 40.525C134.434 43.4521 132.217 45.825 129.481 45.825H145.047C147.783 45.825 150 48.1979 150 51.125C150 54.0521 147.783 56.425 145.047 56.425H131.604C128.868 56.425 126.651 58.7979 126.651 61.725C126.651 64.6521 128.868 67.025 131.604 67.025H135.849C138.584 67.025 140.802 69.3979 140.802 72.325C140.802 75.2521 138.584 77.625 135.849 77.625H32.5472Z" fill="#D9DEE8"/>
<path fill-rule="evenodd" clip-rule="evenodd" d="M149.853 77.8317C152.773 77.8317 155.14 75.4646 155.14 72.5447C155.14 69.6248 152.773 67.2578 149.853 67.2578C146.933 67.2578 144.566 69.6248 144.566 72.5447C144.566 75.4646 146.933 77.8317 149.853 77.8317Z" fill="#D9DEE8"/>
<path fill-rule="evenodd" clip-rule="evenodd" d="M121.266 5.15665C122.517 5.15665 123.532 4.1422 123.532 2.89082C123.532 1.63944 122.517 0.625 121.266 0.625C120.014 0.625 119 1.63944 119 2.89082C119 4.1422 120.014 5.15665 121.266 5.15665Z" fill="#A1B4F7"/>
<path fill-rule="evenodd" clip-rule="evenodd" d="M144.68 17.2406C145.931 17.2406 146.946 16.2262 146.946 14.9748C146.946 13.7234 145.931 12.709 144.68 12.709C143.429 12.709 142.414 13.7234 142.414 14.9748C142.414 16.2262 143.429 17.2406 144.68 17.2406Z" fill="#A1B4F7"/>
<path d="M126.457 10.3466C126.825 9.9782 127.423 9.97823 127.792 10.3466L130.328 12.8837L132.865 10.3476C133.234 9.97889 133.832 9.97889 134.201 10.3476C134.569 10.7163 134.568 11.314 134.2 11.6825L131.663 14.2187L134.104 16.6601C134.473 17.0287 134.474 17.6264 134.105 17.995C133.737 18.3634 133.139 18.3632 132.77 17.995L130.329 15.5536L127.887 17.995C127.519 18.3635 126.921 18.3644 126.552 17.996C126.184 17.6274 126.184 17.0288 126.552 16.6601L128.994 14.2187L126.457 11.6816C126.088 11.3129 126.088 10.7152 126.457 10.3466Z" fill="#A1B4F7"/>
<path d="M106 15.625H57.5L50.5 28.125V67.125H113V28.125L106 15.625Z" fill="white"/>
<path d="M72.0625 14.625H57.2C56.7375 14.625 56.3108 14.8757 56.0827 15.2807L49.164 27.6236C49.0551 27.819 49 28.0363 49 28.2536V67.3393C49 68.049 49.574 68.625 50.2812 68.625H113.319C114.026 68.625 114.6 68.049 114.6 67.3393V28.2536C114.6 28.2536 114.6 28.2536 114.599 28.2536C114.599 28.0363 114.545 27.819 114.435 27.6236L107.516 15.2807C107.29 14.8757 106.863 14.625 106.4 14.625H98.9675H72.0625ZM99.5722 17.1964H105.65L111.128 26.9679H52.4722L57.9495 17.1964H69.7563H99.5722ZM112.037 66.0536H51.5625V29.5393H112.037V66.0536Z" fill="#212A3D"/>
<path d="M75.5273 37.7667H103.837V57.8239H100.313C99.6059 57.8239 99.0319 58.3999 99.0319 59.1096C99.0319 59.8193 99.6059 60.3953 100.313 60.3953H105.118C105.825 60.3953 106.399 59.8193 106.399 59.1096V36.481C106.399 35.7713 105.825 35.1953 105.118 35.1953H75.5273C74.8201 35.1953 74.2461 35.7713 74.2461 36.481C74.2461 37.1907 74.8201 37.7667 75.5273 37.7667Z" fill="#212A3D"/>
<path d="M58.4805 60.3953H90.0633C90.7705 60.3953 91.3445 59.8193 91.3445 59.1096C91.3445 58.3999 90.7705 57.8239 90.0633 57.8239H59.7617V37.7667H65.2775C65.9847 37.7667 66.5588 37.1907 66.5588 36.481C66.5588 35.7713 65.9847 35.1953 65.2775 35.1953H58.4805C57.7732 35.1953 57.1992 35.7713 57.1992 36.481V59.1096C57.1992 59.8193 57.7732 60.3953 58.4805 60.3953Z" fill="#212A3D"/>
<path d="M95.1895 57.8242C94.8525 57.8242 94.5219 57.9618 94.2836 58.2009C94.0453 58.4401 93.9082 58.7718 93.9082 59.1099C93.9082 59.4481 94.0453 59.7798 94.2836 60.0189C94.5219 60.2581 94.8525 60.3956 95.1895 60.3956C95.5277 60.3956 95.857 60.2581 96.0953 60.0189C96.3336 59.7798 96.4707 59.4481 96.4707 59.1099C96.4707 58.7718 96.3336 58.4401 96.0953 58.2009C95.857 57.9618 95.5264 57.8242 95.1895 57.8242Z" fill="#212A3D"/>
<path d="M70.4023 37.7667C70.7393 37.7667 71.0699 37.6292 71.3082 37.39C71.5465 37.1509 71.6836 36.8192 71.6836 36.481C71.6836 36.1429 71.5465 35.8112 71.3082 35.572C71.0699 35.3329 70.7393 35.1953 70.4023 35.1953C70.0654 35.1953 69.7348 35.3329 69.4965 35.572C69.2582 35.8112 69.1211 36.1429 69.1211 36.481C69.1211 36.8192 69.2582 37.1509 69.4965 37.39C69.7348 37.6292 70.0654 37.7667 70.4023 37.7667Z" fill="#212A3D"/>
<path d="M63.5227 41.9551C62.8552 42.1891 62.5028 42.9233 62.736 43.5931L65.9648 52.8503C66.1441 53.3659 66.6297 53.7117 67.1743 53.7117C67.7188 53.7117 68.2044 53.3659 68.3838 52.8503L71.6125 43.5931C71.8457 42.9233 71.4946 42.1891 70.8271 41.9551C70.1596 41.7211 69.428 42.0734 69.1948 42.7446L67.1755 48.5341L65.1563 42.7446C64.9205 42.0734 64.1902 41.7211 63.5227 41.9551Z" fill="#212A3D"/>
<path d="M77.5725 53.7114C80.0594 53.7114 82.0825 51.6812 82.0825 49.1857V46.4085C82.0825 43.913 80.0594 41.8828 77.5725 41.8828C75.0856 41.8828 73.0625 43.913 73.0625 46.4085V49.1857C73.0625 51.6812 75.0856 53.7114 77.5725 53.7114ZM75.625 46.4085C75.625 45.3311 76.4988 44.4542 77.5725 44.4542C78.6462 44.4542 79.52 45.3311 79.52 46.4085V49.1857C79.52 50.2631 78.6462 51.14 77.5725 51.14C76.4988 51.14 75.625 50.2631 75.625 49.1857V46.4085Z" fill="#212A3D"/>
<path d="M96.4522 44.4542H99.3978C100.105 44.4542 100.679 43.8782 100.679 43.1685C100.679 42.4588 100.105 41.8828 99.3978 41.8828H96.4522C94.8763 41.8828 93.5938 43.1698 93.5938 44.7512V50.843C93.5938 52.4244 94.8763 53.7114 96.4522 53.7114H99.3978C100.105 53.7114 100.679 53.1354 100.679 52.4257C100.679 51.716 100.105 51.14 99.3978 51.14H96.4522C96.2895 51.14 96.1563 51.0062 96.1563 50.843V49.0828H98.1038C98.811 49.0828 99.385 48.5068 99.385 47.7971C99.385 47.0874 98.811 46.5114 98.1038 46.5114H96.1563V44.7512C96.1563 44.588 96.2895 44.4542 96.4522 44.4542Z" fill="#212A3D"/>
<path d="M90.7748 41.8828H84.8555C84.1482 41.8828 83.5742 42.4588 83.5742 43.1685C83.5742 43.8782 84.1482 44.4542 84.8555 44.4542H86.5339V52.4257C86.5339 53.1354 87.1079 53.7114 87.8152 53.7114C88.5224 53.7114 89.0964 53.1354 89.0964 52.4257V44.4542H90.7748C91.4821 44.4542 92.0561 43.8782 92.0561 43.1685C92.0561 42.4588 91.4821 41.8828 90.7748 41.8828Z" fill="#212A3D"/>
<path d="M65 21.625H99" stroke="#212A3D" stroke-width="2" stroke-linecap="round" stroke-linejoin="round"/>
</svg>
