<svg width="120" height="120" viewBox="0 0 120 120" fill="none" xmlns="http://www.w3.org/2000/svg">
<g id="Frame 2000919449">
<rect width="120" height="120" fill="white"/>
<path id="Union" fill-rule="evenodd" clip-rule="evenodd" d="M66.5078 2.15807L107.463 26.3963C111.193 28.6033 113.469 32.5389 113.469 36.7812V56.7112C113.469 57.484 113.394 58.2401 113.252 58.9729C113.122 59.6456 113.123 60.3389 113.254 61.0114C113.397 61.7485 113.472 62.509 113.472 63.2866V83.2194C113.472 87.4604 111.198 91.3951 107.47 93.6025L66.5165 117.855C62.515 120.224 57.4862 120.224 53.485 117.854L12.527 93.5926C8.80015 91.385 6.52624 87.4507 6.52624 83.2102L6.52624 63.2789C6.52624 62.5049 6.60069 61.7477 6.74299 61.0139C6.87331 60.3418 6.87322 59.6493 6.74273 58.9773C6.60004 58.2425 6.5254 57.4843 6.5254 56.7092L6.52539 36.7788C6.5254 32.5365 8.80122 28.6008 12.5306 26.3938L53.4836 2.15799C57.4831 -0.208942 62.5082 -0.208911 66.5078 2.15807Z" fill="#CCE2FF"/>
<path id="Rectangle 7356" d="M79.0907 49.0923V80.0014C79.0907 83.0139 76.6486 85.456 73.6362 85.456H58.6362H43.6362C40.6237 85.456 38.1816 83.0139 38.1816 80.0014V40.0014C38.1816 36.989 40.6237 34.5469 43.6362 34.5469H64.0907" stroke="#123CD3" stroke-width="5.45455" stroke-linecap="round" stroke-linejoin="round"/>
<path id="Vector 30" d="M63.6348 47.2734L49.0898 47.2734" stroke="#123CD3" stroke-width="5.45455" stroke-linecap="round"/>
<path id="Vector 32" d="M65.4551 72.7266L49.092 72.7266" stroke="#C014EB" stroke-width="5.45455" stroke-linecap="round"/>
<path id="Vector 31" d="M69.0898 56.3633L49.0905 56.3633" stroke="#123CD3" stroke-width="5.45455" stroke-linecap="round"/>
<path id="Vector 33" d="M79.0898 40L79.0898 29.0913" stroke="#C014EB" stroke-width="5.45455" stroke-linecap="round"/>
<path id="Vector 34" d="M73.6367 34.5469L84.5454 34.5469" stroke="#C014EB" stroke-width="5.45455" stroke-linecap="round"/>
</g>
</svg>
