<svg width="120" height="120" viewBox="0 0 120 120" fill="none" xmlns="http://www.w3.org/2000/svg">
<path d="M54.2439 8.86252C57.7796 6.77011 62.2219 6.77012 65.7576 8.86252L101.965 30.2903C105.261 32.2414 107.273 35.7206 107.273 39.4709V57.0901C107.273 57.734 107.214 58.3643 107.101 58.9768C106.977 59.6508 106.977 60.3438 107.1 61.0178C107.213 61.6294 107.272 62.2587 107.272 62.9016V80.5236C107.272 84.2726 105.262 87.7509 101.967 89.7024L65.7615 111.142C62.224 113.237 57.7782 113.237 54.241 111.142L18.032 89.6936C14.7374 87.7419 12.7273 84.2636 12.7273 80.5149V62.8947C12.7273 62.2498 12.7869 61.6184 12.8999 61.0049C13.0238 60.3316 13.0242 59.6393 12.9012 58.9659C12.7899 58.3562 12.7312 57.7288 12.7312 57.0881V39.469C12.7312 35.7186 14.7429 32.2394 18.0398 30.2883L54.2439 8.86252Z" fill="#CCE2FF"/>
<path d="M72.7273 56.3635H50.9092C43.8801 56.3635 38.1819 62.0617 38.1819 69.0908V74.5453C38.1819 77.5578 40.624 79.9999 43.6364 79.9999H76.3637C79.3762 79.9999 81.8182 77.5578 81.8182 74.5453V73.6363" stroke="#123CD3" stroke-width="5.45455" stroke-linecap="round" stroke-linejoin="round"/>
<path d="M59.9999 54.5455H60.7791C66.3737 54.5455 70.909 50.0102 70.909 44.4156V43.6364C70.909 37.6115 66.0248 32.7273 59.9999 32.7273C53.975 32.7273 49.0908 37.6115 49.0908 43.6364C49.0908 49.6613 53.975 54.5455 59.9999 54.5455Z" stroke="#123CD3" stroke-width="5.45455" stroke-linejoin="round"/>
<path d="M74.5455 69.0889L70 64.5435" stroke="#C014EB" stroke-width="5.45455" stroke-linecap="round"/>
<path d="M85.4546 58.1799L74.5455 69.089" stroke="#C014EB" stroke-width="5.45455" stroke-linecap="round"/>
</svg>
