<svg width="120" height="120" viewBox="0 0 120 120" fill="none" xmlns="http://www.w3.org/2000/svg">
<g id="Frame 2000919449">
<rect width="120" height="120" fill="white"/>
<path id="Union" fill-rule="evenodd" clip-rule="evenodd" d="M66.5078 2.15807L107.463 26.3963C111.193 28.6033 113.469 32.5389 113.469 36.7812V56.7112C113.469 57.484 113.394 58.2401 113.252 58.9729C113.122 59.6456 113.123 60.3389 113.254 61.0114C113.397 61.7485 113.472 62.509 113.472 63.2867V83.2194C113.472 87.4604 111.198 91.3951 107.47 93.6025L66.5165 117.855C62.515 120.224 57.4862 120.224 53.485 117.854L12.527 93.5926C8.80015 91.385 6.52624 87.4507 6.52624 83.2102L6.52624 63.2789C6.52624 62.5049 6.60068 61.7477 6.74299 61.0139C6.87331 60.3418 6.87322 59.6493 6.74273 58.9773C6.60004 58.2425 6.5254 57.4843 6.5254 56.7092L6.52539 36.7788C6.52539 32.5365 8.80122 28.6008 12.5306 26.3938L53.4836 2.15799C57.4831 -0.208942 62.5082 -0.208911 66.5078 2.15807Z" fill="#CCE2FF"/>
<path id="Vector 16" d="M30.9092 83.6367H89.091" stroke="#123CD3" stroke-width="5.45455" stroke-linecap="round"/>
<path id="Rectangle 7356" d="M40.9089 36.3647C40.9089 34.8585 42.13 33.6374 43.6362 33.6374H76.3635C77.8697 33.6374 79.0907 34.8585 79.0907 36.3647V83.6374H59.9998H40.9089V36.3647Z" stroke="#123CD3" stroke-width="5.45455" stroke-linejoin="round"/>
<g id="Group 625760">
<path id="Vector 29" d="M57.2729 56.3647L51.8184 50.9102" stroke="#C014EB" stroke-width="5.45455" stroke-linecap="round"/>
<path id="Vector 30" d="M68.1816 45.457L57.2726 56.3661" stroke="#C014EB" stroke-width="5.45455" stroke-linecap="round"/>
</g>
<g id="Group 625761">
<path id="Vector 29_2" d="M57.2729 72.728L51.8184 67.2734" stroke="#C014EB" stroke-width="5.45455" stroke-linecap="round"/>
<path id="Vector 30_2" d="M68.1816 61.8203L57.2726 72.7294" stroke="#C014EB" stroke-width="5.45455" stroke-linecap="round"/>
</g>
</g>
</svg>
