<svg width="120" height="120" viewBox="0 0 120 120" fill="none" xmlns="http://www.w3.org/2000/svg">
<path d="M53.4836 2.15608C57.4832 -0.210853 62.5085 -0.210906 66.5081 2.15608L107.464 26.3944C111.193 28.6015 113.469 32.537 113.469 36.7791V56.7088C113.469 57.482 113.394 58.2385 113.252 58.9716C113.122 59.6443 113.122 60.3376 113.253 61.0101C113.397 61.7471 113.473 62.5076 113.473 63.285V83.2176C113.473 87.4584 111.198 91.393 107.471 93.6004L66.5168 117.852C62.5154 120.222 57.4868 120.221 53.4856 117.851L12.5276 93.5906C8.80071 91.383 6.52661 87.4484 6.52661 83.2078V63.2772C6.52661 62.503 6.60074 61.7455 6.74288 61.0113C6.87299 60.3393 6.87294 59.6467 6.74259 58.9747C6.60007 58.24 6.52563 57.4818 6.52563 56.7069V36.7772C6.52564 32.5349 8.80121 28.5985 12.5305 26.3914L53.4836 2.15608Z" fill="#CCE2FF"/>
<path d="M30.9091 83.6365H89.0909" stroke="#123CD3" stroke-width="5.45455" stroke-linecap="round"/>
<path d="M43.6359 33.6367H76.3634C77.8695 33.6367 79.0907 34.8573 79.0909 36.3633V83.6367H40.9093V36.3633C40.9095 34.8574 42.13 33.637 43.6359 33.6367Z" stroke="#123CD3" stroke-width="5.45455" stroke-linejoin="round"/>
<path d="M57.2725 56.3652L51.818 50.9106" stroke="#C014EB" stroke-width="5.45455" stroke-linecap="round"/>
<path d="M68.1816 45.4561L57.2726 56.3651" stroke="#C014EB" stroke-width="5.45455" stroke-linecap="round"/>
<path d="M57.2725 72.7292L51.818 67.2747" stroke="#C014EB" stroke-width="5.45455" stroke-linecap="round"/>
<path d="M68.1816 61.8201L57.2726 72.7292" stroke="#C014EB" stroke-width="5.45455" stroke-linecap="round"/>
</svg>
