<svg width="60" height="60" viewBox="0 0 60 60" fill="none" xmlns="http://www.w3.org/2000/svg">
<path d="M27.1211 4.43117C28.889 3.38493 31.111 3.38491 32.8789 4.43117L50.9814 15.145C52.6299 16.1206 53.6357 17.8607 53.6357 19.7359V28.5454C53.6357 28.8672 53.6061 29.1822 53.5499 29.4883C53.488 29.8253 53.488 30.1718 53.5499 30.5088C53.606 30.8146 53.6357 31.1293 53.6357 31.4507V40.2612C53.6357 42.1359 52.6301 43.8754 50.9824 44.8511L32.8809 55.5708C31.1121 56.6182 28.8887 56.6185 27.1201 55.5708L9.01563 44.8472C7.36831 43.8714 6.36328 42.1317 6.36328 40.2573V31.4478C6.36328 31.1255 6.39295 30.81 6.44925 30.5033C6.51106 30.1667 6.5112 29.8206 6.44989 29.4838C6.39436 29.1788 6.36525 28.865 6.36523 28.5444V19.7349C6.36524 17.8597 7.37106 16.1196 9.01953 15.1441L27.1211 4.43117Z" fill="#CCE2FF"/>
<path d="M36.3626 28.1816H25.4535C21.9389 28.1816 19.0898 31.0307 19.0898 34.5453V37.2725C19.0898 38.7788 20.3109 39.9998 21.8171 39.9998H38.1808C39.687 39.9998 40.908 38.7788 40.908 37.2726V36.818" stroke="#123CD3" stroke-width="2.72727" stroke-linecap="round" stroke-linejoin="round"/>
<path d="M30.0014 27.2724H30.391C33.1883 27.2724 35.456 25.0047 35.456 22.2074V21.8178C35.456 18.8054 33.0139 16.3633 30.0014 16.3633C26.989 16.3633 24.5469 18.8054 24.5469 21.8178C24.5469 24.8303 26.989 27.2724 30.0014 27.2724Z" stroke="#123CD3" stroke-width="2.72727" stroke-linejoin="round"/>
<path d="M37.2727 34.5442L35 32.2715" stroke="#C014EB" stroke-width="2.72727" stroke-linecap="round"/>
<path d="M42.7266 29.0898L37.272 34.5444" stroke="#C014EB" stroke-width="2.72727" stroke-linecap="round"/>
</svg>
