<svg width="116" height="33" viewBox="0 0 116 33" fill="none" xmlns="http://www.w3.org/2000/svg">
<path d="M40.7063 13.6628C41.2314 12.6832 41.9622 11.9197 42.9014 11.3725C43.8398 10.8256 44.9036 10.5518 46.0921 10.5518C47.5495 10.5518 48.797 10.9489 49.8343 11.7423C50.8717 12.5357 51.5658 13.6179 51.915 14.9885H48.6279C48.3829 14.4593 48.0362 14.0569 47.5871 13.7799C47.1389 13.5034 46.6283 13.3652 46.0571 13.3652C45.1367 13.3652 44.3905 13.6963 43.8193 14.3571C43.2481 15.0184 42.9621 15.9021 42.9621 17.0081C42.9621 18.1145 43.2481 18.9981 43.8193 19.659C44.3905 20.3203 45.1367 20.651 46.0571 20.651C46.6283 20.651 47.1389 20.5127 47.5871 20.2362C48.0362 19.9597 48.3829 19.5573 48.6279 19.0281H51.915C51.5658 20.3987 50.8717 21.4778 49.8343 22.265C48.7969 23.0527 47.5495 23.4463 46.0921 23.4463C44.9036 23.4463 43.8397 23.1729 42.9014 22.6256C41.9622 22.0788 41.2314 21.3184 40.7063 20.3445C40.182 19.3706 39.9199 18.2585 39.9199 17.0081C39.9199 15.7577 40.182 14.6429 40.7063 13.6628Z" fill="#123CD3"/>
<path d="M53.7251 15.5833C54.1042 14.8023 54.6199 14.2008 55.2731 13.7799C55.9254 13.3595 56.6537 13.149 57.4588 13.149C58.1461 13.149 58.7497 13.293 59.268 13.5818C59.7871 13.8702 60.1859 14.2488 60.4659 14.7178V13.293H63.4559V23.3561H60.4659V21.9313C60.1748 22.4002 59.7692 22.7789 59.251 23.0677C58.7318 23.3561 58.1282 23.5005 57.4409 23.5005C56.6477 23.5005 55.9254 23.2869 55.2731 22.8603C54.6199 22.4337 54.1042 21.8261 53.7251 21.0389C53.346 20.2512 53.1565 19.3407 53.1565 18.3065C53.1565 17.2727 53.346 16.3653 53.7251 15.5833ZM59.8452 16.5031C59.4311 16.0584 58.9273 15.8361 58.3331 15.8361C57.738 15.8361 57.2334 16.0553 56.8201 16.4943C56.406 16.9332 56.1994 17.5373 56.1994 18.3065C56.1994 19.0761 56.406 19.6863 56.8201 20.1372C57.2334 20.588 57.738 20.8134 58.3331 20.8134C58.9273 20.8134 59.4311 20.5911 59.8452 20.146C60.2593 19.7013 60.4659 19.0941 60.4659 18.3245C60.4659 17.5554 60.2593 16.9482 59.8452 16.5031Z" fill="#123CD3"/>
<path d="M71.0616 20.7412V23.3561H69.5401C68.4566 23.3561 67.6105 23.0827 67.0051 22.5354C66.3989 21.9886 66.0958 21.0961 66.0958 19.8576V15.8541H64.9065V13.293H66.0958V10.8406H69.0859V13.293H71.0445V15.8541H69.0859V19.8937C69.0859 20.1944 69.1559 20.4106 69.2959 20.5427C69.4351 20.6752 69.6682 20.7412 69.9952 20.7412H71.0616Z" fill="#123CD3"/>
<path d="M72.6966 15.5833C73.0757 14.8023 73.5913 14.2008 74.2445 13.7799C74.8968 13.3595 75.6251 13.149 76.4303 13.149C77.1176 13.149 77.7212 13.293 78.2395 13.5818C78.7586 13.8702 79.1573 14.2488 79.4374 14.7178V13.293H82.4274V23.3561H79.4374V21.9313C79.1462 22.4002 78.7407 22.7789 78.2224 23.0677C77.7033 23.3561 77.0996 23.5005 76.4123 23.5005C75.6192 23.5005 74.8968 23.2869 74.2445 22.8603C73.5914 22.4337 73.0757 21.8261 72.6966 21.0389C72.3175 20.2512 72.1279 19.3407 72.1279 18.3065C72.1279 17.2727 72.3175 16.3653 72.6966 15.5833ZM78.8167 16.5031C78.4026 16.0584 77.8988 15.8361 77.3046 15.8361C76.7095 15.8361 76.2049 16.0553 75.7916 16.4943C75.3775 16.9332 75.1709 17.5373 75.1709 18.3065C75.1709 19.0761 75.3775 19.6863 75.7916 20.1372C76.2048 20.588 76.7095 20.8134 77.3046 20.8134C77.8988 20.8134 78.4026 20.5911 78.8167 20.146C79.2307 19.7013 79.4374 19.0941 79.4374 18.3245C79.4374 17.5554 79.2307 16.9482 78.8167 16.5031Z" fill="#123CD3"/>
<path d="M87.5862 10.0111V23.3561H84.5962V10.0111H87.5862Z" fill="#123CD3"/>
<path d="M99.7205 13.293L93.6004 28.1349H90.3832L92.6211 23.0135L88.6526 13.293H91.9918L94.2476 19.5868L96.4863 13.293H99.7205Z" fill="#123CD3"/>
<path d="M102.5 23.0496C101.836 22.7489 101.312 22.3373 100.927 21.8142C100.543 21.2912 100.326 20.7051 100.28 20.0557H103.235C103.27 20.4049 103.428 20.6871 103.707 20.9033C103.987 21.1199 104.331 21.2282 104.739 21.2282C105.112 21.2282 105.4 21.1529 105.605 21.0028C105.808 20.8526 105.91 20.6571 105.91 20.4167C105.91 20.1279 105.764 19.9148 105.473 19.7761C105.181 19.6383 104.71 19.4851 104.057 19.3165C103.357 19.1483 102.774 18.9709 102.308 18.7846C101.842 18.5984 101.44 18.3038 101.102 17.901C100.764 17.4981 100.595 16.9539 100.595 16.2688C100.595 15.6916 100.749 15.1659 101.058 14.6909C101.366 14.2158 101.822 13.8403 102.422 13.5638C103.022 13.2873 103.736 13.149 104.564 13.149C105.788 13.149 106.752 13.4616 107.457 14.0868C108.163 14.712 108.568 15.5415 108.673 16.5753H105.91C105.863 16.2266 105.715 15.9505 105.465 15.7458C105.214 15.5415 104.884 15.4394 104.477 15.4394C104.127 15.4394 103.859 15.5085 103.672 15.6467C103.486 15.785 103.393 15.9743 103.393 16.2147C103.393 16.5031 103.541 16.7197 103.838 16.8637C104.135 17.0081 104.599 17.1525 105.228 17.2965C105.951 17.4893 106.54 17.6786 106.995 17.8649C107.449 18.0511 107.849 18.3518 108.193 18.7666C108.536 19.1813 108.713 19.7374 108.725 20.4344C108.725 21.0239 108.565 21.55 108.245 22.0123C107.924 22.4755 107.463 22.8392 106.863 23.1038C106.263 23.368 105.566 23.5005 104.774 23.5005C103.923 23.5005 103.165 23.3504 102.5 23.0496Z" fill="#123CD3"/>
<path d="M116 20.7412V23.3561H114.478C113.395 23.3561 112.549 23.0827 111.943 22.5354C111.337 21.9886 111.034 21.0961 111.034 19.8576V15.8541H109.845V13.293H111.034V10.8406H114.024V13.293H115.983V15.8541H114.024V19.8937C114.024 20.1944 114.094 20.4106 114.234 20.5427C114.373 20.6752 114.606 20.7412 114.933 20.7412H116Z" fill="#123CD3"/>
<path d="M14.0924 25.1496C14.0806 25.1434 14.1043 25.1572 14.0924 25.1496C11.9415 24.1305 10.1932 22.1158 9.30294 19.8425H3.17456C5.36693 26.2575 11.2968 30.8545 18.2666 30.8545C22.044 30.8545 25.5148 29.504 28.2524 27.2445C28.3472 27.1329 28.4405 27.0199 28.5323 26.9068C27.8524 26.9985 27.1591 27.0458 26.454 27.0458C24.1387 27.0458 21.9388 26.5386 19.9538 25.6266C19.305 25.7748 18.631 25.8527 17.9392 25.8527C17.1408 25.8527 16.3552 25.8993 15.6161 25.7037C15.6117 25.7037 15.6205 25.7052 15.6161 25.7037" fill="url(#paint0_radial_5546_226348)"/>
<path d="M14.0925 25.1496C14.5724 25.3726 15.0962 25.5662 15.6161 25.7037C15.6117 25.7037 15.6205 25.7053 15.6161 25.7037C16.3553 25.8993 17.1408 25.8527 17.9392 25.8527C18.631 25.8527 19.3051 25.7748 19.9539 25.6266C19.7109 25.5166 19.4724 25.3989 19.2384 25.2752C16.8193 24.0133 14.7543 22.1357 13.2345 19.8425H9.30298C10.1932 22.1158 11.9416 24.1306 14.0925 25.1496Z" fill="url(#paint1_radial_5546_226348)"/>
<path d="M28.2523 27.2444C26.0525 29.8263 23.1135 31.7055 19.7657 32.5335C12.6937 34.2828 5.60395 30.9783 1.99243 24.8642C1.0977 23.3517 0.41626 21.6666 0 19.8425H3.17455C5.36694 26.2575 11.2968 30.8545 18.2665 30.8545C22.044 30.8545 25.5148 29.504 28.2523 27.2444Z" fill="url(#paint2_linear_5546_226348)"/>
<path d="M31.9453 19.8425C31.3409 22.4931 30.1558 24.8978 28.5323 26.9068C27.8524 26.9985 27.1591 27.0458 26.454 27.0458C24.1386 27.0458 21.9388 26.5386 19.9538 25.6266C19.7108 25.5166 19.4724 25.3989 19.2383 25.2752C16.8192 24.0132 14.7542 22.1356 13.2344 19.8425L31.9453 19.8425Z" fill="url(#paint3_linear_5546_226348)"/>
<path d="M31.4372 12.0173C29.07 6.92531 24.2422 3.2816 18.542 2.72093C18.5405 2.72093 18.5391 2.72093 18.5391 2.72093C17.3451 2.49023 16.1008 2.42301 14.8312 2.53759C13.9246 2.62009 13.0447 2.7912 12.2004 3.04634C9.38875 3.88966 6.97414 5.63282 5.25874 7.93974C3.52408 10.2696 2.50491 13.1754 2.50937 16.3057V17.5478H0.050293V16.3057C0.0517743 10.9968 2.53748 6.2806 6.38455 3.30606C6.38603 3.30148 6.38603 3.30148 6.38751 3.30301C8.57103 1.61179 11.1945 0.482778 14.0505 0.12375C14.6979 0.0412502 15.3571 0 16.0252 0C23.392 -1.52777e-05 29.5929 5.09199 31.4372 12.0173Z" fill="url(#paint4_linear_5546_226348)"/>
<path d="M7.51205 15.0621H10.0037C10.1311 14.396 10.3577 13.7742 10.6644 13.212C11.9206 10.9036 14.5307 9.57445 17.2075 10.1076C19.6902 10.6011 21.5775 12.5795 22.0559 15.0346C20.8812 13.4672 19.0414 12.4588 16.9734 12.4588C16.6238 12.4588 16.2802 12.4879 15.9454 12.5444C15.9439 12.5444 15.9439 12.5444 15.9424 12.5444C15.1454 12.5658 14.4092 12.8484 13.8167 13.3129C13.8152 13.3144 13.8152 13.3144 13.8137 13.3144C13.8122 13.3159 13.8122 13.3159 13.8107 13.3174C12.9308 14.0049 12.365 15.0881 12.365 16.3057V17.5478H4.96411V16.3057C4.97002 11.9226 7.42315 8.12613 11.0021 6.26074C12.5131 5.4709 14.2255 5.02784 16.0402 5.0309C20.3894 5.03701 24.198 7.61891 25.9919 11.4276C24.3802 8.56919 21.3775 6.64727 17.9393 6.64727C16.1365 6.64727 14.4522 7.17587 13.0271 8.09252C13.0256 8.09252 13.0256 8.09252 13.0242 8.09405H13.0227C12.0894 8.44849 11.2302 8.96334 10.4807 9.6111C8.91785 10.9555 7.8246 12.8637 7.51205 15.0621Z" fill="url(#paint5_linear_5546_226348)"/>
<path d="M22.1744 16.3057V17.5478H19.7405V16.3057C19.7405 14.2249 18.0888 12.5398 16.052 12.5413C16.0164 12.5413 15.9809 12.5413 15.9453 12.5444C16.2801 12.4879 16.6238 12.4588 16.9734 12.4588C19.0413 12.4588 20.8812 13.4672 22.0559 15.0346V15.0361C22.1374 15.4471 22.1774 15.8718 22.1744 16.3057Z" fill="url(#paint6_linear_5546_226348)"/>
<path d="M31.9973 16.3057V17.5478H24.6246V16.3057C24.6142 11.4551 20.7553 7.53337 16.0061 7.54254C14.9632 7.54406 13.9589 7.73808 13.0271 8.09252C14.4521 7.17587 16.1365 6.64727 17.9392 6.64727C21.3775 6.64727 24.3802 8.56919 25.9919 11.4276C26.5192 12.5444 26.8733 13.7681 27.0155 15.0621H29.4849C28.9397 8.76931 24.3357 3.83926 18.5422 2.72095C24.2424 3.28163 29.0701 6.92533 31.4373 12.0173V12.0188C31.8018 13.3847 31.9973 14.8223 31.9973 16.3057Z" fill="url(#paint7_linear_5546_226348)"/>
<mask id="mask0_5546_226348" style="mask-type:luminance" maskUnits="userSpaceOnUse" x="0" y="0" width="32" height="33">
<path d="M28.2523 27.2444C26.0525 29.8263 23.1135 31.7055 19.7657 32.5335C12.6937 34.2828 5.60395 30.9783 1.99243 24.8642C1.0977 23.3517 0.41626 21.6666 0 19.8425H3.17455C5.36694 26.2575 11.2968 30.8545 18.2665 30.8545C22.044 30.8545 25.5148 29.504 28.2523 27.2444ZM13.2344 19.8425C14.7543 22.1356 16.8193 24.0133 19.2383 25.2752C19.4724 25.3989 19.7108 25.5166 19.9538 25.6266C21.9388 26.5386 24.1386 27.0458 26.454 27.0458C27.1591 27.0458 27.8524 26.9985 28.5323 26.9068C30.1559 24.8978 31.3409 22.4931 31.9453 19.8425H13.2344V19.8425ZM16.0253 0C15.3572 0 14.698 0.0412496 14.0506 0.12375C11.1946 0.482762 8.5711 1.61177 6.38759 3.30301C6.38611 3.30148 6.38611 3.30148 6.38462 3.30606C2.53756 6.2806 0.0518473 10.9968 0.050366 16.3057V17.5478H2.50942V16.3057C2.50498 13.1754 3.52415 10.2696 5.2588 7.93973C6.9742 5.63284 9.38881 3.88967 12.2004 3.04634C13.0448 2.7912 13.9247 2.62009 14.8313 2.53759C16.1008 2.42301 17.3451 2.49023 18.5391 2.72092C18.5391 2.72092 18.5406 2.72092 18.5421 2.72092C24.2423 3.2816 29.07 6.92531 31.4372 12.0173C29.593 5.09201 23.392 0 16.0253 0ZM10.4806 9.61111C11.2301 8.96335 12.0893 8.44849 13.0226 8.09406H13.024C13.0255 8.09253 13.0255 8.09253 13.027 8.09253C14.4521 7.17588 16.1364 6.64728 17.9391 6.64728C21.3774 6.64728 24.3801 8.56919 25.9918 11.4276C24.1979 7.61893 20.3893 5.03702 16.0401 5.03091C14.2254 5.02785 12.513 5.47091 11.002 6.26075C7.42304 8.12614 4.9699 11.9226 4.96399 16.3057V17.5478H12.3648V16.3057C12.3648 15.0881 12.9307 14.0049 13.8106 13.3175C13.8121 13.3159 13.8121 13.3159 13.8136 13.3144C13.8151 13.3144 13.8151 13.3144 13.8165 13.3129C14.4091 12.8484 15.1453 12.5658 15.9423 12.5444C15.9438 12.5444 15.9438 12.5444 15.9453 12.5444C16.28 12.4879 16.6237 12.4589 16.9733 12.4589C19.0413 12.4589 20.8811 13.4672 22.0558 15.0346C21.5773 12.5795 19.6901 10.6011 17.2074 10.1076C14.5305 9.57446 11.9204 10.9036 10.6642 13.212C10.3576 13.7742 10.1309 14.396 10.0035 15.0621H7.51193C7.8245 12.8637 8.91775 10.9555 10.4806 9.61111Z" fill="white"/>
</mask>
<g mask="url(#mask0_5546_226348)">
<path d="M28.6716 30.1895C32.6032 30.1895 35.7904 26.9024 35.7904 22.8476C35.7904 18.7927 32.6032 15.5056 28.6716 15.5056C24.74 15.5056 21.5527 18.7927 21.5527 22.8476C21.5527 26.9024 24.74 30.1895 28.6716 30.1895Z" fill="url(#paint8_radial_5546_226348)"/>
<path d="M6.89482 18.3598C11.9092 18.3598 15.9742 14.1674 15.9742 8.99587C15.9742 3.82431 11.9092 -0.368073 6.89482 -0.368073C1.88041 -0.368073 -2.18457 3.82431 -2.18457 8.99587C-2.18457 14.1674 1.88041 18.3598 6.89482 18.3598Z" fill="url(#paint9_radial_5546_226348)"/>
</g>
<defs>
<radialGradient id="paint0_radial_5546_226348" cx="0" cy="0" r="1" gradientUnits="userSpaceOnUse" gradientTransform="translate(14.345 23.0225) scale(18.1545 18.7234)">
<stop stop-color="#2A41EA"/>
<stop offset="0.2358" stop-color="#2940E5"/>
<stop offset="1" stop-color="#161832"/>
</radialGradient>
<radialGradient id="paint1_radial_5546_226348" cx="0" cy="0" r="1" gradientUnits="userSpaceOnUse" gradientTransform="translate(16.8158 19.1908) scale(10.3947 10.7205)">
<stop stop-color="#2A41EA"/>
<stop offset="1" stop-color="#161832"/>
</radialGradient>
<linearGradient id="paint2_linear_5546_226348" x1="0" y1="26.4212" x2="28.2524" y2="26.4212" gradientUnits="userSpaceOnUse">
<stop stop-color="#2C4DDF"/>
<stop offset="1" stop-color="#DA67C6"/>
</linearGradient>
<linearGradient id="paint3_linear_5546_226348" x1="16.5188" y1="23.4441" x2="34.5048" y2="23.4441" gradientUnits="userSpaceOnUse">
<stop stop-color="#2C4DDF"/>
<stop offset="1" stop-color="#DA67C6"/>
</linearGradient>
<linearGradient id="paint4_linear_5546_226348" x1="0.050293" y1="8.77389" x2="31.4372" y2="8.77389" gradientUnits="userSpaceOnUse">
<stop stop-color="#2C4DDF"/>
<stop offset="1" stop-color="#DA67C6"/>
</linearGradient>
<linearGradient id="paint5_linear_5546_226348" x1="6.52563" y1="11.2893" x2="27.5534" y2="11.2893" gradientUnits="userSpaceOnUse">
<stop stop-color="#283ECD"/>
<stop offset="0.8714" stop-color="#DA67C6"/>
</linearGradient>
<linearGradient id="paint6_linear_5546_226348" x1="15.9453" y1="15.0033" x2="22.1746" y2="15.0033" gradientUnits="userSpaceOnUse">
<stop stop-color="#161832"/>
<stop offset="1" stop-color="#2336C2"/>
</linearGradient>
<linearGradient id="paint7_linear_5546_226348" x1="13.0271" y1="10.1344" x2="31.9973" y2="10.1344" gradientUnits="userSpaceOnUse">
<stop stop-color="#161832"/>
<stop offset="1" stop-color="#2336C2"/>
</linearGradient>
<radialGradient id="paint8_radial_5546_226348" cx="0" cy="0" r="1" gradientUnits="userSpaceOnUse" gradientTransform="translate(30.1466 21.5485) scale(5.6124 5.78829)">
<stop stop-color="white" stop-opacity="0.6"/>
<stop offset="0.991" stop-color="white" stop-opacity="0"/>
</radialGradient>
<radialGradient id="paint9_radial_5546_226348" cx="0" cy="0" r="1" gradientUnits="userSpaceOnUse" gradientTransform="translate(7.36015 8.75525) scale(9.0794 9.36395)">
<stop stop-color="white" stop-opacity="0.6"/>
<stop offset="0.991" stop-color="white" stop-opacity="0"/>
</radialGradient>
</defs>
</svg>
