<svg width="116" height="33" viewBox="0 0 116 33" fill="none" xmlns="http://www.w3.org/2000/svg">
<path d="M40.7063 13.2102C41.2314 12.2316 41.9622 11.469 42.9014 10.9224C43.8398 10.3761 44.9036 10.1026 46.0921 10.1026C47.5495 10.1026 48.797 10.4993 49.8343 11.2918C50.8717 12.0843 51.5658 13.1653 51.915 14.5344H48.6279C48.3829 14.0057 48.0362 13.6038 47.5871 13.3271C47.1389 13.0509 46.6283 12.9129 46.0571 12.9129C45.1367 12.9129 44.3905 13.2436 43.8193 13.9037C43.2481 14.5643 42.9621 15.4469 42.9621 16.5517C42.9621 17.6569 43.2481 18.5395 43.8193 19.1997C44.3905 19.8602 45.1367 20.1905 46.0571 20.1905C46.6283 20.1905 47.1389 20.0524 47.5871 19.7762C48.0362 19.5001 48.3829 19.0981 48.6279 18.5695H51.915C51.5658 19.9385 50.8717 21.0165 49.8343 21.8028C48.7969 22.5896 47.5495 22.9828 46.0921 22.9828C44.9036 22.9828 43.8397 22.7097 42.9014 22.163C41.9622 21.6168 41.2314 20.8573 40.7063 19.8844C40.182 18.9116 39.9199 17.8007 39.9199 16.5517C39.9199 15.3027 40.182 14.1891 40.7063 13.2102Z" fill="white"/>
<path d="M53.7251 15.1285C54.1042 14.3483 54.6199 13.7476 55.2731 13.3271C55.9254 12.9071 56.6537 12.6969 57.4588 12.6969C58.1461 12.6969 58.7497 12.8407 59.268 13.1292C59.7871 13.4173 60.1859 13.7955 60.4659 14.2639V12.8407H63.4559V22.8926H60.4659V21.4694C60.1748 21.9378 59.7692 22.316 59.251 22.6045C58.7318 22.8926 58.1282 23.0368 57.4409 23.0368C56.6477 23.0368 55.9254 22.8235 55.2731 22.3974C54.6199 21.9712 54.1042 21.3643 53.7251 20.578C53.346 19.7912 53.1565 18.8817 53.1565 17.8486C53.1565 16.816 53.346 15.9096 53.7251 15.1285ZM59.8452 16.0472C59.4311 15.6031 58.9273 15.381 58.3331 15.381C57.738 15.381 57.2334 15.6 56.8201 16.0385C56.406 16.4769 56.1994 17.0803 56.1994 17.8486C56.1994 18.6174 56.406 19.2269 56.8201 19.6773C57.2334 20.1276 57.738 20.3528 58.3331 20.3528C58.9273 20.3528 59.4311 20.1307 59.8452 19.6861C60.2593 19.2419 60.4659 18.6354 60.4659 17.8667C60.4659 17.0983 60.2593 16.4919 59.8452 16.0472Z" fill="white"/>
<path d="M71.0616 20.2807V22.8926H69.5401C68.4566 22.8926 67.6105 22.6195 67.0051 22.0728C66.3989 21.5266 66.0958 20.6352 66.0958 19.398V15.399H64.9065V12.8407H66.0958V10.3911H69.0859V12.8407H71.0445V15.399H69.0859V19.4341C69.0859 19.7345 69.1559 19.9504 69.2959 20.0823C69.4351 20.2147 69.6682 20.2807 69.9952 20.2807H71.0616Z" fill="white"/>
<path d="M72.6966 15.1285C73.0757 14.3483 73.5913 13.7476 74.2445 13.3271C74.8968 12.9071 75.6251 12.6969 76.4303 12.6969C77.1176 12.6969 77.7212 12.8407 78.2395 13.1292C78.7586 13.4173 79.1573 13.7955 79.4374 14.2639V12.8407H82.4274V22.8926H79.4374V21.4694C79.1462 21.9378 78.7407 22.316 78.2224 22.6045C77.7033 22.8926 77.0996 23.0368 76.4123 23.0368C75.6192 23.0368 74.8968 22.8235 74.2445 22.3974C73.5914 21.9712 73.0757 21.3643 72.6966 20.578C72.3175 19.7912 72.1279 18.8817 72.1279 17.8486C72.1279 16.816 72.3175 15.9096 72.6966 15.1285ZM78.8167 16.0472C78.4026 15.6031 77.8988 15.381 77.3046 15.381C76.7095 15.381 76.2049 15.6 75.7916 16.0385C75.3775 16.4769 75.1709 17.0803 75.1709 17.8486C75.1709 18.6174 75.3775 19.2269 75.7916 19.6773C76.2048 20.1276 76.7095 20.3528 77.3046 20.3528C77.8988 20.3528 78.4026 20.1307 78.8167 19.6861C79.2307 19.2419 79.4374 18.6354 79.4374 17.8667C79.4374 17.0983 79.2307 16.4919 78.8167 16.0472Z" fill="white"/>
<path d="M87.5862 9.56253V22.8926H84.5962V9.56253H87.5862Z" fill="white"/>
<path d="M99.7205 12.8407L93.6004 27.6661H90.3832L92.6211 22.5505L88.6526 12.8407H91.9918L94.2476 19.1276L96.4863 12.8407H99.7205Z" fill="white"/>
<path d="M102.5 22.5865C101.836 22.2861 101.312 21.8749 100.927 21.3524C100.543 20.83 100.326 20.2446 100.28 19.5959H103.235C103.27 19.9447 103.428 20.2266 103.707 20.4425C103.987 20.6589 104.331 20.7671 104.739 20.7671C105.112 20.7671 105.4 20.6919 105.605 20.5419C105.808 20.3919 105.91 20.1966 105.91 19.9565C105.91 19.668 105.764 19.4552 105.473 19.3166C105.181 19.179 104.71 19.0259 104.057 18.8575C103.357 18.6895 102.774 18.5123 102.308 18.3262C101.842 18.1402 101.44 17.846 101.102 17.4436C100.764 17.0412 100.595 16.4976 100.595 15.8133C100.595 15.2367 100.749 14.7116 101.058 14.237C101.366 13.7625 101.822 13.3874 102.422 13.1112C103.022 12.835 103.736 12.6969 104.564 12.6969C105.788 12.6969 106.752 13.0092 107.457 13.6337C108.163 14.2582 108.568 15.0867 108.673 16.1194H105.91C105.863 15.771 105.715 15.4953 105.465 15.2908C105.214 15.0867 104.884 14.9847 104.477 14.9847C104.127 14.9847 103.859 15.0537 103.672 15.1918C103.486 15.3299 103.393 15.519 103.393 15.7592C103.393 16.0472 103.541 16.2636 103.838 16.4074C104.135 16.5517 104.599 16.6959 105.228 16.8397C105.951 17.0324 106.54 17.2215 106.995 17.4075C107.449 17.5935 107.849 17.8939 108.193 18.3082C108.536 18.7225 108.713 19.278 108.725 19.9741C108.725 20.563 108.565 21.0886 108.245 21.5503C107.924 22.013 107.463 22.3763 106.863 22.6406C106.263 22.9045 105.566 23.0368 104.774 23.0368C103.923 23.0368 103.165 22.8869 102.5 22.5865Z" fill="white"/>
<path d="M116 20.2807V22.8926H114.478C113.395 22.8926 112.549 22.6195 111.943 22.0728C111.337 21.5266 111.034 20.6352 111.034 19.398V15.399H109.845V12.8407H111.034V10.3911H114.024V12.8407H115.983V15.399H114.024V19.4341C114.024 19.7345 114.094 19.9504 114.234 20.0823C114.373 20.2147 114.606 20.2807 114.933 20.2807H116Z" fill="white"/>
<path d="M14.0924 25.1215C14.0806 25.1154 14.1043 25.1292 14.0924 25.1215C11.9415 24.1037 10.1932 22.0912 9.30294 19.8204H3.17456C5.36693 26.2283 11.2968 30.8202 18.2666 30.8202C22.044 30.8202 25.5148 29.4711 28.2524 27.2141C28.3472 27.1027 28.4405 26.9898 28.5323 26.8768C27.8524 26.9684 27.1591 27.0157 26.454 27.0157C24.1387 27.0157 21.9388 26.5091 19.9538 25.598C19.305 25.746 18.631 25.8239 17.9392 25.8239C17.1408 25.8239 16.3552 25.8704 15.6161 25.6751C15.6117 25.6751 15.6205 25.6766 15.6161 25.6751" fill="white"/>
<path d="M14.0924 25.1215C14.5723 25.3444 15.0961 25.5378 15.616 25.6751C15.6116 25.6751 15.6204 25.6766 15.616 25.6751C16.3551 25.8704 17.1407 25.8239 17.9391 25.8239C18.6309 25.8239 19.3049 25.7461 19.9538 25.598C19.7108 25.4882 19.4723 25.3707 19.2383 25.2471C16.8192 23.9865 14.7542 22.111 13.2344 19.8204H9.30286C10.1931 22.0912 11.9414 24.1037 14.0924 25.1215Z" fill="white"/>
<path d="M28.2523 27.2141C26.0525 29.7931 23.1135 31.6702 19.7657 32.4973C12.6937 34.2446 5.60395 30.9438 1.99243 24.8365C1.0977 23.3257 0.41626 21.6425 0 19.8204H3.17455C5.36694 26.2283 11.2968 30.8202 18.2665 30.8202C22.044 30.8202 25.5148 29.4711 28.2523 27.2141Z" fill="white"/>
<path d="M31.9453 19.8204C31.3409 22.4681 30.1558 24.8701 28.5323 26.8769C27.8524 26.9684 27.1591 27.0157 26.454 27.0157C24.1386 27.0157 21.9388 26.5091 19.9538 25.598C19.7108 25.4882 19.4724 25.3707 19.2383 25.247C16.8192 23.9865 14.7542 22.111 13.2344 19.8204L31.9453 19.8204Z" fill="white"/>
<path d="M31.4373 12.0039C29.0701 6.91761 24.2424 3.27797 18.5421 2.71791C18.5407 2.71791 18.5392 2.71791 18.5392 2.71791C17.3452 2.48747 16.1009 2.42033 14.8314 2.53478C13.9248 2.61719 13.0448 2.78811 12.2005 3.04297C9.38887 3.88534 6.97427 5.62657 5.25886 7.93091C3.5242 10.2581 2.50503 13.1607 2.50949 16.2876V17.5283H0.050415V16.2876C0.0518964 10.9845 2.5376 6.27362 6.38467 3.3024C6.38616 3.29782 6.38615 3.29782 6.38764 3.29935C8.57115 1.61001 11.1946 0.482256 14.0507 0.123628C14.698 0.0412195 15.3572 1.52588e-05 16.0253 1.52588e-05C23.3921 -1.93904e-09 29.593 5.08634 31.4373 12.0039Z" fill="white"/>
<path d="M7.51193 15.0454H10.0035C10.1309 14.38 10.3576 13.7589 10.6642 13.1973C11.9204 10.8915 14.5306 9.56379 17.2074 10.0964C19.6901 10.5893 21.5773 12.5655 22.0558 15.0179C20.8811 13.4522 19.0413 12.445 16.9733 12.445C16.6237 12.445 16.28 12.474 15.9452 12.5304C15.9438 12.5304 15.9438 12.5304 15.9423 12.5304C15.1453 12.5518 14.4091 12.8341 13.8165 13.2981C13.8151 13.2996 13.8151 13.2996 13.8136 13.2996C13.8121 13.3011 13.8121 13.3011 13.8106 13.3026C12.9307 13.9893 12.3648 15.0713 12.3648 16.2876V17.5283H4.96399V16.2876C4.9699 11.9093 7.42303 8.11708 11.002 6.25378C12.513 5.46481 14.2254 5.02225 16.0401 5.0253C20.3893 5.0314 24.1978 7.61043 25.9918 11.4149C24.3801 8.55965 21.3774 6.63987 17.9391 6.63987C16.1364 6.63987 14.452 7.16788 13.027 8.08351C13.0255 8.08351 13.0255 8.08351 13.024 8.08504H13.0226C12.0893 8.43909 11.2301 8.95336 10.4806 9.6004C8.91773 10.9433 7.82448 12.8494 7.51193 15.0454Z" fill="white"/>
<path d="M22.1744 16.2876V17.5282H19.7405V16.2876C19.7405 14.2091 18.0888 12.5258 16.052 12.5274C16.0164 12.5274 15.9809 12.5274 15.9453 12.5304C16.2801 12.474 16.6238 12.445 16.9734 12.445C19.0413 12.445 20.8812 13.4522 22.0559 15.0179V15.0194C22.1374 15.4299 22.1774 15.8542 22.1744 16.2876Z" fill="white"/>
<path d="M31.9972 16.2876V17.5283H24.6245V16.2876C24.6141 11.4424 20.7552 7.52497 16.006 7.53413C14.9631 7.53566 13.9587 7.72945 13.027 8.0835C14.452 7.16787 16.1363 6.63987 17.9391 6.63987C21.3773 6.63987 24.38 8.55964 25.9918 11.4149C26.5191 12.5304 26.8732 13.7528 27.0154 15.0454H29.4848C28.9396 8.75954 24.3356 3.83498 18.542 2.71791C24.2423 3.27797 29.07 6.91761 31.4372 12.0039V12.0055C31.8016 13.3698 31.9972 14.8058 31.9972 16.2876Z" fill="white"/>
<mask id="mask0_5558_226481" style="mask-type:luminance" maskUnits="userSpaceOnUse" x="0" y="0" width="32" height="33">
<path d="M28.2523 27.2141C26.0525 29.7931 23.1135 31.6702 19.7657 32.4973C12.6937 34.2446 5.60395 30.9438 1.99243 24.8365C1.0977 23.3257 0.41626 21.6425 0 19.8204H3.17455C5.36694 26.2283 11.2968 30.8202 18.2665 30.8202C22.044 30.8202 25.5148 29.4711 28.2523 27.2141ZM13.2344 19.8204C14.7543 22.111 16.8193 23.9865 19.2383 25.247C19.4724 25.3706 19.7108 25.4881 19.9538 25.598C21.9388 26.5091 24.1386 27.0157 26.454 27.0157C27.1591 27.0157 27.8524 26.9684 28.5323 26.8768C30.1559 24.8701 31.3409 22.4681 31.9453 19.8204H13.2344V19.8204ZM16.0253 0C15.3572 0 14.698 0.0412037 14.0506 0.123612C11.1946 0.482224 8.5711 1.60998 6.38759 3.29933C6.38611 3.2978 6.38611 3.2978 6.38462 3.30238C2.53756 6.27361 0.0518473 10.9845 0.050366 16.2876V17.5283H2.50942V16.2876C2.50498 13.1607 3.52415 10.2581 5.2588 7.93089C6.9742 5.62657 9.38881 3.88534 12.2004 3.04295C13.0448 2.7881 13.9247 2.61717 14.8313 2.53477C16.1008 2.42031 17.3451 2.48746 18.5391 2.7179C18.5391 2.7179 18.5406 2.7179 18.5421 2.7179C24.2423 3.27795 29.07 6.9176 31.4372 12.0039C29.593 5.08634 23.392 0 16.0253 0ZM10.4806 9.60041C11.2301 8.95337 12.0893 8.43908 13.0226 8.08504H13.024C13.0255 8.08352 13.0255 8.08352 13.027 8.08352C14.4521 7.16789 16.1364 6.63988 17.9391 6.63988C21.3774 6.63988 24.3801 8.55965 25.9918 11.4149C24.1979 7.61045 20.3893 5.03141 16.0401 5.02531C14.2254 5.02226 12.513 5.46482 11.002 6.25378C7.42304 8.11709 4.9699 11.9093 4.96399 16.2876V17.5283H12.3648V16.2876C12.3648 15.0713 12.9307 13.9893 13.8106 13.3026C13.8121 13.3011 13.8121 13.3011 13.8136 13.2996C13.8151 13.2996 13.8151 13.2996 13.8165 13.2981C14.4091 12.8341 15.1453 12.5518 15.9423 12.5304C15.9438 12.5304 15.9438 12.5304 15.9453 12.5304C16.28 12.474 16.6237 12.445 16.9733 12.445C19.0413 12.445 20.8811 13.4522 22.0558 15.0179C21.5773 12.5655 19.6901 10.5893 17.2074 10.0964C14.5305 9.5638 11.9204 10.8915 10.6642 13.1973C10.3576 13.7589 10.1309 14.38 10.0035 15.0454H7.51193C7.8245 12.8494 8.91775 10.9433 10.4806 9.60041Z" fill="white"/>
</mask>
<g mask="url(#mask0_5558_226481)">
<path d="M28.6716 30.1559C32.6032 30.1559 35.7904 26.8724 35.7904 22.8221C35.7904 18.7718 32.6032 15.4883 28.6716 15.4883C24.74 15.4883 21.5527 18.7718 21.5527 22.8221C21.5527 26.8724 24.74 30.1559 28.6716 30.1559Z" fill="white"/>
<path d="M6.89495 18.3394C11.9094 18.3394 15.9743 14.1516 15.9743 8.98584C15.9743 3.82004 11.9094 -0.367676 6.89495 -0.367676C1.88054 -0.367676 -2.18445 3.82004 -2.18445 8.98584C-2.18445 14.1516 1.88054 18.3394 6.89495 18.3394Z" fill="white"/>
</g>
</svg>
