<svg width="116" height="33" viewBox="0 0 116 33" fill="none" xmlns="http://www.w3.org/2000/svg">
<path d="M40.7064 13.2102C41.2315 12.2316 41.9624 11.469 42.9015 10.9224C43.8399 10.3761 44.9037 10.1026 46.0922 10.1026C47.5497 10.1026 48.7971 10.4993 49.8344 11.2918C50.8718 12.0843 51.566 13.1653 51.9152 14.5344H48.628C48.383 14.0057 48.0363 13.6038 47.5872 13.3271C47.139 13.0509 46.6284 12.9129 46.0572 12.9129C45.1368 12.9129 44.3906 13.2436 43.8194 13.9037C43.2482 14.5643 42.9622 15.4469 42.9622 16.5517C42.9622 17.6569 43.2482 18.5395 43.8194 19.1997C44.3906 19.8602 45.1368 20.1905 46.0572 20.1905C46.6284 20.1905 47.139 20.0524 47.5872 19.7762C48.0363 19.5001 48.383 19.0981 48.628 18.5695H51.9152C51.5659 19.9385 50.8718 21.0165 49.8344 21.8028C48.7971 22.5896 47.5497 22.9828 46.0922 22.9828C44.9037 22.9828 43.8399 22.7097 42.9015 22.163C41.9623 21.6168 41.2315 20.8573 40.7064 19.8844C40.1822 18.9116 39.92 17.8007 39.92 16.5517C39.9201 15.3027 40.1822 14.1891 40.7064 13.2102Z" fill="black"/>
<path d="M53.7252 15.1285C54.1043 14.3483 54.62 13.7476 55.2732 13.3271C55.9255 12.9071 56.6538 12.6969 57.4589 12.6969C58.1462 12.6969 58.7499 12.8407 59.2681 13.1292C59.7872 13.4173 60.186 13.7955 60.466 14.2639V12.8407H63.4561V22.8926H60.466V21.4694C60.1749 21.9378 59.7693 22.316 59.2511 22.6045C58.732 22.8926 58.1283 23.0368 57.441 23.0368C56.6478 23.0368 55.9255 22.8235 55.2732 22.3974C54.62 21.9712 54.1043 21.3643 53.7252 20.578C53.3462 19.7912 53.1566 18.8817 53.1566 17.8486C53.1566 16.816 53.3461 15.9096 53.7252 15.1285ZM59.8453 16.0472C59.4312 15.603 58.9275 15.3809 58.3332 15.3809C57.7381 15.3809 57.2335 15.6 56.8203 16.0384C56.4062 16.4769 56.1995 17.0803 56.1995 17.8486C56.1995 18.6174 56.4062 19.2269 56.8203 19.6773C57.2335 20.1276 57.7381 20.3528 58.3332 20.3528C58.9275 20.3528 59.4312 20.1307 59.8453 19.6861C60.2594 19.2419 60.466 18.6354 60.466 17.8667C60.466 17.0983 60.2594 16.4919 59.8453 16.0472Z" fill="black"/>
<path d="M71.0617 20.2807V22.8926H69.5402C68.4567 22.8926 67.6106 22.6195 67.0053 22.0728C66.3991 21.5266 66.096 20.6352 66.096 19.398V15.399H64.9066V12.8408H66.096V10.3911H69.086V12.8408H71.0446V15.399H69.086V19.4341C69.086 19.7345 69.156 19.9504 69.296 20.0824C69.4352 20.2147 69.6683 20.2807 69.9953 20.2807H71.0617Z" fill="black"/>
<path d="M72.6967 15.1285C73.0758 14.3483 73.5915 13.7476 74.2446 13.3271C74.8969 12.9071 75.6252 12.6969 76.4304 12.6969C77.1177 12.6969 77.7213 12.8407 78.2396 13.1292C78.7587 13.4173 79.1574 13.7955 79.4375 14.2639V12.8407H82.4275V22.8926H79.4375V21.4694C79.1463 21.9378 78.7408 22.316 78.2225 22.6045C77.7034 22.8926 77.0998 23.0368 76.4125 23.0368C75.6193 23.0368 74.897 22.8235 74.2446 22.3974C73.5915 21.9712 73.0758 21.3643 72.6967 20.578C72.3176 19.7912 72.1281 18.8817 72.1281 17.8486C72.1281 16.816 72.3176 15.9096 72.6967 15.1285ZM78.8168 16.0472C78.4027 15.603 77.8989 15.3809 77.3047 15.3809C76.7096 15.3809 76.205 15.6 75.7917 16.0384C75.3776 16.4769 75.171 17.0803 75.171 17.8486C75.171 18.6174 75.3776 19.2269 75.7917 19.6773C76.205 20.1276 76.7096 20.3528 77.3047 20.3528C77.8989 20.3528 78.4027 20.1307 78.8168 19.6861C79.2309 19.2419 79.4375 18.6354 79.4375 17.8667C79.4375 17.0983 79.2309 16.4919 78.8168 16.0472Z" fill="black"/>
<path d="M87.5863 9.56253V22.8926H84.5963V9.56253H87.5863Z" fill="black"/>
<path d="M99.7206 12.8408L93.6005 27.6661H90.3834L92.6212 22.5505L88.6527 12.8408H91.9919L94.2477 19.1276L96.4864 12.8408H99.7206Z" fill="black"/>
<path d="M102.5 22.5865C101.836 22.2861 101.312 21.8749 100.927 21.3524C100.543 20.83 100.327 20.2446 100.28 19.5959H103.235C103.27 19.9447 103.428 20.2266 103.707 20.4425C103.987 20.6589 104.331 20.7671 104.739 20.7671C105.112 20.7671 105.4 20.6919 105.605 20.5419C105.808 20.3919 105.911 20.1966 105.911 19.9565C105.911 19.668 105.764 19.4552 105.473 19.3166C105.181 19.179 104.71 19.0259 104.057 18.8575C103.358 18.6895 102.774 18.5123 102.308 18.3262C101.842 18.1402 101.44 17.846 101.102 17.4436C100.764 17.0412 100.595 16.4976 100.595 15.8133C100.595 15.2367 100.749 14.7116 101.058 14.237C101.367 13.7625 101.822 13.3874 102.422 13.1112C103.022 12.835 103.736 12.6969 104.564 12.6969C105.788 12.6969 106.752 13.0092 107.458 13.6337C108.163 14.2582 108.568 15.0867 108.673 16.1194H105.911C105.864 15.771 105.715 15.4953 105.465 15.2908C105.214 15.0867 104.884 14.9847 104.477 14.9847C104.127 14.9847 103.859 15.0537 103.672 15.1918C103.486 15.3299 103.393 15.519 103.393 15.7592C103.393 16.0472 103.541 16.2636 103.838 16.4074C104.135 16.5517 104.599 16.6959 105.228 16.8397C105.951 17.0324 106.54 17.2215 106.995 17.4075C107.449 17.5935 107.849 17.8939 108.193 18.3082C108.536 18.7225 108.714 19.278 108.725 19.9741C108.725 20.563 108.565 21.0886 108.245 21.5503C107.924 22.013 107.464 22.3763 106.863 22.6406C106.263 22.9045 105.566 23.0368 104.774 23.0368C103.923 23.0368 103.166 22.8869 102.5 22.5865Z" fill="black"/>
<path d="M116 20.2807V22.8926H114.478C113.395 22.8926 112.549 22.6195 111.943 22.0728C111.337 21.5266 111.034 20.6352 111.034 19.398V15.399H109.845V12.8408H111.034V10.3911H114.024V12.8408H115.983V15.399H114.024V19.4341C114.024 19.7345 114.094 19.9504 114.234 20.0824C114.373 20.2147 114.607 20.2807 114.934 20.2807H116Z" fill="black"/>
<path d="M14.0924 25.1216C14.0806 25.1154 14.1043 25.1292 14.0924 25.1216C11.9415 24.1037 10.1932 22.0912 9.30294 19.8204H3.17456C5.36693 26.2283 11.2968 30.8202 18.2666 30.8202C22.044 30.8202 25.5148 29.4712 28.2524 27.2141C28.3472 27.1027 28.4405 26.9898 28.5323 26.8769C27.8524 26.9684 27.1591 27.0157 26.454 27.0157C24.1387 27.0157 21.9388 26.5091 19.9538 25.598C19.305 25.7461 18.631 25.8239 17.9392 25.8239C17.1408 25.8239 16.3552 25.8704 15.6161 25.6751C15.6117 25.6751 15.6205 25.6766 15.6161 25.6751" fill="black"/>
<path d="M14.0924 25.1215C14.5723 25.3443 15.0961 25.5377 15.616 25.6751C15.6116 25.6751 15.6204 25.6766 15.616 25.6751C16.3551 25.8704 17.1407 25.8239 17.9391 25.8239C18.6309 25.8239 19.3049 25.7461 19.9538 25.598C19.7108 25.4881 19.4723 25.3706 19.2383 25.247C16.8192 23.9865 14.7542 22.111 13.2344 19.8204H9.30286C10.1931 22.0912 11.9414 24.1037 14.0924 25.1215Z" fill="black"/>
<path d="M28.2523 27.2141C26.0525 29.7931 23.1135 31.6702 19.7657 32.4973C12.6937 34.2446 5.60395 30.9438 1.99243 24.8365C1.0977 23.3257 0.41626 21.6425 0 19.8204H3.17455C5.36694 26.2283 11.2968 30.8202 18.2665 30.8202C22.044 30.8202 25.5148 29.4712 28.2523 27.2141Z" fill="black"/>
<path d="M31.9453 19.8204C31.3409 22.4681 30.1558 24.8701 28.5323 26.8768C27.8524 26.9684 27.1591 27.0157 26.454 27.0157C24.1386 27.0157 21.9388 26.5091 19.9538 25.598C19.7108 25.4881 19.4724 25.3706 19.2383 25.247C16.8192 23.9865 14.7542 22.111 13.2344 19.8204L31.9453 19.8204Z" fill="black"/>
<path d="M31.4373 12.0039C29.0701 6.9176 24.2424 3.27795 18.5421 2.7179C18.5407 2.7179 18.5392 2.7179 18.5392 2.7179C17.3452 2.48746 16.1009 2.42031 14.8314 2.53477C13.9248 2.61717 13.0448 2.7881 12.2005 3.04295C9.38887 3.88533 6.97427 5.62655 5.25886 7.9309C3.5242 10.2581 2.50503 13.1607 2.50949 16.2876V17.5283H0.050415V16.2876C0.0518964 10.9845 2.5376 6.27361 6.38467 3.30238C6.38616 3.2978 6.38615 3.29781 6.38764 3.29933C8.57115 1.61 11.1946 0.48224 14.0507 0.123612C14.698 0.0412043 15.3572 0 16.0253 0C23.3921 -1.52607e-05 29.593 5.08632 31.4373 12.0039Z" fill="black"/>
<path d="M7.51193 15.0454H10.0035C10.1309 14.38 10.3576 13.7589 10.6642 13.1973C11.9204 10.8915 14.5306 9.5638 17.2074 10.0964C19.6901 10.5893 21.5773 12.5655 22.0558 15.0179C20.8811 13.4522 19.0413 12.445 16.9733 12.445C16.6237 12.445 16.28 12.474 15.9452 12.5304C15.9438 12.5304 15.9438 12.5304 15.9423 12.5304C15.1453 12.5518 14.4091 12.8341 13.8165 13.2981C13.8151 13.2996 13.8151 13.2996 13.8136 13.2996C13.8121 13.3011 13.8121 13.3011 13.8106 13.3026C12.9307 13.9893 12.3648 15.0713 12.3648 16.2876V17.5283H4.96399V16.2876C4.9699 11.9093 7.42303 8.1171 11.002 6.25379C12.513 5.46482 14.2254 5.02226 16.0401 5.02531C20.3893 5.03142 24.1978 7.61044 25.9918 11.4149C24.3801 8.55966 21.3774 6.63989 17.9391 6.63989C16.1364 6.63989 14.452 7.16789 13.027 8.08352C13.0255 8.08352 13.0255 8.08353 13.024 8.08505H13.0226C12.0893 8.4391 11.2301 8.95337 10.4806 9.60041C8.91773 10.9434 7.82448 12.8494 7.51193 15.0454Z" fill="black"/>
<path d="M22.1744 16.2875V17.5282H19.7405V16.2875C19.7405 14.2091 18.0888 12.5258 16.052 12.5274C16.0164 12.5274 15.9809 12.5274 15.9453 12.5304C16.2801 12.4739 16.6238 12.4449 16.9734 12.4449C19.0413 12.4449 20.8812 13.4521 22.0559 15.0179V15.0194C22.1374 15.4299 22.1774 15.8542 22.1744 16.2875Z" fill="black"/>
<path d="M31.9972 16.2876V17.5282H24.6245V16.2876C24.6141 11.4423 20.7552 7.52496 16.006 7.53412C14.9631 7.53564 13.9587 7.72944 13.027 8.08349C14.452 7.16786 16.1363 6.63985 17.9391 6.63985C21.3773 6.63985 24.38 8.55962 25.9918 11.4149C26.5191 12.5304 26.8732 13.7528 27.0154 15.0453H29.4848C28.9396 8.75952 24.3356 3.83497 18.542 2.7179C24.2423 3.27795 29.07 6.9176 31.4372 12.0039V12.0054C31.8016 13.3697 31.9972 14.8058 31.9972 16.2876Z" fill="black"/>
<mask id="mask0_2270_21972" style="mask-type:luminance" maskUnits="userSpaceOnUse" x="0" y="0" width="32" height="33">
<path d="M28.2523 27.2141C26.0525 29.7931 23.1135 31.6702 19.7657 32.4973C12.6937 34.2446 5.60395 30.9438 1.99243 24.8365C1.0977 23.3257 0.41626 21.6425 0 19.8204H3.17455C5.36694 26.2283 11.2968 30.8202 18.2665 30.8202C22.044 30.8202 25.5148 29.4711 28.2523 27.2141ZM13.2344 19.8204C14.7543 22.111 16.8193 23.9865 19.2383 25.247C19.4724 25.3706 19.7108 25.4881 19.9538 25.598C21.9388 26.5091 24.1386 27.0157 26.454 27.0157C27.1591 27.0157 27.8524 26.9684 28.5323 26.8768C30.1559 24.8701 31.3409 22.4681 31.9453 19.8204H13.2344V19.8204ZM16.0253 0C15.3572 0 14.698 0.0412037 14.0506 0.123612C11.1946 0.482224 8.5711 1.60998 6.38759 3.29933C6.38611 3.2978 6.38611 3.2978 6.38462 3.30238C2.53756 6.27361 0.0518473 10.9845 0.050366 16.2876V17.5283H2.50942V16.2876C2.50498 13.1607 3.52415 10.2581 5.2588 7.93089C6.9742 5.62657 9.38881 3.88534 12.2004 3.04295C13.0448 2.7881 13.9247 2.61717 14.8313 2.53477C16.1008 2.42031 17.3451 2.48746 18.5391 2.7179C18.5391 2.7179 18.5406 2.7179 18.5421 2.7179C24.2423 3.27795 29.07 6.9176 31.4372 12.0039C29.593 5.08634 23.392 0 16.0253 0ZM10.4806 9.60041C11.2301 8.95337 12.0893 8.43908 13.0226 8.08504H13.024C13.0255 8.08352 13.0255 8.08352 13.027 8.08352C14.4521 7.16789 16.1364 6.63988 17.9391 6.63988C21.3774 6.63988 24.3801 8.55965 25.9918 11.4149C24.1979 7.61045 20.3893 5.03141 16.0401 5.02531C14.2254 5.02226 12.513 5.46482 11.002 6.25378C7.42304 8.11709 4.9699 11.9093 4.96399 16.2876V17.5283H12.3648V16.2876C12.3648 15.0713 12.9307 13.9893 13.8106 13.3026C13.8121 13.3011 13.8121 13.3011 13.8136 13.2996C13.8151 13.2996 13.8151 13.2996 13.8165 13.2981C14.4091 12.8341 15.1453 12.5518 15.9423 12.5304C15.9438 12.5304 15.9438 12.5304 15.9453 12.5304C16.28 12.474 16.6237 12.445 16.9733 12.445C19.0413 12.445 20.8811 13.4522 22.0558 15.0179C21.5773 12.5655 19.6901 10.5893 17.2074 10.0964C14.5305 9.5638 11.9204 10.8915 10.6642 13.1973C10.3576 13.7589 10.1309 14.38 10.0035 15.0454H7.51193C7.8245 12.8494 8.91775 10.9433 10.4806 9.60041Z" fill="black"/>
</mask>
<g mask="url(#mask0_2270_21972)">
<path d="M28.6717 30.1559C32.6033 30.1559 35.7905 26.8724 35.7905 22.8221C35.7905 18.7718 32.6033 15.4883 28.6717 15.4883C24.7401 15.4883 21.5529 18.7718 21.5529 22.8221C21.5529 26.8724 24.7401 30.1559 28.6717 30.1559Z" fill="black"/>
<path d="M6.89495 18.3394C11.9094 18.3394 15.9743 14.1516 15.9743 8.98584C15.9743 3.82004 11.9094 -0.367676 6.89495 -0.367676C1.88054 -0.367676 -2.18445 3.82004 -2.18445 8.98584C-2.18445 14.1516 1.88054 18.3394 6.89495 18.3394Z" fill="black"/>
</g>
</svg>
