<svg width="180" height="180" viewBox="0 0 180 180" fill="none" xmlns="http://www.w3.org/2000/svg">
<g clip-path="url(#clip0_8195_63418)">
<rect width="180" height="180" rx="90" fill="#212A3D" fill-opacity="0.08"/>
<g filter="url(#filter0_d_8195_63418)">
<rect x="32.9629" y="40.7649" width="76.1304" height="107.999" rx="4.4" transform="rotate(-8 32.9629 40.7649)" fill="#F2F4F8"/>
</g>
<g filter="url(#filter1_d_8195_63418)">
<g clip-path="url(#clip1_8195_63418)">
<rect x="72.0625" y="30.2522" width="76.1304" height="107.999" rx="4.4" transform="rotate(10 72.0625 30.2522)" fill="#F8F9FC"/>
<rect x="76.6523" y="42.2312" width="52.8" height="5.5" rx="1.1" transform="rotate(10 76.6523 42.2312)" fill="#D9D9D9"/>
<rect x="72.4492" y="66.0635" width="62.9304" height="5.5" rx="1.1" transform="rotate(10 72.4492 66.0635)" fill="#D9D9D9"/>
<rect x="70.3496" y="77.9797" width="52.8" height="5.5" rx="1.1" transform="rotate(10 70.3496 77.9797)" fill="#D9D9D9"/>
<rect x="68.248" y="89.8958" width="59.4" height="5.5" rx="1.1" transform="rotate(10 68.248 89.8958)" fill="#D9D9D9"/>
<rect x="66.1465" y="101.812" width="62.7" height="5.5" rx="1.1" transform="rotate(10 66.1465 101.812)" fill="#D9D9D9"/>
<rect x="64.0449" y="113.728" width="49.5" height="5.5" rx="1.1" transform="rotate(10 64.0449 113.728)" fill="#D9D9D9"/>
</g>
</g>
</g>
<defs>
<filter id="filter0_d_8195_63418" x="-0.0371094" y="1.56968" width="156.42" height="183.543" filterUnits="userSpaceOnUse" color-interpolation-filters="sRGB">
<feFlood flood-opacity="0" result="BackgroundImageFix"/>
<feColorMatrix in="SourceAlpha" type="matrix" values="0 0 0 0 0 0 0 0 0 0 0 0 0 0 0 0 0 0 127 0" result="hardAlpha"/>
<feOffset dy="4.4"/>
<feGaussianBlur stdDeviation="16.5"/>
<feComposite in2="hardAlpha" operator="out"/>
<feColorMatrix type="matrix" values="0 0 0 0 0 0 0 0 0 0 0 0 0 0 0 0 0 0 0.1 0"/>
<feBlend mode="normal" in2="BackgroundImageFix" result="effect1_dropShadow_8195_63418"/>
<feBlend mode="normal" in="SourceGraphic" in2="effect1_dropShadow_8195_63418" result="shape"/>
</filter>
<filter id="filter1_d_8195_63418" x="20.3086" y="1.6522" width="159.729" height="185.578" filterUnits="userSpaceOnUse" color-interpolation-filters="sRGB">
<feFlood flood-opacity="0" result="BackgroundImageFix"/>
<feColorMatrix in="SourceAlpha" type="matrix" values="0 0 0 0 0 0 0 0 0 0 0 0 0 0 0 0 0 0 127 0" result="hardAlpha"/>
<feOffset dy="4.4"/>
<feGaussianBlur stdDeviation="16.5"/>
<feComposite in2="hardAlpha" operator="out"/>
<feColorMatrix type="matrix" values="0 0 0 0 0 0 0 0 0 0 0 0 0 0 0 0 0 0 0.1 0"/>
<feBlend mode="normal" in2="BackgroundImageFix" result="effect1_dropShadow_8195_63418"/>
<feBlend mode="normal" in="SourceGraphic" in2="effect1_dropShadow_8195_63418" result="shape"/>
</filter>
<clipPath id="clip0_8195_63418">
<rect width="180" height="180" rx="90" fill="white"/>
</clipPath>
<clipPath id="clip1_8195_63418">
<rect x="72.0625" y="30.2522" width="76.1304" height="107.999" rx="4.4" transform="rotate(10 72.0625 30.2522)" fill="white"/>
</clipPath>
</defs>
</svg>
