<svg width="120" height="120" viewBox="0 0 120 120" fill="none" xmlns="http://www.w3.org/2000/svg">
<g id="Frame 2000919449">
<rect width="120" height="120" fill="white"/>
<path id="Union" fill-rule="evenodd" clip-rule="evenodd" d="M65.757 8.86238L101.964 30.29C105.261 32.2411 107.272 35.7204 107.272 39.4707V57.0896C107.272 57.7335 107.214 58.3642 107.102 58.9769C106.98 59.6508 106.979 60.3436 107.102 61.0176C107.213 61.6293 107.271 62.2589 107.271 62.9016V80.523C107.271 84.2722 105.261 87.7506 101.965 89.7021L65.7606 111.142C62.223 113.237 57.7773 113.237 54.2401 111.141L18.0315 89.6933C14.7368 87.7417 12.7266 84.2636 12.7266 80.5148L12.7266 62.8947C12.7266 62.2498 12.785 61.6182 12.8971 61.0045C13.02 60.3312 13.0204 59.6391 12.8983 58.9657C12.7877 58.3559 12.7301 57.7285 12.7301 57.088L12.7301 39.4686C12.7301 35.7182 14.742 32.2389 18.0389 30.2878L54.2431 8.8623C57.7789 6.76983 62.2213 6.76986 65.757 8.86238Z" fill="#CCE2FF"/>
<path id="Rectangle 7356" d="M72.7271 56.3633H50.9089C43.8798 56.3633 38.1816 62.0615 38.1816 69.0906V74.5451C38.1816 77.5576 40.6237 79.9996 43.6362 79.9996H76.3635C79.3759 79.9996 81.818 77.5576 81.818 74.5451V73.636" stroke="#123CD3" stroke-width="5.45455" stroke-linecap="round" stroke-linejoin="round"/>
<path id="Rectangle 7357" d="M60.0009 54.5447H60.7801C66.3747 54.5447 70.91 50.0094 70.91 44.4149V43.6356C70.91 37.6107 66.0258 32.7266 60.0009 32.7266C53.976 32.7266 49.0918 37.6107 49.0918 43.6357C49.0918 49.6606 53.976 54.5447 60.0009 54.5447Z" stroke="#123CD3" stroke-width="5.45455" stroke-linejoin="round"/>
<g id="Group 625761">
<path id="Vector 29" d="M74.5455 69.0884L70 64.543" stroke="#C014EB" stroke-width="5.45455" stroke-linecap="round"/>
<path id="Vector 30" d="M85.4551 58.1797L74.546 69.0888" stroke="#C014EB" stroke-width="5.45455" stroke-linecap="round"/>
</g>
</g>
</svg>
