<svg width="154" height="146" viewBox="0 0 154 146" fill="none" xmlns="http://www.w3.org/2000/svg">
<path fill-rule="evenodd" clip-rule="evenodd" d="M45.8889 54.463C46.5885 54.4033 47.2535 54.7764 47.5676 55.4044L54.4094 69.0938C61.2444 66.6248 68.9969 69.6108 72.3254 76.2706C75.6537 82.9301 73.3878 90.9217 67.3108 94.9063L74.5959 109.483C74.9099 110.112 74.8088 110.869 74.341 111.393C73.8733 111.916 73.1333 112.101 72.4738 111.86C64.201 108.836 55.2122 109.858 47.094 112.264C45.9296 112.609 44.7887 112.984 43.674 113.374L53.5285 133.092C57.6608 141.36 47.2019 149.162 40.4543 142.845L18.7756 122.55C11.9165 122.419 5.3609 118.578 2.08126 112.016L2.01388 111.881C-2.68995 102.469 1.12708 91.0254 10.5393 86.3214C10.9462 86.118 11.3783 85.9033 11.8332 85.6778C16.2108 83.5084 22.6845 80.3006 28.8361 75.7315C35.6334 70.6829 41.8466 64.1076 44.3938 55.6758C44.5969 55.0035 45.1891 54.5226 45.8889 54.463ZM40.4436 114.579C35.8833 116.388 31.9189 118.387 28.9328 119.892C28.4794 120.12 28.0488 120.338 27.6418 120.541C26.2313 121.246 24.7742 121.758 23.302 122.09L42.7971 140.342C46.7525 144.045 52.884 139.472 50.4621 134.625L40.4436 114.579ZM24.5285 82.7354C20.2805 85.3177 16.2864 87.299 13.3586 88.7491C12.9028 88.9749 12.4725 89.1873 12.0715 89.3878C4.35305 93.2453 1.22371 102.63 5.08126 110.349L5.14865 110.483C9.00634 118.202 18.3903 121.331 26.1086 117.474C26.5097 117.273 26.9385 117.057 27.3928 116.828C30.3101 115.357 34.2912 113.35 38.9065 111.503L24.5285 82.7354ZM46.2649 60.4669C42.9126 68.0454 36.9734 73.9576 30.8801 78.4835C29.739 79.331 28.5863 80.1319 27.4397 80.8907L42.1291 110.283C43.4244 109.822 44.7573 109.381 46.1203 108.977C53.3977 106.82 61.6914 105.619 69.7649 107.487L46.2649 60.4669ZM69.259 77.8028C66.7783 72.8395 61.0804 70.5461 55.9553 72.1876L65.7639 91.8116C70.1525 88.6977 71.7395 82.7659 69.259 77.8028Z" fill="white"/>
<path fill-rule="evenodd" clip-rule="evenodd" d="M115.752 91.4034C116.457 88.7713 119.747 87.8897 121.674 89.8165L131.194 99.335C133.12 101.262 132.238 104.552 129.607 105.257L116.604 108.741C113.972 109.447 111.563 107.037 112.268 104.405L115.752 91.4034ZM119.363 92.127C119.215 91.9788 118.963 92.0466 118.908 92.2491L115.424 105.251C115.37 105.454 115.556 105.639 115.758 105.585L128.761 102.101C128.963 102.046 129.031 101.794 128.883 101.646L119.363 92.127Z" fill="white"/>
<path fill-rule="evenodd" clip-rule="evenodd" d="M99.9299 78.7803C100.553 76.4563 102.942 75.0776 105.266 75.7003L150.344 87.7784C152.668 88.4011 154.048 90.7902 153.425 93.1143L145.613 122.272C144.99 124.596 142.601 125.975 140.277 125.353L101.478 114.956L93.4826 122.205C91.4706 124.029 88.3207 122.107 89.0236 119.483L99.9299 78.7803ZM104.42 78.8555C103.839 78.7 103.242 79.0451 103.086 79.626L92.6594 118.542L99.8332 112.037C100.313 111.602 100.981 111.44 101.607 111.607L141.122 122.196C141.703 122.352 142.301 122.007 142.456 121.426L150.269 92.2686C150.424 91.6876 150.079 91.0903 149.498 90.9346L104.42 78.8555Z" fill="white"/>
<path fill-rule="evenodd" clip-rule="evenodd" d="M106.303 17.5489C108.126 14.0111 112.479 12.6048 116.028 14.4073C119.576 16.2102 120.975 20.5402 119.153 24.0782L119.133 24.1143L113.152 35.7257C112.82 36.3697 112.03 36.6249 111.384 36.2969L99.7258 30.3731L99.7024 30.3614C96.1542 28.5585 94.7556 24.2285 96.5783 20.6905C98.4012 17.1528 102.755 15.7462 106.303 17.5489ZM114.596 17.2257C112.598 16.2107 110.14 17.0053 109.113 18.9971C108.317 20.5432 106.421 21.1561 104.87 20.3682C102.873 19.3533 100.415 20.1471 99.3889 22.1387C98.369 24.1183 99.1488 26.5343 101.134 27.543L101.157 27.5548L111.181 32.6475L116.322 22.6661L116.342 22.63C117.362 20.6503 116.581 18.2344 114.596 17.2257Z" fill="white"/>
<path fill-rule="evenodd" clip-rule="evenodd" d="M126.592 0.205148C128.807 -0.510358 131.183 0.705653 131.899 2.92097L140.878 30.7149C141.594 32.9301 140.378 35.3056 138.163 36.0216L97.1565 49.2696L94.4719 59.3614C93.7962 61.9008 90.2273 61.9945 89.4192 59.4942L76.884 20.6944C76.1683 18.479 77.3844 16.1025 79.5998 15.3868L126.592 0.205148ZM128.891 3.89265C128.712 3.33879 128.118 3.03501 127.564 3.21394L80.5715 18.3956C80.0176 18.5745 79.7139 19.1689 79.8928 19.7227L91.8772 56.8184L94.2854 47.7628C94.4465 47.157 94.9047 46.6742 95.5012 46.4815L137.191 33.0137C137.744 32.8348 138.048 32.2404 137.869 31.6866L128.891 3.89265Z" fill="white"/>
</svg>
