<svg width="143" height="112" viewBox="0 0 143 112" fill="none" xmlns="http://www.w3.org/2000/svg">
<path d="M71.5 69.3C72.4113 69.3 73.15 70.0387 73.15 70.95V77C73.15 77.9113 72.4113 78.65 71.5 78.65C70.5887 78.65 69.85 77.9113 69.85 77V70.95C69.85 70.0387 70.5887 69.3 71.5 69.3Z" fill="white"/>
<path fill-rule="evenodd" clip-rule="evenodd" d="M70.95 36.85C77.9364 36.85 83.6 42.5136 83.6 49.5V50.6L83.5914 50.7687C83.5069 51.6007 82.8043 52.25 81.95 52.25C81.0957 52.25 80.3931 51.6007 80.3086 50.7687L80.3 50.6V49.5C80.3 44.3361 76.1139 40.15 70.95 40.15C65.7861 40.15 61.6 44.3361 61.6 49.5V58.3H88.55C91.8913 58.3 94.6 61.0087 94.6 64.35V83.05C94.6 86.3913 91.8913 89.1 88.55 89.1H53.35C50.0087 89.1 47.3 86.3913 47.3 83.05V64.35C47.3 61.0087 50.0087 58.3 53.35 58.3H58.3V49.5C58.3 42.5136 63.9636 36.85 70.95 36.85ZM53.35 61.6C51.8312 61.6 50.6 62.8312 50.6 64.35V83.05C50.6 84.5688 51.8312 85.8 53.35 85.8H88.55C90.0688 85.8 91.3 84.5688 91.3 83.05V64.35C91.3 62.8312 90.0688 61.6 88.55 61.6H53.35Z" fill="white"/>
<path fill-rule="evenodd" clip-rule="evenodd" d="M12.1 8.25C14.2263 8.25 15.95 9.9737 15.95 12.1C15.95 14.2263 14.2263 15.95 12.1 15.95C9.9737 15.95 8.25 14.2263 8.25 12.1C8.25 9.9737 9.9737 8.25 12.1 8.25ZM12.1 10.45C11.1887 10.45 10.45 11.1887 10.45 12.1C10.45 13.0113 11.1887 13.75 12.1 13.75C13.0113 13.75 13.75 13.0113 13.75 12.1C13.75 11.1887 13.0113 10.45 12.1 10.45Z" fill="white"/>
<path fill-rule="evenodd" clip-rule="evenodd" d="M23.1 8.25C25.2263 8.25 26.95 9.9737 26.95 12.1C26.95 14.2263 25.2263 15.95 23.1 15.95C20.9737 15.95 19.25 14.2263 19.25 12.1C19.25 9.9737 20.9737 8.25 23.1 8.25ZM23.1 10.45C22.1887 10.45 21.45 11.1887 21.45 12.1C21.45 13.0113 22.1887 13.75 23.1 13.75C24.0113 13.75 24.75 13.0113 24.75 12.1C24.75 11.1887 24.0113 10.45 23.1 10.45Z" fill="white"/>
<path fill-rule="evenodd" clip-rule="evenodd" d="M34.1 8.25C36.2263 8.25 37.95 9.9737 37.95 12.1C37.95 14.2263 36.2263 15.95 34.1 15.95C31.9737 15.95 30.25 14.2263 30.25 12.1C30.25 9.9737 31.9737 8.25 34.1 8.25ZM34.1 10.45C33.1887 10.45 32.45 11.1887 32.45 12.1C32.45 13.0113 33.1887 13.75 34.1 13.75C35.0113 13.75 35.75 13.0113 35.75 12.1C35.75 11.1887 35.0113 10.45 34.1 10.45Z" fill="white"/>
<path fill-rule="evenodd" clip-rule="evenodd" d="M132.55 0C138.321 0 143 4.67863 143 10.45V100.65C143 106.421 138.321 111.1 132.55 111.1H10.45C4.85913 111.1 0.294071 106.709 0.0139648 101.188L0 100.65V10.45C1.26844e-06 4.67863 4.67862 0 10.45 0H132.55ZM3.3 100.65L3.30967 101.018C3.50143 104.796 6.62475 107.8 10.45 107.8H132.55C136.499 107.8 139.7 104.599 139.7 100.65V23.65H3.3V100.65ZM10.45 3.3C6.50117 3.3 3.3 6.50116 3.3 10.45V20.35H139.7V10.45C139.7 6.50116 136.499 3.3 132.55 3.3H10.45Z" fill="white"/>
</svg>
