<?xml version="1.0" encoding="UTF-8" standalone="no"?>
<!DOCTYPE svg PUBLIC "-//W3C//DTD SVG 1.1//EN"
 "http://www.w3.org/Graphics/SVG/1.1/DTD/svg11.dtd">
<!-- Generated by graphviz version 2.43.0 (0)
 -->
<!-- Title: erd Pages: 1 -->
<svg width="1014pt" height="610pt"
 viewBox="0.00 0.00 1014.00 609.50" xmlns="http://www.w3.org/2000/svg" xmlns:xlink="http://www.w3.org/1999/xlink">
<g id="graph0" class="graph" transform="scale(1 1) rotate(0) translate(4 605.5)">
<title>erd</title>
<polygon fill="white" stroke="transparent" points="-4,4 -4,-605.5 1010,-605.5 1010,4 -4,4"/>
<text text-anchor="middle" x="503" y="-573.5" font-family="Times,serif" font-size="30.00" fill="blue">Moderation Stage Data</text>
<!-- moderation -->
<g id="node1" class="node">
<title>moderation</title>
<polygon fill="#009879" stroke="transparent" points="0.5,-331.5 0.5,-359.5 767.5,-359.5 767.5,-331.5 0.5,-331.5"/>
<polygon fill="none" stroke="black" points="0.5,-331.5 0.5,-359.5 767.5,-359.5 767.5,-331.5 0.5,-331.5"/>
<text text-anchor="start" x="323.5" y="-341.5" font-family="Courier bold italic" font-weight="bold" font-size="20.00" fill="white">moderation</text>
<polygon fill="none" stroke="black" points="0.5,-305.5 0.5,-331.5 90.5,-331.5 90.5,-305.5 0.5,-305.5"/>
<text text-anchor="start" x="13.5" y="-315.1" font-family="Courier bold" font-weight="bold" font-size="18.00">Column</text>
<polygon fill="none" stroke="black" points="90.5,-305.5 90.5,-331.5 150.5,-331.5 150.5,-305.5 90.5,-305.5"/>
<text text-anchor="start" x="99" y="-315.1" font-family="Courier bold" font-weight="bold" font-size="18.00">Type</text>
<polygon fill="none" stroke="black" points="150.5,-305.5 150.5,-331.5 767.5,-331.5 767.5,-305.5 150.5,-305.5"/>
<text text-anchor="start" x="401" y="-315.1" font-family="Courier bold" font-weight="bold" font-size="18.00">Description</text>
<polygon fill="#54ff9f" stroke="transparent" points="0.5,-281.5 0.5,-305.5 90.5,-305.5 90.5,-281.5 0.5,-281.5"/>
<polygon fill="none" stroke="black" points="0.5,-281.5 0.5,-305.5 90.5,-305.5 90.5,-281.5 0.5,-281.5"/>
<text text-anchor="start" x="3.5" y="-289.7" font-family="Times,serif" font-size="16.00">row_id</text>
<polygon fill="#54ff9f" stroke="transparent" points="90.5,-281.5 90.5,-305.5 150.5,-305.5 150.5,-281.5 90.5,-281.5"/>
<polygon fill="none" stroke="black" points="90.5,-281.5 90.5,-305.5 150.5,-305.5 150.5,-281.5 90.5,-281.5"/>
<text text-anchor="start" x="93.5" y="-289.7" font-family="Times,serif" font-size="16.00">integer+</text>
<polygon fill="#54ff9f" stroke="transparent" points="150.5,-281.5 150.5,-305.5 767.5,-305.5 767.5,-281.5 150.5,-281.5"/>
<polygon fill="none" stroke="black" points="150.5,-281.5 150.5,-305.5 767.5,-305.5 767.5,-281.5 150.5,-281.5"/>
<text text-anchor="start" x="153.5" y="-290.8" font-family="Monospace" font-style="italic" font-size="14.00" fill="#7f7f7f">Synthetic ID of this moderation.</text>
<polygon fill="none" stroke="black" points="0.5,-257.5 0.5,-281.5 90.5,-281.5 90.5,-257.5 0.5,-257.5"/>
<text text-anchor="start" x="3.5" y="-265.7" font-family="Times,serif" font-size="16.00">review_id</text>
<polygon fill="none" stroke="black" points="90.5,-257.5 90.5,-281.5 150.5,-281.5 150.5,-257.5 90.5,-257.5"/>
<text text-anchor="start" x="98" y="-265.7" font-family="Times,serif" font-size="16.00">integer</text>
<polygon fill="none" stroke="black" points="150.5,-257.5 150.5,-281.5 767.5,-281.5 767.5,-257.5 150.5,-257.5"/>
<text text-anchor="start" x="153.5" y="-266.8" font-family="Monospace" font-style="italic" font-size="14.00" fill="#7f7f7f">The review the moderation is related to.</text>
<polygon fill="none" stroke="black" points="0.5,-233.5 0.5,-257.5 90.5,-257.5 90.5,-233.5 0.5,-233.5"/>
<text text-anchor="start" x="3.5" y="-241.7" font-family="Times,serif" font-size="16.00">user_id</text>
<polygon fill="none" stroke="black" points="90.5,-233.5 90.5,-257.5 150.5,-257.5 150.5,-233.5 90.5,-233.5"/>
<text text-anchor="start" x="98" y="-241.7" font-family="Times,serif" font-size="16.00">integer</text>
<polygon fill="none" stroke="black" points="150.5,-233.5 150.5,-257.5 767.5,-257.5 767.5,-233.5 150.5,-233.5"/>
<text text-anchor="start" x="153.5" y="-242.8" font-family="Monospace" font-style="italic" font-size="14.00" fill="#7f7f7f">The user the moderation is submitted from.</text>
<polygon fill="none" stroke="black" points="0.5,-209.5 0.5,-233.5 90.5,-233.5 90.5,-209.5 0.5,-209.5"/>
<text text-anchor="start" x="3.5" y="-217.7" font-family="Times,serif" font-size="16.00">classification</text>
<polygon fill="none" stroke="black" points="90.5,-209.5 90.5,-233.5 150.5,-233.5 150.5,-209.5 90.5,-209.5"/>
<text text-anchor="start" x="98" y="-217.7" font-family="Times,serif" font-size="16.00">integer</text>
<polygon fill="none" stroke="black" points="150.5,-209.5 150.5,-233.5 767.5,-233.5 767.5,-209.5 150.5,-209.5"/>
<text text-anchor="start" x="153.5" y="-218.8" font-family="Monospace" font-style="italic" font-size="14.00" fill="#7f7f7f">The value used to describe the moderation (e.g. 0: excluded, 1: included).</text>
<polygon fill="none" stroke="black" points="0.5,-185.5 0.5,-209.5 90.5,-209.5 90.5,-185.5 0.5,-185.5"/>
<text text-anchor="start" x="3.5" y="-193.7" font-family="Times,serif" font-size="16.00">rationale</text>
<polygon fill="none" stroke="black" points="90.5,-185.5 90.5,-209.5 150.5,-209.5 150.5,-185.5 90.5,-185.5"/>
<text text-anchor="start" x="95" y="-194.7" font-family="Times,serif" font-style="italic" font-size="16.00">varchar</text>
<polygon fill="none" stroke="black" points="150.5,-185.5 150.5,-209.5 767.5,-209.5 767.5,-185.5 150.5,-185.5"/>
<text text-anchor="start" x="153.5" y="-194.8" font-family="Monospace" font-style="italic" font-size="14.00" fill="#7f7f7f">The rationale for the given classification.</text>
<polygon fill="#333333" stroke="transparent" points="0.5,-164.5 0.5,-185.5 767.5,-185.5 767.5,-164.5 0.5,-164.5"/>
<polygon fill="none" stroke="black" points="0.5,-164.5 0.5,-185.5 767.5,-185.5 767.5,-164.5 0.5,-164.5"/>
<text text-anchor="start" x="3.5" y="-172.3" font-family="Monospace" font-style="italic" font-size="14.00" fill="white">An individual moderation for a proposal review.</text>
</g>
<!-- config -->
<g id="node3" class="node">
<title>config</title>
<polygon fill="#009879" stroke="transparent" points="865.5,-126.5 865.5,-154.5 944.5,-154.5 944.5,-126.5 865.5,-126.5"/>
<polygon fill="none" stroke="black" points="865.5,-126.5 865.5,-154.5 944.5,-154.5 944.5,-126.5 865.5,-126.5"/>
<text text-anchor="start" x="868.5" y="-136.5" font-family="Courier bold italic" font-weight="bold" font-size="20.00" fill="white">config</text>
<polygon fill="none" stroke="black" points="865.5,-100.5 865.5,-126.5 944.5,-126.5 944.5,-100.5 865.5,-100.5"/>
<text text-anchor="start" x="873" y="-110.1" font-family="Courier bold" font-weight="bold" font-size="18.00">Column</text>
<polygon fill="none" stroke="black" points="865.5,-76.5 865.5,-100.5 944.5,-100.5 944.5,-76.5 865.5,-76.5"/>
<text text-anchor="start" x="868.5" y="-84.7" font-family="Times,serif" font-size="16.00">row_id</text>
<polygon fill="#333333" stroke="transparent" points="865.5,-55.5 865.5,-76.5 944.5,-76.5 944.5,-55.5 865.5,-55.5"/>
<polygon fill="none" stroke="black" points="865.5,-55.5 865.5,-76.5 944.5,-76.5 944.5,-55.5 865.5,-55.5"/>
<text text-anchor="start" x="868.5" y="-63.3" font-family="Monospace" font-style="italic" font-size="14.00" fill="white">ABRIDGED</text>
</g>
<!-- moderation&#45;&gt;config -->
<g id="edge4" class="edge">
<title>moderation:user_id_out&#45;&gt;config:row_id</title>
<path fill="none" stroke="black" d="M767,-245.5C785.13,-245.5 831.23,-123.14 855.92,-94.46"/>
<polygon fill="black" stroke="black" points="858.28,-97.08 864.5,-88.5 854.29,-91.33 858.28,-97.08"/>
</g>
<!-- proposal_review -->
<g id="node4" class="node">
<title>proposal_review</title>
<polygon fill="#009879" stroke="transparent" points="811.5,-279.5 811.5,-307.5 998.5,-307.5 998.5,-279.5 811.5,-279.5"/>
<polygon fill="none" stroke="black" points="811.5,-279.5 811.5,-307.5 998.5,-307.5 998.5,-279.5 811.5,-279.5"/>
<text text-anchor="start" x="814.5" y="-289.5" font-family="Courier bold italic" font-weight="bold" font-size="20.00" fill="white">proposal_review</text>
<polygon fill="none" stroke="black" points="811.5,-253.5 811.5,-279.5 998.5,-279.5 998.5,-253.5 811.5,-253.5"/>
<text text-anchor="start" x="873" y="-263.1" font-family="Courier bold" font-weight="bold" font-size="18.00">Column</text>
<polygon fill="none" stroke="black" points="811.5,-229.5 811.5,-253.5 998.5,-253.5 998.5,-229.5 811.5,-229.5"/>
<text text-anchor="start" x="814.5" y="-237.7" font-family="Times,serif" font-size="16.00">row_id</text>
<polygon fill="#333333" stroke="transparent" points="811.5,-208.5 811.5,-229.5 998.5,-229.5 998.5,-208.5 811.5,-208.5"/>
<polygon fill="none" stroke="black" points="811.5,-208.5 811.5,-229.5 998.5,-229.5 998.5,-208.5 811.5,-208.5"/>
<text text-anchor="start" x="814.5" y="-216.3" font-family="Monospace" font-style="italic" font-size="14.00" fill="white">ABRIDGED</text>
</g>
<!-- moderation&#45;&gt;proposal_review -->
<g id="edge3" class="edge">
<title>moderation:review_id_out&#45;&gt;proposal_review:row_id</title>
<path fill="none" stroke="black" d="M767,-269.5C786.04,-269.5 787.61,-250.3 800.64,-243.7"/>
<polygon fill="black" stroke="black" points="801.5,-247.09 810.5,-241.5 799.98,-240.26 801.5,-247.09"/>
</g>
<!-- moderation_allocation -->
<g id="node2" class="node">
<title>moderation_allocation</title>
<polygon fill="#009879" stroke="transparent" points="142.5,-118.5 142.5,-146.5 625.5,-146.5 625.5,-118.5 142.5,-118.5"/>
<polygon fill="none" stroke="black" points="142.5,-118.5 142.5,-146.5 625.5,-146.5 625.5,-118.5 142.5,-118.5"/>
<text text-anchor="start" x="257.5" y="-128.5" font-family="Courier bold italic" font-weight="bold" font-size="20.00" fill="white">moderation_allocation</text>
<polygon fill="none" stroke="black" points="142.5,-92.5 142.5,-118.5 212.5,-118.5 212.5,-92.5 142.5,-92.5"/>
<text text-anchor="start" x="145.5" y="-102.1" font-family="Courier bold" font-weight="bold" font-size="18.00">Column</text>
<polygon fill="none" stroke="black" points="212.5,-92.5 212.5,-118.5 272.5,-118.5 272.5,-92.5 212.5,-92.5"/>
<text text-anchor="start" x="221" y="-102.1" font-family="Courier bold" font-weight="bold" font-size="18.00">Type</text>
<polygon fill="none" stroke="black" points="272.5,-92.5 272.5,-118.5 625.5,-118.5 625.5,-92.5 272.5,-92.5"/>
<text text-anchor="start" x="391" y="-102.1" font-family="Courier bold" font-weight="bold" font-size="18.00">Description</text>
<polygon fill="#54ff9f" stroke="transparent" points="142.5,-68.5 142.5,-92.5 212.5,-92.5 212.5,-68.5 142.5,-68.5"/>
<polygon fill="none" stroke="black" points="142.5,-68.5 142.5,-92.5 212.5,-92.5 212.5,-68.5 142.5,-68.5"/>
<text text-anchor="start" x="145.5" y="-76.7" font-family="Times,serif" font-size="16.00">row_id</text>
<polygon fill="#54ff9f" stroke="transparent" points="212.5,-68.5 212.5,-92.5 272.5,-92.5 272.5,-68.5 212.5,-68.5"/>
<polygon fill="none" stroke="black" points="212.5,-68.5 212.5,-92.5 272.5,-92.5 272.5,-68.5 212.5,-68.5"/>
<text text-anchor="start" x="215.5" y="-76.7" font-family="Times,serif" font-size="16.00">integer+</text>
<polygon fill="#54ff9f" stroke="transparent" points="272.5,-68.5 272.5,-92.5 625.5,-92.5 625.5,-68.5 272.5,-68.5"/>
<polygon fill="none" stroke="black" points="272.5,-68.5 272.5,-92.5 625.5,-92.5 625.5,-68.5 272.5,-68.5"/>
<text text-anchor="start" x="275.5" y="-77.8" font-family="Monospace" font-style="italic" font-size="14.00" fill="#7f7f7f">Synthetic ID of this relationship.</text>
<polygon fill="none" stroke="black" points="142.5,-44.5 142.5,-68.5 212.5,-68.5 212.5,-44.5 142.5,-44.5"/>
<text text-anchor="start" x="145.5" y="-52.7" font-family="Times,serif" font-size="16.00">review_id</text>
<polygon fill="none" stroke="black" points="212.5,-44.5 212.5,-68.5 272.5,-68.5 272.5,-44.5 212.5,-44.5"/>
<text text-anchor="start" x="220" y="-52.7" font-family="Times,serif" font-size="16.00">integer</text>
<polygon fill="none" stroke="black" points="272.5,-44.5 272.5,-68.5 625.5,-68.5 625.5,-44.5 272.5,-44.5"/>
<text text-anchor="start" x="275.5" y="-53.8" font-family="Monospace" font-style="italic" font-size="14.00" fill="#7f7f7f">The review the relationship is related to.</text>
<polygon fill="none" stroke="black" points="142.5,-20.5 142.5,-44.5 212.5,-44.5 212.5,-20.5 142.5,-20.5"/>
<text text-anchor="start" x="145.5" y="-28.7" font-family="Times,serif" font-size="16.00">user_id</text>
<polygon fill="none" stroke="black" points="212.5,-20.5 212.5,-44.5 272.5,-44.5 272.5,-20.5 212.5,-20.5"/>
<text text-anchor="start" x="220" y="-28.7" font-family="Times,serif" font-size="16.00">integer</text>
<polygon fill="none" stroke="black" points="272.5,-20.5 272.5,-44.5 625.5,-44.5 625.5,-20.5 272.5,-20.5"/>
<text text-anchor="start" x="275.5" y="-29.8" font-family="Monospace" font-style="italic" font-size="14.00" fill="#7f7f7f">The user the relationship is related to.</text>
<polygon fill="#333333" stroke="transparent" points="142.5,0.5 142.5,-20.5 625.5,-20.5 625.5,0.5 142.5,0.5"/>
<polygon fill="none" stroke="black" points="142.5,0.5 142.5,-20.5 625.5,-20.5 625.5,0.5 142.5,0.5"/>
<text text-anchor="start" x="145.5" y="-7.3" font-family="Monospace" font-style="italic" font-size="14.00" fill="white">The relationship between users and proposals_reviews.</text>
</g>
<!-- moderation_allocation&#45;&gt;config -->
<g id="edge2" class="edge">
<title>moderation_allocation:user_id_out&#45;&gt;config:row_id</title>
<path fill="none" stroke="black" d="M626.5,-32.5C731.66,-32.5 754.41,-84.95 854.26,-88.33"/>
<polygon fill="black" stroke="black" points="854.44,-91.83 864.5,-88.5 854.56,-84.83 854.44,-91.83"/>
</g>
<!-- moderation_allocation&#45;&gt;proposal_review -->
<g id="edge1" class="edge">
<title>moderation_allocation:review_id_out&#45;&gt;proposal_review:row_id</title>
<path fill="none" stroke="black" d="M626.5,-56.5C703.15,-56.5 716.89,-98.51 767,-156.5 792.15,-185.6 772.59,-231.77 800.29,-240.17"/>
<polygon fill="black" stroke="black" points="800.13,-243.68 810.5,-241.5 801.04,-236.73 800.13,-243.68"/>
</g>
<!-- LEGEND -->
<g id="node5" class="node">
<title>LEGEND</title>
<polygon fill="Pink" stroke="transparent" points="273.5,-528.5 273.5,-556.5 493.5,-556.5 493.5,-528.5 273.5,-528.5"/>
<polygon fill="none" stroke="black" points="273.5,-528.5 273.5,-556.5 493.5,-556.5 493.5,-528.5 273.5,-528.5"/>
<text text-anchor="start" x="347" y="-538.5" font-family="Courier bold italic" font-weight="bold" font-size="20.00" fill="white">LEGEND</text>
<polygon fill="none" stroke="black" points="273.5,-502.5 273.5,-528.5 412.5,-528.5 412.5,-502.5 273.5,-502.5"/>
<text text-anchor="start" x="321.5" y="-512.1" font-family="Courier bold" font-weight="bold" font-size="18.00">Type</text>
<polygon fill="none" stroke="black" points="412.5,-502.5 412.5,-528.5 493.5,-528.5 493.5,-502.5 412.5,-502.5"/>
<text text-anchor="start" x="416" y="-512.1" font-family="Courier bold" font-weight="bold" font-size="18.00">Example</text>
<polygon fill="#54ff9f" stroke="transparent" points="273.5,-478.5 273.5,-502.5 412.5,-502.5 412.5,-478.5 273.5,-478.5"/>
<polygon fill="none" stroke="black" points="273.5,-478.5 273.5,-502.5 412.5,-502.5 412.5,-478.5 273.5,-478.5"/>
<text text-anchor="start" x="276.5" y="-486.7" font-family="Times,serif" font-size="16.00">Primary Key</text>
<polygon fill="#54ff9f" stroke="transparent" points="412.5,-478.5 412.5,-502.5 493.5,-502.5 493.5,-478.5 412.5,-478.5"/>
<polygon fill="none" stroke="black" points="412.5,-478.5 412.5,-502.5 493.5,-502.5 493.5,-478.5 412.5,-478.5"/>
<text text-anchor="start" x="426" y="-486.7" font-family="Times,serif" font-size="16.00">integer+</text>
<polygon fill="none" stroke="black" points="273.5,-454.5 273.5,-478.5 412.5,-478.5 412.5,-454.5 273.5,-454.5"/>
<text text-anchor="start" x="276.5" y="-462.7" font-family="Times,serif" font-size="16.00">Standard Field</text>
<polygon fill="none" stroke="black" points="412.5,-454.5 412.5,-478.5 493.5,-478.5 493.5,-454.5 412.5,-454.5"/>
<text text-anchor="start" x="435.5" y="-462.7" font-family="Times,serif" font-size="16.00">bytea</text>
<polygon fill="none" stroke="black" points="273.5,-430.5 273.5,-454.5 412.5,-454.5 412.5,-430.5 273.5,-430.5"/>
<text text-anchor="start" x="276.5" y="-438.7" font-family="Times,serif" font-size="16.00">Nullable Field</text>
<polygon fill="none" stroke="black" points="412.5,-430.5 412.5,-454.5 493.5,-454.5 493.5,-430.5 412.5,-430.5"/>
<text text-anchor="start" x="441.5" y="-439.7" font-family="Times,serif" font-style="italic" font-size="16.00">text</text>
<polygon fill="none" stroke="black" points="273.5,-406.5 273.5,-430.5 412.5,-430.5 412.5,-406.5 273.5,-406.5"/>
<text text-anchor="start" x="276.5" y="-414.7" font-family="Times,serif" font-size="16.00">Sized Field</text>
<polygon fill="none" stroke="black" points="412.5,-406.5 412.5,-430.5 493.5,-430.5 493.5,-406.5 412.5,-406.5"/>
<text text-anchor="start" x="415.5" y="-414.7" font-family="Times,serif" font-size="16.00">varchar(32)</text>
<polygon fill="none" stroke="black" points="273.5,-382.5 273.5,-406.5 412.5,-406.5 412.5,-382.5 273.5,-382.5"/>
<text text-anchor="start" x="276.5" y="-390.7" font-family="Times,serif" font-size="16.00">Autoincrement Field</text>
<polygon fill="none" stroke="black" points="412.5,-382.5 412.5,-406.5 493.5,-406.5 493.5,-382.5 412.5,-382.5"/>
<text text-anchor="start" x="426" y="-390.7" font-family="Times,serif" font-size="16.00">integer+</text>
</g>
</g>
</svg>
