<?xml version="1.0" encoding="UTF-8" standalone="no"?>
<!DOCTYPE svg PUBLIC "-//W3C//DTD SVG 1.1//EN"
 "http://www.w3.org/Graphics/SVG/1.1/DTD/svg11.dtd">
<!-- Generated by graphviz version 8.0.5 (20230430.1635)
 -->
<!-- Title: erd Pages: 1 -->
<svg width="1010pt" height="621pt"
 viewBox="0.00 0.00 1010.00 620.75" xmlns="http://www.w3.org/2000/svg" xmlns:xlink="http://www.w3.org/1999/xlink">
<g id="graph0" class="graph" transform="scale(1 1) rotate(0) translate(4 616.75)">
<title>erd</title>
<polygon fill="white" stroke="none" points="-4,4 -4,-616.75 1006,-616.75 1006,4 -4,4"/>
<text text-anchor="middle" x="501" y="-580.25" font-family="Times,serif" font-size="30.00" fill="blue">Moderation Stage Data</text>
<!-- moderation -->
<g id="node1" class="node">
<title>moderation</title>
<polygon fill="#009879" stroke="none" points="0,-338 0,-368 764,-368 764,-338 0,-338"/>
<polygon fill="none" stroke="black" points="0,-338 0,-368 764,-368 764,-338 0,-338"/>
<text text-anchor="start" x="322" y="-347" font-family="Courier bold italic" font-weight="bold" font-size="20.00" fill="white">moderation</text>
<polygon fill="none" stroke="black" points="0,-311 0,-338 89,-338 89,-311 0,-311"/>
<text text-anchor="start" x="13" y="-318.9" font-family="Courier bold" font-weight="bold" font-size="18.00">Column</text>
<polygon fill="none" stroke="black" points="89,-311 89,-338 148,-338 148,-311 89,-311"/>
<text text-anchor="start" x="97.5" y="-318.9" font-family="Courier bold" font-weight="bold" font-size="18.00">Type</text>
<polygon fill="none" stroke="black" points="148,-311 148,-338 764,-338 764,-311 148,-311"/>
<text text-anchor="start" x="398.25" y="-318.9" font-family="Courier bold" font-weight="bold" font-size="18.00">Description</text>
<polygon fill="#54ff9f" stroke="none" points="0,-287 0,-311 89,-311 89,-287 0,-287"/>
<polygon fill="none" stroke="black" points="0,-287 0,-311 89,-311 89,-287 0,-287"/>
<text text-anchor="start" x="3" y="-292.8" font-family="Times,serif" font-size="16.00">row_id</text>
<polygon fill="#54ff9f" stroke="none" points="89,-287 89,-311 148,-311 148,-287 89,-287"/>
<polygon fill="none" stroke="black" points="89,-287 89,-311 148,-311 148,-287 89,-287"/>
<text text-anchor="start" x="91.88" y="-292.8" font-family="Times,serif" font-size="16.00">integer+</text>
<polygon fill="#54ff9f" stroke="none" points="148,-287 148,-311 764,-311 764,-287 148,-287"/>
<polygon fill="none" stroke="black" points="148,-287 148,-311 764,-311 764,-287 148,-287"/>
<text text-anchor="start" x="151" y="-294.95" font-family="Monospace" font-style="italic" font-size="14.00" fill="#7f7f7f">Synthetic ID of this moderation.</text>
<polygon fill="none" stroke="black" points="0,-263 0,-287 89,-287 89,-263 0,-263"/>
<text text-anchor="start" x="3" y="-268.8" font-family="Times,serif" font-size="16.00">review_id</text>
<polygon fill="none" stroke="black" points="89,-263 89,-287 148,-287 148,-263 89,-263"/>
<text text-anchor="start" x="96.38" y="-268.8" font-family="Times,serif" font-size="16.00">integer</text>
<polygon fill="none" stroke="black" points="148,-263 148,-287 764,-287 764,-263 148,-263"/>
<text text-anchor="start" x="151" y="-270.95" font-family="Monospace" font-style="italic" font-size="14.00" fill="#7f7f7f">The review the moderation is related to.</text>
<polygon fill="none" stroke="black" points="0,-239 0,-263 89,-263 89,-239 0,-239"/>
<text text-anchor="start" x="3" y="-244.8" font-family="Times,serif" font-size="16.00">user_id</text>
<polygon fill="none" stroke="black" points="89,-239 89,-263 148,-263 148,-239 89,-239"/>
<text text-anchor="start" x="96.38" y="-244.8" font-family="Times,serif" font-size="16.00">integer</text>
<polygon fill="none" stroke="black" points="148,-239 148,-263 764,-263 764,-239 148,-239"/>
<text text-anchor="start" x="151" y="-246.95" font-family="Monospace" font-style="italic" font-size="14.00" fill="#7f7f7f">The user the moderation is submitted from.</text>
<polygon fill="none" stroke="black" points="0,-215 0,-239 89,-239 89,-215 0,-215"/>
<text text-anchor="start" x="3" y="-220.8" font-family="Times,serif" font-size="16.00">classification</text>
<polygon fill="none" stroke="black" points="89,-215 89,-239 148,-239 148,-215 89,-215"/>
<text text-anchor="start" x="96.38" y="-220.8" font-family="Times,serif" font-size="16.00">integer</text>
<polygon fill="none" stroke="black" points="148,-215 148,-239 764,-239 764,-215 148,-215"/>
<text text-anchor="start" x="151" y="-222.95" font-family="Monospace" font-style="italic" font-size="14.00" fill="#7f7f7f">The value used to describe the moderation (e.g. 0: excluded, 1: included).</text>
<polygon fill="none" stroke="black" points="0,-191 0,-215 89,-215 89,-191 0,-191"/>
<text text-anchor="start" x="3" y="-196.8" font-family="Times,serif" font-size="16.00">rationale</text>
<polygon fill="none" stroke="black" points="89,-191 89,-215 148,-215 148,-191 89,-191"/>
<text text-anchor="start" x="93.38" y="-197.8" font-family="Times,serif" font-style="italic" font-size="16.00">varchar</text>
<polygon fill="none" stroke="black" points="148,-191 148,-215 764,-215 764,-191 148,-191"/>
<text text-anchor="start" x="151" y="-198.95" font-family="Monospace" font-style="italic" font-size="14.00" fill="#7f7f7f">The rationale for the given classification.</text>
<polygon fill="#333333" stroke="none" points="0,-169 0,-191 764,-191 764,-169 0,-169"/>
<polygon fill="none" stroke="black" points="0,-169 0,-191 764,-191 764,-169 0,-169"/>
<text text-anchor="start" x="3" y="-175.7" font-family="Monospace" font-style="italic" font-size="14.00" fill="white">An individual moderation for a proposal review.</text>
</g>
<!-- config -->
<g id="node3" class="node">
<title>config</title>
<polygon fill="#009879" stroke="none" points="862,-101 862,-131 940,-131 940,-101 862,-101"/>
<polygon fill="none" stroke="black" points="862,-101 862,-131 940,-131 940,-101 862,-101"/>
<text text-anchor="start" x="865" y="-110" font-family="Courier bold italic" font-weight="bold" font-size="20.00" fill="white">config</text>
<polygon fill="none" stroke="black" points="862,-74 862,-101 940,-101 940,-74 862,-74"/>
<text text-anchor="start" x="869.5" y="-81.9" font-family="Courier bold" font-weight="bold" font-size="18.00">Column</text>
<polygon fill="none" stroke="black" points="862,-50 862,-74 940,-74 940,-50 862,-50"/>
<text text-anchor="start" x="865" y="-55.8" font-family="Times,serif" font-size="16.00">row_id</text>
<polygon fill="#333333" stroke="none" points="862,-28 862,-50 940,-50 940,-28 862,-28"/>
<polygon fill="none" stroke="black" points="862,-28 862,-50 940,-50 940,-28 862,-28"/>
<text text-anchor="start" x="865" y="-34.7" font-family="Monospace" font-style="italic" font-size="14.00" fill="white">ABRIDGED</text>
</g>
<!-- moderation&#45;&gt;config -->
<g id="edge4" class="edge">
<title>moderation:user_id_out&#45;&gt;config:row_id</title>
<path fill="none" stroke="black" d="M764,-250.5C807.52,-250.5 813.12,-89.88 850.71,-64.78"/>
<polygon fill="black" stroke="black" points="851.54,-67.87 860,-61.5 849.41,-61.2 851.54,-67.87"/>
</g>
<!-- proposal_review -->
<g id="node4" class="node">
<title>proposal_review</title>
<polygon fill="#009879" stroke="none" points="808,-286 808,-316 994,-316 994,-286 808,-286"/>
<polygon fill="none" stroke="black" points="808,-286 808,-316 994,-316 994,-286 808,-286"/>
<text text-anchor="start" x="811" y="-295" font-family="Courier bold italic" font-weight="bold" font-size="20.00" fill="white">proposal_review</text>
<polygon fill="none" stroke="black" points="808,-259 808,-286 994,-286 994,-259 808,-259"/>
<text text-anchor="start" x="869.5" y="-266.9" font-family="Courier bold" font-weight="bold" font-size="18.00">Column</text>
<polygon fill="none" stroke="black" points="808,-235 808,-259 994,-259 994,-235 808,-235"/>
<text text-anchor="start" x="811" y="-240.8" font-family="Times,serif" font-size="16.00">row_id</text>
<polygon fill="#333333" stroke="none" points="808,-213 808,-235 994,-235 994,-213 808,-213"/>
<polygon fill="none" stroke="black" points="808,-213 808,-235 994,-235 994,-213 808,-213"/>
<text text-anchor="start" x="811" y="-219.7" font-family="Monospace" font-style="italic" font-size="14.00" fill="white">ABRIDGED</text>
</g>
<!-- moderation&#45;&gt;proposal_review -->
<g id="edge3" class="edge">
<title>moderation:review_id_out&#45;&gt;proposal_review:row_id</title>
<path fill="none" stroke="black" d="M764,-275.5C782.73,-275.5 784.19,-256.36 796.45,-249.18"/>
<polygon fill="black" stroke="black" points="797.17,-252.35 806,-246.5 795.45,-245.57 797.17,-252.35"/>
</g>
<!-- moderation_allocation -->
<g id="node2" class="node">
<title>moderation_allocation</title>
<polygon fill="#009879" stroke="none" points="142,-121 142,-151 622,-151 622,-121 142,-121"/>
<polygon fill="none" stroke="black" points="142,-121 142,-151 622,-151 622,-121 142,-121"/>
<text text-anchor="start" x="256" y="-130" font-family="Courier bold italic" font-weight="bold" font-size="20.00" fill="white">moderation_allocation</text>
<polygon fill="none" stroke="black" points="142,-94 142,-121 211,-121 211,-94 142,-94"/>
<text text-anchor="start" x="145" y="-101.9" font-family="Courier bold" font-weight="bold" font-size="18.00">Column</text>
<polygon fill="none" stroke="black" points="211,-94 211,-121 270,-121 270,-94 211,-94"/>
<text text-anchor="start" x="219.5" y="-101.9" font-family="Courier bold" font-weight="bold" font-size="18.00">Type</text>
<polygon fill="none" stroke="black" points="270,-94 270,-121 622,-121 622,-94 270,-94"/>
<text text-anchor="start" x="388.25" y="-101.9" font-family="Courier bold" font-weight="bold" font-size="18.00">Description</text>
<polygon fill="#54ff9f" stroke="none" points="142,-70 142,-94 211,-94 211,-70 142,-70"/>
<polygon fill="none" stroke="black" points="142,-70 142,-94 211,-94 211,-70 142,-70"/>
<text text-anchor="start" x="145" y="-75.8" font-family="Times,serif" font-size="16.00">row_id</text>
<polygon fill="#54ff9f" stroke="none" points="211,-70 211,-94 270,-94 270,-70 211,-70"/>
<polygon fill="none" stroke="black" points="211,-70 211,-94 270,-94 270,-70 211,-70"/>
<text text-anchor="start" x="213.88" y="-75.8" font-family="Times,serif" font-size="16.00">integer+</text>
<polygon fill="#54ff9f" stroke="none" points="270,-70 270,-94 622,-94 622,-70 270,-70"/>
<polygon fill="none" stroke="black" points="270,-70 270,-94 622,-94 622,-70 270,-70"/>
<text text-anchor="start" x="273" y="-77.95" font-family="Monospace" font-style="italic" font-size="14.00" fill="#7f7f7f">Synthetic ID of this relationship.</text>
<polygon fill="none" stroke="black" points="142,-46 142,-70 211,-70 211,-46 142,-46"/>
<text text-anchor="start" x="145" y="-51.8" font-family="Times,serif" font-size="16.00">review_id</text>
<polygon fill="none" stroke="black" points="211,-46 211,-70 270,-70 270,-46 211,-46"/>
<text text-anchor="start" x="218.38" y="-51.8" font-family="Times,serif" font-size="16.00">integer</text>
<polygon fill="none" stroke="black" points="270,-46 270,-70 622,-70 622,-46 270,-46"/>
<text text-anchor="start" x="273" y="-53.95" font-family="Monospace" font-style="italic" font-size="14.00" fill="#7f7f7f">The review the relationship is related to.</text>
<polygon fill="none" stroke="black" points="142,-22 142,-46 211,-46 211,-22 142,-22"/>
<text text-anchor="start" x="145" y="-27.8" font-family="Times,serif" font-size="16.00">user_id</text>
<polygon fill="none" stroke="black" points="211,-22 211,-46 270,-46 270,-22 211,-22"/>
<text text-anchor="start" x="218.38" y="-27.8" font-family="Times,serif" font-size="16.00">integer</text>
<polygon fill="none" stroke="black" points="270,-22 270,-46 622,-46 622,-22 270,-22"/>
<text text-anchor="start" x="273" y="-29.95" font-family="Monospace" font-style="italic" font-size="14.00" fill="#7f7f7f">The user the relationship is related to.</text>
<polygon fill="#333333" stroke="none" points="142,0 142,-22 622,-22 622,0 142,0"/>
<polygon fill="none" stroke="black" points="142,0 142,-22 622,-22 622,0 142,0"/>
<text text-anchor="start" x="145" y="-6.7" font-family="Monospace" font-style="italic" font-size="14.00" fill="white">The relationship between users and proposals_reviews.</text>
</g>
<!-- moderation_allocation&#45;&gt;config -->
<g id="edge2" class="edge">
<title>moderation_allocation:user_id_out&#45;&gt;config:row_id</title>
<path fill="none" stroke="black" d="M623,-33.5C725.76,-33.5 752.64,-59.57 850.06,-61.4"/>
<polygon fill="black" stroke="black" points="849.97,-64.91 860,-61.5 850.03,-57.91 849.97,-64.91"/>
</g>
<!-- moderation_allocation&#45;&gt;proposal_review -->
<g id="edge1" class="edge">
<title>moderation_allocation:review_id_out&#45;&gt;proposal_review:row_id</title>
<path fill="none" stroke="black" d="M623,-57.5C700.61,-57.5 713.9,-101.23 764,-160.5 788.89,-189.95 769.08,-236.27 796.37,-245.04"/>
<polygon fill="black" stroke="black" points="795.62,-248.61 806,-246.5 796.57,-241.67 795.62,-248.61"/>
</g>
<!-- LEGEND -->
<g id="node5" class="node">
<title>LEGEND</title>
<polygon fill="Pink" stroke="none" points="273,-537 273,-567 491,-567 491,-537 273,-537"/>
<polygon fill="none" stroke="black" points="273,-537 273,-567 491,-567 491,-537 273,-537"/>
<text text-anchor="start" x="346" y="-546" font-family="Courier bold italic" font-weight="bold" font-size="20.00" fill="white">LEGEND</text>
<polygon fill="none" stroke="black" points="273,-510 273,-537 411,-537 411,-510 273,-510"/>
<text text-anchor="start" x="321" y="-517.9" font-family="Courier bold" font-weight="bold" font-size="18.00">Type</text>
<polygon fill="none" stroke="black" points="411,-510 411,-537 491,-537 491,-510 411,-510"/>
<text text-anchor="start" x="414.25" y="-517.9" font-family="Courier bold" font-weight="bold" font-size="18.00">Example</text>
<polygon fill="#54ff9f" stroke="none" points="273,-486 273,-510 411,-510 411,-486 273,-486"/>
<polygon fill="none" stroke="black" points="273,-486 273,-510 411,-510 411,-486 273,-486"/>
<text text-anchor="start" x="276" y="-491.8" font-family="Times,serif" font-size="16.00">Primary Key</text>
<polygon fill="#54ff9f" stroke="none" points="411,-486 411,-510 491,-510 491,-486 411,-486"/>
<polygon fill="none" stroke="black" points="411,-486 411,-510 491,-510 491,-486 411,-486"/>
<text text-anchor="start" x="424.38" y="-491.8" font-family="Times,serif" font-size="16.00">integer+</text>
<polygon fill="none" stroke="black" points="273,-462 273,-486 411,-486 411,-462 273,-462"/>
<text text-anchor="start" x="276" y="-467.8" font-family="Times,serif" font-size="16.00">Standard Field</text>
<polygon fill="none" stroke="black" points="411,-462 411,-486 491,-486 491,-462 411,-462"/>
<text text-anchor="start" x="433.75" y="-467.8" font-family="Times,serif" font-size="16.00">bytea</text>
<polygon fill="none" stroke="black" points="273,-438 273,-462 411,-462 411,-438 273,-438"/>
<text text-anchor="start" x="276" y="-443.8" font-family="Times,serif" font-size="16.00">Nullable Field</text>
<polygon fill="none" stroke="black" points="411,-438 411,-462 491,-462 491,-438 411,-438"/>
<text text-anchor="start" x="439.75" y="-444.8" font-family="Times,serif" font-style="italic" font-size="16.00">text</text>
<polygon fill="none" stroke="black" points="273,-414 273,-438 411,-438 411,-414 273,-414"/>
<text text-anchor="start" x="276" y="-419.8" font-family="Times,serif" font-size="16.00">Sized Field</text>
<polygon fill="none" stroke="black" points="411,-414 411,-438 491,-438 491,-414 411,-414"/>
<text text-anchor="start" x="413.88" y="-419.8" font-family="Times,serif" font-size="16.00">varchar(32)</text>
<polygon fill="none" stroke="black" points="273,-390 273,-414 411,-414 411,-390 273,-390"/>
<text text-anchor="start" x="276" y="-395.8" font-family="Times,serif" font-size="16.00">Autoincrement Field</text>
<polygon fill="none" stroke="black" points="411,-390 411,-414 491,-414 491,-390 411,-390"/>
<text text-anchor="start" x="424.38" y="-395.8" font-family="Times,serif" font-size="16.00">integer+</text>
</g>
</g>
</svg>
