<?xml version="1.0" encoding="UTF-8" standalone="no"?>
<!DOCTYPE svg PUBLIC "-//W3C//DTD SVG 1.1//EN"
 "http://www.w3.org/Graphics/SVG/1.1/DTD/svg11.dtd">
<!-- Generated by graphviz version 8.0.5 (20230430.1635)
 -->
<!-- Title: erd Pages: 1 -->
<svg width="1276pt" height="637pt"
 viewBox="0.00 0.00 1276.00 636.75" xmlns="http://www.w3.org/2000/svg" xmlns:xlink="http://www.w3.org/1999/xlink">
<g id="graph0" class="graph" transform="scale(1 1) rotate(0) translate(4 632.75)">
<title>erd</title>
<polygon fill="white" stroke="none" points="-4,4 -4,-632.75 1272,-632.75 1272,4 -4,4"/>
<text text-anchor="middle" x="634" y="-596.25" font-family="Times,serif" font-size="30.00" fill="blue">Configuration Data</text>
<!-- config -->
<g id="node1" class="node">
<title>config</title>
<polygon fill="#009879" stroke="none" points="0,-354 0,-384 573,-384 573,-354 0,-354"/>
<polygon fill="none" stroke="black" points="0,-354 0,-384 573,-384 573,-354 0,-354"/>
<text text-anchor="start" x="250.5" y="-363" font-family="Courier bold italic" font-weight="bold" font-size="20.00" fill="white">config</text>
<polygon fill="none" stroke="black" points="0,-327 0,-354 96,-354 96,-327 0,-327"/>
<text text-anchor="start" x="16.5" y="-334.9" font-family="Courier bold" font-weight="bold" font-size="18.00">Column</text>
<polygon fill="none" stroke="black" points="96,-327 96,-354 155,-354 155,-327 96,-327"/>
<text text-anchor="start" x="104.5" y="-334.9" font-family="Courier bold" font-weight="bold" font-size="18.00">Type</text>
<polygon fill="none" stroke="black" points="155,-327 155,-354 573,-354 573,-327 155,-327"/>
<text text-anchor="start" x="306.25" y="-334.9" font-family="Courier bold" font-weight="bold" font-size="18.00">Description</text>
<polygon fill="#54ff9f" stroke="none" points="0,-293 0,-327 96,-327 96,-293 0,-293"/>
<polygon fill="none" stroke="black" points="0,-293 0,-327 96,-327 96,-293 0,-293"/>
<text text-anchor="start" x="3" y="-304.18" font-family="Times,serif" font-size="16.00">row_id</text>
<polygon fill="#54ff9f" stroke="none" points="96,-293 96,-327 155,-327 155,-293 96,-293"/>
<polygon fill="none" stroke="black" points="96,-293 96,-327 155,-327 155,-293 96,-293"/>
<text text-anchor="start" x="98.88" y="-304.18" font-family="Times,serif" font-size="16.00">integer+</text>
<polygon fill="#54ff9f" stroke="none" points="155,-293 155,-327 573,-327 573,-293 155,-293"/>
<polygon fill="none" stroke="black" points="155,-293 155,-327 573,-327 573,-293 155,-293"/>
<text text-anchor="start" x="158" y="-311.7" font-family="Monospace" font-style="italic" font-size="14.00" fill="#7f7f7f">Synthetic unique key. </text>
<text text-anchor="start" x="158" y="-297.7" font-family="Monospace" font-style="italic" font-size="14.00" fill="#7f7f7f">Always lookup using `id.id2.id3`</text>
<polygon fill="none" stroke="black" points="0,-269 0,-293 96,-293 96,-269 0,-269"/>
<text text-anchor="start" x="3" y="-274.8" font-family="Times,serif" font-size="16.00">id</text>
<polygon fill="none" stroke="black" points="96,-269 96,-293 155,-293 155,-269 96,-269"/>
<text text-anchor="start" x="101.88" y="-274.8" font-family="Times,serif" font-size="16.00">varchar</text>
<polygon fill="none" stroke="black" points="155,-269 155,-293 573,-293 573,-269 155,-269"/>
<text text-anchor="start" x="158" y="-276.95" font-family="Monospace" font-style="italic" font-size="14.00" fill="#7f7f7f">The name/id of the general config value/variable</text>
<polygon fill="none" stroke="black" points="0,-235 0,-269 96,-269 96,-235 0,-235"/>
<text text-anchor="start" x="3" y="-246.18" font-family="Times,serif" font-size="16.00">id2</text>
<polygon fill="none" stroke="black" points="96,-235 96,-269 155,-269 155,-235 96,-235"/>
<text text-anchor="start" x="101.88" y="-246.18" font-family="Times,serif" font-size="16.00">varchar</text>
<polygon fill="none" stroke="black" points="155,-235 155,-269 573,-269 573,-235 155,-235"/>
<text text-anchor="start" x="158" y="-253.7" font-family="Monospace" font-style="italic" font-size="14.00" fill="#7f7f7f">2nd ID of the general config value. </text>
<text text-anchor="start" x="158" y="-239.7" font-family="Monospace" font-style="italic" font-size="14.00" fill="#7f7f7f">Must be defined, use &quot;&quot; if not required.</text>
<polygon fill="none" stroke="black" points="0,-201 0,-235 96,-235 96,-201 0,-201"/>
<text text-anchor="start" x="3" y="-212.18" font-family="Times,serif" font-size="16.00">id3</text>
<polygon fill="none" stroke="black" points="96,-201 96,-235 155,-235 155,-201 96,-201"/>
<text text-anchor="start" x="101.88" y="-212.18" font-family="Times,serif" font-size="16.00">varchar</text>
<polygon fill="none" stroke="black" points="155,-201 155,-235 573,-235 573,-201 155,-201"/>
<text text-anchor="start" x="158" y="-219.7" font-family="Monospace" font-style="italic" font-size="14.00" fill="#7f7f7f">3rd ID of the general config value.</text>
<text text-anchor="start" x="158" y="-205.7" font-family="Monospace" font-style="italic" font-size="14.00" fill="#7f7f7f">Must be defined, use &quot;&quot; if not required.</text>
<polygon fill="none" stroke="black" points="0,-177 0,-201 96,-201 96,-177 0,-177"/>
<text text-anchor="start" x="3" y="-182.8" font-family="Times,serif" font-size="16.00">value</text>
<polygon fill="none" stroke="black" points="96,-177 96,-201 155,-201 155,-177 96,-177"/>
<text text-anchor="start" x="107.88" y="-183.8" font-family="Times,serif" font-style="italic" font-size="16.00">jsonb</text>
<polygon fill="none" stroke="black" points="155,-177 155,-201 573,-201 573,-177 155,-177"/>
<text text-anchor="start" x="158" y="-184.95" font-family="Monospace" font-style="italic" font-size="14.00" fill="#7f7f7f">The JSON value of the system variable `id.id2.id3`</text>
<polygon fill="none" stroke="black" points="0,-143 0,-177 96,-177 96,-143 0,-143"/>
<text text-anchor="start" x="3" y="-154.18" font-family="Times,serif" font-size="16.00">value_schema</text>
<polygon fill="none" stroke="black" points="96,-143 96,-177 155,-177 155,-143 96,-143"/>
<text text-anchor="start" x="110.88" y="-155.18" font-family="Times,serif" font-style="italic" font-size="16.00">uuid</text>
<polygon fill="none" stroke="black" points="155,-143 155,-177 573,-177 573,-143 155,-143"/>
<text text-anchor="start" x="158" y="-161.7" font-family="Monospace" font-style="italic" font-size="14.00" fill="#7f7f7f">The Schema the Config Value conforms to.</text>
<text text-anchor="start" x="158" y="-147.7" font-family="Monospace" font-style="italic" font-size="14.00" fill="#7f7f7f">The `value` field must conform to this schema.</text>
<polygon fill="#333333" stroke="none" points="0,-95 0,-143 573,-143 573,-95 0,-95"/>
<polygon fill="none" stroke="black" points="0,-95 0,-143 573,-143 573,-95 0,-95"/>
<text text-anchor="start" x="3" y="-127.7" font-family="Monospace" font-style="italic" font-size="14.00" fill="white">General JSON Configuration and Data Values.</text>
<text text-anchor="start" x="3" y="-113.7" font-family="Monospace" font-style="italic" font-size="14.00" fill="white">Defined &#160;Data Formats:</text>
<text text-anchor="start" x="3" y="-99.7" font-family="Monospace" font-style="italic" font-size="14.00" fill="white"> &#160;Currently None</text>
</g>
<!-- json_schema_type -->
<g id="node2" class="node">
<title>json_schema_type</title>
<polygon fill="#009879" stroke="none" points="609,-203 609,-233 1268,-233 1268,-203 609,-203"/>
<polygon fill="none" stroke="black" points="609,-203 609,-233 1268,-233 1268,-203 609,-203"/>
<text text-anchor="start" x="842.5" y="-212" font-family="Courier bold italic" font-weight="bold" font-size="20.00" fill="white">json_schema_type</text>
<polygon fill="none" stroke="black" points="609,-176 609,-203 678,-203 678,-176 609,-176"/>
<text text-anchor="start" x="612" y="-183.9" font-family="Courier bold" font-weight="bold" font-size="18.00">Column</text>
<polygon fill="none" stroke="black" points="678,-176 678,-203 726,-203 726,-176 678,-176"/>
<text text-anchor="start" x="681" y="-183.9" font-family="Courier bold" font-weight="bold" font-size="18.00">Type</text>
<polygon fill="none" stroke="black" points="726,-176 726,-203 1268,-203 1268,-176 726,-176"/>
<text text-anchor="start" x="939.25" y="-183.9" font-family="Courier bold" font-weight="bold" font-size="18.00">Description</text>
<polygon fill="#54ff9f" stroke="none" points="609,-142 609,-176 678,-176 678,-142 609,-142"/>
<polygon fill="none" stroke="black" points="609,-142 609,-176 678,-176 678,-142 609,-142"/>
<text text-anchor="start" x="612" y="-153.18" font-family="Times,serif" font-size="16.00">id</text>
<polygon fill="#54ff9f" stroke="none" points="678,-142 678,-176 726,-176 726,-142 678,-142"/>
<polygon fill="none" stroke="black" points="678,-142 678,-176 726,-176 726,-142 678,-142"/>
<text text-anchor="start" x="687.38" y="-153.18" font-family="Times,serif" font-size="16.00">uuid</text>
<polygon fill="#54ff9f" stroke="none" points="726,-142 726,-176 1268,-176 1268,-142 726,-142"/>
<polygon fill="none" stroke="black" points="726,-142 726,-176 1268,-176 1268,-142 726,-142"/>
<text text-anchor="start" x="729" y="-160.7" font-family="Monospace" font-style="italic" font-size="14.00" fill="#7f7f7f">Synthetic Unique ID for each json_schema_type (UUIDv4).</text>
<text text-anchor="start" x="729" y="-146.7" font-family="Monospace" font-style="italic" font-size="14.00" fill="#7f7f7f">Must match the `UUID` component of the $id URI inside the schema.</text>
<polygon fill="none" stroke="black" points="609,-94 609,-142 678,-142 678,-94 609,-94"/>
<text text-anchor="start" x="612" y="-112.17" font-family="Times,serif" font-size="16.00">type</text>
<polygon fill="none" stroke="black" points="678,-94 678,-142 726,-142 726,-94 678,-94"/>
<text text-anchor="start" x="690" y="-112.17" font-family="Times,serif" font-size="16.00">text</text>
<polygon fill="none" stroke="black" points="726,-94 726,-142 1268,-142 1268,-94 726,-94"/>
<text text-anchor="start" x="729" y="-126.7" font-family="Monospace" font-style="italic" font-size="14.00" fill="#7f7f7f">The type of the json schema type.</text>
<text text-anchor="start" x="729" y="-112.7" font-family="Monospace" font-style="italic" font-size="14.00" fill="#7f7f7f">eg. &quot;event&quot;</text>
<text text-anchor="start" x="729" y="-98.7" font-family="Monospace" font-style="italic" font-size="14.00" fill="#7f7f7f">Must match the `type` component of the $id URI inside the schema.</text>
<polygon fill="none" stroke="black" points="609,-46 609,-94 678,-94 678,-46 609,-46"/>
<text text-anchor="start" x="612" y="-64.17" font-family="Times,serif" font-size="16.00">name</text>
<polygon fill="none" stroke="black" points="678,-46 678,-94 726,-94 726,-46 678,-46"/>
<text text-anchor="start" x="690" y="-64.17" font-family="Times,serif" font-size="16.00">text</text>
<polygon fill="none" stroke="black" points="726,-46 726,-94 1268,-94 1268,-46 726,-46"/>
<text text-anchor="start" x="729" y="-78.7" font-family="Monospace" font-style="italic" font-size="14.00" fill="#7f7f7f">The name of the json schema type.</text>
<text text-anchor="start" x="729" y="-64.7" font-family="Monospace" font-style="italic" font-size="14.00" fill="#7f7f7f">eg. &quot;catalyst_v1&quot;</text>
<text text-anchor="start" x="729" y="-50.7" font-family="Monospace" font-style="italic" font-size="14.00" fill="#7f7f7f">Must match the `name` component of the $id URI inside the schema.</text>
<polygon fill="none" stroke="black" points="609,-22 609,-46 678,-46 678,-22 609,-22"/>
<text text-anchor="start" x="612" y="-27.8" font-family="Times,serif" font-size="16.00">schema</text>
<polygon fill="none" stroke="black" points="678,-22 678,-46 726,-46 726,-22 678,-22"/>
<text text-anchor="start" x="684.38" y="-27.8" font-family="Times,serif" font-size="16.00">jsonb</text>
<polygon fill="none" stroke="black" points="726,-22 726,-46 1268,-46 1268,-22 726,-22"/>
<text text-anchor="start" x="729" y="-29.95" font-family="Monospace" font-style="italic" font-size="14.00" fill="#7f7f7f">none</text>
<polygon fill="#333333" stroke="none" points="609,0 609,-22 1268,-22 1268,0 609,0"/>
<polygon fill="none" stroke="black" points="609,0 609,-22 1268,-22 1268,0 609,0"/>
<text text-anchor="start" x="612" y="-6.7" font-family="Monospace" font-style="italic" font-size="14.00" fill="white">Library of defined json schemas used to validate JSONB field contents.</text>
</g>
<!-- config&#45;&gt;json_schema_type -->
<g id="edge1" class="edge">
<title>config:value_schema_out&#45;&gt;json_schema_type:id</title>
<path fill="none" stroke="black" d="M573,-159.5C584.62,-159.5 589.92,-159.5 598.08,-159.5"/>
<polygon fill="black" stroke="black" points="598,-163 608,-159.5 598,-156 598,-163"/>
</g>
<!-- LEGEND -->
<g id="node3" class="node">
<title>LEGEND</title>
<polygon fill="Pink" stroke="none" points="177.5,-553 177.5,-583 395.5,-583 395.5,-553 177.5,-553"/>
<polygon fill="none" stroke="black" points="177.5,-553 177.5,-583 395.5,-583 395.5,-553 177.5,-553"/>
<text text-anchor="start" x="250.5" y="-562" font-family="Courier bold italic" font-weight="bold" font-size="20.00" fill="white">LEGEND</text>
<polygon fill="none" stroke="black" points="177.5,-526 177.5,-553 315.5,-553 315.5,-526 177.5,-526"/>
<text text-anchor="start" x="225.5" y="-533.9" font-family="Courier bold" font-weight="bold" font-size="18.00">Type</text>
<polygon fill="none" stroke="black" points="315.5,-526 315.5,-553 395.5,-553 395.5,-526 315.5,-526"/>
<text text-anchor="start" x="318.75" y="-533.9" font-family="Courier bold" font-weight="bold" font-size="18.00">Example</text>
<polygon fill="#54ff9f" stroke="none" points="177.5,-502 177.5,-526 315.5,-526 315.5,-502 177.5,-502"/>
<polygon fill="none" stroke="black" points="177.5,-502 177.5,-526 315.5,-526 315.5,-502 177.5,-502"/>
<text text-anchor="start" x="180.5" y="-507.8" font-family="Times,serif" font-size="16.00">Primary Key</text>
<polygon fill="#54ff9f" stroke="none" points="315.5,-502 315.5,-526 395.5,-526 395.5,-502 315.5,-502"/>
<polygon fill="none" stroke="black" points="315.5,-502 315.5,-526 395.5,-526 395.5,-502 315.5,-502"/>
<text text-anchor="start" x="328.88" y="-507.8" font-family="Times,serif" font-size="16.00">integer+</text>
<polygon fill="none" stroke="black" points="177.5,-478 177.5,-502 315.5,-502 315.5,-478 177.5,-478"/>
<text text-anchor="start" x="180.5" y="-483.8" font-family="Times,serif" font-size="16.00">Standard Field</text>
<polygon fill="none" stroke="black" points="315.5,-478 315.5,-502 395.5,-502 395.5,-478 315.5,-478"/>
<text text-anchor="start" x="338.25" y="-483.8" font-family="Times,serif" font-size="16.00">bytea</text>
<polygon fill="none" stroke="black" points="177.5,-454 177.5,-478 315.5,-478 315.5,-454 177.5,-454"/>
<text text-anchor="start" x="180.5" y="-459.8" font-family="Times,serif" font-size="16.00">Nullable Field</text>
<polygon fill="none" stroke="black" points="315.5,-454 315.5,-478 395.5,-478 395.5,-454 315.5,-454"/>
<text text-anchor="start" x="344.25" y="-460.8" font-family="Times,serif" font-style="italic" font-size="16.00">text</text>
<polygon fill="none" stroke="black" points="177.5,-430 177.5,-454 315.5,-454 315.5,-430 177.5,-430"/>
<text text-anchor="start" x="180.5" y="-435.8" font-family="Times,serif" font-size="16.00">Sized Field</text>
<polygon fill="none" stroke="black" points="315.5,-430 315.5,-454 395.5,-454 395.5,-430 315.5,-430"/>
<text text-anchor="start" x="318.38" y="-435.8" font-family="Times,serif" font-size="16.00">varchar(32)</text>
<polygon fill="none" stroke="black" points="177.5,-406 177.5,-430 315.5,-430 315.5,-406 177.5,-406"/>
<text text-anchor="start" x="180.5" y="-411.8" font-family="Times,serif" font-size="16.00">Autoincrement Field</text>
<polygon fill="none" stroke="black" points="315.5,-406 315.5,-430 395.5,-430 395.5,-406 315.5,-406"/>
<text text-anchor="start" x="328.88" y="-411.8" font-family="Times,serif" font-size="16.00">integer+</text>
</g>
</g>
</svg>
