<?xml version="1.0" encoding="UTF-8" standalone="no"?>
<!DOCTYPE svg PUBLIC "-//W3C//DTD SVG 1.1//EN"
 "http://www.w3.org/Graphics/SVG/1.1/DTD/svg11.dtd">
<!-- Generated by graphviz version 8.0.5 (20230430.1635)
 -->
<!-- Title: erd Pages: 1 -->
<svg width="1737pt" height="736pt"
 viewBox="0.00 0.00 1737.00 735.75" xmlns="http://www.w3.org/2000/svg" xmlns:xlink="http://www.w3.org/1999/xlink">
<g id="graph0" class="graph" transform="scale(1 1) rotate(0) translate(4 731.75)">
<title>erd</title>
<polygon fill="white" stroke="none" points="-4,4 -4,-731.75 1733,-731.75 1733,4 -4,4"/>
<text text-anchor="middle" x="864.5" y="-695.25" font-family="Times,serif" font-size="30.00" fill="blue">Event Data</text>
<!-- event -->
<g id="node1" class="node">
<title>event</title>
<polygon fill="#009879" stroke="none" points="0,-453 0,-483 738,-483 738,-453 0,-453"/>
<polygon fill="none" stroke="black" points="0,-453 0,-483 738,-483 738,-453 0,-453"/>
<text text-anchor="start" x="339" y="-462" font-family="Courier bold italic" font-weight="bold" font-size="20.00" fill="white">event</text>
<polygon fill="none" stroke="black" points="0,-426 0,-453 92,-453 92,-426 0,-426"/>
<text text-anchor="start" x="14.5" y="-433.9" font-family="Courier bold" font-weight="bold" font-size="18.00">Column</text>
<polygon fill="none" stroke="black" points="92,-426 92,-453 163,-453 163,-426 92,-426"/>
<text text-anchor="start" x="106.5" y="-433.9" font-family="Courier bold" font-weight="bold" font-size="18.00">Type</text>
<polygon fill="none" stroke="black" points="163,-426 163,-453 738,-453 738,-426 163,-426"/>
<text text-anchor="start" x="392.75" y="-433.9" font-family="Courier bold" font-weight="bold" font-size="18.00">Description</text>
<polygon fill="#54ff9f" stroke="none" points="0,-402 0,-426 92,-426 92,-402 0,-402"/>
<polygon fill="none" stroke="black" points="0,-402 0,-426 92,-426 92,-402 0,-402"/>
<text text-anchor="start" x="3" y="-407.8" font-family="Times,serif" font-size="16.00">id</text>
<polygon fill="#54ff9f" stroke="none" points="92,-402 92,-426 163,-426 163,-402 92,-402"/>
<polygon fill="none" stroke="black" points="92,-402 92,-426 163,-426 163,-402 92,-402"/>
<text text-anchor="start" x="112.88" y="-407.8" font-family="Times,serif" font-size="16.00">uuid</text>
<polygon fill="#54ff9f" stroke="none" points="163,-402 163,-426 738,-426 738,-402 163,-402"/>
<polygon fill="none" stroke="black" points="163,-402 163,-426 738,-426 738,-402 163,-402"/>
<text text-anchor="start" x="166" y="-409.95" font-family="Monospace" font-style="italic" font-size="14.00" fill="#7f7f7f">Synthetic Unique ID for each event (UUIDv4).</text>
<polygon fill="none" stroke="black" points="0,-354 0,-402 92,-402 92,-354 0,-354"/>
<text text-anchor="start" x="3" y="-372.18" font-family="Times,serif" font-size="16.00">organizer</text>
<polygon fill="none" stroke="black" points="92,-354 92,-402 163,-402 163,-354 92,-354"/>
<text text-anchor="start" x="115.5" y="-372.18" font-family="Times,serif" font-size="16.00">text</text>
<polygon fill="none" stroke="black" points="163,-354 163,-402 738,-402 738,-354 163,-354"/>
<text text-anchor="start" x="166" y="-386.7" font-family="Monospace" font-style="italic" font-size="14.00" fill="#7f7f7f">Name of the Event Organizer.</text>
<text text-anchor="start" x="166" y="-372.7" font-family="Monospace" font-style="italic" font-size="14.00" fill="#7f7f7f">Placeholder, this will need to be replaced</text>
<text text-anchor="start" x="166" y="-358.7" font-family="Monospace" font-style="italic" font-size="14.00" fill="#7f7f7f">with a reference to an authorized organization.</text>
<polygon fill="none" stroke="black" points="0,-330 0,-354 92,-354 92,-330 0,-330"/>
<text text-anchor="start" x="3" y="-335.8" font-family="Times,serif" font-size="16.00">type</text>
<polygon fill="none" stroke="black" points="92,-330 92,-354 163,-354 163,-330 92,-330"/>
<text text-anchor="start" x="112.88" y="-336.8" font-family="Times,serif" font-style="italic" font-size="16.00">uuid</text>
<polygon fill="none" stroke="black" points="163,-330 163,-354 738,-354 738,-330 163,-330"/>
<text text-anchor="start" x="166" y="-337.95" font-family="Monospace" font-style="italic" font-size="14.00" fill="#7f7f7f">The type of the event.</text>
<polygon fill="none" stroke="black" points="0,-296 0,-330 92,-330 92,-296 0,-296"/>
<text text-anchor="start" x="3" y="-307.18" font-family="Times,serif" font-size="16.00">name</text>
<polygon fill="none" stroke="black" points="92,-296 92,-330 163,-330 163,-296 92,-296"/>
<text text-anchor="start" x="115.5" y="-307.18" font-family="Times,serif" font-size="16.00">text</text>
<polygon fill="none" stroke="black" points="163,-296 163,-330 738,-330 738,-296 163,-296"/>
<text text-anchor="start" x="166" y="-314.7" font-family="Monospace" font-style="italic" font-size="14.00" fill="#7f7f7f">The name of the event.</text>
<text text-anchor="start" x="166" y="-300.7" font-family="Monospace" font-style="italic" font-size="14.00" fill="#7f7f7f">eg. &quot;Fund9&quot; or &quot;SVE1&quot;</text>
<polygon fill="none" stroke="black" points="0,-248 0,-296 92,-296 92,-248 0,-248"/>
<text text-anchor="start" x="3" y="-266.18" font-family="Times,serif" font-size="16.00">description</text>
<polygon fill="none" stroke="black" points="92,-248 92,-296 163,-296 163,-248 92,-248"/>
<text text-anchor="start" x="109.88" y="-266.18" font-family="Times,serif" font-size="16.00">jsonb</text>
<polygon fill="none" stroke="black" points="163,-248 163,-296 738,-296 738,-248 163,-248"/>
<text text-anchor="start" x="166" y="-280.7" font-family="Monospace" font-style="italic" font-size="14.00" fill="#7f7f7f">A detailed description of the purpose of the event.</text>
<text text-anchor="start" x="166" y="-266.7" font-family="Monospace" font-style="italic" font-size="14.00" fill="#7f7f7f">Must conform to the JSON Schema defined by </text>
<text text-anchor="start" x="166" y="-252.7" font-family="Monospace" font-style="italic" font-size="14.00" fill="#7f7f7f">`event_type.description_schema.`</text>
<polygon fill="none" stroke="black" points="0,-214 0,-248 92,-248 92,-214 0,-214"/>
<text text-anchor="start" x="3" y="-225.18" font-family="Times,serif" font-size="16.00">start_time</text>
<polygon fill="none" stroke="black" points="92,-214 92,-248 163,-248 163,-214 92,-214"/>
<text text-anchor="start" x="94.88" y="-226.18" font-family="Times,serif" font-style="italic" font-size="16.00">timestamp</text>
<polygon fill="none" stroke="black" points="163,-214 163,-248 738,-248 738,-214 163,-214"/>
<text text-anchor="start" x="166" y="-232.7" font-family="Monospace" font-style="italic" font-size="14.00" fill="#7f7f7f">The time (UTC) the event starts.</text>
<text text-anchor="start" x="166" y="-218.7" font-family="Monospace" font-style="italic" font-size="14.00" fill="#7f7f7f">NULL = Not yet defined.</text>
<polygon fill="none" stroke="black" points="0,-166 0,-214 92,-214 92,-166 0,-166"/>
<text text-anchor="start" x="3" y="-184.18" font-family="Times,serif" font-size="16.00">backing_start</text>
<polygon fill="none" stroke="black" points="92,-166 92,-214 163,-214 163,-166 92,-166"/>
<text text-anchor="start" x="94.88" y="-185.18" font-family="Times,serif" font-style="italic" font-size="16.00">timestamp</text>
<polygon fill="none" stroke="black" points="163,-166 163,-214 738,-214 738,-166 163,-166"/>
<text text-anchor="start" x="166" y="-198.7" font-family="Monospace" font-style="italic" font-size="14.00" fill="#7f7f7f">The time (UTC) when backers may start backing the events campaign/s.</text>
<text text-anchor="start" x="166" y="-184.7" font-family="Monospace" font-style="italic" font-size="14.00" fill="#7f7f7f">This must &gt;= event.start_time.</text>
<text text-anchor="start" x="166" y="-170.7" font-family="Monospace" font-style="italic" font-size="14.00" fill="#7f7f7f">NULL = Not yet defined.</text>
<polygon fill="none" stroke="black" points="0,-118 0,-166 92,-166 92,-118 0,-118"/>
<text text-anchor="start" x="3" y="-136.18" font-family="Times,serif" font-size="16.00">backing_end</text>
<polygon fill="none" stroke="black" points="92,-118 92,-166 163,-166 163,-118 92,-118"/>
<text text-anchor="start" x="94.88" y="-137.18" font-family="Times,serif" font-style="italic" font-size="16.00">timestamp</text>
<polygon fill="none" stroke="black" points="163,-118 163,-166 738,-166 738,-118 163,-118"/>
<text text-anchor="start" x="166" y="-150.7" font-family="Monospace" font-style="italic" font-size="14.00" fill="#7f7f7f">The time (UTC) when backers may no longer back the events campaign/s.</text>
<text text-anchor="start" x="166" y="-136.7" font-family="Monospace" font-style="italic" font-size="14.00" fill="#7f7f7f">This must &gt; event.backing_start and &lt;= event.end_time.</text>
<text text-anchor="start" x="166" y="-122.7" font-family="Monospace" font-style="italic" font-size="14.00" fill="#7f7f7f">NULL = Not yet defined.</text>
<polygon fill="none" stroke="black" points="0,-70 0,-118 92,-118 92,-70 0,-70"/>
<text text-anchor="start" x="3" y="-88.17" font-family="Times,serif" font-size="16.00">end_time</text>
<polygon fill="none" stroke="black" points="92,-70 92,-118 163,-118 163,-70 92,-70"/>
<text text-anchor="start" x="94.88" y="-89.17" font-family="Times,serif" font-style="italic" font-size="16.00">timestamp</text>
<polygon fill="none" stroke="black" points="163,-70 163,-118 738,-118 738,-70 163,-70"/>
<text text-anchor="start" x="166" y="-102.7" font-family="Monospace" font-style="italic" font-size="14.00" fill="#7f7f7f">The time (UTC) the event ends.</text>
<text text-anchor="start" x="166" y="-88.7" font-family="Monospace" font-style="italic" font-size="14.00" fill="#7f7f7f">Must be &gt;= event.backing_end.</text>
<text text-anchor="start" x="166" y="-74.7" font-family="Monospace" font-style="italic" font-size="14.00" fill="#7f7f7f">NULL = Not yet defined.</text>
<polygon fill="none" stroke="black" points="0,-22 0,-70 92,-70 92,-22 0,-22"/>
<text text-anchor="start" x="3" y="-40.17" font-family="Times,serif" font-size="16.00">data</text>
<polygon fill="none" stroke="black" points="92,-22 92,-70 163,-70 163,-22 92,-22"/>
<text text-anchor="start" x="109.88" y="-40.17" font-family="Times,serif" font-size="16.00">jsonb</text>
<polygon fill="none" stroke="black" points="163,-22 163,-70 738,-70 738,-22 163,-22"/>
<text text-anchor="start" x="166" y="-54.7" font-family="Monospace" font-style="italic" font-size="14.00" fill="#7f7f7f">Event Type specific data defined about the event.</text>
<text text-anchor="start" x="166" y="-40.7" font-family="Monospace" font-style="italic" font-size="14.00" fill="#7f7f7f">Must conform to the JSON Schema defined by</text>
<text text-anchor="start" x="166" y="-26.7" font-family="Monospace" font-style="italic" font-size="14.00" fill="#7f7f7f">`event_type.extra_data_schema.`</text>
<polygon fill="#333333" stroke="none" points="0,0 0,-22 738,-22 738,0 0,0"/>
<polygon fill="none" stroke="black" points="0,0 0,-22 738,-22 738,0 0,0"/>
<text text-anchor="start" x="3" y="-6.7" font-family="Monospace" font-style="italic" font-size="14.00" fill="white">The basic parameters of a related set of funding campaigns.</text>
</g>
<!-- event_type -->
<g id="node2" class="node">
<title>event_type</title>
<polygon fill="#009879" stroke="none" points="774,-381 774,-411 1479,-411 1479,-381 774,-381"/>
<polygon fill="none" stroke="black" points="774,-381 774,-411 1479,-411 1479,-381 774,-381"/>
<text text-anchor="start" x="1066.5" y="-390" font-family="Courier bold italic" font-weight="bold" font-size="20.00" fill="white">event_type</text>
<polygon fill="none" stroke="black" points="774,-354 774,-381 906,-381 906,-354 774,-354"/>
<text text-anchor="start" x="808.5" y="-361.9" font-family="Courier bold" font-weight="bold" font-size="18.00">Column</text>
<polygon fill="none" stroke="black" points="906,-354 906,-381 954,-381 954,-354 906,-354"/>
<text text-anchor="start" x="909" y="-361.9" font-family="Courier bold" font-weight="bold" font-size="18.00">Type</text>
<polygon fill="none" stroke="black" points="954,-354 954,-381 1479,-381 1479,-354 954,-354"/>
<text text-anchor="start" x="1158.75" y="-361.9" font-family="Courier bold" font-weight="bold" font-size="18.00">Description</text>
<polygon fill="#54ff9f" stroke="none" points="774,-330 774,-354 906,-354 906,-330 774,-330"/>
<polygon fill="none" stroke="black" points="774,-330 774,-354 906,-354 906,-330 774,-330"/>
<text text-anchor="start" x="777" y="-335.8" font-family="Times,serif" font-size="16.00">id</text>
<polygon fill="#54ff9f" stroke="none" points="906,-330 906,-354 954,-354 954,-330 906,-330"/>
<polygon fill="none" stroke="black" points="906,-330 906,-354 954,-354 954,-330 906,-330"/>
<text text-anchor="start" x="915.38" y="-335.8" font-family="Times,serif" font-size="16.00">uuid</text>
<polygon fill="#54ff9f" stroke="none" points="954,-330 954,-354 1479,-354 1479,-330 954,-330"/>
<polygon fill="none" stroke="black" points="954,-330 954,-354 1479,-354 1479,-330 954,-330"/>
<text text-anchor="start" x="957" y="-337.95" font-family="Monospace" font-style="italic" font-size="14.00" fill="#7f7f7f">Synthetic Unique ID for each event_type (UUIDv4).</text>
<polygon fill="none" stroke="black" points="774,-296 774,-330 906,-330 906,-296 774,-296"/>
<text text-anchor="start" x="777" y="-307.18" font-family="Times,serif" font-size="16.00">name</text>
<polygon fill="none" stroke="black" points="906,-296 906,-330 954,-330 954,-296 906,-296"/>
<text text-anchor="start" x="918" y="-307.18" font-family="Times,serif" font-size="16.00">text</text>
<polygon fill="none" stroke="black" points="954,-296 954,-330 1479,-330 1479,-296 954,-296"/>
<text text-anchor="start" x="957" y="-314.7" font-family="Monospace" font-style="italic" font-size="14.00" fill="#7f7f7f">The name of the event type.</text>
<text text-anchor="start" x="957" y="-300.7" font-family="Monospace" font-style="italic" font-size="14.00" fill="#7f7f7f">eg. &quot;Catalyst V1&quot;</text>
<polygon fill="none" stroke="black" points="774,-262 774,-296 906,-296 906,-262 774,-262"/>
<text text-anchor="start" x="777" y="-273.18" font-family="Times,serif" font-size="16.00">description_schema</text>
<polygon fill="none" stroke="black" points="906,-262 906,-296 954,-296 954,-262 906,-262"/>
<text text-anchor="start" x="915.38" y="-273.18" font-family="Times,serif" font-size="16.00">uuid</text>
<polygon fill="none" stroke="black" points="954,-262 954,-296 1479,-296 1479,-262 954,-262"/>
<text text-anchor="start" x="957" y="-280.7" font-family="Monospace" font-style="italic" font-size="14.00" fill="#7f7f7f">The JSON Schema which defines the structure of the data in the </text>
<text text-anchor="start" x="957" y="-266.7" font-family="Monospace" font-style="italic" font-size="14.00" fill="#7f7f7f">`description` field in the event record.</text>
<polygon fill="none" stroke="black" points="774,-228 774,-262 906,-262 906,-228 774,-228"/>
<text text-anchor="start" x="777" y="-239.18" font-family="Times,serif" font-size="16.00">data_schema</text>
<polygon fill="none" stroke="black" points="906,-228 906,-262 954,-262 954,-228 906,-228"/>
<text text-anchor="start" x="915.38" y="-239.18" font-family="Times,serif" font-size="16.00">uuid</text>
<polygon fill="none" stroke="black" points="954,-228 954,-262 1479,-262 1479,-228 954,-228"/>
<text text-anchor="start" x="957" y="-246.7" font-family="Monospace" font-style="italic" font-size="14.00" fill="#7f7f7f">The JSON Schema which defines the structure of the data in the </text>
<text text-anchor="start" x="957" y="-232.7" font-family="Monospace" font-style="italic" font-size="14.00" fill="#7f7f7f">`extra_data` field in the event record.</text>
<polygon fill="#333333" stroke="none" points="774,-206 774,-228 1479,-228 1479,-206 774,-206"/>
<polygon fill="none" stroke="black" points="774,-206 774,-228 1479,-228 1479,-206 774,-206"/>
<text text-anchor="start" x="777" y="-212.7" font-family="Monospace" font-style="italic" font-size="14.00" fill="white">The types of event which have been defined.</text>
</g>
<!-- event&#45;&gt;event_type -->
<g id="edge3" class="edge">
<title>event:type_out&#45;&gt;event_type:id</title>
<path fill="none" stroke="black" d="M738,-342.5C749.62,-342.5 754.92,-342.5 763.08,-342.5"/>
<polygon fill="black" stroke="black" points="763,-346 773,-342.5 763,-339 763,-346"/>
</g>
<!-- json_schema_type -->
<g id="node3" class="node">
<title>json_schema_type</title>
<polygon fill="#009879" stroke="none" points="1523,-301 1523,-331 1721,-331 1721,-301 1523,-301"/>
<polygon fill="none" stroke="black" points="1523,-301 1523,-331 1721,-331 1721,-301 1523,-301"/>
<text text-anchor="start" x="1526" y="-310" font-family="Courier bold italic" font-weight="bold" font-size="20.00" fill="white">json_schema_type</text>
<polygon fill="none" stroke="black" points="1523,-274 1523,-301 1721,-301 1721,-274 1523,-274"/>
<text text-anchor="start" x="1590.5" y="-281.9" font-family="Courier bold" font-weight="bold" font-size="18.00">Column</text>
<polygon fill="none" stroke="black" points="1523,-250 1523,-274 1721,-274 1721,-250 1523,-250"/>
<text text-anchor="start" x="1526" y="-255.8" font-family="Times,serif" font-size="16.00">id</text>
<polygon fill="#333333" stroke="none" points="1523,-228 1523,-250 1721,-250 1721,-228 1523,-228"/>
<polygon fill="none" stroke="black" points="1523,-228 1523,-250 1721,-250 1721,-228 1523,-228"/>
<text text-anchor="start" x="1526" y="-234.7" font-family="Monospace" font-style="italic" font-size="14.00" fill="white">ABRIDGED</text>
</g>
<!-- event_type&#45;&gt;json_schema_type -->
<g id="edge1" class="edge">
<title>event_type:description_schema_out&#45;&gt;json_schema_type:id</title>
<path fill="none" stroke="black" d="M1479,-278.5C1495.38,-278.5 1499.91,-267.7 1511.47,-263.32"/>
<polygon fill="black" stroke="black" points="1511.74,-266.65 1521,-261.5 1510.55,-259.75 1511.74,-266.65"/>
</g>
<!-- event_type&#45;&gt;json_schema_type -->
<g id="edge2" class="edge">
<title>event_type:data_schema_out&#45;&gt;json_schema_type:id</title>
<path fill="none" stroke="black" d="M1479,-244.5C1495.38,-244.5 1499.91,-255.3 1511.47,-259.68"/>
<polygon fill="black" stroke="black" points="1510.55,-263.25 1521,-261.5 1511.74,-256.35 1510.55,-263.25"/>
</g>
<!-- LEGEND -->
<g id="node4" class="node">
<title>LEGEND</title>
<polygon fill="Pink" stroke="none" points="260,-652 260,-682 478,-682 478,-652 260,-652"/>
<polygon fill="none" stroke="black" points="260,-652 260,-682 478,-682 478,-652 260,-652"/>
<text text-anchor="start" x="333" y="-661" font-family="Courier bold italic" font-weight="bold" font-size="20.00" fill="white">LEGEND</text>
<polygon fill="none" stroke="black" points="260,-625 260,-652 398,-652 398,-625 260,-625"/>
<text text-anchor="start" x="308" y="-632.9" font-family="Courier bold" font-weight="bold" font-size="18.00">Type</text>
<polygon fill="none" stroke="black" points="398,-625 398,-652 478,-652 478,-625 398,-625"/>
<text text-anchor="start" x="401.25" y="-632.9" font-family="Courier bold" font-weight="bold" font-size="18.00">Example</text>
<polygon fill="#54ff9f" stroke="none" points="260,-601 260,-625 398,-625 398,-601 260,-601"/>
<polygon fill="none" stroke="black" points="260,-601 260,-625 398,-625 398,-601 260,-601"/>
<text text-anchor="start" x="263" y="-606.8" font-family="Times,serif" font-size="16.00">Primary Key</text>
<polygon fill="#54ff9f" stroke="none" points="398,-601 398,-625 478,-625 478,-601 398,-601"/>
<polygon fill="none" stroke="black" points="398,-601 398,-625 478,-625 478,-601 398,-601"/>
<text text-anchor="start" x="411.38" y="-606.8" font-family="Times,serif" font-size="16.00">integer+</text>
<polygon fill="none" stroke="black" points="260,-577 260,-601 398,-601 398,-577 260,-577"/>
<text text-anchor="start" x="263" y="-582.8" font-family="Times,serif" font-size="16.00">Standard Field</text>
<polygon fill="none" stroke="black" points="398,-577 398,-601 478,-601 478,-577 398,-577"/>
<text text-anchor="start" x="420.75" y="-582.8" font-family="Times,serif" font-size="16.00">bytea</text>
<polygon fill="none" stroke="black" points="260,-553 260,-577 398,-577 398,-553 260,-553"/>
<text text-anchor="start" x="263" y="-558.8" font-family="Times,serif" font-size="16.00">Nullable Field</text>
<polygon fill="none" stroke="black" points="398,-553 398,-577 478,-577 478,-553 398,-553"/>
<text text-anchor="start" x="426.75" y="-559.8" font-family="Times,serif" font-style="italic" font-size="16.00">text</text>
<polygon fill="none" stroke="black" points="260,-529 260,-553 398,-553 398,-529 260,-529"/>
<text text-anchor="start" x="263" y="-534.8" font-family="Times,serif" font-size="16.00">Sized Field</text>
<polygon fill="none" stroke="black" points="398,-529 398,-553 478,-553 478,-529 398,-529"/>
<text text-anchor="start" x="400.88" y="-534.8" font-family="Times,serif" font-size="16.00">varchar(32)</text>
<polygon fill="none" stroke="black" points="260,-505 260,-529 398,-529 398,-505 260,-505"/>
<text text-anchor="start" x="263" y="-510.8" font-family="Times,serif" font-size="16.00">Autoincrement Field</text>
<polygon fill="none" stroke="black" points="398,-505 398,-529 478,-529 478,-505 398,-505"/>
<text text-anchor="start" x="411.38" y="-510.8" font-family="Times,serif" font-size="16.00">integer+</text>
</g>
</g>
</svg>
