<?xml version="1.0" encoding="UTF-8" standalone="no"?>
<!DOCTYPE svg PUBLIC "-//W3C//DTD SVG 1.1//EN"
 "http://www.w3.org/Graphics/SVG/1.1/DTD/svg11.dtd">
<!-- Generated by graphviz version 9.0.0 (20230911.1827)
 -->
<!-- Title: erd Pages: 1 -->
<svg width="1999pt" height="739pt"
 viewBox="0.00 0.00 1999.00 738.75" xmlns="http://www.w3.org/2000/svg" xmlns:xlink="http://www.w3.org/1999/xlink">
<g id="graph0" class="graph" transform="scale(1 1) rotate(0) translate(4 734.75)">
<title>erd</title>
<polygon fill="white" stroke="none" points="-4,4 -4,-734.75 1995,-734.75 1995,4 -4,4"/>
<text text-anchor="middle" x="995.5" y="-698.25" font-family="Times,serif" font-size="30.00" fill="blue">Catalyst Automation</text>
<!-- committee_member -->
<g id="node1" class="node">
<title>committee_member</title>
<polygon fill="#009879" stroke="none" points="0,-456 0,-486 802,-486 802,-456 0,-456"/>
<polygon fill="none" stroke="black" points="0,-456 0,-486 802,-486 802,-456 0,-456"/>
<text text-anchor="start" x="305" y="-465" font-family="Courier bold italic" font-weight="bold" font-size="20.00" fill="white">committee_member</text>
<polygon fill="none" stroke="black" points="0,-429 0,-456 102,-456 102,-429 0,-429"/>
<text text-anchor="start" x="19.5" y="-436.9" font-family="Courier bold" font-weight="bold" font-size="18.00">Column</text>
<polygon fill="none" stroke="black" points="102,-429 102,-456 161,-456 161,-429 102,-429"/>
<text text-anchor="start" x="110.5" y="-436.9" font-family="Courier bold" font-weight="bold" font-size="18.00">Type</text>
<polygon fill="none" stroke="black" points="161,-429 161,-456 802,-456 802,-429 161,-429"/>
<text text-anchor="start" x="423.75" y="-436.9" font-family="Courier bold" font-weight="bold" font-size="18.00">Description</text>
<polygon fill="#54ff9f" stroke="none" points="0,-405 0,-429 102,-429 102,-405 0,-405"/>
<polygon fill="none" stroke="black" points="0,-405 0,-429 102,-429 102,-405 0,-405"/>
<text text-anchor="start" x="3" y="-410.8" font-family="Times,serif" font-size="16.00">row_id</text>
<polygon fill="#54ff9f" stroke="none" points="102,-405 102,-429 161,-429 161,-405 102,-405"/>
<polygon fill="none" stroke="black" points="102,-405 102,-429 161,-429 161,-405 102,-405"/>
<text text-anchor="start" x="104.88" y="-410.8" font-family="Times,serif" font-size="16.00">integer+</text>
<polygon fill="#54ff9f" stroke="none" points="161,-405 161,-429 802,-429 802,-405 161,-405"/>
<polygon fill="none" stroke="black" points="161,-405 161,-429 802,-429 802,-405 161,-405"/>
<text text-anchor="start" x="164" y="-412.95" font-family="Monospace" font-style="italic" font-size="14.00" fill="#7f7f7f">Unique ID for this committee member for this event.</text>
<polygon fill="none" stroke="black" points="0,-381 0,-405 102,-405 102,-381 0,-381"/>
<text text-anchor="start" x="3" y="-386.8" font-family="Times,serif" font-size="16.00">committee</text>
<polygon fill="none" stroke="black" points="102,-381 102,-405 161,-405 161,-381 102,-381"/>
<text text-anchor="start" x="109.38" y="-386.8" font-family="Times,serif" font-size="16.00">integer</text>
<polygon fill="none" stroke="black" points="161,-381 161,-405 802,-405 802,-381 161,-381"/>
<text text-anchor="start" x="164" y="-388.95" font-family="Monospace" font-style="italic" font-size="14.00" fill="#7f7f7f">The committee this member belongs to.</text>
<polygon fill="none" stroke="black" points="0,-357 0,-381 102,-381 102,-357 0,-357"/>
<text text-anchor="start" x="3" y="-362.8" font-family="Times,serif" font-size="16.00">member_index</text>
<polygon fill="none" stroke="black" points="102,-357 102,-381 161,-381 161,-357 102,-357"/>
<text text-anchor="start" x="109.38" y="-362.8" font-family="Times,serif" font-size="16.00">integer</text>
<polygon fill="none" stroke="black" points="161,-357 161,-381 802,-381 802,-357 161,-357"/>
<text text-anchor="start" x="164" y="-364.95" font-family="Monospace" font-style="italic" font-size="14.00" fill="#7f7f7f">the zero&#45;based index of the member, ranging from 0 &lt;= index &lt; committee_size.</text>
<polygon fill="none" stroke="black" points="0,-333 0,-357 102,-357 102,-333 0,-333"/>
<text text-anchor="start" x="3" y="-338.8" font-family="Times,serif" font-size="16.00">threshold</text>
<polygon fill="none" stroke="black" points="102,-333 102,-357 161,-357 161,-333 102,-333"/>
<text text-anchor="start" x="109.38" y="-338.8" font-family="Times,serif" font-size="16.00">integer</text>
<polygon fill="none" stroke="black" points="161,-333 161,-357 802,-357 802,-333 161,-333"/>
<text text-anchor="start" x="164" y="-340.95" font-family="Monospace" font-style="italic" font-size="14.00" fill="#7f7f7f">none</text>
<polygon fill="none" stroke="black" points="0,-309 0,-333 102,-333 102,-309 0,-309"/>
<text text-anchor="start" x="3" y="-314.8" font-family="Times,serif" font-size="16.00">comm_pk</text>
<polygon fill="none" stroke="black" points="102,-309 102,-333 161,-333 161,-309 102,-309"/>
<text text-anchor="start" x="119.5" y="-314.8" font-family="Times,serif" font-size="16.00">text</text>
<polygon fill="none" stroke="black" points="161,-309 161,-333 802,-333 802,-309 161,-309"/>
<text text-anchor="start" x="164" y="-316.95" font-family="Monospace" font-style="italic" font-size="14.00" fill="#7f7f7f">Committee member communication public key.</text>
<polygon fill="none" stroke="black" points="0,-285 0,-309 102,-309 102,-285 0,-285"/>
<text text-anchor="start" x="3" y="-290.8" font-family="Times,serif" font-size="16.00">comm_sk</text>
<polygon fill="none" stroke="black" points="102,-285 102,-309 161,-309 161,-285 102,-285"/>
<text text-anchor="start" x="119.5" y="-290.8" font-family="Times,serif" font-size="16.00">text</text>
<polygon fill="none" stroke="black" points="161,-285 161,-309 802,-309 802,-285 161,-285"/>
<text text-anchor="start" x="164" y="-292.95" font-family="Monospace" font-style="italic" font-size="14.00" fill="#7f7f7f">Encrypted committee member communication secret key.</text>
<polygon fill="none" stroke="black" points="0,-261 0,-285 102,-285 102,-261 0,-261"/>
<text text-anchor="start" x="3" y="-266.8" font-family="Times,serif" font-size="16.00">member_pk</text>
<polygon fill="none" stroke="black" points="102,-261 102,-285 161,-285 161,-261 102,-261"/>
<text text-anchor="start" x="119.5" y="-266.8" font-family="Times,serif" font-size="16.00">text</text>
<polygon fill="none" stroke="black" points="161,-261 161,-285 802,-285 802,-261 161,-261"/>
<text text-anchor="start" x="164" y="-268.95" font-family="Monospace" font-style="italic" font-size="14.00" fill="#7f7f7f">Committee member public key</text>
<polygon fill="none" stroke="black" points="0,-237 0,-261 102,-261 102,-237 0,-237"/>
<text text-anchor="start" x="3" y="-242.8" font-family="Times,serif" font-size="16.00">member_sk</text>
<polygon fill="none" stroke="black" points="102,-237 102,-261 161,-261 161,-237 102,-237"/>
<text text-anchor="start" x="119.5" y="-242.8" font-family="Times,serif" font-size="16.00">text</text>
<polygon fill="none" stroke="black" points="161,-237 161,-261 802,-261 802,-237 161,-237"/>
<text text-anchor="start" x="164" y="-244.95" font-family="Monospace" font-style="italic" font-size="14.00" fill="#7f7f7f">Encrypted committee member secret key</text>
<polygon fill="#333333" stroke="none" points="0,-215 0,-237 802,-237 802,-215 0,-215"/>
<polygon fill="none" stroke="black" points="0,-215 0,-237 802,-237 802,-215 0,-215"/>
<text text-anchor="start" x="3" y="-221.7" font-family="Monospace" font-style="italic" font-size="14.00" fill="white">Table for storing data about the tally committee members.</text>
</g>
<!-- tally_committee -->
<g id="node2" class="node">
<title>tally_committee</title>
<polygon fill="#009879" stroke="none" points="838,-432 838,-462 1867,-462 1867,-432 838,-432"/>
<polygon fill="none" stroke="black" points="838,-432 838,-462 1867,-462 1867,-432 838,-432"/>
<text text-anchor="start" x="1262.5" y="-441" font-family="Courier bold italic" font-weight="bold" font-size="20.00" fill="white">tally_committee</text>
<polygon fill="none" stroke="black" points="838,-405 838,-432 936,-432 936,-405 838,-405"/>
<text text-anchor="start" x="855.5" y="-412.9" font-family="Courier bold" font-weight="bold" font-size="18.00">Column</text>
<polygon fill="none" stroke="black" points="936,-405 936,-432 995,-432 995,-405 936,-405"/>
<text text-anchor="start" x="944.5" y="-412.9" font-family="Courier bold" font-weight="bold" font-size="18.00">Type</text>
<polygon fill="none" stroke="black" points="995,-405 995,-432 1867,-432 1867,-405 995,-405"/>
<text text-anchor="start" x="1373.25" y="-412.9" font-family="Courier bold" font-weight="bold" font-size="18.00">Description</text>
<polygon fill="#54ff9f" stroke="none" points="838,-381 838,-405 936,-405 936,-381 838,-381"/>
<polygon fill="none" stroke="black" points="838,-381 838,-405 936,-405 936,-381 838,-381"/>
<text text-anchor="start" x="841" y="-386.8" font-family="Times,serif" font-size="16.00">row_id</text>
<polygon fill="#54ff9f" stroke="none" points="936,-381 936,-405 995,-405 995,-381 936,-381"/>
<polygon fill="none" stroke="black" points="936,-381 936,-405 995,-405 995,-381 936,-381"/>
<text text-anchor="start" x="938.88" y="-386.8" font-family="Times,serif" font-size="16.00">integer+</text>
<polygon fill="#54ff9f" stroke="none" points="995,-381 995,-405 1867,-405 1867,-381 995,-381"/>
<polygon fill="none" stroke="black" points="995,-381 995,-405 1867,-405 1867,-381 995,-381"/>
<text text-anchor="start" x="998" y="-388.95" font-family="Monospace" font-style="italic" font-size="14.00" fill="#7f7f7f">Unique ID for this committee member for this event.</text>
<polygon fill="none" stroke="black" points="838,-357 838,-381 936,-381 936,-357 838,-357"/>
<text text-anchor="start" x="841" y="-362.8" font-family="Times,serif" font-size="16.00">event</text>
<polygon fill="none" stroke="black" points="936,-357 936,-381 995,-381 995,-357 936,-357"/>
<text text-anchor="start" x="950.88" y="-362.8" font-family="Times,serif" font-size="16.00">uuid</text>
<polygon fill="none" stroke="black" points="995,-357 995,-381 1867,-381 1867,-357 995,-357"/>
<text text-anchor="start" x="998" y="-364.95" font-family="Monospace" font-style="italic" font-size="14.00" fill="#7f7f7f">The event this committee member is for.</text>
<polygon fill="none" stroke="black" points="838,-333 838,-357 936,-357 936,-333 838,-333"/>
<text text-anchor="start" x="841" y="-338.8" font-family="Times,serif" font-size="16.00">committee_pk</text>
<polygon fill="none" stroke="black" points="936,-333 936,-357 995,-357 995,-333 936,-333"/>
<text text-anchor="start" x="953.5" y="-338.8" font-family="Times,serif" font-size="16.00">text</text>
<polygon fill="none" stroke="black" points="995,-333 995,-357 1867,-357 1867,-333 995,-333"/>
<text text-anchor="start" x="998" y="-340.95" font-family="Monospace" font-style="italic" font-size="14.00" fill="#7f7f7f">Encrypted private key for the committee wallet. This key can be used to get the committee public address.</text>
<polygon fill="none" stroke="black" points="838,-309 838,-333 936,-333 936,-309 838,-309"/>
<text text-anchor="start" x="841" y="-314.8" font-family="Times,serif" font-size="16.00">committee_id</text>
<polygon fill="none" stroke="black" points="936,-309 936,-333 995,-333 995,-309 936,-309"/>
<text text-anchor="start" x="953.5" y="-314.8" font-family="Times,serif" font-size="16.00">text</text>
<polygon fill="none" stroke="black" points="995,-309 995,-333 1867,-333 1867,-309 995,-309"/>
<text text-anchor="start" x="998" y="-316.95" font-family="Monospace" font-style="italic" font-size="14.00" fill="#7f7f7f">The hex&#45;encoded public key for the committee wallet.</text>
<polygon fill="none" stroke="black" points="838,-285 838,-309 936,-309 936,-285 838,-285"/>
<text text-anchor="start" x="841" y="-290.8" font-family="Times,serif" font-size="16.00">member_crs</text>
<polygon fill="none" stroke="black" points="936,-285 936,-309 995,-309 995,-285 936,-285"/>
<text text-anchor="start" x="954.25" y="-291.8" font-family="Times,serif" font-style="italic" font-size="16.00">text</text>
<polygon fill="none" stroke="black" points="995,-285 995,-309 1867,-309 1867,-285 995,-285"/>
<text text-anchor="start" x="998" y="-292.95" font-family="Monospace" font-style="italic" font-size="14.00" fill="#7f7f7f">Encrypted Common Reference String shared in the creation of every set of committee member keys.</text>
<polygon fill="none" stroke="black" points="838,-251 838,-285 936,-285 936,-251 838,-251"/>
<text text-anchor="start" x="841" y="-262.18" font-family="Times,serif" font-size="16.00">election_key</text>
<polygon fill="none" stroke="black" points="936,-251 936,-285 995,-285 995,-251 936,-251"/>
<text text-anchor="start" x="954.25" y="-263.18" font-family="Times,serif" font-style="italic" font-size="16.00">text</text>
<polygon fill="none" stroke="black" points="995,-251 995,-285 1867,-285 1867,-251 995,-251"/>
<text text-anchor="start" x="998" y="-269.7" font-family="Monospace" font-style="italic" font-size="14.00" fill="#7f7f7f">Public key generated with all committee member public keys, and is used to encrypt votes. </text>
<text text-anchor="start" x="998" y="-255.7" font-family="Monospace" font-style="italic" font-size="14.00" fill="#7f7f7f">NULL if the event.committee_size is 0.</text>
<polygon fill="#333333" stroke="none" points="838,-229 838,-251 1867,-251 1867,-229 838,-229"/>
<polygon fill="none" stroke="black" points="838,-229 838,-251 1867,-251 1867,-229 838,-229"/>
<text text-anchor="start" x="841" y="-235.7" font-family="Monospace" font-style="italic" font-size="14.00" fill="white">Table for storing data about the tally committee per voting event.</text>
</g>
<!-- committee_member&#45;&gt;tally_committee -->
<g id="edge3" class="edge">
<title>committee_member:committee_out&#45;&gt;tally_committee:row_id</title>
<path fill="none" stroke="black" d="M802,-393.5C813.38,-393.5 818.68,-393.5 826.55,-393.5"/>
<polygon fill="black" stroke="black" points="826.49,-397 836.49,-393.5 826.49,-390 826.49,-397"/>
</g>
<!-- event -->
<g id="node4" class="node">
<title>event</title>
<polygon fill="#009879" stroke="none" points="1911,-283 1911,-313 1981,-313 1981,-283 1911,-283"/>
<polygon fill="none" stroke="black" points="1911,-283 1911,-313 1981,-313 1981,-283 1911,-283"/>
<text text-anchor="start" x="1916" y="-292" font-family="Courier bold italic" font-weight="bold" font-size="20.00" fill="white">event</text>
<polygon fill="none" stroke="black" points="1911,-256 1911,-283 1981,-283 1981,-256 1911,-256"/>
<text text-anchor="start" x="1914.5" y="-263.9" font-family="Courier bold" font-weight="bold" font-size="18.00">Column</text>
<polygon fill="none" stroke="black" points="1911,-232 1911,-256 1981,-256 1981,-232 1911,-232"/>
<text text-anchor="start" x="1914" y="-237.8" font-family="Times,serif" font-size="16.00">id</text>
<polygon fill="#333333" stroke="none" points="1911,-210 1911,-232 1983,-232 1983,-210 1911,-210"/>
<polygon fill="none" stroke="black" points="1911,-210 1911,-232 1983,-232 1983,-210 1911,-210"/>
<text text-anchor="start" x="1914" y="-216.7" font-family="Monospace" font-style="italic" font-size="14.00" fill="white">ABRIDGED</text>
</g>
<!-- tally_committee&#45;&gt;event -->
<g id="edge2" class="edge">
<title>tally_committee:event_out&#45;&gt;event:id</title>
<path fill="none" stroke="black" d="M1867,-369.5C1921.78,-369.5 1861.27,-261.51 1898.94,-245.48"/>
<polygon fill="black" stroke="black" points="1899.28,-248.97 1908.51,-243.77 1898.05,-242.08 1899.28,-248.97"/>
</g>
<!-- voting_node -->
<g id="node3" class="node">
<title>voting_node</title>
<polygon fill="#009879" stroke="none" points="891,-181 891,-211 1814,-211 1814,-181 891,-181"/>
<polygon fill="none" stroke="black" points="891,-181 891,-211 1814,-211 1814,-181 891,-181"/>
<text text-anchor="start" x="1286.5" y="-190" font-family="Courier bold italic" font-weight="bold" font-size="20.00" fill="white">voting_node</text>
<polygon fill="none" stroke="black" points="891,-154 891,-181 960,-181 960,-154 891,-154"/>
<text text-anchor="start" x="894" y="-161.9" font-family="Courier bold" font-weight="bold" font-size="18.00">Column</text>
<polygon fill="none" stroke="black" points="960,-154 960,-181 1008,-181 1008,-154 960,-154"/>
<text text-anchor="start" x="963" y="-161.9" font-family="Courier bold" font-weight="bold" font-size="18.00">Type</text>
<polygon fill="none" stroke="black" points="1008,-154 1008,-181 1814,-181 1814,-154 1008,-154"/>
<text text-anchor="start" x="1353.25" y="-161.9" font-family="Courier bold" font-weight="bold" font-size="18.00">Description</text>
<polygon fill="#54ff9f" stroke="none" points="891,-130 891,-154 960,-154 960,-130 891,-130"/>
<polygon fill="none" stroke="black" points="891,-130 891,-154 960,-154 960,-130 891,-130"/>
<text text-anchor="start" x="894" y="-135.8" font-family="Times,serif" font-size="16.00">hostname</text>
<polygon fill="#54ff9f" stroke="none" points="960,-130 960,-154 1008,-154 1008,-130 960,-130"/>
<polygon fill="none" stroke="black" points="960,-130 960,-154 1008,-154 1008,-130 960,-130"/>
<text text-anchor="start" x="972" y="-135.8" font-family="Times,serif" font-size="16.00">text</text>
<polygon fill="#54ff9f" stroke="none" points="1008,-130 1008,-154 1814,-154 1814,-130 1008,-130"/>
<polygon fill="none" stroke="black" points="1008,-130 1008,-154 1814,-154 1814,-130 1008,-130"/>
<text text-anchor="start" x="1011" y="-137.95" font-family="Monospace" font-style="italic" font-size="14.00" fill="#7f7f7f">Unique hostname for the voting node.</text>
<polygon fill="#54ff9f" stroke="none" points="891,-106 891,-130 960,-130 960,-106 891,-106"/>
<polygon fill="none" stroke="black" points="891,-106 891,-130 960,-130 960,-106 891,-106"/>
<text text-anchor="start" x="894" y="-111.8" font-family="Times,serif" font-size="16.00">event</text>
<polygon fill="#54ff9f" stroke="none" points="960,-106 960,-130 1008,-130 1008,-106 960,-106"/>
<polygon fill="none" stroke="black" points="960,-106 960,-130 1008,-130 1008,-106 960,-106"/>
<text text-anchor="start" x="969.38" y="-111.8" font-family="Times,serif" font-size="16.00">uuid</text>
<polygon fill="#54ff9f" stroke="none" points="1008,-106 1008,-130 1814,-130 1814,-106 1008,-106"/>
<polygon fill="none" stroke="black" points="1008,-106 1008,-130 1814,-130 1814,-106 1008,-106"/>
<text text-anchor="start" x="1011" y="-113.95" font-family="Monospace" font-style="italic" font-size="14.00" fill="#7f7f7f">Unique event this node was configured for.</text>
<polygon fill="none" stroke="black" points="891,-82 891,-106 960,-106 960,-82 891,-82"/>
<text text-anchor="start" x="894" y="-87.8" font-family="Times,serif" font-size="16.00">pubkey</text>
<polygon fill="none" stroke="black" points="960,-82 960,-106 1008,-106 1008,-82 960,-82"/>
<text text-anchor="start" x="972" y="-87.8" font-family="Times,serif" font-size="16.00">text</text>
<polygon fill="none" stroke="black" points="1008,-82 1008,-106 1814,-106 1814,-82 1008,-82"/>
<text text-anchor="start" x="1011" y="-89.95" font-family="Monospace" font-style="italic" font-size="14.00" fill="#7f7f7f">Public key from Ed25519 pair for the node. Used as consensus_leader_id when the node is a leader.</text>
<polygon fill="none" stroke="black" points="891,-58 891,-82 960,-82 960,-58 891,-58"/>
<text text-anchor="start" x="894" y="-63.8" font-family="Times,serif" font-size="16.00">seckey</text>
<polygon fill="none" stroke="black" points="960,-58 960,-82 1008,-82 1008,-58 960,-58"/>
<text text-anchor="start" x="972" y="-63.8" font-family="Times,serif" font-size="16.00">text</text>
<polygon fill="none" stroke="black" points="1008,-58 1008,-82 1814,-82 1814,-58 1008,-58"/>
<text text-anchor="start" x="1011" y="-65.95" font-family="Monospace" font-style="italic" font-size="14.00" fill="#7f7f7f">Encrypted secret key from Ed25519 pair for the node. Used as the node secret.</text>
<polygon fill="none" stroke="black" points="891,-34 891,-58 960,-58 960,-34 891,-34"/>
<text text-anchor="start" x="894" y="-39.8" font-family="Times,serif" font-size="16.00">netkey</text>
<polygon fill="none" stroke="black" points="960,-34 960,-58 1008,-58 1008,-34 960,-34"/>
<text text-anchor="start" x="972" y="-39.8" font-family="Times,serif" font-size="16.00">text</text>
<polygon fill="none" stroke="black" points="1008,-34 1008,-58 1814,-58 1814,-34 1008,-34"/>
<text text-anchor="start" x="1011" y="-41.95" font-family="Monospace" font-style="italic" font-size="14.00" fill="#7f7f7f">Encrypted Ed25519 secret key for the node. Used as the node p2p topology key.</text>
<polygon fill="#333333" stroke="none" points="891,0 891,-34 1814,-34 1814,0 891,0"/>
<polygon fill="none" stroke="black" points="891,0 891,-34 1814,-34 1814,0 891,0"/>
<text text-anchor="start" x="894" y="-18.7" font-family="Monospace" font-style="italic" font-size="14.00" fill="white">This table holds information for all nodes in the event.</text>
<text text-anchor="start" x="894" y="-4.7" font-family="Monospace" font-style="italic" font-size="14.00" fill="white">It is used by nodes to self&#45;bootstrap the blockchain.</text>
</g>
<!-- voting_node&#45;&gt;event -->
<g id="edge1" class="edge">
<title>voting_node:event_out&#45;&gt;event:id</title>
<path fill="none" stroke="black" d="M1815.5,-118.5C1881.06,-118.5 1845.21,-229.28 1898.89,-242.26"/>
<polygon fill="black" stroke="black" points="1898.17,-245.7 1908.5,-243.33 1898.94,-238.75 1898.17,-245.7"/>
</g>
<!-- LEGEND -->
<g id="node5" class="node">
<title>LEGEND</title>
<polygon fill="Pink" stroke="none" points="292,-655 292,-685 510,-685 510,-655 292,-655"/>
<polygon fill="none" stroke="black" points="292,-655 292,-685 510,-685 510,-655 292,-655"/>
<text text-anchor="start" x="365" y="-664" font-family="Courier bold italic" font-weight="bold" font-size="20.00" fill="white">LEGEND</text>
<polygon fill="none" stroke="black" points="292,-628 292,-655 430,-655 430,-628 292,-628"/>
<text text-anchor="start" x="340" y="-635.9" font-family="Courier bold" font-weight="bold" font-size="18.00">Type</text>
<polygon fill="none" stroke="black" points="430,-628 430,-655 510,-655 510,-628 430,-628"/>
<text text-anchor="start" x="433.25" y="-635.9" font-family="Courier bold" font-weight="bold" font-size="18.00">Example</text>
<polygon fill="#54ff9f" stroke="none" points="292,-604 292,-628 430,-628 430,-604 292,-604"/>
<polygon fill="none" stroke="black" points="292,-604 292,-628 430,-628 430,-604 292,-604"/>
<text text-anchor="start" x="295" y="-609.8" font-family="Times,serif" font-size="16.00">Primary Key</text>
<polygon fill="#54ff9f" stroke="none" points="430,-604 430,-628 510,-628 510,-604 430,-604"/>
<polygon fill="none" stroke="black" points="430,-604 430,-628 510,-628 510,-604 430,-604"/>
<text text-anchor="start" x="443.38" y="-609.8" font-family="Times,serif" font-size="16.00">integer+</text>
<polygon fill="none" stroke="black" points="292,-580 292,-604 430,-604 430,-580 292,-580"/>
<text text-anchor="start" x="295" y="-585.8" font-family="Times,serif" font-size="16.00">Standard Field</text>
<polygon fill="none" stroke="black" points="430,-580 430,-604 510,-604 510,-580 430,-580"/>
<text text-anchor="start" x="452.75" y="-585.8" font-family="Times,serif" font-size="16.00">bytea</text>
<polygon fill="none" stroke="black" points="292,-556 292,-580 430,-580 430,-556 292,-556"/>
<text text-anchor="start" x="295" y="-561.8" font-family="Times,serif" font-size="16.00">Nullable Field</text>
<polygon fill="none" stroke="black" points="430,-556 430,-580 510,-580 510,-556 430,-556"/>
<text text-anchor="start" x="458.75" y="-562.8" font-family="Times,serif" font-style="italic" font-size="16.00">text</text>
<polygon fill="none" stroke="black" points="292,-532 292,-556 430,-556 430,-532 292,-532"/>
<text text-anchor="start" x="295" y="-537.8" font-family="Times,serif" font-size="16.00">Sized Field</text>
<polygon fill="none" stroke="black" points="430,-532 430,-556 510,-556 510,-532 430,-532"/>
<text text-anchor="start" x="432.88" y="-537.8" font-family="Times,serif" font-size="16.00">varchar(32)</text>
<polygon fill="none" stroke="black" points="292,-508 292,-532 430,-532 430,-508 292,-508"/>
<text text-anchor="start" x="295" y="-513.8" font-family="Times,serif" font-size="16.00">Autoincrement Field</text>
<polygon fill="none" stroke="black" points="430,-508 430,-532 510,-532 510,-508 430,-508"/>
<text text-anchor="start" x="443.38" y="-513.8" font-family="Times,serif" font-size="16.00">integer+</text>
</g>
</g>
</svg>
