<?xml version="1.0" encoding="UTF-8" standalone="no"?>
<!DOCTYPE svg PUBLIC "-//W3C//DTD SVG 1.1//EN"
 "http://www.w3.org/Graphics/SVG/1.1/DTD/svg11.dtd">
<!-- Generated by graphviz version 2.43.0 (0)
 -->
<!-- Title: erd Pages: 1 -->
<svg width="1744pt" height="729pt"
 viewBox="0.00 0.00 1744.00 728.50" xmlns="http://www.w3.org/2000/svg" xmlns:xlink="http://www.w3.org/1999/xlink">
<g id="graph0" class="graph" transform="scale(1 1) rotate(0) translate(4 724.5)">
<title>erd</title>
<polygon fill="white" stroke="transparent" points="-4,4 -4,-724.5 1740,-724.5 1740,4 -4,4"/>
<text text-anchor="middle" x="868" y="-692.5" font-family="Times,serif" font-size="30.00" fill="blue">Event Data</text>
<!-- event -->
<g id="node1" class="node">
<title>event</title>
<polygon fill="#009879" stroke="transparent" points="0.5,-450.5 0.5,-478.5 741.5,-478.5 741.5,-450.5 0.5,-450.5"/>
<polygon fill="none" stroke="black" points="0.5,-450.5 0.5,-478.5 741.5,-478.5 741.5,-450.5 0.5,-450.5"/>
<text text-anchor="start" x="340.5" y="-460.5" font-family="Courier bold italic" font-weight="bold" font-size="20.00" fill="white">event</text>
<polygon fill="none" stroke="black" points="0.5,-424.5 0.5,-450.5 93.5,-450.5 93.5,-424.5 0.5,-424.5"/>
<text text-anchor="start" x="15" y="-434.1" font-family="Courier bold" font-weight="bold" font-size="18.00">Column</text>
<polygon fill="none" stroke="black" points="93.5,-424.5 93.5,-450.5 165.5,-450.5 165.5,-424.5 93.5,-424.5"/>
<text text-anchor="start" x="108" y="-434.1" font-family="Courier bold" font-weight="bold" font-size="18.00">Type</text>
<polygon fill="none" stroke="black" points="165.5,-424.5 165.5,-450.5 741.5,-450.5 741.5,-424.5 165.5,-424.5"/>
<text text-anchor="start" x="395.5" y="-434.1" font-family="Courier bold" font-weight="bold" font-size="18.00">Description</text>
<polygon fill="#54ff9f" stroke="transparent" points="0.5,-400.5 0.5,-424.5 93.5,-424.5 93.5,-400.5 0.5,-400.5"/>
<polygon fill="none" stroke="black" points="0.5,-400.5 0.5,-424.5 93.5,-424.5 93.5,-400.5 0.5,-400.5"/>
<text text-anchor="start" x="3.5" y="-408.7" font-family="Times,serif" font-size="16.00">id</text>
<polygon fill="#54ff9f" stroke="transparent" points="93.5,-400.5 93.5,-424.5 165.5,-424.5 165.5,-400.5 93.5,-400.5"/>
<polygon fill="none" stroke="black" points="93.5,-400.5 93.5,-424.5 165.5,-424.5 165.5,-400.5 93.5,-400.5"/>
<text text-anchor="start" x="114.5" y="-408.7" font-family="Times,serif" font-size="16.00">uuid</text>
<polygon fill="#54ff9f" stroke="transparent" points="165.5,-400.5 165.5,-424.5 741.5,-424.5 741.5,-400.5 165.5,-400.5"/>
<polygon fill="none" stroke="black" points="165.5,-400.5 165.5,-424.5 741.5,-424.5 741.5,-400.5 165.5,-400.5"/>
<text text-anchor="start" x="168.5" y="-409.8" font-family="Monospace" font-style="italic" font-size="14.00" fill="#7f7f7f">Synthetic Unique ID for each event (UUIDv4).</text>
<polygon fill="none" stroke="black" points="0.5,-352.5 0.5,-400.5 93.5,-400.5 93.5,-352.5 0.5,-352.5"/>
<text text-anchor="start" x="3.5" y="-372.7" font-family="Times,serif" font-size="16.00">organizer</text>
<polygon fill="none" stroke="black" points="93.5,-352.5 93.5,-400.5 165.5,-400.5 165.5,-352.5 93.5,-352.5"/>
<text text-anchor="start" x="117" y="-372.7" font-family="Times,serif" font-size="16.00">text</text>
<polygon fill="none" stroke="black" points="165.5,-352.5 165.5,-400.5 741.5,-400.5 741.5,-352.5 165.5,-352.5"/>
<text text-anchor="start" x="168.5" y="-387.3" font-family="Monospace" font-style="italic" font-size="14.00" fill="#7f7f7f">Name of the Event Organizer.</text>
<text text-anchor="start" x="168.5" y="-373.3" font-family="Monospace" font-style="italic" font-size="14.00" fill="#7f7f7f">Placeholder, this will need to be replaced</text>
<text text-anchor="start" x="168.5" y="-359.3" font-family="Monospace" font-style="italic" font-size="14.00" fill="#7f7f7f">with a reference to an authorized organization.</text>
<polygon fill="none" stroke="black" points="0.5,-328.5 0.5,-352.5 93.5,-352.5 93.5,-328.5 0.5,-328.5"/>
<text text-anchor="start" x="3.5" y="-336.7" font-family="Times,serif" font-size="16.00">type</text>
<polygon fill="none" stroke="black" points="93.5,-328.5 93.5,-352.5 165.5,-352.5 165.5,-328.5 93.5,-328.5"/>
<text text-anchor="start" x="114.5" y="-337.7" font-family="Times,serif" font-style="italic" font-size="16.00">uuid</text>
<polygon fill="none" stroke="black" points="165.5,-328.5 165.5,-352.5 741.5,-352.5 741.5,-328.5 165.5,-328.5"/>
<text text-anchor="start" x="168.5" y="-337.8" font-family="Monospace" font-style="italic" font-size="14.00" fill="#7f7f7f">The type of the event.</text>
<polygon fill="none" stroke="black" points="0.5,-294.5 0.5,-328.5 93.5,-328.5 93.5,-294.5 0.5,-294.5"/>
<text text-anchor="start" x="3.5" y="-307.7" font-family="Times,serif" font-size="16.00">name</text>
<polygon fill="none" stroke="black" points="93.5,-294.5 93.5,-328.5 165.5,-328.5 165.5,-294.5 93.5,-294.5"/>
<text text-anchor="start" x="117" y="-307.7" font-family="Times,serif" font-size="16.00">text</text>
<polygon fill="none" stroke="black" points="165.5,-294.5 165.5,-328.5 741.5,-328.5 741.5,-294.5 165.5,-294.5"/>
<text text-anchor="start" x="168.5" y="-315.3" font-family="Monospace" font-style="italic" font-size="14.00" fill="#7f7f7f">The name of the event.</text>
<text text-anchor="start" x="168.5" y="-301.3" font-family="Monospace" font-style="italic" font-size="14.00" fill="#7f7f7f">eg. &quot;Fund9&quot; or &quot;SVE1&quot;</text>
<polygon fill="none" stroke="black" points="0.5,-246.5 0.5,-294.5 93.5,-294.5 93.5,-246.5 0.5,-246.5"/>
<text text-anchor="start" x="3.5" y="-266.7" font-family="Times,serif" font-size="16.00">description</text>
<polygon fill="none" stroke="black" points="93.5,-246.5 93.5,-294.5 165.5,-294.5 165.5,-246.5 93.5,-246.5"/>
<text text-anchor="start" x="111.5" y="-266.7" font-family="Times,serif" font-size="16.00">jsonb</text>
<polygon fill="none" stroke="black" points="165.5,-246.5 165.5,-294.5 741.5,-294.5 741.5,-246.5 165.5,-246.5"/>
<text text-anchor="start" x="168.5" y="-281.3" font-family="Monospace" font-style="italic" font-size="14.00" fill="#7f7f7f">A detailed description of the purpose of the event.</text>
<text text-anchor="start" x="168.5" y="-267.3" font-family="Monospace" font-style="italic" font-size="14.00" fill="#7f7f7f">Must conform to the JSON Schema defined by </text>
<text text-anchor="start" x="168.5" y="-253.3" font-family="Monospace" font-style="italic" font-size="14.00" fill="#7f7f7f">`event_type.description_schema.`</text>
<polygon fill="none" stroke="black" points="0.5,-212.5 0.5,-246.5 93.5,-246.5 93.5,-212.5 0.5,-212.5"/>
<text text-anchor="start" x="3.5" y="-225.7" font-family="Times,serif" font-size="16.00">start_time</text>
<polygon fill="none" stroke="black" points="93.5,-212.5 93.5,-246.5 165.5,-246.5 165.5,-212.5 93.5,-212.5"/>
<text text-anchor="start" x="96.5" y="-226.7" font-family="Times,serif" font-style="italic" font-size="16.00">timestamp</text>
<polygon fill="none" stroke="black" points="165.5,-212.5 165.5,-246.5 741.5,-246.5 741.5,-212.5 165.5,-212.5"/>
<text text-anchor="start" x="168.5" y="-233.3" font-family="Monospace" font-style="italic" font-size="14.00" fill="#7f7f7f">The time (UTC) the event starts.</text>
<text text-anchor="start" x="168.5" y="-219.3" font-family="Monospace" font-style="italic" font-size="14.00" fill="#7f7f7f">NULL = Not yet defined.</text>
<polygon fill="none" stroke="black" points="0.5,-164.5 0.5,-212.5 93.5,-212.5 93.5,-164.5 0.5,-164.5"/>
<text text-anchor="start" x="3.5" y="-184.7" font-family="Times,serif" font-size="16.00">backing_start</text>
<polygon fill="none" stroke="black" points="93.5,-164.5 93.5,-212.5 165.5,-212.5 165.5,-164.5 93.5,-164.5"/>
<text text-anchor="start" x="96.5" y="-185.7" font-family="Times,serif" font-style="italic" font-size="16.00">timestamp</text>
<polygon fill="none" stroke="black" points="165.5,-164.5 165.5,-212.5 741.5,-212.5 741.5,-164.5 165.5,-164.5"/>
<text text-anchor="start" x="168.5" y="-199.3" font-family="Monospace" font-style="italic" font-size="14.00" fill="#7f7f7f">The time (UTC) when backers may start backing the events campaign/s.</text>
<text text-anchor="start" x="168.5" y="-185.3" font-family="Monospace" font-style="italic" font-size="14.00" fill="#7f7f7f">This must &gt;= event.start_time.</text>
<text text-anchor="start" x="168.5" y="-171.3" font-family="Monospace" font-style="italic" font-size="14.00" fill="#7f7f7f">NULL = Not yet defined.</text>
<polygon fill="none" stroke="black" points="0.5,-116.5 0.5,-164.5 93.5,-164.5 93.5,-116.5 0.5,-116.5"/>
<text text-anchor="start" x="3.5" y="-136.7" font-family="Times,serif" font-size="16.00">backing_end</text>
<polygon fill="none" stroke="black" points="93.5,-116.5 93.5,-164.5 165.5,-164.5 165.5,-116.5 93.5,-116.5"/>
<text text-anchor="start" x="96.5" y="-137.7" font-family="Times,serif" font-style="italic" font-size="16.00">timestamp</text>
<polygon fill="none" stroke="black" points="165.5,-116.5 165.5,-164.5 741.5,-164.5 741.5,-116.5 165.5,-116.5"/>
<text text-anchor="start" x="168.5" y="-151.3" font-family="Monospace" font-style="italic" font-size="14.00" fill="#7f7f7f">The time (UTC) when backers may no longer back the events campaign/s.</text>
<text text-anchor="start" x="168.5" y="-137.3" font-family="Monospace" font-style="italic" font-size="14.00" fill="#7f7f7f">This must &gt; event.backing_start and &lt;= event.end_time.</text>
<text text-anchor="start" x="168.5" y="-123.3" font-family="Monospace" font-style="italic" font-size="14.00" fill="#7f7f7f">NULL = Not yet defined.</text>
<polygon fill="none" stroke="black" points="0.5,-68.5 0.5,-116.5 93.5,-116.5 93.5,-68.5 0.5,-68.5"/>
<text text-anchor="start" x="3.5" y="-88.7" font-family="Times,serif" font-size="16.00">end_time</text>
<polygon fill="none" stroke="black" points="93.5,-68.5 93.5,-116.5 165.5,-116.5 165.5,-68.5 93.5,-68.5"/>
<text text-anchor="start" x="96.5" y="-89.7" font-family="Times,serif" font-style="italic" font-size="16.00">timestamp</text>
<polygon fill="none" stroke="black" points="165.5,-68.5 165.5,-116.5 741.5,-116.5 741.5,-68.5 165.5,-68.5"/>
<text text-anchor="start" x="168.5" y="-103.3" font-family="Monospace" font-style="italic" font-size="14.00" fill="#7f7f7f">The time (UTC) the event ends.</text>
<text text-anchor="start" x="168.5" y="-89.3" font-family="Monospace" font-style="italic" font-size="14.00" fill="#7f7f7f">Must be &gt;= event.backing_end.</text>
<text text-anchor="start" x="168.5" y="-75.3" font-family="Monospace" font-style="italic" font-size="14.00" fill="#7f7f7f">NULL = Not yet defined.</text>
<polygon fill="none" stroke="black" points="0.5,-20.5 0.5,-68.5 93.5,-68.5 93.5,-20.5 0.5,-20.5"/>
<text text-anchor="start" x="3.5" y="-40.7" font-family="Times,serif" font-size="16.00">data</text>
<polygon fill="none" stroke="black" points="93.5,-20.5 93.5,-68.5 165.5,-68.5 165.5,-20.5 93.5,-20.5"/>
<text text-anchor="start" x="111.5" y="-40.7" font-family="Times,serif" font-size="16.00">jsonb</text>
<polygon fill="none" stroke="black" points="165.5,-20.5 165.5,-68.5 741.5,-68.5 741.5,-20.5 165.5,-20.5"/>
<text text-anchor="start" x="168.5" y="-55.3" font-family="Monospace" font-style="italic" font-size="14.00" fill="#7f7f7f">Event Type specific data defined about the event.</text>
<text text-anchor="start" x="168.5" y="-41.3" font-family="Monospace" font-style="italic" font-size="14.00" fill="#7f7f7f">Must conform to the JSON Schema defined by</text>
<text text-anchor="start" x="168.5" y="-27.3" font-family="Monospace" font-style="italic" font-size="14.00" fill="#7f7f7f">`event_type.extra_data_schema.`</text>
<polygon fill="#333333" stroke="transparent" points="0.5,0.5 0.5,-20.5 741.5,-20.5 741.5,0.5 0.5,0.5"/>
<polygon fill="none" stroke="black" points="0.5,0.5 0.5,-20.5 741.5,-20.5 741.5,0.5 0.5,0.5"/>
<text text-anchor="start" x="3.5" y="-7.3" font-family="Monospace" font-style="italic" font-size="14.00" fill="white">The basic parameters of a related set of funding campaigns.</text>
</g>
<!-- event_type -->
<g id="node2" class="node">
<title>event_type</title>
<polygon fill="#009879" stroke="transparent" points="777,-378.5 777,-406.5 1485,-406.5 1485,-378.5 777,-378.5"/>
<polygon fill="none" stroke="black" points="777,-378.5 777,-406.5 1485,-406.5 1485,-378.5 777,-378.5"/>
<text text-anchor="start" x="1070.5" y="-388.5" font-family="Courier bold italic" font-weight="bold" font-size="20.00" fill="white">event_type</text>
<polygon fill="none" stroke="black" points="777,-352.5 777,-378.5 910,-378.5 910,-352.5 777,-352.5"/>
<text text-anchor="start" x="811.5" y="-362.1" font-family="Courier bold" font-weight="bold" font-size="18.00">Column</text>
<polygon fill="none" stroke="black" points="910,-352.5 910,-378.5 959,-378.5 959,-352.5 910,-352.5"/>
<text text-anchor="start" x="913" y="-362.1" font-family="Courier bold" font-weight="bold" font-size="18.00">Type</text>
<polygon fill="none" stroke="black" points="959,-352.5 959,-378.5 1485,-378.5 1485,-352.5 959,-352.5"/>
<text text-anchor="start" x="1164" y="-362.1" font-family="Courier bold" font-weight="bold" font-size="18.00">Description</text>
<polygon fill="#54ff9f" stroke="transparent" points="777,-328.5 777,-352.5 910,-352.5 910,-328.5 777,-328.5"/>
<polygon fill="none" stroke="black" points="777,-328.5 777,-352.5 910,-352.5 910,-328.5 777,-328.5"/>
<text text-anchor="start" x="780" y="-336.7" font-family="Times,serif" font-size="16.00">id</text>
<polygon fill="#54ff9f" stroke="transparent" points="910,-328.5 910,-352.5 959,-352.5 959,-328.5 910,-328.5"/>
<polygon fill="none" stroke="black" points="910,-328.5 910,-352.5 959,-352.5 959,-328.5 910,-328.5"/>
<text text-anchor="start" x="919.5" y="-336.7" font-family="Times,serif" font-size="16.00">uuid</text>
<polygon fill="#54ff9f" stroke="transparent" points="959,-328.5 959,-352.5 1485,-352.5 1485,-328.5 959,-328.5"/>
<polygon fill="none" stroke="black" points="959,-328.5 959,-352.5 1485,-352.5 1485,-328.5 959,-328.5"/>
<text text-anchor="start" x="962" y="-337.8" font-family="Monospace" font-style="italic" font-size="14.00" fill="#7f7f7f">Synthetic Unique ID for each event_type (UUIDv4).</text>
<polygon fill="none" stroke="black" points="777,-294.5 777,-328.5 910,-328.5 910,-294.5 777,-294.5"/>
<text text-anchor="start" x="780" y="-307.7" font-family="Times,serif" font-size="16.00">name</text>
<polygon fill="none" stroke="black" points="910,-294.5 910,-328.5 959,-328.5 959,-294.5 910,-294.5"/>
<text text-anchor="start" x="922" y="-307.7" font-family="Times,serif" font-size="16.00">text</text>
<polygon fill="none" stroke="black" points="959,-294.5 959,-328.5 1485,-328.5 1485,-294.5 959,-294.5"/>
<text text-anchor="start" x="962" y="-315.3" font-family="Monospace" font-style="italic" font-size="14.00" fill="#7f7f7f">The name of the event type.</text>
<text text-anchor="start" x="962" y="-301.3" font-family="Monospace" font-style="italic" font-size="14.00" fill="#7f7f7f">eg. &quot;Catalyst V1&quot;</text>
<polygon fill="none" stroke="black" points="777,-260.5 777,-294.5 910,-294.5 910,-260.5 777,-260.5"/>
<text text-anchor="start" x="780" y="-273.7" font-family="Times,serif" font-size="16.00">description_schema</text>
<polygon fill="none" stroke="black" points="910,-260.5 910,-294.5 959,-294.5 959,-260.5 910,-260.5"/>
<text text-anchor="start" x="919.5" y="-273.7" font-family="Times,serif" font-size="16.00">uuid</text>
<polygon fill="none" stroke="black" points="959,-260.5 959,-294.5 1485,-294.5 1485,-260.5 959,-260.5"/>
<text text-anchor="start" x="962" y="-281.3" font-family="Monospace" font-style="italic" font-size="14.00" fill="#7f7f7f">The JSON Schema which defines the structure of the data in the </text>
<text text-anchor="start" x="962" y="-267.3" font-family="Monospace" font-style="italic" font-size="14.00" fill="#7f7f7f">`description` field in the event record.</text>
<polygon fill="none" stroke="black" points="777,-226.5 777,-260.5 910,-260.5 910,-226.5 777,-226.5"/>
<text text-anchor="start" x="780" y="-239.7" font-family="Times,serif" font-size="16.00">data_schema</text>
<polygon fill="none" stroke="black" points="910,-226.5 910,-260.5 959,-260.5 959,-226.5 910,-226.5"/>
<text text-anchor="start" x="919.5" y="-239.7" font-family="Times,serif" font-size="16.00">uuid</text>
<polygon fill="none" stroke="black" points="959,-226.5 959,-260.5 1485,-260.5 1485,-226.5 959,-226.5"/>
<text text-anchor="start" x="962" y="-247.3" font-family="Monospace" font-style="italic" font-size="14.00" fill="#7f7f7f">The JSON Schema which defines the structure of the data in the </text>
<text text-anchor="start" x="962" y="-233.3" font-family="Monospace" font-style="italic" font-size="14.00" fill="#7f7f7f">`extra_data` field in the event record.</text>
<polygon fill="#333333" stroke="transparent" points="777,-205.5 777,-226.5 1485,-226.5 1485,-205.5 777,-205.5"/>
<polygon fill="none" stroke="black" points="777,-205.5 777,-226.5 1485,-226.5 1485,-205.5 777,-205.5"/>
<text text-anchor="start" x="780" y="-213.3" font-family="Monospace" font-style="italic" font-size="14.00" fill="white">The types of event which have been defined.</text>
</g>
<!-- event&#45;&gt;event_type -->
<g id="edge3" class="edge">
<title>event:type_out&#45;&gt;event_type:id</title>
<path fill="none" stroke="black" d="M741,-340.5C753,-340.5 758.25,-340.5 766.88,-340.5"/>
<polygon fill="black" stroke="black" points="767,-344 777,-340.5 767,-337 767,-344"/>
</g>
<!-- json_schema_type -->
<g id="node3" class="node">
<title>json_schema_type</title>
<polygon fill="#009879" stroke="transparent" points="1529.5,-298.5 1529.5,-326.5 1728.5,-326.5 1728.5,-298.5 1529.5,-298.5"/>
<polygon fill="none" stroke="black" points="1529.5,-298.5 1529.5,-326.5 1728.5,-326.5 1728.5,-298.5 1529.5,-298.5"/>
<text text-anchor="start" x="1532.5" y="-308.5" font-family="Courier bold italic" font-weight="bold" font-size="20.00" fill="white">json_schema_type</text>
<polygon fill="none" stroke="black" points="1529.5,-272.5 1529.5,-298.5 1728.5,-298.5 1728.5,-272.5 1529.5,-272.5"/>
<text text-anchor="start" x="1597" y="-282.1" font-family="Courier bold" font-weight="bold" font-size="18.00">Column</text>
<polygon fill="none" stroke="black" points="1529.5,-248.5 1529.5,-272.5 1728.5,-272.5 1728.5,-248.5 1529.5,-248.5"/>
<text text-anchor="start" x="1532.5" y="-256.7" font-family="Times,serif" font-size="16.00">id</text>
<polygon fill="#333333" stroke="transparent" points="1529.5,-227.5 1529.5,-248.5 1728.5,-248.5 1728.5,-227.5 1529.5,-227.5"/>
<polygon fill="none" stroke="black" points="1529.5,-227.5 1529.5,-248.5 1728.5,-248.5 1728.5,-227.5 1529.5,-227.5"/>
<text text-anchor="start" x="1532.5" y="-235.3" font-family="Monospace" font-style="italic" font-size="14.00" fill="white">ABRIDGED</text>
</g>
<!-- event_type&#45;&gt;json_schema_type -->
<g id="edge1" class="edge">
<title>event_type:description_schema_out&#45;&gt;json_schema_type:id</title>
<path fill="none" stroke="black" d="M1485,-277.5C1501.87,-277.5 1506.34,-266.28 1518.56,-262.07"/>
<polygon fill="black" stroke="black" points="1519.17,-265.52 1528.5,-260.5 1518.08,-258.6 1519.17,-265.52"/>
</g>
<!-- event_type&#45;&gt;json_schema_type -->
<g id="edge2" class="edge">
<title>event_type:data_schema_out&#45;&gt;json_schema_type:id</title>
<path fill="none" stroke="black" d="M1485,-243.5C1501.87,-243.5 1506.34,-254.72 1518.56,-258.93"/>
<polygon fill="black" stroke="black" points="1518.08,-262.4 1528.5,-260.5 1519.17,-255.48 1518.08,-262.4"/>
</g>
<!-- LEGEND -->
<g id="node4" class="node">
<title>LEGEND</title>
<polygon fill="Pink" stroke="transparent" points="260.5,-647.5 260.5,-675.5 480.5,-675.5 480.5,-647.5 260.5,-647.5"/>
<polygon fill="none" stroke="black" points="260.5,-647.5 260.5,-675.5 480.5,-675.5 480.5,-647.5 260.5,-647.5"/>
<text text-anchor="start" x="334" y="-657.5" font-family="Courier bold italic" font-weight="bold" font-size="20.00" fill="white">LEGEND</text>
<polygon fill="none" stroke="black" points="260.5,-621.5 260.5,-647.5 399.5,-647.5 399.5,-621.5 260.5,-621.5"/>
<text text-anchor="start" x="308.5" y="-631.1" font-family="Courier bold" font-weight="bold" font-size="18.00">Type</text>
<polygon fill="none" stroke="black" points="399.5,-621.5 399.5,-647.5 480.5,-647.5 480.5,-621.5 399.5,-621.5"/>
<text text-anchor="start" x="403" y="-631.1" font-family="Courier bold" font-weight="bold" font-size="18.00">Example</text>
<polygon fill="#54ff9f" stroke="transparent" points="260.5,-597.5 260.5,-621.5 399.5,-621.5 399.5,-597.5 260.5,-597.5"/>
<polygon fill="none" stroke="black" points="260.5,-597.5 260.5,-621.5 399.5,-621.5 399.5,-597.5 260.5,-597.5"/>
<text text-anchor="start" x="263.5" y="-605.7" font-family="Times,serif" font-size="16.00">Primary Key</text>
<polygon fill="#54ff9f" stroke="transparent" points="399.5,-597.5 399.5,-621.5 480.5,-621.5 480.5,-597.5 399.5,-597.5"/>
<polygon fill="none" stroke="black" points="399.5,-597.5 399.5,-621.5 480.5,-621.5 480.5,-597.5 399.5,-597.5"/>
<text text-anchor="start" x="413" y="-605.7" font-family="Times,serif" font-size="16.00">integer+</text>
<polygon fill="none" stroke="black" points="260.5,-573.5 260.5,-597.5 399.5,-597.5 399.5,-573.5 260.5,-573.5"/>
<text text-anchor="start" x="263.5" y="-581.7" font-family="Times,serif" font-size="16.00">Standard Field</text>
<polygon fill="none" stroke="black" points="399.5,-573.5 399.5,-597.5 480.5,-597.5 480.5,-573.5 399.5,-573.5"/>
<text text-anchor="start" x="422.5" y="-581.7" font-family="Times,serif" font-size="16.00">bytea</text>
<polygon fill="none" stroke="black" points="260.5,-549.5 260.5,-573.5 399.5,-573.5 399.5,-549.5 260.5,-549.5"/>
<text text-anchor="start" x="263.5" y="-557.7" font-family="Times,serif" font-size="16.00">Nullable Field</text>
<polygon fill="none" stroke="black" points="399.5,-549.5 399.5,-573.5 480.5,-573.5 480.5,-549.5 399.5,-549.5"/>
<text text-anchor="start" x="428.5" y="-558.7" font-family="Times,serif" font-style="italic" font-size="16.00">text</text>
<polygon fill="none" stroke="black" points="260.5,-525.5 260.5,-549.5 399.5,-549.5 399.5,-525.5 260.5,-525.5"/>
<text text-anchor="start" x="263.5" y="-533.7" font-family="Times,serif" font-size="16.00">Sized Field</text>
<polygon fill="none" stroke="black" points="399.5,-525.5 399.5,-549.5 480.5,-549.5 480.5,-525.5 399.5,-525.5"/>
<text text-anchor="start" x="402.5" y="-533.7" font-family="Times,serif" font-size="16.00">varchar(32)</text>
<polygon fill="none" stroke="black" points="260.5,-501.5 260.5,-525.5 399.5,-525.5 399.5,-501.5 260.5,-501.5"/>
<text text-anchor="start" x="263.5" y="-509.7" font-family="Times,serif" font-size="16.00">Autoincrement Field</text>
<polygon fill="none" stroke="black" points="399.5,-501.5 399.5,-525.5 480.5,-525.5 480.5,-501.5 399.5,-501.5"/>
<text text-anchor="start" x="413" y="-509.7" font-family="Times,serif" font-size="16.00">integer+</text>
</g>
</g>
</svg>
