<?xml version="1.0" encoding="UTF-8" standalone="no"?>
<!DOCTYPE svg PUBLIC "-//W3C//DTD SVG 1.1//EN"
 "http://www.w3.org/Graphics/SVG/1.1/DTD/svg11.dtd">
<!-- Generated by graphviz version 2.43.0 (0)
 -->
<!-- Title: erd Pages: 1 -->
<svg width="887pt" height="527pt"
 viewBox="0.00 0.00 887.00 526.50" xmlns="http://www.w3.org/2000/svg" xmlns:xlink="http://www.w3.org/1999/xlink">
<g id="graph0" class="graph" transform="scale(1 1) rotate(0) translate(4 522.5)">
<title>erd</title>
<polygon fill="white" stroke="transparent" points="-4,4 -4,-522.5 883,-522.5 883,4 -4,4"/>
<text text-anchor="middle" x="439.5" y="-490.5" font-family="Times,serif" font-size="30.00" fill="blue">Vote Storage</text>
<!-- ballot -->
<g id="node1" class="node">
<title>ballot</title>
<polygon fill="#009879" stroke="transparent" points="0,-248.5 0,-276.5 712,-276.5 712,-248.5 0,-248.5"/>
<polygon fill="none" stroke="black" points="0,-248.5 0,-276.5 712,-276.5 712,-248.5 0,-248.5"/>
<text text-anchor="start" x="319.5" y="-258.5" font-family="Courier bold italic" font-weight="bold" font-size="20.00" fill="white">ballot</text>
<polygon fill="none" stroke="black" points="0,-222.5 0,-248.5 96,-248.5 96,-222.5 0,-222.5"/>
<text text-anchor="start" x="16" y="-232.1" font-family="Courier bold" font-weight="bold" font-size="18.00">Column</text>
<polygon fill="none" stroke="black" points="96,-222.5 96,-248.5 169,-248.5 169,-222.5 96,-222.5"/>
<text text-anchor="start" x="111" y="-232.1" font-family="Courier bold" font-weight="bold" font-size="18.00">Type</text>
<polygon fill="none" stroke="black" points="169,-222.5 169,-248.5 712,-248.5 712,-222.5 169,-222.5"/>
<text text-anchor="start" x="382.5" y="-232.1" font-family="Courier bold" font-weight="bold" font-size="18.00">Description</text>
<polygon fill="#54ff9f" stroke="transparent" points="0,-198.5 0,-222.5 96,-222.5 96,-198.5 0,-198.5"/>
<polygon fill="none" stroke="black" points="0,-198.5 0,-222.5 96,-222.5 96,-198.5 0,-198.5"/>
<text text-anchor="start" x="3" y="-206.7" font-family="Times,serif" font-size="16.00">row_id</text>
<polygon fill="#54ff9f" stroke="transparent" points="96,-198.5 96,-222.5 169,-222.5 169,-198.5 96,-198.5"/>
<polygon fill="none" stroke="black" points="96,-198.5 96,-222.5 169,-222.5 169,-198.5 96,-198.5"/>
<text text-anchor="start" x="108.5" y="-206.7" font-family="Times,serif" font-size="16.00">bigint+</text>
<polygon fill="#54ff9f" stroke="transparent" points="169,-198.5 169,-222.5 712,-222.5 712,-198.5 169,-198.5"/>
<polygon fill="none" stroke="black" points="169,-198.5 169,-222.5 712,-222.5 712,-198.5 169,-198.5"/>
<text text-anchor="start" x="172" y="-207.8" font-family="Monospace" font-style="italic" font-size="14.00" fill="#7f7f7f">none</text>
<polygon fill="none" stroke="black" points="0,-174.5 0,-198.5 96,-198.5 96,-174.5 0,-174.5"/>
<text text-anchor="start" x="3" y="-182.7" font-family="Times,serif" font-size="16.00">objective</text>
<polygon fill="none" stroke="black" points="96,-174.5 96,-198.5 169,-198.5 169,-174.5 96,-174.5"/>
<text text-anchor="start" x="110" y="-182.7" font-family="Times,serif" font-size="16.00">integer</text>
<polygon fill="none" stroke="black" points="169,-174.5 169,-198.5 712,-198.5 712,-174.5 169,-174.5"/>
<text text-anchor="start" x="172" y="-183.8" font-family="Monospace" font-style="italic" font-size="14.00" fill="#7f7f7f">Reference to the Objective the ballot was for.</text>
<polygon fill="none" stroke="black" points="0,-140.5 0,-174.5 96,-174.5 96,-140.5 0,-140.5"/>
<text text-anchor="start" x="3" y="-153.7" font-family="Times,serif" font-size="16.00">proposal</text>
<polygon fill="none" stroke="black" points="96,-140.5 96,-174.5 169,-174.5 169,-140.5 96,-140.5"/>
<text text-anchor="start" x="109.5" y="-154.7" font-family="Times,serif" font-style="italic" font-size="16.00">integer</text>
<polygon fill="none" stroke="black" points="169,-140.5 169,-174.5 712,-174.5 712,-140.5 169,-140.5"/>
<text text-anchor="start" x="172" y="-161.3" font-family="Monospace" font-style="italic" font-size="14.00" fill="#7f7f7f">Reference to the Proposal the ballot was for.</text>
<text text-anchor="start" x="172" y="-147.3" font-family="Monospace" font-style="italic" font-size="14.00" fill="#7f7f7f">May be NULL if this ballot covers ALL proposals in the challenge.</text>
<polygon fill="none" stroke="black" points="0,-116.5 0,-140.5 96,-140.5 96,-116.5 0,-116.5"/>
<text text-anchor="start" x="3" y="-124.7" font-family="Times,serif" font-size="16.00">voter</text>
<polygon fill="none" stroke="black" points="96,-116.5 96,-140.5 169,-140.5 169,-116.5 96,-116.5"/>
<text text-anchor="start" x="115" y="-124.7" font-family="Times,serif" font-size="16.00">bytea</text>
<polygon fill="none" stroke="black" points="169,-116.5 169,-140.5 712,-140.5 712,-116.5 169,-116.5"/>
<text text-anchor="start" x="172" y="-125.8" font-family="Monospace" font-style="italic" font-size="14.00" fill="#7f7f7f">Voters Voting Key who cast the ballot</text>
<polygon fill="none" stroke="black" points="0,-92.5 0,-116.5 96,-116.5 96,-92.5 0,-92.5"/>
<text text-anchor="start" x="3" y="-100.7" font-family="Times,serif" font-size="16.00">fragment_id</text>
<polygon fill="none" stroke="black" points="96,-92.5 96,-116.5 169,-116.5 169,-92.5 96,-92.5"/>
<text text-anchor="start" x="120" y="-100.7" font-family="Times,serif" font-size="16.00">text</text>
<polygon fill="none" stroke="black" points="169,-92.5 169,-116.5 712,-116.5 712,-92.5 169,-92.5"/>
<text text-anchor="start" x="172" y="-101.8" font-family="Monospace" font-style="italic" font-size="14.00" fill="#7f7f7f">Unique ID of this Ballot</text>
<polygon fill="none" stroke="black" points="0,-68.5 0,-92.5 96,-92.5 96,-68.5 0,-68.5"/>
<text text-anchor="start" x="3" y="-76.7" font-family="Times,serif" font-size="16.00">cast_at</text>
<polygon fill="none" stroke="black" points="96,-68.5 96,-92.5 169,-92.5 169,-68.5 96,-68.5"/>
<text text-anchor="start" x="99" y="-76.7" font-family="Times,serif" font-size="16.00">timestamp</text>
<polygon fill="none" stroke="black" points="169,-68.5 169,-92.5 712,-92.5 712,-68.5 169,-68.5"/>
<text text-anchor="start" x="172" y="-77.8" font-family="Monospace" font-style="italic" font-size="14.00" fill="#7f7f7f">When this ballot was recorded as properly cast</text>
<polygon fill="none" stroke="black" points="0,-44.5 0,-68.5 96,-68.5 96,-44.5 0,-44.5"/>
<text text-anchor="start" x="3" y="-52.7" font-family="Times,serif" font-size="16.00">choice</text>
<polygon fill="none" stroke="black" points="96,-44.5 96,-68.5 169,-68.5 169,-44.5 96,-44.5"/>
<text text-anchor="start" x="106.5" y="-53.7" font-family="Times,serif" font-style="italic" font-size="16.00">smallint</text>
<polygon fill="none" stroke="black" points="169,-44.5 169,-68.5 712,-68.5 712,-44.5 169,-44.5"/>
<text text-anchor="start" x="172" y="-53.8" font-family="Monospace" font-style="italic" font-size="14.00" fill="#7f7f7f">If a public vote, the choice on the ballot, otherwise NULL.</text>
<polygon fill="none" stroke="black" points="0,-20.5 0,-44.5 96,-44.5 96,-20.5 0,-20.5"/>
<text text-anchor="start" x="3" y="-28.7" font-family="Times,serif" font-size="16.00">raw_fragment</text>
<polygon fill="none" stroke="black" points="96,-20.5 96,-44.5 169,-44.5 169,-20.5 96,-20.5"/>
<text text-anchor="start" x="115" y="-28.7" font-family="Times,serif" font-size="16.00">bytea</text>
<polygon fill="none" stroke="black" points="169,-20.5 169,-44.5 712,-44.5 712,-20.5 169,-20.5"/>
<text text-anchor="start" x="172" y="-29.8" font-family="Monospace" font-style="italic" font-size="14.00" fill="#7f7f7f">The raw ballot record.</text>
<polygon fill="#333333" stroke="transparent" points="0,0.5 0,-20.5 712,-20.5 712,0.5 0,0.5"/>
<polygon fill="none" stroke="black" points="0,0.5 0,-20.5 712,-20.5 712,0.5 0,0.5"/>
<text text-anchor="start" x="3" y="-7.3" font-family="Monospace" font-style="italic" font-size="14.00" fill="white">All Ballots cast on an event.</text>
</g>
<!-- objective -->
<g id="node2" class="node">
<title>objective</title>
<polygon fill="#009879" stroke="transparent" points="756.5,-272.5 756.5,-300.5 871.5,-300.5 871.5,-272.5 756.5,-272.5"/>
<polygon fill="none" stroke="black" points="756.5,-272.5 756.5,-300.5 871.5,-300.5 871.5,-272.5 756.5,-272.5"/>
<text text-anchor="start" x="759.5" y="-282.5" font-family="Courier bold italic" font-weight="bold" font-size="20.00" fill="white">objective</text>
<polygon fill="none" stroke="black" points="756.5,-246.5 756.5,-272.5 871.5,-272.5 871.5,-246.5 756.5,-246.5"/>
<text text-anchor="start" x="782" y="-256.1" font-family="Courier bold" font-weight="bold" font-size="18.00">Column</text>
<polygon fill="none" stroke="black" points="756.5,-222.5 756.5,-246.5 871.5,-246.5 871.5,-222.5 756.5,-222.5"/>
<text text-anchor="start" x="759.5" y="-230.7" font-family="Times,serif" font-size="16.00">row_id</text>
<polygon fill="#333333" stroke="transparent" points="756.5,-201.5 756.5,-222.5 871.5,-222.5 871.5,-201.5 756.5,-201.5"/>
<polygon fill="none" stroke="black" points="756.5,-201.5 756.5,-222.5 871.5,-222.5 871.5,-201.5 756.5,-201.5"/>
<text text-anchor="start" x="759.5" y="-209.3" font-family="Monospace" font-style="italic" font-size="14.00" fill="white">ABRIDGED</text>
</g>
<!-- ballot&#45;&gt;objective -->
<g id="edge1" class="edge">
<title>ballot:objective_out&#45;&gt;objective:row_id</title>
<path fill="none" stroke="black" d="M712,-186.5C736.74,-186.5 729.82,-221.95 745.66,-231.92"/>
<polygon fill="black" stroke="black" points="744.94,-235.35 755.5,-234.5 746.71,-228.58 744.94,-235.35"/>
</g>
<!-- proposal -->
<g id="node3" class="node">
<title>proposal</title>
<polygon fill="#009879" stroke="transparent" points="762.5,-147.5 762.5,-175.5 865.5,-175.5 865.5,-147.5 762.5,-147.5"/>
<polygon fill="none" stroke="black" points="762.5,-147.5 762.5,-175.5 865.5,-175.5 865.5,-147.5 762.5,-147.5"/>
<text text-anchor="start" x="765.5" y="-157.5" font-family="Courier bold italic" font-weight="bold" font-size="20.00" fill="white">proposal</text>
<polygon fill="none" stroke="black" points="762.5,-121.5 762.5,-147.5 865.5,-147.5 865.5,-121.5 762.5,-121.5"/>
<text text-anchor="start" x="782" y="-131.1" font-family="Courier bold" font-weight="bold" font-size="18.00">Column</text>
<polygon fill="none" stroke="black" points="762.5,-97.5 762.5,-121.5 865.5,-121.5 865.5,-97.5 762.5,-97.5"/>
<text text-anchor="start" x="765.5" y="-105.7" font-family="Times,serif" font-size="16.00">row_id</text>
<polygon fill="#333333" stroke="transparent" points="762.5,-76.5 762.5,-97.5 865.5,-97.5 865.5,-76.5 762.5,-76.5"/>
<polygon fill="none" stroke="black" points="762.5,-76.5 762.5,-97.5 865.5,-97.5 865.5,-76.5 762.5,-76.5"/>
<text text-anchor="start" x="765.5" y="-84.3" font-family="Monospace" font-style="italic" font-size="14.00" fill="white">ABRIDGED</text>
</g>
<!-- ballot&#45;&gt;proposal -->
<g id="edge2" class="edge">
<title>ballot:proposal_out&#45;&gt;proposal:row_id</title>
<path fill="none" stroke="black" d="M712,-157.5C738.57,-157.5 733.24,-121.4 751.34,-111.82"/>
<polygon fill="black" stroke="black" points="752.53,-115.13 761.5,-109.5 750.97,-108.31 752.53,-115.13"/>
</g>
<!-- LEGEND -->
<g id="node4" class="node">
<title>LEGEND</title>
<polygon fill="Pink" stroke="transparent" points="246,-445.5 246,-473.5 466,-473.5 466,-445.5 246,-445.5"/>
<polygon fill="none" stroke="black" points="246,-445.5 246,-473.5 466,-473.5 466,-445.5 246,-445.5"/>
<text text-anchor="start" x="319.5" y="-455.5" font-family="Courier bold italic" font-weight="bold" font-size="20.00" fill="white">LEGEND</text>
<polygon fill="none" stroke="black" points="246,-419.5 246,-445.5 385,-445.5 385,-419.5 246,-419.5"/>
<text text-anchor="start" x="294" y="-429.1" font-family="Courier bold" font-weight="bold" font-size="18.00">Type</text>
<polygon fill="none" stroke="black" points="385,-419.5 385,-445.5 466,-445.5 466,-419.5 385,-419.5"/>
<text text-anchor="start" x="388.5" y="-429.1" font-family="Courier bold" font-weight="bold" font-size="18.00">Example</text>
<polygon fill="#54ff9f" stroke="transparent" points="246,-395.5 246,-419.5 385,-419.5 385,-395.5 246,-395.5"/>
<polygon fill="none" stroke="black" points="246,-395.5 246,-419.5 385,-419.5 385,-395.5 246,-395.5"/>
<text text-anchor="start" x="249" y="-403.7" font-family="Times,serif" font-size="16.00">Primary Key</text>
<polygon fill="#54ff9f" stroke="transparent" points="385,-395.5 385,-419.5 466,-419.5 466,-395.5 385,-395.5"/>
<polygon fill="none" stroke="black" points="385,-395.5 385,-419.5 466,-419.5 466,-395.5 385,-395.5"/>
<text text-anchor="start" x="398.5" y="-403.7" font-family="Times,serif" font-size="16.00">integer+</text>
<polygon fill="none" stroke="black" points="246,-371.5 246,-395.5 385,-395.5 385,-371.5 246,-371.5"/>
<text text-anchor="start" x="249" y="-379.7" font-family="Times,serif" font-size="16.00">Standard Field</text>
<polygon fill="none" stroke="black" points="385,-371.5 385,-395.5 466,-395.5 466,-371.5 385,-371.5"/>
<text text-anchor="start" x="408" y="-379.7" font-family="Times,serif" font-size="16.00">bytea</text>
<polygon fill="none" stroke="black" points="246,-347.5 246,-371.5 385,-371.5 385,-347.5 246,-347.5"/>
<text text-anchor="start" x="249" y="-355.7" font-family="Times,serif" font-size="16.00">Nullable Field</text>
<polygon fill="none" stroke="black" points="385,-347.5 385,-371.5 466,-371.5 466,-347.5 385,-347.5"/>
<text text-anchor="start" x="414" y="-356.7" font-family="Times,serif" font-style="italic" font-size="16.00">text</text>
<polygon fill="none" stroke="black" points="246,-323.5 246,-347.5 385,-347.5 385,-323.5 246,-323.5"/>
<text text-anchor="start" x="249" y="-331.7" font-family="Times,serif" font-size="16.00">Sized Field</text>
<polygon fill="none" stroke="black" points="385,-323.5 385,-347.5 466,-347.5 466,-323.5 385,-323.5"/>
<text text-anchor="start" x="388" y="-331.7" font-family="Times,serif" font-size="16.00">varchar(32)</text>
<polygon fill="none" stroke="black" points="246,-299.5 246,-323.5 385,-323.5 385,-299.5 246,-299.5"/>
<text text-anchor="start" x="249" y="-307.7" font-family="Times,serif" font-size="16.00">Autoincrement Field</text>
<polygon fill="none" stroke="black" points="385,-299.5 385,-323.5 466,-323.5 466,-299.5 385,-299.5"/>
<text text-anchor="start" x="398.5" y="-307.7" font-family="Times,serif" font-size="16.00">integer+</text>
</g>
</g>
</svg>
