<?xml version="1.0" encoding="UTF-8" standalone="no"?>
<!DOCTYPE svg PUBLIC "-//W3C//DTD SVG 1.1//EN"
 "http://www.w3.org/Graphics/SVG/1.1/DTD/svg11.dtd">
<!-- Generated by graphviz version 9.0.0 (20230911.1827)
 -->
<!-- Title: erd Pages: 1 -->
<svg width="1392pt" height="637pt"
 viewBox="0.00 0.00 1392.00 636.75" xmlns="http://www.w3.org/2000/svg" xmlns:xlink="http://www.w3.org/1999/xlink">
<g id="graph0" class="graph" transform="scale(1 1) rotate(0) translate(4 632.75)">
<title>erd</title>
<polygon fill="white" stroke="none" points="-4,4 -4,-632.75 1388,-632.75 1388,4 -4,4"/>
<text text-anchor="middle" x="692" y="-596.25" font-family="Times,serif" font-size="30.00" fill="blue">Configuration Data</text>
<!-- config -->
<g id="node1" class="node">
<title>config</title>
<polygon fill="#009879" stroke="none" points="0,-354 0,-384 689,-384 689,-354 0,-354"/>
<polygon fill="none" stroke="black" points="0,-354 0,-384 689,-384 689,-354 0,-354"/>
<text text-anchor="start" x="308.5" y="-363" font-family="Courier bold italic" font-weight="bold" font-size="20.00" fill="white">config</text>
<polygon fill="none" stroke="black" points="0,-327 0,-354 96,-354 96,-327 0,-327"/>
<text text-anchor="start" x="16.5" y="-334.9" font-family="Courier bold" font-weight="bold" font-size="18.00">Column</text>
<polygon fill="none" stroke="black" points="96,-327 96,-354 155,-354 155,-327 96,-327"/>
<text text-anchor="start" x="104.5" y="-334.9" font-family="Courier bold" font-weight="bold" font-size="18.00">Type</text>
<polygon fill="none" stroke="black" points="155,-327 155,-354 689,-354 689,-327 155,-327"/>
<text text-anchor="start" x="364.25" y="-334.9" font-family="Courier bold" font-weight="bold" font-size="18.00">Description</text>
<polygon fill="#54ff9f" stroke="none" points="0,-293 0,-327 96,-327 96,-293 0,-293"/>
<polygon fill="none" stroke="black" points="0,-293 0,-327 96,-327 96,-293 0,-293"/>
<text text-anchor="start" x="3" y="-304.18" font-family="Times,serif" font-size="16.00">row_id</text>
<polygon fill="#54ff9f" stroke="none" points="96,-293 96,-327 155,-327 155,-293 96,-293"/>
<polygon fill="none" stroke="black" points="96,-293 96,-327 155,-327 155,-293 96,-293"/>
<text text-anchor="start" x="98.88" y="-304.18" font-family="Times,serif" font-size="16.00">integer+</text>
<polygon fill="#54ff9f" stroke="none" points="155,-293 155,-327 689,-327 689,-293 155,-293"/>
<polygon fill="none" stroke="black" points="155,-293 155,-327 689,-327 689,-293 155,-293"/>
<text text-anchor="start" x="158" y="-311.7" font-family="Monospace" font-style="italic" font-size="14.00" fill="#7f7f7f">Synthetic unique key. </text>
<text text-anchor="start" x="158" y="-297.7" font-family="Monospace" font-style="italic" font-size="14.00" fill="#7f7f7f">Always lookup using `cardano.follower.preview`</text>
<polygon fill="none" stroke="black" points="0,-269 0,-293 96,-293 96,-269 0,-269"/>
<text text-anchor="start" x="3" y="-274.8" font-family="Times,serif" font-size="16.00">cardano</text>
<polygon fill="none" stroke="black" points="96,-269 96,-293 155,-293 155,-269 96,-269"/>
<text text-anchor="start" x="101.88" y="-274.8" font-family="Times,serif" font-size="16.00">varchar</text>
<polygon fill="none" stroke="black" points="155,-269 155,-293 689,-293 689,-269 155,-269"/>
<text text-anchor="start" x="158" y="-276.95" font-family="Monospace" font-style="italic" font-size="14.00" fill="#7f7f7f">The name/id of the general config value/variable</text>
<polygon fill="none" stroke="black" points="0,-235 0,-269 96,-269 96,-235 0,-235"/>
<text text-anchor="start" x="3" y="-246.18" font-family="Times,serif" font-size="16.00">follower</text>
<polygon fill="none" stroke="black" points="96,-235 96,-269 155,-269 155,-235 96,-235"/>
<text text-anchor="start" x="101.88" y="-246.18" font-family="Times,serif" font-size="16.00">varchar</text>
<polygon fill="none" stroke="black" points="155,-235 155,-269 689,-269 689,-235 155,-235"/>
<text text-anchor="start" x="158" y="-253.7" font-family="Monospace" font-style="italic" font-size="14.00" fill="#7f7f7f">2nd ID of the general config value. </text>
<text text-anchor="start" x="158" y="-239.7" font-family="Monospace" font-style="italic" font-size="14.00" fill="#7f7f7f">Must be defined, use &quot;&quot; if not required.</text>
<polygon fill="none" stroke="black" points="0,-201 0,-235 96,-235 96,-201 0,-201"/>
<text text-anchor="start" x="3" y="-212.18" font-family="Times,serif" font-size="16.00">preview</text>
<polygon fill="none" stroke="black" points="96,-201 96,-235 155,-235 155,-201 96,-201"/>
<text text-anchor="start" x="101.88" y="-212.18" font-family="Times,serif" font-size="16.00">varchar</text>
<polygon fill="none" stroke="black" points="155,-201 155,-235 689,-235 689,-201 155,-201"/>
<text text-anchor="start" x="158" y="-219.7" font-family="Monospace" font-style="italic" font-size="14.00" fill="#7f7f7f">3rd ID of the general config value.</text>
<text text-anchor="start" x="158" y="-205.7" font-family="Monospace" font-style="italic" font-size="14.00" fill="#7f7f7f">Must be defined, use &quot;&quot; if not required.</text>
<polygon fill="none" stroke="black" points="0,-177 0,-201 96,-201 96,-177 0,-177"/>
<text text-anchor="start" x="3" y="-182.8" font-family="Times,serif" font-size="16.00">value</text>
<polygon fill="none" stroke="black" points="96,-177 96,-201 155,-201 155,-177 96,-177"/>
<text text-anchor="start" x="107.88" y="-183.8" font-family="Times,serif" font-style="italic" font-size="16.00">jsonb</text>
<polygon fill="none" stroke="black" points="155,-177 155,-201 689,-201 689,-177 155,-177"/>
<text text-anchor="start" x="158" y="-184.95" font-family="Monospace" font-style="italic" font-size="14.00" fill="#7f7f7f">The JSON value of the system variable `cardano.follower.preview`</text>
<polygon fill="none" stroke="black" points="0,-143 0,-177 96,-177 96,-143 0,-143"/>
<text text-anchor="start" x="3" y="-154.18" font-family="Times,serif" font-size="16.00">value_schema</text>
<polygon fill="none" stroke="black" points="96,-143 96,-177 155,-177 155,-143 96,-143"/>
<text text-anchor="start" x="110.88" y="-155.18" font-family="Times,serif" font-style="italic" font-size="16.00">uuid</text>
<polygon fill="none" stroke="black" points="155,-143 155,-177 689,-177 689,-143 155,-143"/>
<text text-anchor="start" x="158" y="-161.7" font-family="Monospace" font-style="italic" font-size="14.00" fill="#7f7f7f">The Schema the Config Value conforms to.</text>
<text text-anchor="start" x="158" y="-147.7" font-family="Monospace" font-style="italic" font-size="14.00" fill="#7f7f7f">The `value` field must conform to this schema.</text>
<polygon fill="#333333" stroke="none" points="0,-95 0,-143 689,-143 689,-95 0,-95"/>
<polygon fill="none" stroke="black" points="0,-95 0,-143 689,-143 689,-95 0,-95"/>
<text text-anchor="start" x="3" y="-127.7" font-family="Monospace" font-style="italic" font-size="14.00" fill="white">General JSON Configuration and Data Values.</text>
<text text-anchor="start" x="3" y="-113.7" font-family="Monospace" font-style="italic" font-size="14.00" fill="white">Defined &#160;Data Formats:</text>
<text text-anchor="start" x="3" y="-99.7" font-family="Monospace" font-style="italic" font-size="14.00" fill="white"> &#160;Currently None</text>
</g>
<!-- json_schema_type -->
<g id="node2" class="node">
<title>json_schema_type</title>
<polygon fill="#009879" stroke="none" points="725,-203 725,-233 1384,-233 1384,-203 725,-203"/>
<polygon fill="none" stroke="black" points="725,-203 725,-233 1384,-233 1384,-203 725,-203"/>
<text text-anchor="start" x="958.5" y="-212" font-family="Courier bold italic" font-weight="bold" font-size="20.00" fill="white">json_schema_type</text>
<polygon fill="none" stroke="black" points="725,-176 725,-203 794,-203 794,-176 725,-176"/>
<text text-anchor="start" x="728" y="-183.9" font-family="Courier bold" font-weight="bold" font-size="18.00">Column</text>
<polygon fill="none" stroke="black" points="794,-176 794,-203 842,-203 842,-176 794,-176"/>
<text text-anchor="start" x="797" y="-183.9" font-family="Courier bold" font-weight="bold" font-size="18.00">Type</text>
<polygon fill="none" stroke="black" points="842,-176 842,-203 1384,-203 1384,-176 842,-176"/>
<text text-anchor="start" x="1055.25" y="-183.9" font-family="Courier bold" font-weight="bold" font-size="18.00">Description</text>
<polygon fill="#54ff9f" stroke="none" points="725,-142 725,-176 794,-176 794,-142 725,-142"/>
<polygon fill="none" stroke="black" points="725,-142 725,-176 794,-176 794,-142 725,-142"/>
<text text-anchor="start" x="728" y="-153.18" font-family="Times,serif" font-size="16.00">id</text>
<polygon fill="#54ff9f" stroke="none" points="794,-142 794,-176 842,-176 842,-142 794,-142"/>
<polygon fill="none" stroke="black" points="794,-142 794,-176 842,-176 842,-142 794,-142"/>
<text text-anchor="start" x="803.38" y="-153.18" font-family="Times,serif" font-size="16.00">uuid</text>
<polygon fill="#54ff9f" stroke="none" points="842,-142 842,-176 1384,-176 1384,-142 842,-142"/>
<polygon fill="none" stroke="black" points="842,-142 842,-176 1384,-176 1384,-142 842,-142"/>
<text text-anchor="start" x="845" y="-160.7" font-family="Monospace" font-style="italic" font-size="14.00" fill="#7f7f7f">Synthetic Unique ID for each json_schema_type (UUIDv4).</text>
<text text-anchor="start" x="845" y="-146.7" font-family="Monospace" font-style="italic" font-size="14.00" fill="#7f7f7f">Must match the `UUID` component of the $id URI inside the schema.</text>
<polygon fill="none" stroke="black" points="725,-94 725,-142 794,-142 794,-94 725,-94"/>
<text text-anchor="start" x="728" y="-112.17" font-family="Times,serif" font-size="16.00">type</text>
<polygon fill="none" stroke="black" points="794,-94 794,-142 842,-142 842,-94 794,-94"/>
<text text-anchor="start" x="806" y="-112.17" font-family="Times,serif" font-size="16.00">text</text>
<polygon fill="none" stroke="black" points="842,-94 842,-142 1384,-142 1384,-94 842,-94"/>
<text text-anchor="start" x="845" y="-126.7" font-family="Monospace" font-style="italic" font-size="14.00" fill="#7f7f7f">The type of the json schema type.</text>
<text text-anchor="start" x="845" y="-112.7" font-family="Monospace" font-style="italic" font-size="14.00" fill="#7f7f7f">eg. &quot;event&quot;</text>
<text text-anchor="start" x="845" y="-98.7" font-family="Monospace" font-style="italic" font-size="14.00" fill="#7f7f7f">Must match the `type` component of the $id URI inside the schema.</text>
<polygon fill="none" stroke="black" points="725,-46 725,-94 794,-94 794,-46 725,-46"/>
<text text-anchor="start" x="728" y="-64.17" font-family="Times,serif" font-size="16.00">name</text>
<polygon fill="none" stroke="black" points="794,-46 794,-94 842,-94 842,-46 794,-46"/>
<text text-anchor="start" x="806" y="-64.17" font-family="Times,serif" font-size="16.00">text</text>
<polygon fill="none" stroke="black" points="842,-46 842,-94 1384,-94 1384,-46 842,-46"/>
<text text-anchor="start" x="845" y="-78.7" font-family="Monospace" font-style="italic" font-size="14.00" fill="#7f7f7f">The name of the json schema type.</text>
<text text-anchor="start" x="845" y="-64.7" font-family="Monospace" font-style="italic" font-size="14.00" fill="#7f7f7f">eg. &quot;catalyst_v1&quot;</text>
<text text-anchor="start" x="845" y="-50.7" font-family="Monospace" font-style="italic" font-size="14.00" fill="#7f7f7f">Must match the `name` component of the $id URI inside the schema.</text>
<polygon fill="none" stroke="black" points="725,-22 725,-46 794,-46 794,-22 725,-22"/>
<text text-anchor="start" x="728" y="-27.8" font-family="Times,serif" font-size="16.00">schema</text>
<polygon fill="none" stroke="black" points="794,-22 794,-46 842,-46 842,-22 794,-22"/>
<text text-anchor="start" x="800.38" y="-27.8" font-family="Times,serif" font-size="16.00">jsonb</text>
<polygon fill="none" stroke="black" points="842,-22 842,-46 1384,-46 1384,-22 842,-22"/>
<text text-anchor="start" x="845" y="-29.95" font-family="Monospace" font-style="italic" font-size="14.00" fill="#7f7f7f">none</text>
<polygon fill="#333333" stroke="none" points="725,0 725,-22 1384,-22 1384,0 725,0"/>
<polygon fill="none" stroke="black" points="725,0 725,-22 1384,-22 1384,0 725,0"/>
<text text-anchor="start" x="728" y="-6.7" font-family="Monospace" font-style="italic" font-size="14.00" fill="white">Library of defined json schemas used to validate JSONB field contents.</text>
</g>
<!-- config&#45;&gt;json_schema_type -->
<g id="edge1" class="edge">
<title>config:value_schema_out&#45;&gt;json_schema_type:id</title>
<path fill="none" stroke="black" d="M689,-159.5C700.38,-159.5 705.68,-159.5 713.55,-159.5"/>
<polygon fill="black" stroke="black" points="713.49,-163 723.49,-159.5 713.49,-156 713.49,-163"/>
</g>
<!-- LEGEND -->
<g id="node3" class="node">
<title>LEGEND</title>
<polygon fill="Pink" stroke="none" points="235.5,-553 235.5,-583 453.5,-583 453.5,-553 235.5,-553"/>
<polygon fill="none" stroke="black" points="235.5,-553 235.5,-583 453.5,-583 453.5,-553 235.5,-553"/>
<text text-anchor="start" x="308.5" y="-562" font-family="Courier bold italic" font-weight="bold" font-size="20.00" fill="white">LEGEND</text>
<polygon fill="none" stroke="black" points="235.5,-526 235.5,-553 373.5,-553 373.5,-526 235.5,-526"/>
<text text-anchor="start" x="283.5" y="-533.9" font-family="Courier bold" font-weight="bold" font-size="18.00">Type</text>
<polygon fill="none" stroke="black" points="373.5,-526 373.5,-553 453.5,-553 453.5,-526 373.5,-526"/>
<text text-anchor="start" x="376.75" y="-533.9" font-family="Courier bold" font-weight="bold" font-size="18.00">Example</text>
<polygon fill="#54ff9f" stroke="none" points="235.5,-502 235.5,-526 373.5,-526 373.5,-502 235.5,-502"/>
<polygon fill="none" stroke="black" points="235.5,-502 235.5,-526 373.5,-526 373.5,-502 235.5,-502"/>
<text text-anchor="start" x="238.5" y="-507.8" font-family="Times,serif" font-size="16.00">Primary Key</text>
<polygon fill="#54ff9f" stroke="none" points="373.5,-502 373.5,-526 453.5,-526 453.5,-502 373.5,-502"/>
<polygon fill="none" stroke="black" points="373.5,-502 373.5,-526 453.5,-526 453.5,-502 373.5,-502"/>
<text text-anchor="start" x="386.88" y="-507.8" font-family="Times,serif" font-size="16.00">integer+</text>
<polygon fill="none" stroke="black" points="235.5,-478 235.5,-502 373.5,-502 373.5,-478 235.5,-478"/>
<text text-anchor="start" x="238.5" y="-483.8" font-family="Times,serif" font-size="16.00">Standard Field</text>
<polygon fill="none" stroke="black" points="373.5,-478 373.5,-502 453.5,-502 453.5,-478 373.5,-478"/>
<text text-anchor="start" x="396.25" y="-483.8" font-family="Times,serif" font-size="16.00">bytea</text>
<polygon fill="none" stroke="black" points="235.5,-454 235.5,-478 373.5,-478 373.5,-454 235.5,-454"/>
<text text-anchor="start" x="238.5" y="-459.8" font-family="Times,serif" font-size="16.00">Nullable Field</text>
<polygon fill="none" stroke="black" points="373.5,-454 373.5,-478 453.5,-478 453.5,-454 373.5,-454"/>
<text text-anchor="start" x="402.25" y="-460.8" font-family="Times,serif" font-style="italic" font-size="16.00">text</text>
<polygon fill="none" stroke="black" points="235.5,-430 235.5,-454 373.5,-454 373.5,-430 235.5,-430"/>
<text text-anchor="start" x="238.5" y="-435.8" font-family="Times,serif" font-size="16.00">Sized Field</text>
<polygon fill="none" stroke="black" points="373.5,-430 373.5,-454 453.5,-454 453.5,-430 373.5,-430"/>
<text text-anchor="start" x="376.38" y="-435.8" font-family="Times,serif" font-size="16.00">varchar(32)</text>
<polygon fill="none" stroke="black" points="235.5,-406 235.5,-430 373.5,-430 373.5,-406 235.5,-406"/>
<text text-anchor="start" x="238.5" y="-411.8" font-family="Times,serif" font-size="16.00">Autoincrement Field</text>
<polygon fill="none" stroke="black" points="373.5,-406 373.5,-430 453.5,-430 453.5,-406 373.5,-406"/>
<text text-anchor="start" x="386.88" y="-411.8" font-family="Times,serif" font-size="16.00">integer+</text>
</g>
</g>
</svg>
