<svg width="116" height="33" viewBox="0 0 116 33" fill="none" xmlns="http://www.w3.org/2000/svg">
<path d="M40.7063 17.2102C41.2314 16.2316 41.9622 15.469 42.9014 14.9224C43.8398 14.3761 44.9036 14.1026 46.0921 14.1026C47.5495 14.1026 48.797 14.4993 49.8343 15.2918C50.8717 16.0843 51.5658 17.1653 51.915 18.5344H48.6279C48.3829 18.0057 48.0362 17.6038 47.5871 17.3271C47.1389 17.0509 46.6283 16.9129 46.0571 16.9129C45.1367 16.9129 44.3905 17.2436 43.8193 17.9037C43.2481 18.5643 42.9621 19.4469 42.9621 20.5517C42.9621 21.6569 43.2481 22.5395 43.8193 23.1997C44.3905 23.8602 45.1367 24.1905 46.0571 24.1905C46.6283 24.1905 47.1389 24.0524 47.5871 23.7762C48.0362 23.5001 48.3829 23.0981 48.6279 22.5695H51.915C51.5658 23.9385 50.8717 25.0165 49.8343 25.8028C48.7969 26.5896 47.5495 26.9828 46.0921 26.9828C44.9036 26.9828 43.8397 26.7097 42.9014 26.163C41.9622 25.6168 41.2314 24.8573 40.7063 23.8844C40.182 22.9116 39.9199 21.8007 39.9199 20.5517C39.9199 19.3027 40.182 18.1891 40.7063 17.2102Z" fill="white"/>
<path d="M53.7251 19.1285C54.1042 18.3483 54.6199 17.7476 55.2731 17.3271C55.9254 16.9071 56.6537 16.6969 57.4588 16.6969C58.1461 16.6969 58.7497 16.8407 59.268 17.1292C59.7871 17.4173 60.1859 17.7955 60.4659 18.2639V16.8407H63.4559V26.8926H60.4659V25.4694C60.1748 25.9378 59.7692 26.316 59.251 26.6045C58.7318 26.8926 58.1282 27.0368 57.4409 27.0368C56.6477 27.0368 55.9254 26.8235 55.2731 26.3974C54.6199 25.9712 54.1042 25.3643 53.7251 24.578C53.346 23.7912 53.1565 22.8817 53.1565 21.8486C53.1565 20.816 53.346 19.9096 53.7251 19.1285ZM59.8452 20.0472C59.4311 19.6031 58.9273 19.381 58.3331 19.381C57.738 19.381 57.2334 19.6 56.8201 20.0385C56.406 20.4769 56.1994 21.0803 56.1994 21.8486C56.1994 22.6174 56.406 23.2269 56.8201 23.6773C57.2334 24.1276 57.738 24.3528 58.3331 24.3528C58.9273 24.3528 59.4311 24.1307 59.8452 23.6861C60.2593 23.2419 60.4659 22.6354 60.4659 21.8667C60.4659 21.0983 60.2593 20.4919 59.8452 20.0472Z" fill="white"/>
<path d="M71.0616 24.2807V26.8926H69.5401C68.4566 26.8926 67.6105 26.6195 67.0051 26.0728C66.3989 25.5266 66.0958 24.6352 66.0958 23.398V19.399H64.9065V16.8407H66.0958V14.3911H69.0859V16.8407H71.0445V19.399H69.0859V23.4341C69.0859 23.7345 69.1559 23.9504 69.2959 24.0823C69.4351 24.2147 69.6682 24.2807 69.9952 24.2807H71.0616Z" fill="white"/>
<path d="M72.6966 19.1285C73.0757 18.3483 73.5913 17.7476 74.2445 17.3271C74.8968 16.9071 75.6251 16.6969 76.4303 16.6969C77.1176 16.6969 77.7212 16.8407 78.2395 17.1292C78.7586 17.4173 79.1573 17.7955 79.4374 18.2639V16.8407H82.4274V26.8926H79.4374V25.4694C79.1462 25.9378 78.7407 26.316 78.2224 26.6045C77.7033 26.8926 77.0996 27.0368 76.4123 27.0368C75.6192 27.0368 74.8968 26.8235 74.2445 26.3974C73.5914 25.9712 73.0757 25.3643 72.6966 24.578C72.3175 23.7912 72.1279 22.8817 72.1279 21.8486C72.1279 20.816 72.3175 19.9096 72.6966 19.1285ZM78.8167 20.0472C78.4026 19.6031 77.8988 19.381 77.3046 19.381C76.7095 19.381 76.2049 19.6 75.7916 20.0385C75.3775 20.4769 75.1709 21.0803 75.1709 21.8486C75.1709 22.6174 75.3775 23.2269 75.7916 23.6773C76.2048 24.1276 76.7095 24.3528 77.3046 24.3528C77.8988 24.3528 78.4026 24.1307 78.8167 23.6861C79.2307 23.2419 79.4374 22.6354 79.4374 21.8667C79.4374 21.0983 79.2307 20.4919 78.8167 20.0472Z" fill="white"/>
<path d="M87.5862 13.5625V26.8926H84.5962V13.5625H87.5862Z" fill="white"/>
<path d="M99.7205 16.8407L93.6004 31.6661H90.3832L92.6211 26.5505L88.6526 16.8407H91.9918L94.2476 23.1276L96.4863 16.8407H99.7205Z" fill="white"/>
<path d="M102.5 26.5865C101.836 26.2861 101.312 25.8749 100.927 25.3524C100.543 24.83 100.326 24.2446 100.28 23.5959H103.235C103.27 23.9447 103.428 24.2266 103.707 24.4425C103.987 24.6589 104.331 24.7671 104.739 24.7671C105.112 24.7671 105.4 24.6919 105.605 24.5419C105.808 24.3919 105.91 24.1966 105.91 23.9565C105.91 23.668 105.764 23.4552 105.473 23.3166C105.181 23.179 104.71 23.0259 104.057 22.8575C103.357 22.6895 102.774 22.5123 102.308 22.3262C101.842 22.1402 101.44 21.846 101.102 21.4436C100.764 21.0412 100.595 20.4976 100.595 19.8133C100.595 19.2367 100.749 18.7116 101.058 18.237C101.366 17.7625 101.822 17.3874 102.422 17.1112C103.022 16.835 103.736 16.6969 104.564 16.6969C105.788 16.6969 106.752 17.0092 107.457 17.6337C108.163 18.2582 108.568 19.0867 108.673 20.1194H105.91C105.863 19.771 105.715 19.4953 105.465 19.2908C105.214 19.0867 104.884 18.9847 104.477 18.9847C104.127 18.9847 103.859 19.0537 103.672 19.1918C103.486 19.3299 103.393 19.519 103.393 19.7592C103.393 20.0472 103.541 20.2636 103.838 20.4074C104.135 20.5517 104.599 20.6959 105.228 20.8397C105.951 21.0324 106.54 21.2215 106.995 21.4075C107.449 21.5935 107.849 21.8939 108.193 22.3082C108.536 22.7225 108.713 23.278 108.725 23.9741C108.725 24.563 108.565 25.0886 108.245 25.5503C107.924 26.013 107.463 26.3763 106.863 26.6406C106.263 26.9045 105.566 27.0368 104.774 27.0368C103.923 27.0368 103.165 26.8869 102.5 26.5865Z" fill="white"/>
<path d="M116 24.2807V26.8926H114.478C113.395 26.8926 112.549 26.6195 111.943 26.0728C111.337 25.5266 111.034 24.6352 111.034 23.398V19.399H109.845V16.8407H111.034V14.3911H114.024V16.8407H115.983V19.399H114.024V23.4341C114.024 23.7345 114.094 23.9504 114.234 24.0823C114.373 24.2147 114.606 24.2807 114.933 24.2807H116Z" fill="white"/>
<path d="M44.9661 5.42639C44.7919 5.76503 44.5118 6.04078 44.1268 6.25321C43.7426 6.46562 43.2491 6.57205 42.648 6.57205H41.3255V9.61981H40.1301V2.10817H42.648C43.2072 2.10817 43.6811 2.20712 44.0696 2.40547C44.4572 2.60337 44.7475 2.87208 44.9405 3.21029C45.1326 3.54937 45.229 3.92759 45.229 4.34538C45.229 4.72756 45.1411 5.08776 44.9661 5.42639ZM43.6657 5.24783C43.8894 5.03541 44.0013 4.73459 44.0013 4.34538C44.0013 3.52385 43.5496 3.11309 42.648 3.11309H41.3254V5.56669H42.648C43.1022 5.56669 43.4412 5.46026 43.6657 5.24783Z" fill="white"/>
<path d="M48.2873 3.82114C48.5767 3.65182 48.9217 3.56694 49.3204 3.56694V4.84234H49.0164C48.5477 4.84234 48.1925 4.96504 47.9509 5.21001C47.7101 5.45497 47.5889 5.88024 47.5889 6.48541V9.6198H46.3936V3.66458H47.5889V4.52921C47.7639 4.22663 47.997 3.99047 48.2873 3.82114Z" fill="white"/>
<path d="M51.4711 9.33349C51.0306 9.07754 50.6839 8.71734 50.4321 8.25248C50.1802 7.78762 50.0547 7.24932 50.0547 6.63669C50.0547 6.03154 50.1836 5.49454 50.4432 5.02618C50.7019 4.55779 51.0545 4.19761 51.5027 3.94561C51.9501 3.69316 52.4505 3.56694 53.0029 3.56694C53.5553 3.56694 54.0556 3.69316 54.503 3.94561C54.9504 4.19761 55.3039 4.55779 55.5626 5.02618C55.8213 5.49456 55.9511 6.03154 55.9511 6.63669C55.9511 7.24184 55.8179 7.77882 55.5523 8.2472C55.2859 8.71559 54.9239 9.07753 54.4663 9.33349C54.0078 9.58901 53.5024 9.717 52.9499 9.717C52.4043 9.71698 51.9117 9.58901 51.4711 9.33349ZM53.8157 8.42005C54.0846 8.26875 54.3041 8.04182 54.4714 7.73925C54.6396 7.43667 54.7233 7.06901 54.7233 6.63669C54.7233 6.20437 54.643 5.8389 54.4817 5.53985C54.3211 5.24079 54.1077 5.01561 53.8422 4.86433C53.5758 4.71261 53.2898 4.63696 52.9815 4.63696C52.6742 4.63696 52.389 4.71261 52.1269 4.86433C51.8648 5.01563 51.6564 5.2408 51.5027 5.53985C51.3482 5.83892 51.2714 6.20438 51.2714 6.63669C51.2714 7.2779 51.431 7.77355 51.7486 8.12274C52.0671 8.47238 52.4675 8.64697 52.9499 8.64697C53.2582 8.64697 53.5467 8.57133 53.8157 8.42005Z" fill="white"/>
<path d="M58.3527 10.787C58.3527 11.3706 58.2118 11.7941 57.9283 12.0571C57.6449 12.3201 57.2342 12.4516 56.6954 12.4516H56.0764V11.4141H56.4854C56.7304 11.4141 56.9038 11.3653 57.0045 11.2681C57.1061 11.1709 57.1573 11.0104 57.1573 10.787V3.66458H58.3527V10.787ZM57.2197 2.64823C57.0728 2.49695 56.9994 2.31004 56.9994 2.08662C56.9994 1.8632 57.0728 1.67586 57.2197 1.52457C57.3665 1.37327 57.5484 1.2972 57.7652 1.2972C57.9753 1.2972 58.1537 1.37329 58.3006 1.52457C58.4474 1.67585 58.5209 1.8632 58.5209 2.08662C58.5209 2.31004 58.4474 2.49695 58.3006 2.64823C58.1537 2.79995 57.9753 2.8756 57.7652 2.8756C57.5484 2.8756 57.3665 2.79995 57.2197 2.64823Z" fill="white"/>
<path d="M65.2036 7.10155H60.7868C60.8218 7.57696 60.9926 7.95914 61.3008 8.2472C61.6082 8.53526 61.9864 8.67951 62.4338 8.67951C63.0768 8.67951 63.5318 8.40201 63.7974 7.84743H65.0883C64.9133 8.39497 64.5965 8.84356 64.1389 9.19276C63.6804 9.5424 63.1118 9.717 62.4338 9.717C61.8814 9.717 61.3862 9.58902 60.9491 9.33349C60.5119 9.07754 60.1695 8.71734 59.9211 8.25248C59.6726 7.78762 59.5488 7.24932 59.5488 6.63669C59.5488 6.0245 59.6692 5.48575 59.9108 5.02089C60.1516 4.55604 60.4906 4.19761 60.9286 3.94561C61.3649 3.69316 61.8669 3.56694 62.4338 3.56694C62.9794 3.56694 63.4652 3.68964 63.8921 3.9346C64.3182 4.17957 64.6512 4.52349 64.8885 4.9668C65.1267 5.41011 65.2454 5.91983 65.2454 6.4964C65.2454 6.71981 65.2318 6.92124 65.2036 7.10155ZM63.9972 6.10719C63.9903 5.65332 63.8324 5.28918 63.525 5.01563C63.2168 4.74164 62.836 4.60487 62.3809 4.60487C61.9685 4.60487 61.615 4.73988 61.3213 5.00992C61.0276 5.28039 60.8526 5.64585 60.7971 6.1072L63.9972 6.10719Z" fill="white"/>
<path d="M66.406 5.02089C66.6467 4.55604 66.9806 4.19761 67.4075 3.94561C67.8344 3.69316 68.3236 3.56694 68.876 3.56694C69.5753 3.56694 70.1542 3.73846 70.6127 4.08062C71.0711 4.42278 71.3802 4.91094 71.5416 5.54512H70.2506C70.1456 5.24958 69.9783 5.01912 69.7469 4.85333C69.5164 4.68752 69.2261 4.60486 68.876 4.60486C68.3868 4.60486 67.9966 4.78296 67.7063 5.13964C67.416 5.49631 67.2709 5.99548 67.2709 6.63669C67.2709 7.2779 67.416 7.77882 67.7063 8.13902C67.9966 8.49965 68.3868 8.67952 68.876 8.67952C69.5685 8.67952 70.0269 8.36595 70.2506 7.73925H71.5416C71.3734 8.3444 71.0583 8.82552 70.5973 9.1822C70.1354 9.53887 69.5616 9.71698 68.876 9.71698C68.3236 9.71698 67.8344 9.58901 67.4075 9.33348C66.9806 9.07753 66.6467 8.71733 66.406 8.25247C66.1643 7.78761 66.0439 7.2493 66.0439 6.63667C66.0439 6.0245 66.1643 5.48575 66.406 5.02089Z" fill="white"/>
<path d="M74.1533 4.66948V7.96616C74.1533 8.18957 74.2036 8.34966 74.3052 8.44728C74.4068 8.54448 74.5793 8.59285 74.8243 8.59285H75.5586V9.61977H74.6152C74.0764 9.61977 73.6632 9.49004 73.3771 9.23056C73.0903 8.97108 72.9468 8.54976 72.9468 7.96616V4.66948H72.2646V3.66456H72.9468V2.18378H74.1533V3.66456H75.5586V4.66948H74.1533Z" fill="white"/>
<path d="M14.0924 25.1215C14.0806 25.1154 14.1043 25.1292 14.0924 25.1215C11.9415 24.1037 10.1932 22.0912 9.30294 19.8204H3.17456C5.36693 26.2283 11.2968 30.8202 18.2666 30.8202C22.044 30.8202 25.5148 29.4711 28.2524 27.2141C28.3472 27.1027 28.4405 26.9898 28.5323 26.8768C27.8524 26.9684 27.1591 27.0157 26.454 27.0157C24.1387 27.0157 21.9388 26.5091 19.9538 25.598C19.305 25.746 18.631 25.8239 17.9392 25.8239C17.1408 25.8239 16.3552 25.8704 15.6161 25.6751C15.6117 25.6751 15.6205 25.6766 15.6161 25.6751" fill="white"/>
<path d="M14.0925 25.1215C14.5724 25.3444 15.0962 25.5378 15.6161 25.6751C15.6117 25.6751 15.6205 25.6766 15.6161 25.6751C16.3553 25.8704 17.1408 25.8239 17.9392 25.8239C18.631 25.8239 19.3051 25.7461 19.9539 25.598C19.7109 25.4882 19.4724 25.3707 19.2384 25.2471C16.8193 23.9865 14.7543 22.111 13.2345 19.8204H9.30298C10.1932 22.0912 11.9416 24.1037 14.0925 25.1215Z" fill="white"/>
<path d="M28.2523 27.2141C26.0525 29.7931 23.1135 31.6702 19.7657 32.4973C12.6937 34.2446 5.60395 30.9438 1.99243 24.8365C1.0977 23.3257 0.41626 21.6425 0 19.8204H3.17455C5.36694 26.2283 11.2968 30.8202 18.2665 30.8202C22.044 30.8202 25.5148 29.4711 28.2523 27.2141Z" fill="white"/>
<path d="M31.9453 19.8204C31.3409 22.4681 30.1558 24.8701 28.5323 26.8769C27.8524 26.9684 27.1591 27.0157 26.454 27.0157C24.1386 27.0157 21.9388 26.5091 19.9538 25.598C19.7108 25.4882 19.4724 25.3707 19.2383 25.247C16.8192 23.9865 14.7542 22.111 13.2344 19.8204L31.9453 19.8204Z" fill="white"/>
<path d="M31.4372 12.0039C29.07 6.91761 24.2422 3.27797 18.542 2.71791C18.5405 2.71791 18.5391 2.71791 18.5391 2.71791C17.3451 2.48747 16.1008 2.42033 14.8312 2.53478C13.9246 2.61719 13.0447 2.78811 12.2004 3.04297C9.38875 3.88534 6.97414 5.62657 5.25874 7.93091C3.52408 10.2581 2.50491 13.1607 2.50937 16.2876V17.5283H0.050293V16.2876C0.0517743 10.9845 2.53748 6.27362 6.38455 3.3024C6.38603 3.29782 6.38603 3.29782 6.38751 3.29935C8.57103 1.61001 11.1945 0.482256 14.0505 0.123628C14.6979 0.0412195 15.3571 1.52588e-05 16.0252 1.52588e-05C23.392 -1.93904e-09 29.5929 5.08634 31.4372 12.0039Z" fill="white"/>
<path d="M7.51205 15.0454H10.0037C10.1311 14.38 10.3577 13.7589 10.6644 13.1973C11.9206 10.8915 14.5307 9.56379 17.2075 10.0964C19.6902 10.5893 21.5775 12.5655 22.0559 15.0179C20.8812 13.4522 19.0414 12.445 16.9734 12.445C16.6238 12.445 16.2802 12.474 15.9454 12.5304C15.9439 12.5304 15.9439 12.5304 15.9424 12.5304C15.1454 12.5518 14.4092 12.8341 13.8167 13.2981C13.8152 13.2996 13.8152 13.2996 13.8137 13.2996C13.8122 13.3011 13.8122 13.3011 13.8107 13.3026C12.9308 13.9893 12.365 15.0713 12.365 16.2876V17.5283H4.96411V16.2876C4.97002 11.9093 7.42315 8.11708 11.0021 6.25378C12.5131 5.46481 14.2255 5.02225 16.0402 5.0253C20.3894 5.0314 24.198 7.61043 25.9919 11.4149C24.3802 8.55965 21.3775 6.63987 17.9393 6.63987C16.1365 6.63987 14.4522 7.16788 13.0271 8.08351C13.0256 8.08351 13.0256 8.08351 13.0242 8.08504H13.0227C12.0894 8.43909 11.2302 8.95336 10.4807 9.6004C8.91785 10.9433 7.8246 12.8494 7.51205 15.0454Z" fill="white"/>
<path d="M22.1744 16.2876V17.5282H19.7405V16.2876C19.7405 14.2091 18.0888 12.5258 16.052 12.5274C16.0164 12.5274 15.9809 12.5274 15.9453 12.5304C16.2801 12.474 16.6238 12.445 16.9734 12.445C19.0413 12.445 20.8812 13.4522 22.0559 15.0179V15.0194C22.1374 15.4299 22.1774 15.8542 22.1744 16.2876Z" fill="white"/>
<path d="M31.9973 16.2876V17.5283H24.6246V16.2876C24.6142 11.4424 20.7553 7.52497 16.0061 7.53413C14.9632 7.53566 13.9589 7.72945 13.0271 8.0835C14.4521 7.16787 16.1365 6.63987 17.9392 6.63987C21.3775 6.63987 24.3802 8.55964 25.9919 11.4149C26.5192 12.5304 26.8733 13.7528 27.0155 15.0454H29.4849C28.9397 8.75954 24.3357 3.83498 18.5422 2.71791C24.2424 3.27797 29.0701 6.91761 31.4373 12.0039V12.0055C31.8018 13.3698 31.9973 14.8058 31.9973 16.2876Z" fill="white"/>
<mask id="mask0_583_1956" style="mask-type:luminance" maskUnits="userSpaceOnUse" x="0" y="0" width="32" height="33">
<path d="M28.2523 27.2141C26.0525 29.7931 23.1135 31.6702 19.7657 32.4973C12.6937 34.2446 5.60395 30.9438 1.99243 24.8365C1.0977 23.3257 0.41626 21.6425 0 19.8204H3.17455C5.36694 26.2283 11.2968 30.8202 18.2665 30.8202C22.044 30.8202 25.5148 29.4711 28.2523 27.2141ZM13.2344 19.8204C14.7543 22.111 16.8193 23.9865 19.2383 25.247C19.4724 25.3706 19.7108 25.4881 19.9538 25.598C21.9388 26.5091 24.1386 27.0157 26.454 27.0157C27.1591 27.0157 27.8524 26.9684 28.5323 26.8768C30.1559 24.8701 31.3409 22.4681 31.9453 19.8204H13.2344V19.8204ZM16.0253 0C15.3572 0 14.698 0.0412037 14.0506 0.123612C11.1946 0.482224 8.5711 1.60998 6.38759 3.29933C6.38611 3.2978 6.38611 3.2978 6.38462 3.30238C2.53756 6.27361 0.0518473 10.9845 0.050366 16.2876V17.5283H2.50942V16.2876C2.50498 13.1607 3.52415 10.2581 5.2588 7.93089C6.9742 5.62657 9.38881 3.88534 12.2004 3.04295C13.0448 2.7881 13.9247 2.61717 14.8313 2.53477C16.1008 2.42031 17.3451 2.48746 18.5391 2.7179C18.5391 2.7179 18.5406 2.7179 18.5421 2.7179C24.2423 3.27795 29.07 6.9176 31.4372 12.0039C29.593 5.08634 23.392 0 16.0253 0ZM10.4806 9.60041C11.2301 8.95337 12.0893 8.43908 13.0226 8.08504H13.024C13.0255 8.08352 13.0255 8.08352 13.027 8.08352C14.4521 7.16789 16.1364 6.63988 17.9391 6.63988C21.3774 6.63988 24.3801 8.55965 25.9918 11.4149C24.1979 7.61045 20.3893 5.03141 16.0401 5.02531C14.2254 5.02226 12.513 5.46482 11.002 6.25378C7.42304 8.11709 4.9699 11.9093 4.96399 16.2876V17.5283H12.3648V16.2876C12.3648 15.0713 12.9307 13.9893 13.8106 13.3026C13.8121 13.3011 13.8121 13.3011 13.8136 13.2996C13.8151 13.2996 13.8151 13.2996 13.8165 13.2981C14.4091 12.8341 15.1453 12.5518 15.9423 12.5304C15.9438 12.5304 15.9438 12.5304 15.9453 12.5304C16.28 12.474 16.6237 12.445 16.9733 12.445C19.0413 12.445 20.8811 13.4522 22.0558 15.0179C21.5773 12.5655 19.6901 10.5893 17.2074 10.0964C14.5305 9.5638 11.9204 10.8915 10.6642 13.1973C10.3576 13.7589 10.1309 14.38 10.0035 15.0454H7.51193C7.8245 12.8494 8.91775 10.9433 10.4806 9.60041Z" fill="white"/>
</mask>
<g mask="url(#mask0_583_1956)">
<path d="M28.6716 30.1559C32.6032 30.1559 35.7904 26.8724 35.7904 22.8221C35.7904 18.7718 32.6032 15.4883 28.6716 15.4883C24.74 15.4883 21.5527 18.7718 21.5527 22.8221C21.5527 26.8724 24.74 30.1559 28.6716 30.1559Z" fill="white"/>
<path d="M6.89482 18.3394C11.9092 18.3394 15.9742 14.1516 15.9742 8.98584C15.9742 3.82004 11.9092 -0.367676 6.89482 -0.367676C1.88041 -0.367676 -2.18457 3.82004 -2.18457 8.98584C-2.18457 14.1516 1.88041 18.3394 6.89482 18.3394Z" fill="white"/>
</g>
</svg>
