<?xml version="1.0" encoding="UTF-8" standalone="no"?>
<svg
   width="116"
   height="34"
   viewBox="0 0 116 34"
   fill="none"
   version="1.1"
   id="svg111"
   xmlns="http://www.w3.org/2000/svg"
   xmlns:svg="http://www.w3.org/2000/svg">
  <path
     d="M40.7063 17.7292C41.2314 16.7496 41.9622 15.9861 42.9014 15.4389C43.8398 14.892 44.9036 14.6182 46.0921 14.6182C47.5495 14.6182 48.797 15.0153 49.8343 15.8087C50.8717 16.6021 51.5658 17.6843 51.915 19.0549H48.6279C48.3829 18.5257 48.0362 18.1232 47.5871 17.8463C47.1389 17.5698 46.6283 17.4316 46.0571 17.4316C45.1367 17.4316 44.3905 17.7627 43.8193 18.4235C43.2481 19.0848 42.9621 19.9685 42.9621 21.0744C42.9621 22.1809 43.2481 23.0645 43.8193 23.7254C44.3905 24.3867 45.1367 24.7173 46.0571 24.7173C46.6283 24.7173 47.1389 24.5791 47.5871 24.3026C48.0362 24.0261 48.3829 23.6237 48.6279 23.0945H51.915C51.5658 24.4651 50.8717 25.5442 49.8343 26.3314C48.7969 27.1191 47.5495 27.5127 46.0921 27.5127C44.9036 27.5127 43.8397 27.2393 42.9014 26.692C41.9622 26.1452 41.2314 25.3848 40.7063 24.4109C40.182 23.437 39.9199 22.3249 39.9199 21.0745C39.9199 19.824 40.182 18.7093 40.7063 17.7292Z"
     fill="#123CD3"
     id="path2"
     style="fill:#000000" />
  <path
     d="M53.7249 19.6496C54.104 18.8686 54.6196 18.2672 55.2728 17.8463C55.9251 17.4258 56.6534 17.2153 57.4586 17.2153C58.1459 17.2153 58.7495 17.3593 59.2678 17.6481C59.7869 17.9365 60.1856 18.3152 60.4657 18.7841V17.3593H63.4557V27.4224H60.4657V25.9976C60.1745 26.4665 59.769 26.8452 59.2507 27.134C58.7316 27.4224 58.1279 27.5668 57.4406 27.5668C56.6475 27.5668 55.9251 27.3532 55.2728 26.9266C54.6197 26.5 54.104 25.8924 53.7249 25.1052C53.3458 24.3175 53.1563 23.407 53.1563 22.3728C53.1562 21.339 53.3458 20.4316 53.7249 19.6496ZM59.8449 20.5694C59.4308 20.1247 58.9271 19.9024 58.3328 19.9024C57.7377 19.9024 57.2331 20.1216 56.8199 20.5606C56.4058 20.9996 56.1992 21.6036 56.1992 22.3728C56.1992 23.1424 56.4058 23.7526 56.8199 24.2035C57.2331 24.6543 57.7377 24.8798 58.3328 24.8798C58.9271 24.8798 59.4308 24.6574 59.8449 24.2123C60.259 23.7676 60.4657 23.1605 60.4657 22.3908C60.4657 21.6217 60.259 21.0145 59.8449 20.5694Z"
     fill="#123CD3"
     id="path4"
     style="fill:#000000" />
  <path
     d="M71.0613 24.8078V27.4227H69.5398C68.4564 27.4227 67.6102 27.1493 67.0049 26.602C66.3987 26.0552 66.0956 25.1627 66.0956 23.9242V19.9207H64.9062V17.3596H66.0956V14.9072H69.0856V17.3596H71.0442V19.9207H69.0856V23.9603C69.0856 24.261 69.1556 24.4772 69.2956 24.6093C69.4348 24.7418 69.6679 24.8078 69.9949 24.8078H71.0613Z"
     fill="#123CD3"
     id="path6"
     style="fill:#000000" />
  <path
     d="M72.6975 19.6496C73.0766 18.8686 73.5923 18.2672 74.2455 17.8463C74.8978 17.4258 75.6261 17.2153 76.4312 17.2153C77.1185 17.2153 77.7222 17.3593 78.2404 17.6481C78.7596 17.9365 79.1583 18.3152 79.4383 18.7841V17.3593H82.4284V27.4224H79.4383V25.9976C79.1472 26.4665 78.7416 26.8452 78.2234 27.134C77.7043 27.4224 77.1006 27.5668 76.4133 27.5668C75.6201 27.5668 74.8978 27.3532 74.2455 26.9266C73.5923 26.5 73.0766 25.8924 72.6975 25.1052C72.3184 24.3175 72.1289 23.407 72.1289 22.3728C72.1289 21.339 72.3184 20.4316 72.6975 19.6496ZM78.8176 20.5694C78.4035 20.1247 77.8998 19.9024 77.3055 19.9024C76.7104 19.9024 76.2058 20.1216 75.7926 20.5606C75.3785 20.9996 75.1719 21.6036 75.1719 22.3728C75.1719 23.1424 75.3785 23.7526 75.7926 24.2035C76.2058 24.6543 76.7104 24.8798 77.3055 24.8798C77.8998 24.8798 78.4035 24.6574 78.8176 24.2123C79.2317 23.7676 79.4383 23.1605 79.4383 22.3908C79.4383 21.6217 79.2317 21.0145 78.8176 20.5694Z"
     fill="#123CD3"
     id="path8"
     style="fill:#000000" />
  <path
     d="M87.5857 14.0776V27.4226H84.5957V14.0776H87.5857Z"
     fill="#123CD3"
     id="path10"
     style="fill:#000000" />
  <path
     d="M99.7202 17.3594L93.6002 32.2013H90.383L92.6208 27.0799L88.6523 17.3594H91.9916L94.2473 23.6532L96.486 17.3594H99.7202Z"
     fill="#123CD3"
     id="path12"
     style="fill:#000000" />
  <path
     d="M102.5 27.116C101.836 26.8152 101.312 26.4036 100.926 25.8805C100.542 25.3575 100.326 24.7714 100.279 24.122H103.234C103.269 24.4712 103.427 24.7534 103.706 24.9696C103.987 25.1862 104.331 25.2945 104.739 25.2945C105.112 25.2945 105.4 25.2192 105.604 25.0691C105.808 24.9189 105.91 24.7234 105.91 24.4831C105.91 24.1942 105.764 23.9811 105.473 23.8424C105.181 23.7046 104.71 23.5514 104.057 23.3828C103.357 23.2146 102.774 23.0372 102.308 22.8509C101.842 22.6647 101.44 22.3701 101.102 21.9673C100.763 21.5644 100.594 21.0202 100.594 20.3352C100.594 19.758 100.749 19.2323 101.058 18.7572C101.366 18.2821 101.821 17.9066 102.421 17.6301C103.022 17.3536 103.736 17.2153 104.564 17.2153C105.788 17.2153 106.752 17.5279 107.457 18.1531C108.162 18.7783 108.568 19.6078 108.673 20.6416H105.91C105.863 20.2929 105.715 20.0168 105.464 19.8121C105.213 19.6078 104.884 19.5057 104.477 19.5057C104.127 19.5057 103.858 19.5748 103.671 19.7131C103.485 19.8513 103.392 20.0406 103.392 20.281C103.392 20.5694 103.541 20.786 103.838 20.93C104.135 21.0744 104.599 21.2188 105.228 21.3628C105.951 21.5556 106.539 21.7449 106.994 21.9312C107.449 22.1174 107.848 22.4181 108.192 22.8329C108.536 23.2476 108.713 23.8037 108.725 24.5007C108.725 25.0902 108.565 25.6164 108.244 26.0786C107.923 26.5418 107.463 26.9055 106.863 27.1701C106.263 27.4343 105.566 27.5668 104.774 27.5668C103.922 27.5668 103.165 27.4167 102.5 27.116Z"
     fill="#123CD3"
     id="path14"
     style="fill:#000000" />
  <path
     d="M116.001 24.8078V27.4227H114.479C113.396 27.4227 112.55 27.1493 111.944 26.602C111.338 26.0552 111.035 25.1627 111.035 23.9242V19.9207H109.846V17.3596H111.035V14.9072H114.025V17.3596H115.984V19.9207H114.025V23.9603C114.025 24.261 114.095 24.4772 114.235 24.6093C114.374 24.7418 114.607 24.8078 114.934 24.8078H116.001Z"
     fill="#123CD3"
     id="path16"
     style="fill:#000000" />
  <path
     d="M44.9649 5.93276C44.7907 6.27178 44.5106 6.54783 44.1256 6.7605C43.7413 6.97315 43.2478 7.0797 42.6468 7.0797H41.3242V10.1308H40.1289V2.61084H42.6468C43.206 2.61084 43.6799 2.7099 44.0684 2.90847C44.456 3.10659 44.7463 3.3756 44.9392 3.71419C45.1313 4.05364 45.2278 4.43229 45.2278 4.85055C45.2278 5.23315 45.1399 5.59375 44.9649 5.93276ZM43.6645 5.754C43.8882 5.54135 44 5.24019 44 4.85055C44 4.0281 43.5484 3.61688 42.6468 3.61688H41.3242V6.07321H42.6468C43.101 6.07321 43.4399 5.96666 43.6645 5.754Z"
     fill="#123CD3"
     id="path18"
     style="fill:#000000" />
  <path
     d="M48.2863 4.32577C48.5757 4.15626 48.9207 4.07129 49.3194 4.07129V5.34811H49.0155C48.5467 5.34811 48.1915 5.47095 47.9499 5.71619C47.7091 5.96142 47.5879 6.38717 47.5879 6.99301V10.1309H46.3926V4.16904H47.5879V5.03463C47.7629 4.73172 47.996 4.49529 48.2863 4.32577Z"
     fill="#123CD3"
     id="path20"
     style="fill:#000000" />
  <path
     d="M51.4692 9.84427C51.0286 9.58803 50.682 9.22743 50.4301 8.76205C50.1782 8.29668 50.0527 7.75777 50.0527 7.14446C50.0527 6.53863 50.1817 6.00104 50.4412 5.53215C50.6999 5.06324 51.0525 4.70266 51.5008 4.45038C51.9482 4.19765 52.4485 4.07129 53.0009 4.07129C53.5533 4.07129 54.0537 4.19765 54.5011 4.45038C54.9485 4.70266 55.3019 5.06324 55.5606 5.53215C55.8193 6.00106 55.9491 6.53863 55.9491 7.14446C55.9491 7.75028 55.8159 8.28786 55.5504 8.75677C55.284 9.22567 54.922 9.58802 54.4643 9.84427C54.0059 10.1001 53.5004 10.2282 52.948 10.2282C52.4024 10.2282 51.9098 10.1001 51.4692 9.84427ZM53.8137 8.9298C54.0827 8.77834 54.3021 8.55116 54.4695 8.24825C54.6377 7.94534 54.7213 7.57726 54.7213 7.14446C54.7213 6.71166 54.6411 6.34578 54.4797 6.0464C54.3192 5.747 54.1057 5.52158 53.8402 5.37013C53.5738 5.21824 53.2878 5.14251 52.9796 5.14251C52.6722 5.14251 52.387 5.21824 52.1249 5.37013C51.8628 5.52159 51.6545 5.74702 51.5008 6.0464C51.3463 6.3458 51.2694 6.71167 51.2694 7.14446C51.2694 7.78639 51.4291 8.28259 51.7467 8.63216C52.0651 8.98219 52.4656 9.15698 52.948 9.15698C53.2562 9.15698 53.5448 9.08125 53.8137 8.9298Z"
     fill="#123CD3"
     id="path22"
     style="fill:#000000" />
  <path
     d="M58.3524 11.2992C58.3524 11.8835 58.2115 12.3075 57.9281 12.5708C57.6446 12.8341 57.2339 12.9657 56.6952 12.9657H56.0762V11.9271H56.4851C56.7302 11.9271 56.9035 11.8782 57.0043 11.7809C57.1059 11.6836 57.1571 11.5229 57.1571 11.2992V4.16885H58.3524V11.2992ZM57.2194 3.15137C57.0726 2.99992 56.9991 2.8128 56.9991 2.58913C56.9991 2.36547 57.0726 2.17792 57.2194 2.02645C57.3663 1.87499 57.5481 1.79883 57.765 1.79883C57.975 1.79883 58.1535 1.875 58.3003 2.02645C58.4472 2.1779 58.5206 2.36547 58.5206 2.58913C58.5206 2.8128 58.4472 2.99992 58.3003 3.15137C58.1535 3.30326 57.975 3.37899 57.765 3.37899C57.5481 3.37899 57.3663 3.30326 57.2194 3.15137Z"
     fill="#123CD3"
     id="path24"
     style="fill:#000000" />
  <path
     d="M65.2036 7.60984H60.7868C60.8218 8.08578 60.9926 8.46839 61.3008 8.75677C61.6082 9.04515 61.9864 9.18956 62.4338 9.18956C63.0768 9.18956 63.5318 8.91175 63.7974 8.35655H65.0883C64.9133 8.9047 64.5965 9.35379 64.1389 9.70338C63.6804 10.0534 63.1118 10.2282 62.4338 10.2282C61.8814 10.2282 61.3862 10.1001 60.9491 9.84427C60.5119 9.58803 60.1695 9.22743 59.9211 8.76205C59.6726 8.29668 59.5488 7.75777 59.5488 7.14446C59.5488 6.53159 59.6692 5.99224 59.9108 5.52686C60.1516 5.06149 60.4906 4.70266 60.9286 4.45038C61.3649 4.19765 61.8669 4.07129 62.4338 4.07129C62.9794 4.07129 63.4652 4.19412 63.8921 4.43936C64.3182 4.6846 64.6512 5.0289 64.8885 5.4727C65.1267 5.91651 65.2454 6.4268 65.2454 7.00401C65.2454 7.22768 65.2318 7.42933 65.2036 7.60984ZM63.9972 6.61437C63.9903 6.15999 63.8324 5.79545 63.525 5.52159C63.2168 5.2473 62.836 5.11038 62.3809 5.11038C61.9685 5.11038 61.615 5.24554 61.3213 5.51588C61.0276 5.78665 60.8526 6.15252 60.7971 6.61438L63.9972 6.61437Z"
     fill="#123CD3"
     id="path26"
     style="fill:#000000" />
  <path
     d="M66.405 5.52686C66.6458 5.06149 66.9796 4.70266 67.4065 4.45038C67.8334 4.19765 68.3226 4.07129 68.875 4.07129C69.5743 4.07129 70.1532 4.243 70.6117 4.58554C71.0702 4.92808 71.3792 5.41679 71.5406 6.05167H70.2497C70.1447 5.7558 69.9773 5.52509 69.7459 5.35911C69.5154 5.19312 69.2251 5.11036 68.875 5.11036C68.3858 5.11036 67.9956 5.28867 67.7053 5.64574C67.415 6.00281 67.2699 6.50253 67.2699 7.14446C67.2699 7.78639 67.415 8.28786 67.7053 8.64846C67.9956 9.00949 68.3858 9.18957 68.875 9.18957C69.5675 9.18957 70.026 8.87565 70.2497 8.24825H71.5406C71.3724 8.85407 71.0574 9.33574 70.5963 9.69281C70.1344 10.0499 69.5607 10.2282 68.875 10.2282C68.3226 10.2282 67.8334 10.1001 67.4065 9.84426C66.9796 9.58802 66.6458 9.22742 66.405 8.76204C66.1634 8.29666 66.043 7.75776 66.043 7.14444C66.043 6.53159 66.1634 5.99224 66.405 5.52686Z"
     fill="#123CD3"
     id="path28"
     style="fill:#000000" />
  <path
     d="M74.1523 5.175V8.47535C74.1523 8.69902 74.2027 8.85928 74.3043 8.95701C74.4059 9.05432 74.5783 9.10275 74.8234 9.10275H75.5577V10.1308H74.6142C74.0755 10.1308 73.6622 10.0009 73.3762 9.74116C73.0893 9.48139 72.9459 9.0596 72.9459 8.47535V5.175H72.2637V4.16896H72.9459V2.68652H74.1523V4.16896H75.5577V5.175H74.1523Z"
     fill="#123CD3"
     id="path30"
     style="fill:#000000" />
  <path
     d="M14.0917 25.6493C14.0799 25.6432 14.1036 25.657 14.0917 25.6493C11.9408 24.6303 10.1925 22.6156 9.30221 20.3423H3.17383C5.3662 26.7573 11.2961 31.3543 18.2658 31.3543C22.0433 31.3543 25.5141 30.0038 28.2516 27.7442C28.3464 27.6327 28.4398 27.5197 28.5316 27.4066C27.8517 27.4983 27.1584 27.5456 26.4533 27.5456C24.1379 27.5456 21.9381 27.0384 19.9531 26.1263C19.3043 26.2745 18.6302 26.3525 17.9385 26.3525C17.1401 26.3525 16.3545 26.3991 15.6153 26.2035C15.6109 26.2035 15.6198 26.205 15.6153 26.2035"
     fill="url(#paint0_radial_3411_5260)"
     id="path32"
     style="fill:#000000" />
  <path
     d="M14.0922 25.6498C14.5722 25.8729 15.0959 26.0665 15.6159 26.204C15.6115 26.204 15.6203 26.2055 15.6159 26.204C16.355 26.3995 17.1406 26.3529 17.939 26.3529C18.6308 26.3529 19.3048 26.275 19.9536 26.1268C19.7107 26.0168 19.4722 25.8992 19.2381 25.7755C16.8191 24.5135 14.7541 22.6359 13.2342 20.3428H9.30273C10.193 22.6161 11.9413 24.6308 14.0922 25.6498Z"
     fill="url(#paint1_radial_3411_5260)"
     id="path34"
     style="fill:#000000" />
  <path
     d="M28.2523 27.7442C26.0525 30.3261 23.1135 32.2053 19.7657 33.0333C12.6937 34.7826 5.60395 31.4781 1.99243 25.364C1.0977 23.8515 0.41626 22.1664 0 20.3423H3.17455C5.36694 26.7573 11.2968 31.3543 18.2665 31.3543C22.044 31.3543 25.5148 30.0038 28.2523 27.7442Z"
     fill="url(#paint2_linear_3411_5260)"
     id="path36"
     style="fill:#000000" />
  <path
     d="M31.9453 20.3423C31.3409 22.9929 30.1558 25.3976 28.5323 27.4066C27.8524 27.4983 27.1591 27.5456 26.454 27.5456C24.1386 27.5456 21.9388 27.0384 19.9538 26.1264C19.7108 26.0164 19.4724 25.8987 19.2383 25.775C16.8192 24.5131 14.7542 22.6354 13.2344 20.3423L31.9453 20.3423Z"
     fill="url(#paint3_linear_3411_5260)"
     id="path38"
     style="fill:#000000" />
  <path
     d="M31.4377 12.5173C29.0705 7.42531 24.2427 3.7816 18.5425 3.22093C18.541 3.22093 18.5395 3.22093 18.5395 3.22093C17.3456 2.99023 16.1012 2.92301 14.8317 3.03759C13.9251 3.12009 13.0452 3.2912 12.2008 3.54634C9.38923 4.38966 6.97463 6.13282 5.25923 8.43974C3.52457 10.7696 2.50539 13.6754 2.50985 16.8057V18.0478H0.0507812V16.8057C0.0522626 11.4968 2.53797 6.7806 6.38504 3.80606C6.38652 3.80148 6.38652 3.80148 6.388 3.80301C8.57151 2.11179 11.195 0.982778 14.051 0.62375C14.6984 0.54125 15.3576 0.5 16.0257 0.5C23.3925 0.499985 29.5934 5.59199 31.4377 12.5173Z"
     fill="url(#paint4_linear_3411_5260)"
     id="path40"
     style="fill:#000000" />
  <path
     d="M7.51278 15.562H10.0044C10.1318 14.8959 10.3584 14.2741 10.6651 13.7119C11.9213 11.4035 14.5314 10.0743 17.2082 10.6075C19.691 11.101 21.5782 13.0794 22.0567 15.5345C20.882 13.967 19.0421 12.9587 16.9741 12.9587C16.6246 12.9587 16.2809 12.9877 15.9461 13.0443C15.9446 13.0443 15.9446 13.0443 15.9431 13.0443C15.1462 13.0657 14.4099 13.3483 13.8174 13.8128C13.8159 13.8143 13.8159 13.8143 13.8144 13.8143C13.813 13.8158 13.813 13.8158 13.8115 13.8173C12.9316 14.5048 12.3657 15.588 12.3657 16.8056V18.0477H4.96484V16.8056C4.97075 12.4225 7.42389 8.62601 11.0028 6.76062C12.5138 5.97078 14.2263 5.52772 16.0409 5.53078C20.3902 5.53689 24.1987 8.11879 25.9926 11.9275C24.3809 9.06906 21.3782 7.14715 17.94 7.14715C16.1372 7.14715 14.4529 7.67575 13.0279 8.5924C13.0264 8.5924 13.0264 8.5924 13.0249 8.59392H13.0234C12.0902 8.94837 11.231 9.46321 10.4814 10.111C8.91859 11.4554 7.82533 13.3636 7.51278 15.562Z"
     fill="url(#paint5_linear_3411_5260)"
     id="path42"
     style="fill:#000000" />
  <path
     d="M22.1744 16.8054V18.0474H19.7405V16.8054C19.7405 14.7246 18.0888 13.0395 16.052 13.041C16.0164 13.041 15.9809 13.041 15.9453 13.0441C16.2801 12.9875 16.6238 12.9585 16.9734 12.9585C19.0413 12.9585 20.8812 13.9668 22.0559 15.5343V15.5358C22.1374 15.9468 22.1774 16.3715 22.1744 16.8054Z"
     fill="url(#paint6_linear_3411_5260)"
     id="path44"
     style="fill:#000000" />
  <path
     d="M31.9975 16.8055V18.0476H24.6248V16.8055C24.6145 11.9549 20.7556 8.03313 16.0063 8.04229C14.9635 8.04382 13.9591 8.23783 13.0273 8.59228C14.4524 7.67563 16.1367 7.14703 17.9395 7.14703C21.3777 7.14703 24.3804 9.06894 25.9921 11.9274C26.5195 13.0442 26.8735 14.2679 27.0157 15.5619H29.4851C28.94 9.26907 24.336 4.33902 18.5424 3.2207C24.2426 3.78138 29.0703 7.42509 31.4376 12.5171V12.5186C31.802 13.8844 31.9975 15.322 31.9975 16.8055Z"
     fill="url(#paint7_linear_3411_5260)"
     id="path46"
     style="fill:#000000" />
  <mask
     id="mask0_3411_5260"
     style="mask-type:luminance"
     maskUnits="userSpaceOnUse"
     x="0"
     y="0"
     width="32"
     height="34">
    <path
       d="M28.2523 27.7444C26.0525 30.3263 23.1135 32.2055 19.7657 33.0335C12.6937 34.7828 5.60395 31.4783 1.99243 25.3642C1.0977 23.8517 0.41626 22.1666 0 20.3425H3.17455C5.36694 26.7575 11.2968 31.3545 18.2665 31.3545C22.044 31.3545 25.5148 30.004 28.2523 27.7444ZM13.2344 20.3425C14.7543 22.6356 16.8193 24.5133 19.2383 25.7752C19.4724 25.8989 19.7108 26.0166 19.9538 26.1266C21.9388 27.0386 24.1386 27.5458 26.454 27.5458C27.1591 27.5458 27.8524 27.4985 28.5323 27.4068C30.1559 25.3978 31.3409 22.9931 31.9453 20.3425H13.2344V20.3425ZM16.0253 0.5C15.3572 0.5 14.698 0.54125 14.0506 0.62375C11.1946 0.982762 8.5711 2.11177 6.38759 3.80301C6.38611 3.80148 6.38611 3.80148 6.38462 3.80606C2.53756 6.7806 0.0518473 11.4968 0.050366 16.8057V18.0478H2.50942V16.8057C2.50498 13.6754 3.52415 10.7696 5.2588 8.43973C6.9742 6.13284 9.38881 4.38967 12.2004 3.54634C13.0448 3.2912 13.9247 3.12009 14.8313 3.03759C16.1008 2.92301 17.3451 2.99023 18.5391 3.22092C18.5391 3.22092 18.5406 3.22092 18.5421 3.22092C24.2423 3.7816 29.07 7.42531 31.4372 12.5173C29.593 5.59201 23.392 0.5 16.0253 0.5ZM10.4806 10.1111C11.2301 9.46335 12.0893 8.94849 13.0226 8.59406H13.024C13.0255 8.59253 13.0255 8.59253 13.027 8.59253C14.4521 7.67588 16.1364 7.14728 17.9391 7.14728C21.3774 7.14728 24.3801 9.06919 25.9918 11.9276C24.1979 8.11893 20.3893 5.53702 16.0401 5.53091C14.2254 5.52785 12.513 5.97091 11.002 6.76075C7.42304 8.62614 4.9699 12.4226 4.96399 16.8057V18.0478H12.3648V16.8057C12.3648 15.5881 12.9307 14.5049 13.8106 13.8175C13.8121 13.8159 13.8121 13.8159 13.8136 13.8144C13.8151 13.8144 13.8151 13.8144 13.8165 13.8129C14.4091 13.3484 15.1453 13.0658 15.9423 13.0444C15.9438 13.0444 15.9438 13.0444 15.9453 13.0444C16.28 12.9879 16.6237 12.9589 16.9733 12.9589C19.0413 12.9589 20.8811 13.9672 22.0558 15.5346C21.5773 13.0795 19.6901 11.1011 17.2074 10.6076C14.5305 10.0745 11.9204 11.4036 10.6642 13.712C10.3576 14.2742 10.1309 14.896 10.0035 15.5621H7.51193C7.8245 13.3637 8.91775 11.4555 10.4806 10.1111Z"
       fill="white"
       id="path48" />
  </mask>
  <g
     mask="url(#mask0_3411_5260)"
     id="g55"
     style="fill:#000000">
    <path
       d="M28.6716 30.6893C32.6032 30.6893 35.7904 27.4022 35.7904 23.3473C35.7904 19.2925 32.6032 16.0054 28.6716 16.0054C24.7399 16.0054 21.5527 19.2925 21.5527 23.3473C21.5527 27.4022 24.7399 30.6893 28.6716 30.6893Z"
       fill="url(#paint8_radial_3411_5260)"
       id="path51"
       style="fill:#000000" />
    <path
       d="M6.8958 18.8597C11.9102 18.8597 15.9752 14.6673 15.9752 9.49578C15.9752 4.32422 11.9102 0.131836 6.8958 0.131836C1.88139 0.131836 -2.18359 4.32422 -2.18359 9.49578C-2.18359 14.6673 1.88139 18.8597 6.8958 18.8597Z"
       fill="url(#paint9_radial_3411_5260)"
       id="path53"
       style="fill:#000000" />
  </g>
  <defs
     id="defs109">
    <radialGradient
       id="paint0_radial_3411_5260"
       cx="0"
       cy="0"
       r="1"
       gradientUnits="userSpaceOnUse"
       gradientTransform="translate(14.3442 23.5223) scale(18.1545 18.7234)">
      <stop
         stop-color="#2A41EA"
         id="stop57" />
      <stop
         offset="0.2358"
         stop-color="#2940E5"
         id="stop59" />
      <stop
         offset="1"
         stop-color="#161832"
         id="stop61" />
    </radialGradient>
    <radialGradient
       id="paint1_radial_3411_5260"
       cx="0"
       cy="0"
       r="1"
       gradientUnits="userSpaceOnUse"
       gradientTransform="translate(16.8156 19.6911) scale(10.3947 10.7205)">
      <stop
         stop-color="#2A41EA"
         id="stop64" />
      <stop
         offset="1"
         stop-color="#161832"
         id="stop66" />
    </radialGradient>
    <linearGradient
       id="paint2_linear_3411_5260"
       x1="0"
       y1="26.921"
       x2="28.2524"
       y2="26.921"
       gradientUnits="userSpaceOnUse">
      <stop
         stop-color="#2C4DDF"
         id="stop69" />
      <stop
         offset="1"
         stop-color="#DA67C6"
         id="stop71" />
    </linearGradient>
    <linearGradient
       id="paint3_linear_3411_5260"
       x1="16.5188"
       y1="23.944"
       x2="34.5048"
       y2="23.944"
       gradientUnits="userSpaceOnUse">
      <stop
         stop-color="#2C4DDF"
         id="stop74" />
      <stop
         offset="1"
         stop-color="#DA67C6"
         id="stop76" />
    </linearGradient>
    <linearGradient
       id="paint4_linear_3411_5260"
       x1="0.0507812"
       y1="9.27389"
       x2="31.4377"
       y2="9.27389"
       gradientUnits="userSpaceOnUse">
      <stop
         stop-color="#2C4DDF"
         id="stop79" />
      <stop
         offset="1"
         stop-color="#DA67C6"
         id="stop81" />
    </linearGradient>
    <linearGradient
       id="paint5_linear_3411_5260"
       x1="6.52637"
       y1="11.7892"
       x2="27.5542"
       y2="11.7892"
       gradientUnits="userSpaceOnUse">
      <stop
         stop-color="#283ECD"
         id="stop84" />
      <stop
         offset="0.8714"
         stop-color="#DA67C6"
         id="stop86" />
    </linearGradient>
    <linearGradient
       id="paint6_linear_3411_5260"
       x1="15.9453"
       y1="15.503"
       x2="22.1746"
       y2="15.503"
       gradientUnits="userSpaceOnUse">
      <stop
         stop-color="#161832"
         id="stop89" />
      <stop
         offset="1"
         stop-color="#2336C2"
         id="stop91" />
    </linearGradient>
    <linearGradient
       id="paint7_linear_3411_5260"
       x1="13.0274"
       y1="10.6341"
       x2="31.9975"
       y2="10.6341"
       gradientUnits="userSpaceOnUse">
      <stop
         stop-color="#161832"
         id="stop94" />
      <stop
         offset="1"
         stop-color="#2336C2"
         id="stop96" />
    </linearGradient>
    <radialGradient
       id="paint8_radial_3411_5260"
       cx="0"
       cy="0"
       r="1"
       gradientUnits="userSpaceOnUse"
       gradientTransform="translate(30.1466 22.0483) scale(5.6124 5.78829)">
      <stop
         stop-color="white"
         stop-opacity="0.6"
         id="stop99" />
      <stop
         offset="0.991"
         stop-color="white"
         stop-opacity="0"
         id="stop101" />
    </radialGradient>
    <radialGradient
       id="paint9_radial_3411_5260"
       cx="0"
       cy="0"
       r="1"
       gradientUnits="userSpaceOnUse"
       gradientTransform="translate(7.36112 9.25516) scale(9.0794 9.36395)">
      <stop
         stop-color="white"
         stop-opacity="0.6"
         id="stop104" />
      <stop
         offset="0.991"
         stop-color="white"
         stop-opacity="0"
         id="stop106" />
    </radialGradient>
  </defs>
</svg>
