<svg width="24" height="24" viewBox="0 0 24 24" fill="none" xmlns="http://www.w3.org/2000/svg">
<path d="M20.5236 2H3.47639C3.08483 2 2.7093 2.15555 2.43242 2.43242C2.15555 2.7093 2 3.08483 2 3.47639V20.5236C2 20.9152 2.15555 21.2907 2.43242 21.5676C2.7093 21.8445 3.08483 22 3.47639 22H20.5236C20.9152 22 21.2907 21.8445 21.5676 21.5676C21.8445 21.2907 22 20.9152 22 20.5236V3.47639C22 3.08483 21.8445 2.7093 21.5676 2.43242C21.2907 2.15555 20.9152 2 20.5236 2ZM7.96111 19.0375H4.95417V9.48611H7.96111V19.0375ZM6.45556 8.1625C6.11447 8.16058 5.7816 8.05766 5.49895 7.86674C5.21629 7.67582 4.99653 7.40544 4.8674 7.08974C4.73826 6.77404 4.70554 6.42716 4.77336 6.09288C4.84118 5.7586 5.0065 5.4519 5.24846 5.21148C5.49042 4.97107 5.79818 4.80772 6.13289 4.74205C6.4676 4.67638 6.81426 4.71133 7.12913 4.84249C7.44399 4.97365 7.71295 5.19514 7.90205 5.47901C8.09116 5.76288 8.19194 6.09641 8.19167 6.4375C8.19488 6.66586 8.15209 6.89253 8.06584 7.104C7.97959 7.31547 7.85165 7.50742 7.68964 7.66839C7.52763 7.82936 7.33487 7.95607 7.12285 8.04096C6.91083 8.12585 6.68389 8.16718 6.45556 8.1625ZM19.0444 19.0458H16.0389V13.8278C16.0389 12.2889 15.3847 11.8139 14.5403 11.8139C13.6486 11.8139 12.7736 12.4861 12.7736 13.8667V19.0458H9.76667V9.49306H12.6583V10.8167H12.6972C12.9875 10.2292 14.0042 9.225 15.5556 9.225C17.2333 9.225 19.0458 10.2208 19.0458 13.1375L19.0444 19.0458Z" fill="#0A66C2"/>
</svg>
