<?xml version="1.0" encoding="UTF-8" standalone="no"?>
<!DOCTYPE svg PUBLIC "-//W3C//DTD SVG 1.1//EN"
 "http://www.w3.org/Graphics/SVG/1.1/DTD/svg11.dtd">
<!-- Generated by graphviz version 9.0.0 (20230911.1827)
 -->
<!-- Title: erd Pages: 1 -->
<svg width="2311pt" height="682pt"
 viewBox="0.00 0.00 2311.00 681.75" xmlns="http://www.w3.org/2000/svg" xmlns:xlink="http://www.w3.org/1999/xlink">
<g id="graph0" class="graph" transform="scale(1 1) rotate(0) translate(4 677.75)">
<title>erd</title>
<polygon fill="white" stroke="none" points="-4,4 -4,-677.75 2307,-677.75 2307,4 -4,4"/>
<text text-anchor="middle" x="1151.5" y="-641.25" font-family="Times,serif" font-size="30.00" fill="blue">Vote Plan</text>
<!-- proposal_voteplan -->
<g id="node1" class="node">
<title>proposal_voteplan</title>
<polygon fill="#009879" stroke="none" points="0,-399 0,-429 1011,-429 1011,-399 0,-399"/>
<polygon fill="none" stroke="black" points="0,-399 0,-429 1011,-429 1011,-399 0,-399"/>
<text text-anchor="start" x="403.5" y="-408" font-family="Courier bold italic" font-weight="bold" font-size="20.00" fill="white">proposal_voteplan</text>
<polygon fill="none" stroke="black" points="0,-372 0,-399 130,-399 130,-372 0,-372"/>
<text text-anchor="start" x="33.5" y="-379.9" font-family="Courier bold" font-weight="bold" font-size="18.00">Column</text>
<polygon fill="none" stroke="black" points="130,-372 130,-399 189,-399 189,-372 130,-372"/>
<text text-anchor="start" x="138.5" y="-379.9" font-family="Courier bold" font-weight="bold" font-size="18.00">Type</text>
<polygon fill="none" stroke="black" points="189,-372 189,-399 1011,-399 1011,-372 189,-372"/>
<text text-anchor="start" x="542.25" y="-379.9" font-family="Courier bold" font-weight="bold" font-size="18.00">Description</text>
<polygon fill="#54ff9f" stroke="none" points="0,-348 0,-372 130,-372 130,-348 0,-348"/>
<polygon fill="none" stroke="black" points="0,-348 0,-372 130,-372 130,-348 0,-348"/>
<text text-anchor="start" x="3" y="-353.8" font-family="Times,serif" font-size="16.00">row_id</text>
<polygon fill="#54ff9f" stroke="none" points="130,-348 130,-372 189,-372 189,-348 130,-348"/>
<polygon fill="none" stroke="black" points="130,-348 130,-372 189,-372 189,-348 130,-348"/>
<text text-anchor="start" x="132.88" y="-353.8" font-family="Times,serif" font-size="16.00">integer+</text>
<polygon fill="#54ff9f" stroke="none" points="189,-348 189,-372 1011,-372 1011,-348 189,-348"/>
<polygon fill="none" stroke="black" points="189,-348 189,-372 1011,-372 1011,-348 189,-348"/>
<text text-anchor="start" x="192" y="-355.95" font-family="Monospace" font-style="italic" font-size="14.00" fill="#7f7f7f">Synthetic ID of this Voteplan/Proposal M&#45;M relationship.</text>
<polygon fill="none" stroke="black" points="0,-324 0,-348 130,-348 130,-324 0,-324"/>
<text text-anchor="start" x="3" y="-329.8" font-family="Times,serif" font-size="16.00">proposal_id</text>
<polygon fill="none" stroke="black" points="130,-324 130,-348 189,-348 189,-324 130,-324"/>
<text text-anchor="start" x="137" y="-330.8" font-family="Times,serif" font-style="italic" font-size="16.00">integer</text>
<polygon fill="none" stroke="black" points="189,-324 189,-348 1011,-348 1011,-324 189,-324"/>
<text text-anchor="start" x="192" y="-331.95" font-family="Monospace" font-style="italic" font-size="14.00" fill="#7f7f7f">The link to the Proposal primary key that links to this voteplan.</text>
<polygon fill="none" stroke="black" points="0,-300 0,-324 130,-324 130,-300 0,-300"/>
<text text-anchor="start" x="3" y="-305.8" font-family="Times,serif" font-size="16.00">voteplan_id</text>
<polygon fill="none" stroke="black" points="130,-300 130,-324 189,-324 189,-300 130,-300"/>
<text text-anchor="start" x="137" y="-306.8" font-family="Times,serif" font-style="italic" font-size="16.00">integer</text>
<polygon fill="none" stroke="black" points="189,-300 189,-324 1011,-324 1011,-300 189,-300"/>
<text text-anchor="start" x="192" y="-307.95" font-family="Monospace" font-style="italic" font-size="14.00" fill="#7f7f7f">The link to the Voteplan primary key that links to this proposal.</text>
<polygon fill="none" stroke="black" points="0,-276 0,-300 130,-300 130,-276 0,-276"/>
<text text-anchor="start" x="3" y="-281.8" font-family="Times,serif" font-size="16.00">bb_proposal_index</text>
<polygon fill="none" stroke="black" points="130,-276 130,-300 189,-300 189,-276 130,-276"/>
<text text-anchor="start" x="140.38" y="-282.8" font-family="Times,serif" font-style="italic" font-size="16.00">bigint</text>
<polygon fill="none" stroke="black" points="189,-276 189,-300 1011,-300 1011,-276 189,-276"/>
<text text-anchor="start" x="192" y="-283.95" font-family="Monospace" font-style="italic" font-size="14.00" fill="#7f7f7f">The Index with the voteplan used by the voting ledger/bulletin board that references this proposal.</text>
<polygon fill="#333333" stroke="none" points="0,-254 0,-276 1011,-276 1011,-254 0,-254"/>
<polygon fill="none" stroke="black" points="0,-254 0,-276 1011,-276 1011,-254 0,-254"/>
<text text-anchor="start" x="3" y="-260.7" font-family="Monospace" font-style="italic" font-size="14.00" fill="white">Table to link Proposals to Vote plans in a Many to Many relationship.</text>
</g>
<!-- voteplan -->
<g id="node2" class="node">
<title>voteplan</title>
<polygon fill="#009879" stroke="none" points="1047,-300 1047,-330 1713,-330 1713,-300 1047,-300"/>
<polygon fill="none" stroke="black" points="1047,-300 1047,-330 1713,-330 1713,-300 1047,-300"/>
<text text-anchor="start" x="1332" y="-309" font-family="Courier bold italic" font-weight="bold" font-size="20.00" fill="white">voteplan</text>
<polygon fill="none" stroke="black" points="1047,-273 1047,-300 1153,-300 1153,-273 1047,-273"/>
<text text-anchor="start" x="1068.5" y="-280.9" font-family="Courier bold" font-weight="bold" font-size="18.00">Column</text>
<polygon fill="none" stroke="black" points="1153,-273 1153,-300 1212,-300 1212,-273 1153,-273"/>
<text text-anchor="start" x="1161.5" y="-280.9" font-family="Courier bold" font-weight="bold" font-size="18.00">Type</text>
<polygon fill="none" stroke="black" points="1212,-273 1212,-300 1713,-300 1713,-273 1212,-273"/>
<text text-anchor="start" x="1404.75" y="-280.9" font-family="Courier bold" font-weight="bold" font-size="18.00">Description</text>
<polygon fill="#54ff9f" stroke="none" points="1047,-249 1047,-273 1153,-273 1153,-249 1047,-249"/>
<polygon fill="none" stroke="black" points="1047,-249 1047,-273 1153,-273 1153,-249 1047,-249"/>
<text text-anchor="start" x="1050" y="-254.8" font-family="Times,serif" font-size="16.00">row_id</text>
<polygon fill="#54ff9f" stroke="none" points="1153,-249 1153,-273 1212,-273 1212,-249 1153,-249"/>
<polygon fill="none" stroke="black" points="1153,-249 1153,-273 1212,-273 1212,-249 1153,-249"/>
<text text-anchor="start" x="1155.88" y="-254.8" font-family="Times,serif" font-size="16.00">integer+</text>
<polygon fill="#54ff9f" stroke="none" points="1212,-249 1212,-273 1713,-273 1713,-249 1212,-249"/>
<polygon fill="none" stroke="black" points="1212,-249 1212,-273 1713,-273 1713,-249 1212,-249"/>
<text text-anchor="start" x="1215" y="-256.95" font-family="Monospace" font-style="italic" font-size="14.00" fill="#7f7f7f">Synthetic Unique Key</text>
<polygon fill="none" stroke="black" points="1047,-225 1047,-249 1153,-249 1153,-225 1047,-225"/>
<text text-anchor="start" x="1050" y="-230.8" font-family="Times,serif" font-size="16.00">objective_id</text>
<polygon fill="none" stroke="black" points="1153,-225 1153,-249 1212,-249 1212,-225 1153,-225"/>
<text text-anchor="start" x="1160.38" y="-230.8" font-family="Times,serif" font-size="16.00">integer</text>
<polygon fill="none" stroke="black" points="1212,-225 1212,-249 1713,-249 1713,-225 1212,-225"/>
<text text-anchor="start" x="1215" y="-232.95" font-family="Monospace" font-style="italic" font-size="14.00" fill="#7f7f7f">none</text>
<polygon fill="none" stroke="black" points="1047,-191 1047,-225 1153,-225 1153,-191 1047,-191"/>
<text text-anchor="start" x="1050" y="-202.18" font-family="Times,serif" font-size="16.00">id</text>
<polygon fill="none" stroke="black" points="1153,-191 1153,-225 1212,-225 1212,-191 1153,-191"/>
<text text-anchor="start" x="1158.88" y="-202.18" font-family="Times,serif" font-size="16.00">varchar</text>
<polygon fill="none" stroke="black" points="1212,-191 1212,-225 1713,-225 1713,-191 1212,-191"/>
<text text-anchor="start" x="1215" y="-209.7" font-family="Monospace" font-style="italic" font-size="14.00" fill="#7f7f7f">The ID of the Vote plan in the voting ledger/bulletin board.</text>
<text text-anchor="start" x="1215" y="-195.7" font-family="Monospace" font-style="italic" font-size="14.00" fill="#7f7f7f">A Binary value encoded as hex.</text>
<polygon fill="none" stroke="black" points="1047,-167 1047,-191 1153,-191 1153,-167 1047,-167"/>
<text text-anchor="start" x="1050" y="-172.8" font-family="Times,serif" font-size="16.00">category</text>
<polygon fill="none" stroke="black" points="1153,-167 1153,-191 1212,-191 1212,-167 1153,-167"/>
<text text-anchor="start" x="1170.5" y="-172.8" font-family="Times,serif" font-size="16.00">text</text>
<polygon fill="none" stroke="black" points="1212,-167 1212,-191 1713,-191 1713,-167 1212,-167"/>
<text text-anchor="start" x="1215" y="-174.95" font-family="Monospace" font-style="italic" font-size="14.00" fill="#7f7f7f">The kind of vote which can be cast on this vote plan.</text>
<polygon fill="none" stroke="black" points="1047,-133 1047,-167 1153,-167 1153,-133 1047,-133"/>
<text text-anchor="start" x="1050" y="-144.18" font-family="Times,serif" font-size="16.00">encryption_key</text>
<polygon fill="none" stroke="black" points="1153,-133 1153,-167 1212,-167 1212,-133 1153,-133"/>
<text text-anchor="start" x="1157.38" y="-145.18" font-family="Times,serif" font-style="italic" font-size="16.00">varchar</text>
<polygon fill="none" stroke="black" points="1212,-133 1212,-167 1713,-167 1713,-133 1212,-133"/>
<text text-anchor="start" x="1215" y="-151.7" font-family="Monospace" font-style="italic" font-size="14.00" fill="#7f7f7f">The public encryption key used.</text>
<text text-anchor="start" x="1215" y="-137.7" font-family="Monospace" font-style="italic" font-size="14.00" fill="#7f7f7f">ONLY if required by the voteplan category.</text>
<polygon fill="none" stroke="black" points="1047,-109 1047,-133 1153,-133 1153,-109 1047,-109"/>
<text text-anchor="start" x="1050" y="-114.8" font-family="Times,serif" font-size="16.00">group_id</text>
<polygon fill="none" stroke="black" points="1153,-109 1153,-133 1212,-133 1212,-109 1153,-109"/>
<text text-anchor="start" x="1171.25" y="-115.8" font-family="Times,serif" font-style="italic" font-size="16.00">text</text>
<polygon fill="none" stroke="black" points="1212,-109 1212,-133 1713,-133 1713,-109 1212,-109"/>
<text text-anchor="start" x="1215" y="-116.95" font-family="Monospace" font-style="italic" font-size="14.00" fill="#7f7f7f">The identifier of voting power token used withing this plan.</text>
<polygon fill="none" stroke="black" points="1047,-85 1047,-109 1153,-109 1153,-85 1047,-85"/>
<text text-anchor="start" x="1050" y="-90.8" font-family="Times,serif" font-size="16.00">token_id</text>
<polygon fill="none" stroke="black" points="1153,-85 1153,-109 1212,-109 1212,-85 1153,-85"/>
<text text-anchor="start" x="1171.25" y="-91.8" font-family="Times,serif" font-style="italic" font-size="16.00">text</text>
<polygon fill="none" stroke="black" points="1212,-85 1212,-109 1713,-109 1713,-85 1212,-85"/>
<text text-anchor="start" x="1215" y="-92.95" font-family="Monospace" font-style="italic" font-size="14.00" fill="#7f7f7f">none</text>
<polygon fill="#333333" stroke="none" points="1047,-63 1047,-85 1713,-85 1713,-63 1047,-63"/>
<polygon fill="none" stroke="black" points="1047,-63 1047,-85 1713,-85 1713,-63 1047,-63"/>
<text text-anchor="start" x="1050" y="-69.7" font-family="Monospace" font-style="italic" font-size="14.00" fill="white">All Vote plans.</text>
</g>
<!-- proposal_voteplan&#45;&gt;voteplan -->
<g id="edge5" class="edge">
<title>proposal_voteplan:voteplan_id_out&#45;&gt;voteplan:row_id</title>
<path fill="none" stroke="black" d="M1011,-311.5C1033.68,-311.5 1024.7,-277.21 1036.5,-265.42"/>
<polygon fill="black" stroke="black" points="1037.44,-268.81 1045.58,-262.03 1034.99,-262.25 1037.44,-268.81"/>
</g>
<!-- proposal -->
<g id="node6" class="node">
<title>proposal</title>
<polygon fill="#009879" stroke="none" points="1329,-425 1329,-455 1431,-455 1431,-425 1329,-425"/>
<polygon fill="none" stroke="black" points="1329,-425 1329,-455 1431,-455 1431,-425 1329,-425"/>
<text text-anchor="start" x="1332" y="-434" font-family="Courier bold italic" font-weight="bold" font-size="20.00" fill="white">proposal</text>
<polygon fill="none" stroke="black" points="1329,-398 1329,-425 1431,-425 1431,-398 1329,-398"/>
<text text-anchor="start" x="1348.5" y="-405.9" font-family="Courier bold" font-weight="bold" font-size="18.00">Column</text>
<polygon fill="none" stroke="black" points="1329,-374 1329,-398 1431,-398 1431,-374 1329,-374"/>
<text text-anchor="start" x="1332" y="-379.8" font-family="Times,serif" font-size="16.00">row_id</text>
<polygon fill="#333333" stroke="none" points="1329,-352 1329,-374 1431,-374 1431,-352 1329,-352"/>
<polygon fill="none" stroke="black" points="1329,-352 1329,-374 1431,-374 1431,-352 1329,-352"/>
<text text-anchor="start" x="1332" y="-358.7" font-family="Monospace" font-style="italic" font-size="14.00" fill="white">ABRIDGED</text>
</g>
<!-- proposal_voteplan&#45;&gt;proposal -->
<g id="edge4" class="edge">
<title>proposal_voteplan:proposal_id_out&#45;&gt;proposal:row_id</title>
<path fill="none" stroke="black" d="M1011,-335.5C1044.01,-335.5 1257.03,-378.35 1316.76,-384.71"/>
<polygon fill="black" stroke="black" points="1316.27,-388.19 1326.49,-385.39 1316.76,-381.21 1316.27,-388.19"/>
</g>
<!-- voteplan_category -->
<g id="node3" class="node">
<title>voteplan_category</title>
<polygon fill="#009879" stroke="none" points="1749,-218 1749,-248 2303,-248 2303,-218 1749,-218"/>
<polygon fill="none" stroke="black" points="1749,-218 1749,-248 2303,-248 2303,-218 1749,-218"/>
<text text-anchor="start" x="1924" y="-227" font-family="Courier bold italic" font-weight="bold" font-size="20.00" fill="white">voteplan_category</text>
<polygon fill="none" stroke="black" points="1749,-191 1749,-218 1827,-218 1827,-191 1749,-191"/>
<text text-anchor="start" x="1756.5" y="-198.9" font-family="Courier bold" font-weight="bold" font-size="18.00">Column</text>
<polygon fill="none" stroke="black" points="1827,-191 1827,-218 1885,-218 1885,-191 1827,-191"/>
<text text-anchor="start" x="1835" y="-198.9" font-family="Courier bold" font-weight="bold" font-size="18.00">Type</text>
<polygon fill="none" stroke="black" points="1885,-191 1885,-218 2303,-218 2303,-191 1885,-191"/>
<text text-anchor="start" x="2036.25" y="-198.9" font-family="Courier bold" font-weight="bold" font-size="18.00">Description</text>
<polygon fill="#54ff9f" stroke="none" points="1749,-167 1749,-191 1827,-191 1827,-167 1749,-167"/>
<polygon fill="none" stroke="black" points="1749,-167 1749,-191 1827,-191 1827,-167 1749,-167"/>
<text text-anchor="start" x="1752" y="-172.8" font-family="Times,serif" font-size="16.00">name</text>
<polygon fill="#54ff9f" stroke="none" points="1827,-167 1827,-191 1885,-191 1885,-167 1827,-167"/>
<polygon fill="none" stroke="black" points="1827,-167 1827,-191 1885,-191 1885,-167 1827,-167"/>
<text text-anchor="start" x="1844" y="-172.8" font-family="Times,serif" font-size="16.00">text</text>
<polygon fill="#54ff9f" stroke="none" points="1885,-167 1885,-191 2303,-191 2303,-167 1885,-167"/>
<polygon fill="none" stroke="black" points="1885,-167 1885,-191 2303,-191 2303,-167 1885,-167"/>
<text text-anchor="start" x="1888" y="-174.95" font-family="Monospace" font-style="italic" font-size="14.00" fill="#7f7f7f">The UNIQUE name of this voteplan category.</text>
<polygon fill="none" stroke="black" points="1749,-143 1749,-167 1827,-167 1827,-143 1749,-143"/>
<text text-anchor="start" x="1752" y="-148.8" font-family="Times,serif" font-size="16.00">public_key</text>
<polygon fill="none" stroke="black" points="1827,-143 1827,-167 1885,-167 1885,-143 1827,-143"/>
<text text-anchor="start" x="1829.75" y="-149.8" font-family="Times,serif" font-style="italic" font-size="16.00">boolean</text>
<polygon fill="none" stroke="black" points="1885,-143 1885,-167 2303,-167 2303,-143 1885,-143"/>
<text text-anchor="start" x="1888" y="-150.95" font-family="Monospace" font-style="italic" font-size="14.00" fill="#7f7f7f">Does this vote plan category require a public key.</text>
<polygon fill="#333333" stroke="none" points="1749,-121 1749,-143 2303,-143 2303,-121 1749,-121"/>
<polygon fill="none" stroke="black" points="1749,-121 1749,-143 2303,-143 2303,-121 1749,-121"/>
<text text-anchor="start" x="1752" y="-127.7" font-family="Monospace" font-style="italic" font-size="14.00" fill="white">The category of vote plan currently supported.</text>
</g>
<!-- voteplan&#45;&gt;voteplan_category -->
<g id="edge2" class="edge">
<title>voteplan:category_out&#45;&gt;voteplan_category:name</title>
<path fill="none" stroke="black" d="M1713,-178.5C1724.38,-178.5 1729.68,-178.5 1737.55,-178.5"/>
<polygon fill="black" stroke="black" points="1737.49,-182 1747.49,-178.5 1737.49,-175 1737.49,-182"/>
</g>
<!-- voting_group -->
<g id="node4" class="node">
<title>voting_group</title>
<polygon fill="#009879" stroke="none" points="1849,-73 1849,-103 2203,-103 2203,-73 1849,-73"/>
<polygon fill="none" stroke="black" points="1849,-73 1849,-103 2203,-103 2203,-73 1849,-73"/>
<text text-anchor="start" x="1954" y="-82" font-family="Courier bold italic" font-weight="bold" font-size="20.00" fill="white">voting_group</text>
<polygon fill="none" stroke="black" points="1849,-46 1849,-73 1918,-73 1918,-46 1849,-46"/>
<text text-anchor="start" x="1852" y="-53.9" font-family="Courier bold" font-weight="bold" font-size="18.00">Column</text>
<polygon fill="none" stroke="black" points="1918,-46 1918,-73 1966,-73 1966,-46 1918,-46"/>
<text text-anchor="start" x="1921" y="-53.9" font-family="Courier bold" font-weight="bold" font-size="18.00">Type</text>
<polygon fill="none" stroke="black" points="1966,-46 1966,-73 2203,-73 2203,-46 1966,-46"/>
<text text-anchor="start" x="2026.75" y="-53.9" font-family="Courier bold" font-weight="bold" font-size="18.00">Description</text>
<polygon fill="#54ff9f" stroke="none" points="1849,-22 1849,-46 1918,-46 1918,-22 1849,-22"/>
<polygon fill="none" stroke="black" points="1849,-22 1849,-46 1918,-46 1918,-22 1849,-22"/>
<text text-anchor="start" x="1852" y="-27.8" font-family="Times,serif" font-size="16.00">name</text>
<polygon fill="#54ff9f" stroke="none" points="1918,-22 1918,-46 1966,-46 1966,-22 1918,-22"/>
<polygon fill="none" stroke="black" points="1918,-22 1918,-46 1966,-46 1966,-22 1918,-22"/>
<text text-anchor="start" x="1930" y="-27.8" font-family="Times,serif" font-size="16.00">text</text>
<polygon fill="#54ff9f" stroke="none" points="1966,-22 1966,-46 2203,-46 2203,-22 1966,-22"/>
<polygon fill="none" stroke="black" points="1966,-22 1966,-46 2203,-46 2203,-22 1966,-22"/>
<text text-anchor="start" x="1969" y="-29.95" font-family="Monospace" font-style="italic" font-size="14.00" fill="#7f7f7f">The ID of this voting group.</text>
<polygon fill="#333333" stroke="none" points="1849,0 1849,-22 2203,-22 2203,0 1849,0"/>
<polygon fill="none" stroke="black" points="1849,0 1849,-22 2203,-22 2203,0 1849,0"/>
<text text-anchor="start" x="1852" y="-6.7" font-family="Monospace" font-style="italic" font-size="14.00" fill="white">All Groups.</text>
</g>
<!-- voteplan&#45;&gt;voting_group -->
<g id="edge3" class="edge">
<title>voteplan:group_id_out&#45;&gt;voting_group:name</title>
<path fill="none" stroke="black" d="M1713,-120.5C1780.34,-120.5 1777.25,-43.08 1836.6,-34.31"/>
<polygon fill="black" stroke="black" points="1836.76,-37.8 1846.49,-33.61 1836.27,-30.82 1836.76,-37.8"/>
</g>
<!-- objective -->
<g id="node5" class="node">
<title>objective</title>
<polygon fill="#009879" stroke="none" points="1969,-343 1969,-373 2083,-373 2083,-343 1969,-343"/>
<polygon fill="none" stroke="black" points="1969,-343 1969,-373 2083,-373 2083,-343 1969,-343"/>
<text text-anchor="start" x="1972" y="-352" font-family="Courier bold italic" font-weight="bold" font-size="20.00" fill="white">objective</text>
<polygon fill="none" stroke="black" points="1969,-316 1969,-343 2083,-343 2083,-316 1969,-316"/>
<text text-anchor="start" x="1994.5" y="-323.9" font-family="Courier bold" font-weight="bold" font-size="18.00">Column</text>
<polygon fill="none" stroke="black" points="1969,-292 1969,-316 2083,-316 2083,-292 1969,-292"/>
<text text-anchor="start" x="1972" y="-297.8" font-family="Times,serif" font-size="16.00">row_id</text>
<polygon fill="#333333" stroke="none" points="1969,-270 1969,-292 2083,-292 2083,-270 1969,-270"/>
<polygon fill="none" stroke="black" points="1969,-270 1969,-292 2083,-292 2083,-270 1969,-270"/>
<text text-anchor="start" x="1972" y="-276.7" font-family="Monospace" font-style="italic" font-size="14.00" fill="white">ABRIDGED</text>
</g>
<!-- voteplan&#45;&gt;objective -->
<g id="edge1" class="edge">
<title>voteplan:objective_id_out&#45;&gt;objective:row_id</title>
<path fill="none" stroke="black" d="M1713,-237.5C1731.09,-237.5 1732,-250.32 1749,-256.5 1838.91,-289.17 1866.32,-302.45 1956.66,-303.44"/>
<polygon fill="black" stroke="black" points="1956.47,-306.94 1966.49,-303.49 1956.51,-299.94 1956.47,-306.94"/>
</g>
<!-- LEGEND -->
<g id="node7" class="node">
<title>LEGEND</title>
<polygon fill="Pink" stroke="none" points="396.5,-598 396.5,-628 614.5,-628 614.5,-598 396.5,-598"/>
<polygon fill="none" stroke="black" points="396.5,-598 396.5,-628 614.5,-628 614.5,-598 396.5,-598"/>
<text text-anchor="start" x="469.5" y="-607" font-family="Courier bold italic" font-weight="bold" font-size="20.00" fill="white">LEGEND</text>
<polygon fill="none" stroke="black" points="396.5,-571 396.5,-598 534.5,-598 534.5,-571 396.5,-571"/>
<text text-anchor="start" x="444.5" y="-578.9" font-family="Courier bold" font-weight="bold" font-size="18.00">Type</text>
<polygon fill="none" stroke="black" points="534.5,-571 534.5,-598 614.5,-598 614.5,-571 534.5,-571"/>
<text text-anchor="start" x="537.75" y="-578.9" font-family="Courier bold" font-weight="bold" font-size="18.00">Example</text>
<polygon fill="#54ff9f" stroke="none" points="396.5,-547 396.5,-571 534.5,-571 534.5,-547 396.5,-547"/>
<polygon fill="none" stroke="black" points="396.5,-547 396.5,-571 534.5,-571 534.5,-547 396.5,-547"/>
<text text-anchor="start" x="399.5" y="-552.8" font-family="Times,serif" font-size="16.00">Primary Key</text>
<polygon fill="#54ff9f" stroke="none" points="534.5,-547 534.5,-571 614.5,-571 614.5,-547 534.5,-547"/>
<polygon fill="none" stroke="black" points="534.5,-547 534.5,-571 614.5,-571 614.5,-547 534.5,-547"/>
<text text-anchor="start" x="547.88" y="-552.8" font-family="Times,serif" font-size="16.00">integer+</text>
<polygon fill="none" stroke="black" points="396.5,-523 396.5,-547 534.5,-547 534.5,-523 396.5,-523"/>
<text text-anchor="start" x="399.5" y="-528.8" font-family="Times,serif" font-size="16.00">Standard Field</text>
<polygon fill="none" stroke="black" points="534.5,-523 534.5,-547 614.5,-547 614.5,-523 534.5,-523"/>
<text text-anchor="start" x="557.25" y="-528.8" font-family="Times,serif" font-size="16.00">bytea</text>
<polygon fill="none" stroke="black" points="396.5,-499 396.5,-523 534.5,-523 534.5,-499 396.5,-499"/>
<text text-anchor="start" x="399.5" y="-504.8" font-family="Times,serif" font-size="16.00">Nullable Field</text>
<polygon fill="none" stroke="black" points="534.5,-499 534.5,-523 614.5,-523 614.5,-499 534.5,-499"/>
<text text-anchor="start" x="563.25" y="-505.8" font-family="Times,serif" font-style="italic" font-size="16.00">text</text>
<polygon fill="none" stroke="black" points="396.5,-475 396.5,-499 534.5,-499 534.5,-475 396.5,-475"/>
<text text-anchor="start" x="399.5" y="-480.8" font-family="Times,serif" font-size="16.00">Sized Field</text>
<polygon fill="none" stroke="black" points="534.5,-475 534.5,-499 614.5,-499 614.5,-475 534.5,-475"/>
<text text-anchor="start" x="537.38" y="-480.8" font-family="Times,serif" font-size="16.00">varchar(32)</text>
<polygon fill="none" stroke="black" points="396.5,-451 396.5,-475 534.5,-475 534.5,-451 396.5,-451"/>
<text text-anchor="start" x="399.5" y="-456.8" font-family="Times,serif" font-size="16.00">Autoincrement Field</text>
<polygon fill="none" stroke="black" points="534.5,-451 534.5,-475 614.5,-475 614.5,-451 534.5,-451"/>
<text text-anchor="start" x="547.88" y="-456.8" font-family="Times,serif" font-size="16.00">integer+</text>
</g>
</g>
</svg>
